<?xml version="1.0" standalone="no"?>
<!DOCTYPE svg PUBLIC "-//W3C//DTD SVG 1.1//EN" "http://www.w3.org/Graphics/SVG/1.1/DTD/svg11.dtd" >
<svg xmlns="http://www.w3.org/2000/svg" xmlns:xlink="http://www.w3.org/1999/xlink" version="1.1">
<metadata>
Created by FontForge 20170731 at Wed Aug 23 19:53:04 2017
 By Aleksey,,,
copyright missing
</metadata>
<defs>
<font id="PoppinsVN-400" horiz-adv-x="674" >
  <font-face 
    font-family="PoppinsVN 400"
    font-weight="400"
    font-stretch="normal"
    units-per-em="1000"
    panose-1="0 0 5 0 0 0 0 0 0 0"
    ascent="740"
    descent="-260"
    x-height="549"
    cap-height="705"
    bbox="-326 -269 1101 1081"
    underline-thickness="50"
    underline-position="-200"
    unicode-range="U+0020-FB02"
  />
<missing-glyph horiz-adv-x="500" 
d="M410 740v-1000h-317v1000h317zM333 673h-165v-33h65v-37h-66v-33h166v33h-66v37h66v33zM267 544h-100v-104h166v34h-66v70zM233 510v-36h-33v36h33zM333 413h-166v-33h66v-37h-66v-33h100v70h66v33zM333 353h-33v-66h-133v-34h166v100zM333 231h-100v-56h34v23h33v-47
h-100v80h-33v-113h166v113zM333 58h-166v-113h166v113zM300 25v-47h-100v47h100zM333 -78h-166v-33h70l-70 -47v-33h166v33h-102l70 47h32v33z" />
    <glyph glyph-name=".notdef" horiz-adv-x="500" 
d="M410 740v-1000h-317v1000h317zM333 673h-165v-33h65v-37h-66v-33h166v33h-66v37h66v33zM267 544h-100v-104h166v34h-66v70zM233 510v-36h-33v36h33zM333 413h-166v-33h66v-37h-66v-33h100v70h66v33zM333 353h-33v-66h-133v-34h166v100zM333 231h-100v-56h34v23h33v-47
h-100v80h-33v-113h166v113zM333 58h-166v-113h166v113zM300 25v-47h-100v47h100zM333 -78h-166v-33h70l-70 -47v-33h166v33h-102l70 47h32v33z" />
    <glyph glyph-name=".null" horiz-adv-x="0" 
 />
    <glyph glyph-name="nonmarkingreturn" horiz-adv-x="333" 
 />
    <glyph glyph-name="space" unicode=" " horiz-adv-x="247" 
 />
    <glyph glyph-name="exclam" unicode="!" horiz-adv-x="299" 
d="M102 722h101l-13 -515h-75zM98 107h111v-107h-111v107z" />
    <glyph glyph-name="quotedbl" unicode="&#x22;" horiz-adv-x="300" 
d="M42 797h82l-9 -199h-63zM176 797h83l-10 -199h-62z" />
    <glyph glyph-name="numbersign" unicode="#" horiz-adv-x="810" 
d="M781 449h-161l-35 -162h140v-83h-157l-44 -204h-86l44 204h-211l-44 -204h-86l44 204h-156v83h173l35 162h-151v84h169l44 207h86l-44 -207h211l44 207h86l-44 -207h143v-84zM499 287l35 162h-211l-35 -162h211z" />
    <glyph glyph-name="dollar" unicode="$" horiz-adv-x="582" 
d="M305 395q4 -1 13 -4q29 -9 44.5 -14t42.5 -16t41.5 -20.5t33.5 -25.5t29 -34t17 -43t7 -55q0 -78 -57.5 -134t-167.5 -56h-3v-80h-31v82q-95 9 -155 62.5t-67 132.5h97q4 -42 36.5 -78.5t88.5 -45.5v256q-105 32 -142 55q-83 50 -83 152q0 83 61.5 134t163.5 51v86h31
v-87q93 -7 148 -57t65 -121h-98q-7 38 -36 68t-79 38v-246zM147 533q0 -51 32.5 -79t94.5 -49v238q-58 0 -92.5 -28.5t-34.5 -81.5zM306 64q62 0 96 33t34 84q0 53 -34 82t-97 49v-248h1z" />
    <glyph glyph-name="percent" unicode="%" horiz-adv-x="659" 
d="M179 715q63 0 104.5 -40.5t41.5 -107.5t-41 -107t-105 -40t-105 40t-41 107t41 107.5t105 40.5zM487 706h90l-405 -706h-90zM97 567q0 -40 22.5 -65t58.5 -25q37 0 60 25t23 65t-23 65t-60 25q-36 0 -58.5 -25t-22.5 -65zM481 286q64 0 104.5 -40t40.5 -107t-40.5 -107.5
t-104.5 -40.5q-63 0 -104.5 40.5t-41.5 107.5t41 107t105 40zM399 139q0 -40 22.5 -65t59.5 -25q36 0 58.5 25t22.5 65t-22.5 65t-58.5 25q-37 0 -59.5 -25t-22.5 -65z" />
    <glyph glyph-name="ampersand" unicode="&#x26;" horiz-adv-x="682" 
d="M675 0h-93l-154 170q0 -16 -6 -40q-11 -61 -59 -99t-116 -38q-94 0 -153 58t-59 152q0 93 52 146.5t129 53.5q8 0 22 -2q-5 7 -15 19q-28 34 -42.5 64.5t-14.5 71.5q0 64 47.5 110t132.5 46q86 0 131.5 -43t53.5 -108q8 -32 5 -60h-86v30q-1 50 -28 77.5t-75 27.5
q-44 0 -69.5 -26t-25.5 -63q0 -31 11.5 -53t37.5 -52zM247 71q55 0 90.5 35t35.5 90q0 57 -42.5 96.5t-96.5 39.5q-52 0 -85.5 -33t-33.5 -94q0 -62 38 -98t94 -36z" />
    <glyph glyph-name="quotesingle" unicode="'" horiz-adv-x="171" 
d="M42 797h87l-12 -199h-63z" />
    <glyph glyph-name="parenleft" unicode="(" horiz-adv-x="383" 
d="M44 403q0 192 72.5 343t191.5 243h89v-9q-265 -215 -265 -577q0 -363 265 -578v-9h-89q-119 93 -191.5 243t-72.5 344z" />
    <glyph glyph-name="parenright" unicode=")" horiz-adv-x="384" 
d="M340 403q0 -193 -72.5 -343.5t-191.5 -243.5h-89v9q264 216 264 578q0 361 -264 577v9h89q119 -92 191.5 -243t72.5 -343z" />
    <glyph glyph-name="asterisk" unicode="*" horiz-adv-x="476" 
d="M264 582l120 91l40 -72l-143 -54l143 -54l-41 -72l-119 91l20 -152h-82l17 152l-121 -94l-42 75l142 54l-142 54l42 73l121 -92l-18 152h83z" />
    <glyph glyph-name="plus" unicode="+" horiz-adv-x="576" 
d="M543 407v-83h-211v-213h-89v213h-210v83h210v214h89v-214h211z" />
    <glyph glyph-name="comma" unicode="," horiz-adv-x="175" 
d="M126 67q14 -51 13.5 -95t-27.5 -73t-76 -29v39q48 0 48 56v9h-51v93h93z" />
    <glyph glyph-name="hyphen" unicode="-" horiz-adv-x="491" 
d="M-15 405h400v-77h-400v77z" />
    <glyph glyph-name="period" unicode="." horiz-adv-x="171" 
d="M30 107h110v-107h-110v107z" />
    <glyph glyph-name="slash" unicode="/" horiz-adv-x="373" 
d="M280 942h89l-274 -1113h-88z" />
    <glyph glyph-name="zero" unicode="0" horiz-adv-x="614" 
d="M57 357q0 -82 12 -144t39.5 -112.5t77.5 -77t121 -26.5t121.5 26.5t78 77t39.5 112.5t12 144q0 81 -12 143t-39.5 112t-78 76.5t-121.5 26.5t-121 -26.5t-77.5 -76.5t-39.5 -112t-12 -143zM468 357q0 -64 -6 -109t-22.5 -85t-49.5 -60t-83 -20q-40 0 -69 14t-46.5 37.5
t-27.5 60t-13.5 74.5t-3.5 88q0 63 6 107.5t22.5 84t49 59.5t82.5 20t83 -20t49.5 -59.5t22.5 -84t6 -107.5z" />
    <glyph glyph-name="one" unicode="1" horiz-adv-x="287" 
d="M119 620h-106v85h202v-705h-96v620z" />
    <glyph glyph-name="two" unicode="2" horiz-adv-x="567" 
d="M42 70q170 114 272 226.5t102 209.5q0 133 -129 133q-70 0 -106 -44.5t-40 -122.5h-90q7 118 73 181.5t170 63.5q99 0 157 -53t58 -150q0 -61 -31.5 -126.5t-83 -122.5t-109 -104t-116.5 -82h358v-75h-485v66z" />
    <glyph glyph-name="three" unicode="3" horiz-adv-x="589" 
d="M299 724q102 0 159 -52t57 -133q0 -66 -38.5 -111t-112.5 -54v-6q164 -42 164 -178q0 -87 -58 -142t-167 -55t-176.5 56.5t-79.5 165.5h90q9 -66 50.5 -105t112.5 -39q67 0 103 34.5t36 89.5q0 66 -51.5 100.5t-146.5 34.5h-24v76h24q184 0 184 123q0 54 -34 86t-94 32
t-101 -34.5t-48 -101.5h-89q7 100 69.5 156.5t170.5 56.5z" />
    <glyph glyph-name="four" unicode="4" horiz-adv-x="620" 
d="M399 162h-368v76l362 472h98v-469h104v-79h-104v-162h-92v162zM405 241v358l-278 -358h278z" />
    <glyph glyph-name="five" unicode="5" horiz-adv-x="616" 
d="M532 714v-81h-362v-236q25 34 72 54t103 20q111 0 166 -65.5t55 -163.5q0 -109 -61 -178t-179 -69q-106 0 -173 57.5t-75 154.5h90q11 -62 51.5 -96.5t102.5 -34.5q77 0 116 46t39 121q0 73 -40 114t-113 41q-52 0 -91 -22.5t-59 -60.5h-88v399h446z" />
    <glyph glyph-name="six" unicode="6" horiz-adv-x="621" 
d="M455 517q-18 132 -138 132q-90 0 -133.5 -74.5t-37.5 -237.5q15 60 69 95.5t127 35.5q105 0 164.5 -63t59.5 -176q0 -102 -60.5 -169t-177.5 -67q-64 0 -112 19.5t-76.5 50.5t-46 78.5t-23.5 95.5t-6 109q0 188 60.5 282.5t197.5 94.5q101 0 155.5 -57t64.5 -149h-87z
M156 244q0 -73 42.5 -122.5t127.5 -49.5q70 0 112 41.5t42 116.5q0 81 -42 123.5t-116 42.5q-66 0 -116 -39.5t-50 -112.5z" />
    <glyph glyph-name="seven" unicode="7" horiz-adv-x="506" 
d="M476 709v-70l-267 -639h-96l271 630h-370v79h462z" />
    <glyph glyph-name="eight" unicode="8" horiz-adv-x="625" 
d="M71 539q0 81 64 134.5t178 53.5q113 0 177 -53.5t64 -134.5q0 -59 -32 -102t-97 -61q70 -19 109 -66t39 -116q0 -100 -71 -157t-189 -57t-189 57t-71 157q0 69 38.5 116t108.5 66q-65 18 -97 61t-32 102zM161 526q0 -60 41 -92.5t111 -32.5t110.5 32.5t40.5 92.5
t-41 92.5t-110 32.5t-110.5 -32.5t-41.5 -92.5zM142 199q0 -68 46 -105.5t125 -37.5q78 0 124 38t46 105q0 68 -48 103t-122 35q-75 0 -123 -35t-48 -103z" />
    <glyph glyph-name="nine" unicode="9" horiz-adv-x="608" 
d="M160 198q19 -131 140 -131q90 0 133 74.5t36 237.5q-14 -60 -68 -96t-127 -36q-105 0 -165 63t-60 176q0 103 60.5 170t177.5 67q80 0 134 -27t81.5 -78.5t38.5 -109.5t11 -135q0 -186 -58 -283.5t-194 -97.5q-101 0 -158.5 57.5t-67.5 148.5h86zM460 472q0 72 -42.5 122
t-127.5 50q-70 0 -112 -42t-42 -117q0 -80 42 -123t115 -43q67 0 117 40t50 113z" />
    <glyph glyph-name="colon" unicode=":" horiz-adv-x="191" 
d="M42 539h110v-107h-110v107zM42 107h110v-107h-110v107z" />
    <glyph glyph-name="semicolon" unicode=";" horiz-adv-x="244" 
d="M79 536h110v-107h-110v107zM174 67q14 -51 13.5 -95t-27.5 -73t-76 -29v39q48 0 48 56v9h-51v93h93z" />
    <glyph glyph-name="less" unicode="&#x3c;" horiz-adv-x="422" 
d="M389 137h-114l-242 229l242 230h114l-242 -230z" />
    <glyph glyph-name="equal" unicode="=" horiz-adv-x="586" 
d="M33 514h520v-83h-520v83zM33 301h520v-83h-520v83z" />
    <glyph glyph-name="greater" unicode="&#x3e;" horiz-adv-x="422" 
d="M275 366l-242 230h114l242 -230l-242 -229h-114z" />
    <glyph glyph-name="question" unicode="?" horiz-adv-x="502" 
d="M254 733q98 0 156.5 -53.5t58.5 -148.5q0 -106 -65.5 -158.5t-179.5 -54.5v-118h-86v180h40q34 0 61 3.5t54 13t45 26t29.5 44t11.5 64.5q0 59 -34.5 93t-93.5 34q-62 0 -99.5 -35t-37.5 -92h-88q-1 91 62 146.5t166 55.5zM127 107h110v-107h-110v107z" />
    <glyph glyph-name="at" unicode="@" horiz-adv-x="1141" 
d="M621 789q228 0 354 -122t126 -330q0 -147 -73 -247t-175 -100q-134 0 -126 134q-74 -134 -215 -134q-100 0 -159.5 72t-53.5 188q5 134 89.5 221t206.5 87q123 0 185.5 -77.5t44.5 -195.5l-22 -133q-7 -45 8 -63.5t48 -18.5q61 0 105 71.5t44 192.5q0 173 -104 276
t-295 103q-147 0 -255 -65t-162 -173t-54 -244q0 -200 112.5 -304.5t319.5 -106.5l-17 -75q-240 4 -372.5 128.5t-132.5 357.5q0 241 159.5 399.5t413.5 158.5zM540 70q81 0 138.5 63.5t59.5 169.5q3 80 -38 127t-119 47q-83 0 -137.5 -62t-56.5 -164q-2 -81 40 -131
t113 -50z" />
    <glyph glyph-name="A" unicode="A" horiz-adv-x="662" 
d="M545 0l-59 163h-310l-59 -163h-98l261 692h103l260 -692h-98zM202 234h258l-129 356z" />
    <glyph glyph-name="B" unicode="B" horiz-adv-x="604" 
d="M417 365q65 -14 105.5 -62t40.5 -113q0 -86 -58.5 -138t-169.5 -52h-262v705h258q106 0 161 -47t55 -129q0 -68 -36.5 -110t-93.5 -54zM164 630v-234h152q67 0 102.5 31t35.5 87q0 54 -35 85t-107 31h-148zM318 76q72 0 111.5 33t39.5 93q0 59 -40.5 92.5t-112.5 33.5
h-152v-252h154z" />
    <glyph glyph-name="C" unicode="C" horiz-adv-x="763" 
d="M385 712q129 0 213 -63.5t116 -173.5h-96q-27 70 -87 111.5t-147 41.5q-105 0 -173 -75t-68 -201q0 -124 68 -199t173 -75q87 0 147 41.5t87 111.5h96q-32 -110 -116 -173.5t-213 -63.5q-149 0 -242.5 100t-93.5 258q0 159 93 259.5t243 100.5z" />
    <glyph glyph-name="D" unicode="D" horiz-adv-x="717" 
d="M667 353q0 -163 -97 -258t-273 -95h-224v705h224q177 0 273.5 -94t96.5 -258zM290 82q138 0 211 71t73 200t-72.5 200.5t-211.5 71.5h-126v-543h126z" />
    <glyph glyph-name="E" unicode="E" horiz-adv-x="506" 
d="M462 631h-298v-241h268v-70h-268v-246h298v-74h-389v705h389v-74z" />
    <glyph glyph-name="F" unicode="F" horiz-adv-x="507" 
d="M73 705h399v-74h-308v-244h261v-71h-261v-316h-91v705z" />
    <glyph glyph-name="G" unicode="G" horiz-adv-x="778" 
d="M393 712q123 0 206.5 -61t112.5 -166h-96q-25 64 -83.5 103t-138.5 39q-110 0 -180.5 -74.5t-70.5 -200.5q0 -129 72 -203.5t187 -74.5q99 0 168.5 63t80.5 172h-277v68h354v-84q-13 -129 -104 -214.5t-230 -85.5q-154 0 -249.5 100t-95.5 259t95.5 259.5t248.5 100.5z
" />
    <glyph glyph-name="H" unicode="H" horiz-adv-x="687" 
d="M522 705h92v-705h-92v326h-358v-326h-91v705h91v-305h358v305z" />
    <glyph glyph-name="I" unicode="I" horiz-adv-x="237" 
d="M73 705h91v-705h-91v705z" />
    <glyph glyph-name="J" unicode="J" horiz-adv-x="484" 
d="M325 705h91v-524q0 -87 -49.5 -137.5t-138.5 -50.5q-96 0 -150.5 56.5t-54.5 158.5h91q0 -61 27 -96.5t83 -35.5q53 0 77 30t24 75v524z" />
    <glyph glyph-name="K" unicode="K" horiz-adv-x="587" 
d="M570 705l-322 -349l322 -356h-112l-294 329v-329h-91v705h91v-327l295 327h111z" />
    <glyph glyph-name="L" unicode="L" horiz-adv-x="434" 
d="M164 705v-634h250v-71h-341v705h91z" />
    <glyph glyph-name="M" unicode="M" horiz-adv-x="852" 
d="M670 693h109v-693h-91v553l-221 -553h-81l-222 551v-551h-91v693h109l246 -582z" />
    <glyph glyph-name="N" unicode="N" horiz-adv-x="694" 
d="M621 705v-705h-91l-366 557v-557h-91v705h91l366 -558v558h91z" />
    <glyph glyph-name="O" unicode="O" horiz-adv-x="791" 
d="M396 714q149 0 247 -101.5t98 -259.5t-98 -259.5t-247 -101.5q-150 0 -248.5 101.5t-98.5 259.5t98.5 259.5t248.5 101.5zM396 629q-111 0 -182 -75t-71 -201t71 -201t182 -75q110 0 181 75.5t71 200.5q0 126 -71 201t-181 75z" />
    <glyph glyph-name="P" unicode="P" horiz-adv-x="571" 
d="M297 284h-133v-284h-91v705h224q121 0 181 -56.5t60 -154.5q0 -99 -62 -154.5t-179 -55.5zM289 360q156 0 156 134q0 66 -36.5 100.5t-119.5 34.5h-125v-269h125z" />
    <glyph glyph-name="Q" unicode="Q" horiz-adv-x="791" 
d="M755 -137h-115l-142 143q-50 -14 -102 -14q-150 0 -248.5 101.5t-98.5 259.5t98.5 259.5t248.5 101.5q149 0 247 -101.5t98 -259.5q0 -105 -45 -187.5t-124 -127.5zM143 353q0 -126 71 -201t182 -75q110 0 181 75.5t71 200.5q0 126 -71 201t-181 75q-111 0 -182 -75
t-71 -201z" />
    <glyph glyph-name="R" unicode="R" horiz-adv-x="583" 
d="M550 0h-103l-184 288h-99v-288h-91v705h232q120 0 180 -57.5t60 -152.5q0 -86 -48 -138.5t-139 -65.5zM164 626v-272h133q155 0 155 136t-155 136h-133z" />
    <glyph glyph-name="S" unicode="S" horiz-adv-x="568" 
d="M519 183q0 -78 -56 -134t-162 -56q-105 0 -173 55t-76 142h97q5 -48 43.5 -86t105.5 -38q60 0 92 32t32 82q0 54 -38.5 86t-93 49t-109.5 36t-93.5 63t-38.5 115q0 83 59.5 134t159.5 51q104 0 165 -50.5t71 -128.5h-98q-8 42 -43 74t-95 32q-55 0 -88 -28.5t-33 -80.5
q0 -38 20.5 -64.5t53.5 -41.5t72.5 -27t79 -27.5t72.5 -36.5t53.5 -59.5t20.5 -92.5z" />
    <glyph glyph-name="T" unicode="T" horiz-adv-x="522" 
d="M16 705h489v-74h-199v-631h-91v631h-199v74z" />
    <glyph glyph-name="U" unicode="U" horiz-adv-x="661" 
d="M68 705h91v-423q0 -104 46 -153.5t127 -49.5q80 0 125 50t45 153v423h91v-423q0 -144 -71.5 -216.5t-191.5 -72.5q-119 0 -190.5 72.5t-71.5 216.5v423z" />
    <glyph glyph-name="V" unicode="V" horiz-adv-x="670" 
d="M19 705h100l215 -604l218 604h99l-259 -705h-115z" />
    <glyph glyph-name="W" unicode="W" horiz-adv-x="974" 
d="M840 705h100l-179 -705h-111l-163 576l-163 -576h-111l-180 705h101l135 -599l167 599h101l167 -597z" />
    <glyph glyph-name="X" unicode="X" horiz-adv-x="594" 
d="M574 0h-108l-177 279l-161 -279h-105l215 359l-219 346h109l173 -274l162 274h105l-216 -353z" />
    <glyph glyph-name="Y" unicode="Y" horiz-adv-x="593" 
d="M470 705h104l-231 -438v-267h-92v267l-232 438h106l173 -341z" />
    <glyph glyph-name="Z" unicode="Z" horiz-adv-x="538" 
d="M491 633l-349 -558h355v-75h-457v72l349 558h-340v75h442v-72z" />
    <glyph glyph-name="bracketleft" unicode="[" horiz-adv-x="330" 
d="M89 942h196v-75h-110v-963h110v-75h-196v1113z" />
    <glyph glyph-name="backslash" unicode="\" horiz-adv-x="617" 
d="M493 -171h-89l-314 1113h90z" />
    <glyph glyph-name="bracketright" unicode="]" horiz-adv-x="329" 
d="M241 -171h-196v75h110v963h-110v75h196v-1113z" />
    <glyph glyph-name="asciicircum" unicode="^" horiz-adv-x="625" 
d="M314 584l-188 -414h-91l235 523h85l235 -523h-91z" />
    <glyph glyph-name="underscore" unicode="_" horiz-adv-x="615" 
d="M43 -34h532v-89h-532v89z" />
    <glyph glyph-name="grave" unicode="`" horiz-adv-x="287" 
d="M37 767l197 -119v-56l-197 111v64z" />
    <glyph glyph-name="a" unicode="a" 
d="M298 556q80 0 135.5 -40t77.5 -107v140h91v-549h-91v140q-22 -67 -77.5 -107t-135.5 -40q-111 0 -181.5 76t-70.5 205q0 130 70 206t182 76zM324 475q-84 0 -134.5 -53.5t-50.5 -147.5t50.5 -147.5t134.5 -53.5q82 0 134.5 55.5t52.5 145.5q0 91 -52.5 146t-134.5 55z
" />
    <glyph glyph-name="b" unicode="b" 
d="M376 556q112 0 182 -76t70 -206q0 -129 -70.5 -205t-181.5 -76q-80 0 -135.5 40.5t-76.5 106.5v-140h-91v740h91v-331q21 66 76.5 106.5t135.5 40.5zM350 475q-82 0 -134.5 -55t-52.5 -146q0 -90 53 -145.5t134 -55.5q85 0 135.5 53.5t50.5 147.5t-50.5 147.5
t-135.5 53.5z" />
    <glyph glyph-name="c" unicode="c" horiz-adv-x="621" 
d="M316 556q105 0 174 -56t85 -150h-96q-10 59 -54.5 92.5t-110.5 33.5q-75 0 -125 -51.5t-50 -150.5t50.5 -150.5t124.5 -51.5q66 0 110.5 34t54.5 93h96q-16 -95 -85 -150.5t-174 -55.5q-120 0 -195 75.5t-75 205.5t75 206t195 76z" />
    <glyph glyph-name="d" unicode="d" 
d="M298 556q80 0 135.5 -40t77.5 -107v331h91v-740h-91v140q-22 -67 -77.5 -107t-135.5 -40q-111 0 -181.5 76t-70.5 205q0 130 70 206t182 76zM324 475q-84 0 -134.5 -53.5t-50.5 -147.5t50.5 -147.5t134.5 -53.5q82 0 134.5 55.5t52.5 145.5q0 91 -52.5 146t-134.5 55z
" />
    <glyph glyph-name="e" unicode="e" horiz-adv-x="624" 
d="M578 305q0 -29 -4 -50h-439q3 -94 53.5 -141t123.5 -47q66 0 110.5 33.5t54.5 89.5h97q-15 -87 -85 -142t-173 -55q-120 0 -195 75.5t-75 205.5t75 206t195 76t191 -72.5t71 -178.5zM486 299q5 90 -45.5 136.5t-124.5 46.5q-75 0 -126 -46.5t-55 -136.5h351z" />
    <glyph glyph-name="f" unicode="f" horiz-adv-x="342" 
d="M316 679q-73 1 -101.5 -25t-28.5 -90v-15h130v-80h-130v-469h-91v469h-79v80h79v22q0 197 221 188v-80z" />
    <glyph glyph-name="g" unicode="g" 
d="M298 556q80 0 135.5 -40t77.5 -107v140h91v-558q0 -116 -70.5 -188t-186.5 -72q-111 0 -181 53.5t-89 144.5h90q16 -55 60.5 -86.5t114.5 -31.5q74 0 122.5 47.5t48.5 132.5v149q-22 -67 -77.5 -107t-135.5 -40q-111 0 -181.5 76t-70.5 205q0 130 70 206t182 76zM324 475
q-84 0 -134.5 -53.5t-50.5 -147.5t50.5 -147.5t134.5 -53.5q82 0 134.5 55.5t52.5 145.5q0 91 -52.5 146t-134.5 55z" />
    <glyph glyph-name="h" unicode="h" horiz-adv-x="643" 
d="M362 558q96 0 155 -61.5t59 -177.5v-319h-91v311q0 82 -42 126t-114 44q-75 0 -120 -48.5t-45 -141.5v-291h-91v740h91v-321q21 67 74.5 103t123.5 36z" />
    <glyph glyph-name="i" unicode="i" horiz-adv-x="237" 
d="M57 710q0 25 17 40.5t45 15.5t45 -15.5t17 -40.5t-17 -40.5t-45 -15.5t-45 15.5t-17 40.5zM73 549h91v-549h-91v549z" />
    <glyph glyph-name="j" unicode="j" horiz-adv-x="243" 
d="M125 654q-28 0 -45.5 15.5t-17.5 40.5t17.5 40.5t45.5 15.5q27 0 44 -15.5t17 -40.5t-17 -40.5t-44 -15.5zM-28 -260v80h38q36 0 52.5 16t16.5 55v658h92v-661q0 -148 -150 -148h-49z" />
    <glyph glyph-name="k" unicode="k" horiz-adv-x="495" 
d="M488 0h-114l-210 247v-247h-91v740h91v-430l207 239h111l-246 -273z" />
    <glyph glyph-name="l" unicode="l" horiz-adv-x="237" 
d="M73 740h91v-740h-91v740z" />
    <glyph glyph-name="m" unicode="m" horiz-adv-x="1029" 
d="M748 558q96 0 154.5 -61.5t58.5 -177.5v-319h-91v311q0 81 -39.5 124t-108.5 43q-72 0 -115.5 -47.5t-43.5 -139.5v-291h-91v311q0 81 -40 124t-108 43q-73 0 -116.5 -47.5t-43.5 -139.5v-291h-91v549h91v-125q20 65 71.5 99.5t118.5 34.5q70 0 121.5 -35.5t73.5 -104.5
q23 67 77 103.5t122 36.5z" />
    <glyph glyph-name="n" unicode="n" horiz-adv-x="643" 
d="M362 558q96 0 155 -61.5t59 -177.5v-319h-91v311q0 82 -42 126t-114 44q-75 0 -120 -48.5t-45 -141.5v-291h-91v549h91v-130q21 67 74.5 103t123.5 36z" />
    <glyph glyph-name="o" unicode="o" horiz-adv-x="643" 
d="M322 556q120 0 197.5 -76.5t77.5 -205.5t-77 -205t-198 -76t-198.5 76t-77.5 205t77.5 205.5t198.5 76.5zM322 476q-77 0 -130 -51.5t-53 -150.5q0 -98 53 -149.5t130 -51.5t130 51.5t53 149.5q0 99 -53 150.5t-130 51.5z" />
    <glyph glyph-name="p" unicode="p" 
d="M376 556q112 0 182 -76t70 -206q0 -129 -70.5 -205t-181.5 -76q-80 0 -135.5 40.5t-76.5 106.5v-400h-91v809h91v-140q21 66 76.5 106.5t135.5 40.5zM350 475q-82 0 -134.5 -55t-52.5 -146q0 -90 53 -145.5t134 -55.5q85 0 135.5 53.5t50.5 147.5t-50.5 147.5
t-135.5 53.5z" />
    <glyph glyph-name="q" unicode="q" 
d="M304 554q76 0 129.5 -36.5t77.5 -98.5v130h91v-809h-91v394q-25 -65 -78.5 -103t-128.5 -38q-112 0 -185 77t-73 203t73 203.5t185 77.5zM324 475q-82 0 -133.5 -53.5t-51.5 -148.5t51 -147.5t134 -52.5q80 0 133.5 54.5t53.5 146.5t-53.5 146.5t-133.5 54.5z" />
    <glyph glyph-name="r" unicode="r" horiz-adv-x="384" 
d="M164 438q27 57 79 88.5t124 31.5v-99h-28q-77 0 -126 -39.5t-49 -130.5v-289h-91v549h91v-111z" />
    <glyph glyph-name="s" unicode="s" horiz-adv-x="517" 
d="M245 556q93 0 149.5 -48.5t68.5 -130.5h-87q-6 49 -40.5 80.5t-92.5 31.5q-49 0 -76.5 -23.5t-27.5 -63.5q0 -39 34 -60.5t82 -31.5t96.5 -23.5t82.5 -48.5t34 -94q0 -67 -50.5 -109t-134.5 -42q-98 0 -160 47t-73 131h88q5 -50 43.5 -81t101.5 -31q47 0 73.5 24t26.5 63
q0 34 -24.5 56t-60.5 30t-79 19.5t-79 24.5t-60.5 45.5t-24.5 80.5q0 69 51 111.5t139 42.5z" />
    <glyph glyph-name="t" unicode="t" horiz-adv-x="373" 
d="M279 80h56v-80h-68q-84 0 -125.5 40t-41.5 134v296h-82v79h82v137h92v-137h142v-79h-142v-298q0 -53 19.5 -72.5t67.5 -19.5z" />
    <glyph glyph-name="u" unicode="u" horiz-adv-x="634" 
d="M470 549h91v-549h-91v129q-21 -67 -74.5 -102.5t-124.5 -35.5q-95 0 -154 61.5t-59 176.5v320h91v-311q0 -82 42 -126.5t114 -44.5q75 0 120 48.5t45 141.5v292z" />
    <glyph glyph-name="v" unicode="v" horiz-adv-x="570" 
d="M114 549l172 -452l170 452h98l-215 -549h-108l-215 549h98z" />
    <glyph glyph-name="w" unicode="w" horiz-adv-x="839" 
d="M740 549h87l-158 -549h-98l-151 447l-152 -447h-99l-156 549h92l117 -462l152 462h95l153 -461z" />
    <glyph glyph-name="x" unicode="x" horiz-adv-x="505" 
d="M493 0h-104l-143 210l-129 -210h-101l180 283l-181 266h104l139 -204l127 204h101l-179 -276z" />
    <glyph glyph-name="y" unicode="y" horiz-adv-x="565" 
d="M9 549h102l178 -432l165 432h101l-326 -809h-103l114 269z" />
    <glyph glyph-name="z" unicode="z" horiz-adv-x="446" 
d="M410 475l-284 -398h294v-77h-394v73l280 399h-272v77h376v-74z" />
    <glyph glyph-name="braceleft" unicode="{" horiz-adv-x="371" 
d="M121 371q58 -12 87 -52.5t29 -98.5q0 -31 -11.5 -92.5t-11.5 -108.5q0 -83 37.5 -142.5t88.5 -85.5v-8h-87q-16 9 -34 25t-40 44.5t-36 73.5t-14 98q0 42 12 105t12 93q0 105 -107 129v42q107 23 107 129q0 30 -12 93t-12 105q0 53 14 98t36 73.5t40 44.5t34 25h87v-8
q-51 -26 -88.5 -85.5t-37.5 -142.5q0 -47 11.5 -108t11.5 -93q0 -59 -28.5 -99t-87.5 -52v-2z" />
    <glyph glyph-name="bar" unicode="|" horiz-adv-x="216" 
d="M154 796v-903h-92v903h92z" />
    <glyph glyph-name="braceright" unicode="}" horiz-adv-x="369" 
d="M257 373q-58 12 -87 50.5t-29 93.5q0 31 11.5 92.5t11.5 108.5q0 82 -38 145.5t-87 89.5v8h86q16 -9 34 -25t40 -44.5t36 -73.5t14 -98q0 -42 -12 -105t-12 -93q0 -107 107 -129v-42q-107 -20 -107 -129q0 -30 12 -93t12 -105q0 -53 -14 -98t-36 -73.5t-40 -44.5t-34 -25
h-86v8q49 26 87 89.5t38 145.5q0 47 -11.5 108.5t-11.5 92.5q0 55 29 93.5t87 50.5v2z" />
    <glyph glyph-name="asciitilde" unicode="~" horiz-adv-x="518" 
d="M174 395q40 0 94.5 -33.5t81.5 -33.5q51 0 63 67h72q-12 -74 -48.5 -112t-92.5 -38q-41 0 -95 33.5t-81 33.5q-25 0 -42 -18.5t-22 -49.5h-71q26 151 141 151z" />
    <glyph glyph-name="exclamdown" unicode="&#xa1;" horiz-adv-x="309" 
d="M98 451v107h111v-107h-111zM102 -164l13 515h75l13 -515h-101z" />
    <glyph glyph-name="cent" unicode="&#xa2;" horiz-adv-x="585" 
d="M300 87q60 0 102 33t52 90h85q-10 -86 -70.5 -139.5t-151.5 -58.5v-101h-45v102q-103 8 -164.5 74.5t-61.5 176.5t61.5 176.5t164.5 74.5v96h45v-95q91 -5 151.5 -58t70.5 -140h-85q-10 58 -52 90.5t-102 32.5q-72 0 -119 -45.5t-47 -131.5t47 -131.5t119 -45.5z" />
    <glyph glyph-name="sterling" unicode="&#xa3;" horiz-adv-x="589" 
d="M259 243q0 -96 -77 -172h361v-73h-449l-12 49q46 48 68.5 90.5t22.5 102.5q0 28 -12 69h-118v63h97q-33 99 -33 161q0 89 58.5 144t153.5 55q100 0 159.5 -58t68.5 -149h-86q-6 58 -43.5 95t-95.5 37q-55 0 -91 -34.5t-36 -99.5q0 -45 36 -151h184v-63h-165q9 -33 9 -66z
" />
    <glyph glyph-name="currency" unicode="&#xa4;" horiz-adv-x="537" 
d="M448 378q0 -65 -37 -113l57 -56l-37 -37l-59 58q-44 -29 -103 -29q-61 0 -105 30l-59 -59l-37 37l58 57q-35 46 -35 112q0 67 36 112l-59 59l37 37l61 -61q45 28 103 28q56 0 101 -28l61 61l37 -37l-59 -58q39 -45 39 -113zM269 257q44 0 74.5 32.5t30.5 87.5
q0 56 -30.5 88t-74.5 32q-45 0 -74.5 -32t-29.5 -88t29.5 -88t74.5 -32z" />
    <glyph glyph-name="yen" unicode="&#xa5;" horiz-adv-x="622" 
d="M590 705l-169 -321h138v-63h-172l-28 -54v-23h200v-64h-200v-180h-91v180h-201v64h201v23l-29 54h-172v63h139l-171 321h106l173 -354l172 354h104z" />
    <glyph glyph-name="brokenbar" unicode="&#xa6;" horiz-adv-x="276" 
d="M92 417v379h92v-379h-92zM184 273v-380h-92v380h92z" />
    <glyph glyph-name="section" unicode="&#xa7;" horiz-adv-x="576" 
d="M382 121q120 -54 120 -148q0 -67 -52.5 -109t-144.5 -42q-96 0 -155.5 48.5t-69.5 132.5h91q6 -51 38.5 -82.5t96.5 -31.5q47 0 75 20.5t28 60.5q0 41 -36 69t-127 57q-96 29 -148 70.5t-52 113.5q0 57 38.5 101t112.5 58q-123 55 -123 150q0 67 53.5 108t147.5 41
q95 0 153 -48.5t68 -132.5h-90q-4 48 -37 81t-96 33q-49 0 -77.5 -19.5t-28.5 -58.5q0 -42 36.5 -70.5t126.5 -57.5q97 -30 148.5 -71.5t51.5 -113.5q0 -55 -37.5 -98.5t-110.5 -60.5zM143 280q0 -51 39 -82.5t108 -31.5q68 0 106 33t38 81q0 51 -39 82.5t-108 31.5
q-68 0 -106 -33t-38 -81z" />
    <glyph glyph-name="dieresis" unicode="&#xa8;" horiz-adv-x="354" 
d="M44 674q0 21 14.5 35.5t35.5 14.5t35.5 -14.5t14.5 -35.5q0 -20 -14.5 -34.5t-35.5 -14.5t-35.5 14.5t-14.5 34.5zM210 674q0 21 14.5 35.5t35.5 14.5t35.5 -14.5t14.5 -35.5q0 -20 -14.5 -34.5t-35.5 -14.5t-35.5 14.5t-14.5 34.5z" />
    <glyph glyph-name="copyright" unicode="&#xa9;" horiz-adv-x="792" 
d="M396 708q-154 0 -250.5 -99t-96.5 -255t96.5 -255.5t250.5 -99.5t250 99t96 256q0 156 -96 255t-250 99zM396 674q141 0 225 -89t84 -231q0 -141 -84 -230.5t-225 -89.5t-225 89.5t-84 230.5q0 142 84 231t225 89zM400 586q74 0 131 -43.5t75 -120.5h-79q-15 47 -50.5 73
t-80.5 26q-59 0 -100 -43.5t-41 -124.5q0 -79 41 -123t100 -44q45 0 80.5 26.5t50.5 73.5h79q-17 -77 -74.5 -120.5t-131.5 -43.5q-95 0 -157 61.5t-62 170.5q0 108 62.5 170t156.5 62z" />
    <glyph glyph-name="ordfeminine" unicode="&#xaa;" horiz-adv-x="450" 
d="M196 710q102 0 136 -89v84h71v-351h-71v84q-34 -90 -136 -90q-73 0 -118 49.5t-45 131.5t45 131.5t118 49.5zM217 652q-49 0 -80 -33.5t-31 -90.5q0 -56 31 -89t80 -33q51 0 83 33.5t32 89.5t-32 89.5t-83 33.5z" />
    <glyph glyph-name="guillemotleft" unicode="&#xab;" horiz-adv-x="461" 
d="M230 120h-89l-96 175l96 175h89l-98 -175zM414 120h-89l-96 175l96 175h89l-98 -175z" />
    <glyph glyph-name="logicalnot" unicode="&#xac;" horiz-adv-x="739" 
d="M46 433h640v-213h-90v141h-550v72z" />
    <glyph glyph-name="registered" unicode="&#xae;" horiz-adv-x="798" 
d="M400 709q156 0 252.5 -97.5t96.5 -256.5q0 -157 -97 -256.5t-252 -99.5t-253 99.5t-98 256.5q0 159 97 256.5t254 97.5zM400 39q142 0 227 86.5t85 229.5q0 145 -84.5 232t-227.5 87q-144 0 -228.5 -87t-84.5 -232q0 -143 84.5 -229.5t228.5 -86.5zM574 462
q0 -52 -31.5 -85t-92.5 -40l126 -192h-67l-122 190h-64v-190h-60v443h157q77 0 115.5 -34.5t38.5 -91.5zM323 533v-157h92q97 0 97 79q0 78 -97 78h-92z" />
    <glyph glyph-name="macron" unicode="&#xaf;" horiz-adv-x="411" 
d="M29 710h353v-64h-353v64z" />
    <glyph glyph-name="degree" unicode="&#xb0;" horiz-adv-x="406" 
d="M203 700q80 0 127.5 -48t47.5 -128t-47 -128.5t-126 -48.5q-80 0 -128.5 48.5t-48.5 128.5t48 128t127 48zM204 647q-46 0 -75 -32.5t-29 -91.5q0 -58 29 -90.5t76 -32.5q45 0 72.5 32.5t27.5 90.5q0 59 -28 91.5t-73 32.5z" />
    <glyph glyph-name="plusminus" unicode="&#xb1;" horiz-adv-x="576" 
d="M543 374h-211v-198h211v-83h-510v83h210v198h-210v83h210v176h89v-176h211v-83z" />
    <glyph glyph-name="uni00B2" unicode="&#xb2;" horiz-adv-x="344" 
d="M114 408h194v-56h-265v50l121 97q31 27 48 51t17 55q0 26 -15 39.5t-38 13.5q-59 0 -65 -70h-71q4 53 41 88t103 35q57 0 88.5 -28.5t31.5 -72.5q0 -41 -26 -73.5t-81 -69.5z" />
    <glyph glyph-name="uni00B3" unicode="&#xb3;" horiz-adv-x="338" 
d="M174 711q58 0 93 -27.5t35 -72.5q0 -65 -70 -80v-3q74 -18 74 -84q0 -42 -35 -69t-97 -27q-132 0 -144 109h74q6 -58 65 -58q30 0 46 15t16 41q0 28 -19 43t-50 15h-50v31h49q31 0 48.5 15t17.5 44q0 24 -16.5 39.5t-43.5 15.5q-55 0 -65 -54h-68q4 46 38.5 76.5
t101.5 30.5z" />
    <glyph glyph-name="acute" unicode="&#xb4;" horiz-adv-x="271" 
d="M234 767v-64l-197 -111v56z" />
    <glyph glyph-name="uni00B5" unicode="&#xb5;" horiz-adv-x="666" 
d="M493 549h91v-549h-91v124q-20 -64 -70 -98.5t-117 -34.5q-94 0 -134 72v-323h-91v809h91v-285q0 -94 44.5 -143.5t119.5 -49.5q72 0 114.5 47.5t42.5 139.5v291z" />
    <glyph glyph-name="paragraph" unicode="&#xb6;" horiz-adv-x="592" 
d="M510 693v-693h-76v622h-90v-622h-75v286h-12q-117 0 -176.5 56.5t-59.5 146.5t60 147t176 57h253z" />
    <glyph glyph-name="periodcentered" unicode="&#xb7;" horiz-adv-x="182" 
d="M35 392h110v-107h-110v107z" />
    <glyph glyph-name="cedilla" unicode="&#xb8;" horiz-adv-x="282" 
d="M126 -67q56 2 91.5 -21.5t35.5 -72.5q0 -48 -34 -73.5t-88 -25.5h-102v53h92q67 0 67 48q0 45 -67 45h-54v121h59v-74z" />
    <glyph glyph-name="uni00B9" unicode="&#xb9;" horiz-adv-x="201" 
d="M91 647h-58v57h129v-352h-71v295z" />
    <glyph glyph-name="ordmasculine" unicode="&#xba;" horiz-adv-x="433" 
d="M217 709q82 0 133 -51t51 -131t-51.5 -131.5t-132.5 -51.5t-132.5 51.5t-51.5 131.5t51 131t133 51zM217 652q-49 0 -80.5 -33t-31.5 -92t31.5 -92t80.5 -33q48 0 80 33t32 92t-32 92t-80 33z" />
    <glyph glyph-name="guillemotright" unicode="&#xbb;" horiz-adv-x="461" 
d="M50 120l99 175l-99 175h90l95 -175l-95 -175h-90zM234 120l99 175l-99 175h90l95 -175l-95 -175h-90z" />
    <glyph glyph-name="onequarter" unicode="&#xbc;" horiz-adv-x="642" 
d="M438 705h90l-362 -705h-90zM113 647h-58v57h129v-352h-71v295zM609 114v-44h-48v-70h-72v70h-183v41l165 243h90v-240h48zM492 116v172l-116 -172h116z" />
    <glyph glyph-name="onehalf" unicode="&#xbd;" horiz-adv-x="712" 
d="M431 706h89l-365 -706h-90zM115 352v295h-58v57h129v-352h-71zM464 55h194v-56h-265v50l121 97q31 27 48 51t17 55q0 26 -15 39.5t-38 13.5q-59 0 -65 -70h-71q4 53 41 88t103 35q57 0 88.5 -28.5t31.5 -72.5q0 -41 -26 -73.5t-81 -69.5z" />
    <glyph glyph-name="threequarters" unicode="&#xbe;" horiz-adv-x="707" 
d="M204 711q58 0 93 -27.5t35 -72.5q0 -65 -70 -80v-3q74 -18 74 -84q0 -42 -35 -69t-97 -27q-132 0 -144 109h74q6 -58 65 -58q30 0 46 15t16 41q0 28 -19 43t-50 15h-50v31h49q31 0 48.5 15t17.5 44q0 24 -16.5 39.5t-43.5 15.5q-55 0 -65 -54h-68q4 46 38.5 76.5
t101.5 30.5zM517 706h90l-356 -706h-89zM676 114v-44h-48v-70h-71v70h-184v41l157 243h98v-240h48zM560 114v181l-117 -181h117z" />
    <glyph glyph-name="questiondown" unicode="&#xbf;" horiz-adv-x="489" 
d="M392 443h-110v107h110v-107zM265 -183q-98 0 -156.5 53.5t-58.5 148.5q0 106 65.5 158.5t179.5 54.5v118h86v-180h-40q-34 0 -61 -3.5t-54 -13t-45 -26t-29.5 -44t-11.5 -64.5q0 -59 34.5 -93t93.5 -34q62 0 99.5 35t37.5 92h88q1 -91 -62 -146.5t-166 -55.5z" />
    <glyph glyph-name="Agrave" unicode="&#xc0;" horiz-adv-x="662" 
d="M430 804v-56l-197 111v64zM545 0l-59 163h-310l-59 -163h-98l261 692h103l260 -692h-98zM202 234h258l-129 356z" />
    <glyph glyph-name="Aacute" unicode="&#xc1;" horiz-adv-x="662" 
d="M430 923v-64l-197 -111v56zM545 0l-59 163h-310l-59 -163h-98l261 692h103l260 -692h-98zM202 234h258l-129 356z" />
    <glyph glyph-name="Acircumflex" unicode="&#xc2;" horiz-adv-x="662" 
d="M460 766l-128 78l-128 -78v55l128 77l128 -77v-55zM545 0l-59 163h-310l-59 -163h-98l261 692h103l260 -692h-98zM202 234h258l-129 356z" />
    <glyph glyph-name="Atilde" unicode="&#xc3;" horiz-adv-x="662" 
d="M274 808q-33 0 -40 -45h-43q15 94 86 94q27 0 59.5 -23t52.5 -23q16 0 27 11.5t14 32.5h44q-6 -45 -29.5 -69t-58.5 -24q-28 0 -61 23t-51 23zM545 0l-59 163h-310l-59 -163h-98l261 692h103l260 -692h-98zM202 234h258l-129 356z" />
    <glyph glyph-name="Adieresis" unicode="&#xc4;" horiz-adv-x="662" 
d="M248 782q-21 0 -35.5 14.5t-14.5 34.5q0 21 14.5 35.5t35.5 14.5t35.5 -14.5t14.5 -35.5q0 -20 -14.5 -34.5t-35.5 -14.5zM414 782q-21 0 -35.5 14.5t-14.5 34.5q0 21 14.5 35.5t35.5 14.5t35.5 -14.5t14.5 -35.5q0 -20 -14.5 -34.5t-35.5 -14.5zM545 0l-59 163h-310
l-59 -163h-98l261 692h103l260 -692h-98zM202 234h258l-129 356z" />
    <glyph glyph-name="Aring" unicode="&#xc5;" horiz-adv-x="662" 
d="M330 764q-44 0 -74.5 29t-30.5 76t30.5 76t74.5 29q45 0 75 -28.5t30 -76.5t-30 -76.5t-75 -28.5zM330 932q-27 0 -44 -17t-17 -46t17 -46t44 -17t44.5 17t17.5 46t-17.5 46t-44.5 17zM545 0l-59 163h-310l-59 -163h-98l261 692h103l260 -692h-98zM202 234h258l-129 356z
" />
    <glyph glyph-name="AE" unicode="&#xc6;" horiz-adv-x="890" 
d="M846 631h-295v-239h265v-71h-265v-247h295v-74h-386v160h-262l-91 -160h-101l400 705h440v-74zM238 230h222v391z" />
    <glyph glyph-name="Ccedilla" unicode="&#xc7;" horiz-adv-x="763" 
d="M384 78q87 0 147 41.5t87 111.5h96q-30 -104 -107 -166.5t-194 -69.5v-62q56 2 91.5 -21.5t35.5 -72.5q0 -48 -34 -73.5t-88 -25.5h-102v53h92q67 0 67 48q0 45 -67 45h-54v109q-137 11 -221 109.5t-84 247.5q0 159 93 259.5t243 100.5q129 0 213 -63.5t116 -173.5h-96
q-27 70 -87 111.5t-147 41.5q-105 0 -173 -75t-68 -201q0 -124 68 -199t173 -75z" />
    <glyph glyph-name="Egrave" unicode="&#xc8;" horiz-adv-x="506" 
d="M154 923l197 -119v-56l-197 111v64zM462 631h-298v-241h268v-70h-268v-246h298v-74h-389v705h389v-74z" />
    <glyph glyph-name="Eacute" unicode="&#xc9;" horiz-adv-x="506" 
d="M351 923v-64l-197 -111v56zM462 631h-298v-241h268v-70h-268v-246h298v-74h-389v705h389v-74z" />
    <glyph glyph-name="Ecircumflex" unicode="&#xca;" horiz-adv-x="506" 
d="M381 766l-128 78l-128 -78v55l128 77l128 -77v-55zM462 631h-298v-241h268v-70h-268v-246h298v-74h-389v705h389v-74z" />
    <glyph glyph-name="Edieresis" unicode="&#xcb;" horiz-adv-x="506" 
d="M135 831q0 21 14.5 35.5t35.5 14.5t35.5 -14.5t14.5 -35.5q0 -20 -14.5 -34.5t-35.5 -14.5t-35.5 14.5t-14.5 34.5zM301 831q0 21 14.5 35.5t35.5 14.5t35.5 -14.5t14.5 -35.5q0 -20 -14.5 -34.5t-35.5 -14.5t-35.5 14.5t-14.5 34.5zM462 631h-298v-241h268v-70h-268
v-246h298v-74h-389v705h389v-74z" />
    <glyph glyph-name="Igrave" unicode="&#xcc;" horiz-adv-x="237" 
d="M19 923l197 -119v-56l-197 111v64zM73 705h91v-705h-91v705z" />
    <glyph glyph-name="Iacute" unicode="&#xcd;" horiz-adv-x="237" 
d="M216 923v-64l-197 -111v56zM73 705h91v-705h-91v705z" />
    <glyph glyph-name="Icircumflex" unicode="&#xce;" horiz-adv-x="237" 
d="M246 766l-128 78l-128 -78v55l128 77l128 -77v-55zM73 705h91v-705h-91v705z" />
    <glyph glyph-name="Idieresis" unicode="&#xcf;" horiz-adv-x="237" 
d="M-14 831q0 21 14.5 35.5t35.5 14.5t35.5 -14.5t14.5 -35.5q0 -20 -14.5 -34.5t-35.5 -14.5t-35.5 14.5t-14.5 34.5zM152 831q0 21 14.5 35.5t35.5 14.5t35.5 -14.5t14.5 -35.5q0 -20 -14.5 -34.5t-35.5 -14.5t-35.5 14.5t-14.5 34.5zM73 705h91v-705h-91v705z" />
    <glyph glyph-name="Eth" unicode="&#xd0;" horiz-adv-x="742" 
d="M322 705q177 0 274 -94t97 -258q0 -163 -97 -258t-274 -95h-224v316h-92v74h92v315h224zM315 82q139 0 212 71.5t73 199.5q0 129 -73 200.5t-212 71.5h-125v-235h197v-74h-197v-234h125z" />
    <glyph glyph-name="Ntilde" unicode="&#xd1;" horiz-adv-x="694" 
d="M292 857q27 0 59.5 -23t52.5 -23q16 0 27 11.5t14 32.5h44q-6 -45 -29.5 -69t-58.5 -24q-28 0 -61 23t-51 23q-33 0 -40 -45h-43q15 94 86 94zM621 705v-705h-91l-366 557v-557h-91v705h91l366 -558v558h91z" />
    <glyph glyph-name="Ograve" unicode="&#xd2;" horiz-adv-x="791" 
d="M296 923l197 -119v-56l-197 111v64zM396 714q149 0 247 -101.5t98 -259.5t-98 -259.5t-247 -101.5q-150 0 -248.5 101.5t-98.5 259.5t98.5 259.5t248.5 101.5zM396 629q-111 0 -182 -75t-71 -201t71 -201t182 -75q110 0 181 75.5t71 200.5q0 126 -71 201t-181 75z" />
    <glyph glyph-name="Oacute" unicode="&#xd3;" horiz-adv-x="791" 
d="M493 923v-64l-197 -111v56zM396 714q149 0 247 -101.5t98 -259.5t-98 -259.5t-247 -101.5q-150 0 -248.5 101.5t-98.5 259.5t98.5 259.5t248.5 101.5zM396 629q-111 0 -182 -75t-71 -201t71 -201t182 -75q110 0 181 75.5t71 200.5q0 126 -71 201t-181 75z" />
    <glyph glyph-name="Ocircumflex" unicode="&#xd4;" horiz-adv-x="791" 
d="M523 766l-128 78l-128 -78v55l128 77l128 -77v-55zM396 714q149 0 247 -101.5t98 -259.5t-98 -259.5t-247 -101.5q-150 0 -248.5 101.5t-98.5 259.5t98.5 259.5t248.5 101.5zM396 629q-111 0 -182 -75t-71 -201t71 -201t182 -75q110 0 181 75.5t71 200.5q0 126 -71 201
t-181 75z" />
    <glyph glyph-name="Otilde" unicode="&#xd5;" horiz-adv-x="791" 
d="M340 857q27 0 59.5 -23t52.5 -23q16 0 27 11.5t14 32.5h44q-6 -45 -29.5 -69t-58.5 -24q-28 0 -61 23t-51 23q-33 0 -40 -45h-43q15 94 86 94zM396 714q149 0 247 -101.5t98 -259.5t-98 -259.5t-247 -101.5q-150 0 -248.5 101.5t-98.5 259.5t98.5 259.5t248.5 101.5z
M396 629q-111 0 -182 -75t-71 -201t71 -201t182 -75q110 0 181 75.5t71 200.5q0 126 -71 201t-181 75z" />
    <glyph glyph-name="Odieresis" unicode="&#xd6;" horiz-adv-x="791" 
d="M263 831q0 21 14.5 35.5t35.5 14.5t35.5 -14.5t14.5 -35.5q0 -20 -14.5 -34.5t-35.5 -14.5t-35.5 14.5t-14.5 34.5zM429 831q0 21 14.5 35.5t35.5 14.5t35.5 -14.5t14.5 -35.5q0 -20 -14.5 -34.5t-35.5 -14.5t-35.5 14.5t-14.5 34.5zM396 714q149 0 247 -101.5t98 -259.5
t-98 -259.5t-247 -101.5q-150 0 -248.5 101.5t-98.5 259.5t98.5 259.5t248.5 101.5zM396 629q-111 0 -182 -75t-71 -201t71 -201t182 -75q110 0 181 75.5t71 200.5q0 126 -71 201t-181 75z" />
    <glyph glyph-name="multiply" unicode="&#xd7;" horiz-adv-x="509" 
d="M476 208l-61 -61l-162 162l-160 -161l-59 59l160 161l-160 159l62 60l159 -158l157 158l59 -59l-157 -158z" />
    <glyph glyph-name="Oslash" unicode="&#xd8;" horiz-adv-x="791" 
d="M744 707l-93 -103q90 -101 90 -251q0 -158 -98 -259.5t-247 -101.5q-132 0 -227 81l-66 -73h-57l93 103q-90 101 -90 250q0 158 98.5 259.5t248.5 101.5q133 0 225 -81l67 74h56zM143 353q0 -110 57 -184l362 400q-66 60 -166 60q-111 0 -182 -75t-71 -201zM648 353
q0 111 -57 185l-363 -400q69 -61 168 -61q110 0 181 75.5t71 200.5z" />
    <glyph glyph-name="Ugrave" unicode="&#xd9;" horiz-adv-x="661" 
d="M232 923l197 -119v-56l-197 111v64zM68 705h91v-423q0 -104 46 -153.5t127 -49.5q80 0 125 50t45 153v423h91v-423q0 -144 -71.5 -216.5t-191.5 -72.5q-119 0 -190.5 72.5t-71.5 216.5v423z" />
    <glyph glyph-name="Uacute" unicode="&#xda;" horiz-adv-x="661" 
d="M429 923v-64l-197 -111v56zM68 705h91v-423q0 -104 46 -153.5t127 -49.5q80 0 125 50t45 153v423h91v-423q0 -144 -71.5 -216.5t-191.5 -72.5q-119 0 -190.5 72.5t-71.5 216.5v423z" />
    <glyph glyph-name="Ucircumflex" unicode="&#xdb;" horiz-adv-x="661" 
d="M459 766l-128 78l-128 -78v55l128 77l128 -77v-55zM68 705h91v-423q0 -104 46 -153.5t127 -49.5q80 0 125 50t45 153v423h91v-423q0 -144 -71.5 -216.5t-191.5 -72.5q-119 0 -190.5 72.5t-71.5 216.5v423z" />
    <glyph glyph-name="Udieresis" unicode="&#xdc;" horiz-adv-x="661" 
d="M198 831q0 21 14.5 35.5t35.5 14.5t35.5 -14.5t14.5 -35.5q0 -20 -14.5 -34.5t-35.5 -14.5t-35.5 14.5t-14.5 34.5zM364 831q0 21 14.5 35.5t35.5 14.5t35.5 -14.5t14.5 -35.5q0 -20 -14.5 -34.5t-35.5 -14.5t-35.5 14.5t-14.5 34.5zM68 705h91v-423q0 -104 46 -153.5
t127 -49.5q80 0 125 50t45 153v423h91v-423q0 -144 -71.5 -216.5t-191.5 -72.5q-119 0 -190.5 72.5t-71.5 216.5v423z" />
    <glyph glyph-name="Yacute" unicode="&#xdd;" horiz-adv-x="593" 
d="M395 923v-64l-197 -111v56zM470 705h104l-231 -438v-267h-92v267l-232 438h106l173 -341z" />
    <glyph glyph-name="Thorn" unicode="&#xde;" horiz-adv-x="571" 
d="M297 147h-133v-147h-91v705h91v-144h133q121 0 181 -55.5t60 -152.5q0 -98 -62 -152t-179 -54zM289 219q156 0 156 134q0 66 -36.5 100.5t-119.5 34.5h-125v-269h125z" />
    <glyph glyph-name="germandbls" unicode="&#xdf;" horiz-adv-x="654" 
d="M486 371q74 -45 106 -93t32 -115q0 -74 -52.5 -123.5t-136.5 -49.5q-92 0 -143.5 50.5t-52.5 141.5h77q2 -51 30 -81.5t81 -30.5t80.5 30t27.5 70t-19.5 70.5t-70.5 63.5l-157 98v41l33 17q63 33 63 97q0 49 -29 79.5t-76 30.5q-53 0 -84 -32t-31 -87v-548h-91v531
q0 108 56.5 163.5t158.5 55.5q85 0 137 -45.5t52 -117.5q0 -95 -104 -141l-3 -1z" />
    <glyph glyph-name="agrave" unicode="&#xe0;" 
d="M238 767l197 -119v-56l-197 111v64zM298 556q80 0 135.5 -40t77.5 -107v140h91v-549h-91v140q-22 -67 -77.5 -107t-135.5 -40q-111 0 -181.5 76t-70.5 205q0 130 70 206t182 76zM324 475q-84 0 -134.5 -53.5t-50.5 -147.5t50.5 -147.5t134.5 -53.5q82 0 134.5 55.5
t52.5 145.5q0 91 -52.5 146t-134.5 55z" />
    <glyph glyph-name="aacute" unicode="&#xe1;" 
d="M435 767v-64l-197 -111v56zM298 556q80 0 135.5 -40t77.5 -107v140h91v-549h-91v140q-22 -67 -77.5 -107t-135.5 -40q-111 0 -181.5 76t-70.5 205q0 130 70 206t182 76zM324 475q-84 0 -134.5 -53.5t-50.5 -147.5t50.5 -147.5t134.5 -53.5q82 0 134.5 55.5t52.5 145.5
q0 91 -52.5 146t-134.5 55z" />
    <glyph glyph-name="acircumflex" unicode="&#xe2;" 
d="M465 610l-128 78l-128 -78v55l128 77l128 -77v-55zM298 556q80 0 135.5 -40t77.5 -107v140h91v-549h-91v140q-22 -67 -77.5 -107t-135.5 -40q-111 0 -181.5 76t-70.5 205q0 130 70 206t182 76zM324 475q-84 0 -134.5 -53.5t-50.5 -147.5t50.5 -147.5t134.5 -53.5
q82 0 134.5 55.5t52.5 145.5q0 91 -52.5 146t-134.5 55z" />
    <glyph glyph-name="atilde" unicode="&#xe3;" 
d="M282 701q27 0 59.5 -23t52.5 -23q16 0 27 11.5t14 32.5h44q-6 -45 -29.5 -69t-58.5 -24q-28 0 -61 23t-51 23q-33 0 -40 -45h-43q15 94 86 94zM298 556q80 0 135.5 -40t77.5 -107v140h91v-549h-91v140q-22 -67 -77.5 -107t-135.5 -40q-111 0 -181.5 76t-70.5 205
q0 130 70 206t182 76zM324 475q-84 0 -134.5 -53.5t-50.5 -147.5t50.5 -147.5t134.5 -53.5q82 0 134.5 55.5t52.5 145.5q0 91 -52.5 146t-134.5 55z" />
    <glyph glyph-name="adieresis" unicode="&#xe4;" 
d="M191 674q0 21 14.5 35.5t35.5 14.5t35.5 -14.5t14.5 -35.5q0 -20 -14.5 -34.5t-35.5 -14.5t-35.5 14.5t-14.5 34.5zM357 674q0 21 14.5 35.5t35.5 14.5t35.5 -14.5t14.5 -35.5q0 -20 -14.5 -34.5t-35.5 -14.5t-35.5 14.5t-14.5 34.5zM298 556q80 0 135.5 -40t77.5 -107
v140h91v-549h-91v140q-22 -67 -77.5 -107t-135.5 -40q-111 0 -181.5 76t-70.5 205q0 130 70 206t182 76zM324 475q-84 0 -134.5 -53.5t-50.5 -147.5t50.5 -147.5t134.5 -53.5q82 0 134.5 55.5t52.5 145.5q0 91 -52.5 146t-134.5 55z" />
    <glyph glyph-name="aring" unicode="&#xe5;" 
d="M323 817q45 0 75 -28.5t30 -76.5t-30 -76.5t-75 -28.5q-44 0 -74.5 29t-30.5 76t30.5 76t74.5 29zM323 775q-27 0 -44 -17t-17 -46t17 -46t44 -17t44.5 17t17.5 46t-17.5 46t-44.5 17zM298 556q80 0 135.5 -40t77.5 -107v140h91v-549h-91v140q-22 -67 -77.5 -107
t-135.5 -40q-111 0 -181.5 76t-70.5 205q0 130 70 206t182 76zM324 475q-84 0 -134.5 -53.5t-50.5 -147.5t50.5 -147.5t134.5 -53.5q82 0 134.5 55.5t52.5 145.5q0 91 -52.5 146t-134.5 55z" />
    <glyph glyph-name="ae" unicode="&#xe6;" horiz-adv-x="1106" 
d="M1060 305q0 -29 -4 -50h-452q4 -94 56 -141.5t128 -47.5q68 0 114.5 33t57.5 91h96q-15 -88 -79 -142.5t-161 -54.5q-79 0 -136 38t-78 109v-140h-91v140q-22 -67 -77.5 -107t-135.5 -40q-111 0 -181.5 76t-70.5 205q0 130 70 206t182 76q80 0 135.5 -40t77.5 -107v140
h91v-141q20 71 77.5 109.5t136.5 38.5q113 0 178.5 -72.5t65.5 -178.5zM969 299q4 89 -49 136t-130 47q-76 0 -129 -45.5t-57 -137.5h365zM324 73q82 0 134.5 55.5t52.5 145.5q0 91 -52.5 146t-134.5 55q-84 0 -134.5 -53.5t-50.5 -147.5t50.5 -147.5t134.5 -53.5z" />
    <glyph glyph-name="ccedilla" unicode="&#xe7;" horiz-adv-x="621" 
d="M314 72q66 0 110.5 34t54.5 93h96q-15 -91 -80.5 -146.5t-166.5 -59.5v-60q56 2 91.5 -21.5t35.5 -72.5q0 -48 -34 -73.5t-88 -25.5h-102v53h92q67 0 67 48q0 45 -67 45h-54v110q-101 15 -162 88.5t-61 189.5q0 130 75 206t195 76q105 0 174 -56t85 -150h-96
q-10 59 -54.5 92.5t-110.5 33.5q-75 0 -125 -51.5t-50 -150.5t50.5 -150.5t124.5 -51.5z" />
    <glyph glyph-name="egrave" unicode="&#xe8;" horiz-adv-x="624" 
d="M410 648v-56l-197 111v64zM578 305q0 -29 -4 -50h-439q3 -94 53.5 -141t123.5 -47q66 0 110.5 33.5t54.5 89.5h97q-15 -87 -85 -142t-173 -55q-120 0 -195 75.5t-75 205.5t75 206t195 76t191 -72.5t71 -178.5zM486 299q5 90 -45.5 136.5t-124.5 46.5q-75 0 -126 -46.5
t-55 -136.5h351z" />
    <glyph glyph-name="eacute" unicode="&#xe9;" horiz-adv-x="624" 
d="M410 767v-64l-197 -111v56zM578 305q0 -29 -4 -50h-439q3 -94 53.5 -141t123.5 -47q66 0 110.5 33.5t54.5 89.5h97q-15 -87 -85 -142t-173 -55q-120 0 -195 75.5t-75 205.5t75 206t195 76t191 -72.5t71 -178.5zM486 299q5 90 -45.5 136.5t-124.5 46.5q-75 0 -126 -46.5
t-55 -136.5h351z" />
    <glyph glyph-name="ecircumflex" unicode="&#xea;" horiz-adv-x="624" 
d="M440 610l-128 78l-128 -78v55l128 77l128 -77v-55zM578 305q0 -29 -4 -50h-439q3 -94 53.5 -141t123.5 -47q66 0 110.5 33.5t54.5 89.5h97q-15 -87 -85 -142t-173 -55q-120 0 -195 75.5t-75 205.5t75 206t195 76t191 -72.5t71 -178.5zM486 299q5 90 -45.5 136.5
t-124.5 46.5q-75 0 -126 -46.5t-55 -136.5h351z" />
    <glyph glyph-name="edieresis" unicode="&#xeb;" horiz-adv-x="624" 
d="M229 625q-21 0 -35.5 14.5t-14.5 34.5q0 21 14.5 35.5t35.5 14.5t35.5 -14.5t14.5 -35.5q0 -20 -14.5 -34.5t-35.5 -14.5zM395 625q-21 0 -35.5 14.5t-14.5 34.5q0 21 14.5 35.5t35.5 14.5t35.5 -14.5t14.5 -35.5q0 -20 -14.5 -34.5t-35.5 -14.5zM578 305q0 -29 -4 -50
h-439q3 -94 53.5 -141t123.5 -47q66 0 110.5 33.5t54.5 89.5h97q-15 -87 -85 -142t-173 -55q-120 0 -195 75.5t-75 205.5t75 206t195 76t191 -72.5t71 -178.5zM486 299q5 90 -45.5 136.5t-124.5 46.5q-75 0 -126 -46.5t-55 -136.5h351z" />
    <glyph glyph-name="igrave" unicode="&#xec;" horiz-adv-x="255" 
d="M28 767l197 -119v-56l-197 111v64zM81 549h92v-549h-92v549z" />
    <glyph glyph-name="iacute" unicode="&#xed;" horiz-adv-x="255" 
d="M225 767v-64l-197 -111v56zM81 549h92v-549h-92v549z" />
    <glyph glyph-name="icircumflex" unicode="&#xee;" horiz-adv-x="255" 
d="M255 610l-128 78l-128 -78v55l128 77l128 -77v-55zM81 549h92v-549h-92v549z" />
    <glyph glyph-name="idieresis" unicode="&#xef;" horiz-adv-x="255" 
d="M-5 674q0 21 14.5 35.5t35.5 14.5t35.5 -14.5t14.5 -35.5q0 -20 -14.5 -34.5t-35.5 -14.5t-35.5 14.5t-14.5 34.5zM161 674q0 21 14.5 35.5t35.5 14.5t35.5 -14.5t14.5 -35.5q0 -20 -14.5 -34.5t-35.5 -14.5t-35.5 14.5t-14.5 34.5zM81 549h92v-549h-92v549z" />
    <glyph glyph-name="eth" unicode="&#xf0;" horiz-adv-x="644" 
d="M453 670q145 -157 145 -359q0 -154 -75.5 -236t-197.5 -82q-124 0 -201.5 80.5t-77.5 211.5q0 124 74.5 198.5t194.5 74.5q63 0 113.5 -33.5t74.5 -99.5q-25 125 -111 224l-136 -46v38l109 37q-38 36 -70 62h83q17 -14 47 -42l122 41v-37zM325 73q78 0 129 53t51 148
q0 97 -52.5 150.5t-129.5 53.5q-80 0 -132 -50.5t-52 -142.5q0 -100 52.5 -156t133.5 -56z" />
    <glyph glyph-name="ntilde" unicode="&#xf1;" horiz-adv-x="643" 
d="M264 652q-33 0 -40 -45h-43q15 94 86 94q27 0 59.5 -23t52.5 -23q16 0 27 11.5t14 32.5h44q-6 -45 -29.5 -69t-58.5 -24q-28 0 -61 23t-51 23zM362 558q96 0 155 -61.5t59 -177.5v-319h-91v311q0 82 -42 126t-114 44q-75 0 -120 -48.5t-45 -141.5v-291h-91v549h91v-130
q21 67 74.5 103t123.5 36z" />
    <glyph glyph-name="ograve" unicode="&#xf2;" horiz-adv-x="643" 
d="M223 767l197 -119v-56l-197 111v64zM322 556q120 0 197.5 -76.5t77.5 -205.5t-77 -205t-198 -76t-198.5 76t-77.5 205t77.5 205.5t198.5 76.5zM322 476q-77 0 -130 -51.5t-53 -150.5q0 -98 53 -149.5t130 -51.5t130 51.5t53 149.5q0 99 -53 150.5t-130 51.5z" />
    <glyph glyph-name="oacute" unicode="&#xf3;" horiz-adv-x="643" 
d="M420 767v-64l-197 -111v56zM322 556q120 0 197.5 -76.5t77.5 -205.5t-77 -205t-198 -76t-198.5 76t-77.5 205t77.5 205.5t198.5 76.5zM322 476q-77 0 -130 -51.5t-53 -150.5q0 -98 53 -149.5t130 -51.5t130 51.5t53 149.5q0 99 -53 150.5t-130 51.5z" />
    <glyph glyph-name="ocircumflex" unicode="&#xf4;" horiz-adv-x="643" 
d="M450 610l-128 78l-128 -78v55l128 77l128 -77v-55zM322 556q120 0 197.5 -76.5t77.5 -205.5t-77 -205t-198 -76t-198.5 76t-77.5 205t77.5 205.5t198.5 76.5zM322 476q-77 0 -130 -51.5t-53 -150.5q0 -98 53 -149.5t130 -51.5t130 51.5t53 149.5q0 99 -53 150.5
t-130 51.5z" />
    <glyph glyph-name="otilde" unicode="&#xf5;" horiz-adv-x="643" 
d="M267 701q27 0 59.5 -23t52.5 -23q16 0 27 11.5t14 32.5h44q-6 -45 -29.5 -69t-58.5 -24q-28 0 -61 23t-51 23q-33 0 -40 -45h-43q15 94 86 94zM322 556q120 0 197.5 -76.5t77.5 -205.5t-77 -205t-198 -76t-198.5 76t-77.5 205t77.5 205.5t198.5 76.5zM322 476
q-77 0 -130 -51.5t-53 -150.5q0 -98 53 -149.5t130 -51.5t130 51.5t53 149.5q0 99 -53 150.5t-130 51.5z" />
    <glyph glyph-name="odieresis" unicode="&#xf6;" horiz-adv-x="643" 
d="M189 674q0 21 14.5 35.5t35.5 14.5t35.5 -14.5t14.5 -35.5q0 -20 -14.5 -34.5t-35.5 -14.5t-35.5 14.5t-14.5 34.5zM355 674q0 21 14.5 35.5t35.5 14.5t35.5 -14.5t14.5 -35.5q0 -20 -14.5 -34.5t-35.5 -14.5t-35.5 14.5t-14.5 34.5zM322 556q120 0 197.5 -76.5
t77.5 -205.5t-77 -205t-198 -76t-198.5 76t-77.5 205t77.5 205.5t198.5 76.5zM322 476q-77 0 -130 -51.5t-53 -150.5q0 -98 53 -149.5t130 -51.5t130 51.5t53 149.5q0 99 -53 150.5t-130 51.5z" />
    <glyph glyph-name="divide" unicode="&#xf7;" horiz-adv-x="576" 
d="M232 640h111v-106h-111v106zM33 407h510v-83h-510v83zM232 200h111v-106h-111v106z" />
    <glyph glyph-name="oslash" unicode="&#xf8;" horiz-adv-x="638" 
d="M595 549l-71 -77q70 -76 70 -198q0 -129 -77 -205t-198 -76q-105 0 -178 58l-46 -51h-50l69 76q-71 76 -71 198q0 129 77.5 205.5t198.5 76.5q105 0 178 -59l47 52h51zM136 274q0 -79 38 -132l265 292q-49 42 -120 42q-77 0 -130 -51.5t-53 -150.5zM502 274q0 81 -37 132
l-265 -291q48 -42 119 -42q77 0 130 51.5t53 149.5z" />
    <glyph glyph-name="ugrave" unicode="&#xf9;" horiz-adv-x="634" 
d="M415 648v-56l-197 111v64zM470 549h91v-549h-91v129q-21 -67 -74.5 -102.5t-124.5 -35.5q-95 0 -154 61.5t-59 176.5v320h91v-311q0 -82 42 -126.5t114 -44.5q75 0 120 48.5t45 141.5v292z" />
    <glyph glyph-name="uacute" unicode="&#xfa;" horiz-adv-x="634" 
d="M415 767v-64l-197 -111v56zM470 549h91v-549h-91v129q-21 -67 -74.5 -102.5t-124.5 -35.5q-95 0 -154 61.5t-59 176.5v320h91v-311q0 -82 42 -126.5t114 -44.5q75 0 120 48.5t45 141.5v292z" />
    <glyph glyph-name="ucircumflex" unicode="&#xfb;" horiz-adv-x="634" 
d="M445 610l-128 78l-128 -78v55l128 77l128 -77v-55zM470 549h91v-549h-91v129q-21 -67 -74.5 -102.5t-124.5 -35.5q-95 0 -154 61.5t-59 176.5v320h91v-311q0 -82 42 -126.5t114 -44.5q75 0 120 48.5t45 141.5v292z" />
    <glyph glyph-name="udieresis" unicode="&#xfc;" horiz-adv-x="634" 
d="M227 625q-21 0 -35.5 14.5t-14.5 34.5q0 21 14.5 35.5t35.5 14.5t35.5 -14.5t14.5 -35.5q0 -20 -14.5 -34.5t-35.5 -14.5zM393 625q-21 0 -35.5 14.5t-14.5 34.5q0 21 14.5 35.5t35.5 14.5t35.5 -14.5t14.5 -35.5q0 -20 -14.5 -34.5t-35.5 -14.5zM470 549h91v-549h-91
v129q-21 -67 -74.5 -102.5t-124.5 -35.5q-95 0 -154 61.5t-59 176.5v320h91v-311q0 -82 42 -126.5t114 -44.5q75 0 120 48.5t45 141.5v292z" />
    <glyph glyph-name="yacute" unicode="&#xfd;" horiz-adv-x="565" 
d="M381 767v-64l-197 -111v56zM9 549h102l178 -432l165 432h101l-326 -809h-103l114 269z" />
    <glyph glyph-name="thorn" unicode="&#xfe;" 
d="M370 554q113 0 185.5 -77t72.5 -204q0 -126 -72.5 -203t-185.5 -77q-75 0 -128.5 38t-77.5 103v-394h-91v1000h91v-321q24 62 77.5 98.5t128.5 36.5zM350 475q-80 0 -133 -54.5t-53 -146.5t53 -146.5t133 -54.5q83 0 134.5 52.5t51.5 147.5t-52 148.5t-134 53.5z" />
    <glyph glyph-name="ydieresis" unicode="&#xff;" horiz-adv-x="565" 
d="M149 674q0 21 14.5 35.5t35.5 14.5t35.5 -14.5t14.5 -35.5q0 -20 -14.5 -34.5t-35.5 -14.5t-35.5 14.5t-14.5 34.5zM315 674q0 21 14.5 35.5t35.5 14.5t35.5 -14.5t14.5 -35.5q0 -20 -14.5 -34.5t-35.5 -14.5t-35.5 14.5t-14.5 34.5zM9 549h102l178 -432l165 432h101
l-326 -809h-103l114 269z" />
    <glyph glyph-name="Amacron" unicode="&#x100;" horiz-adv-x="662" 
d="M508 867v-64h-353v64h353zM545 0l-59 163h-310l-59 -163h-98l261 692h103l260 -692h-98zM202 234h258l-129 356z" />
    <glyph glyph-name="amacron" unicode="&#x101;" 
d="M148 710h353v-64h-353v64zM298 556q80 0 135.5 -40t77.5 -107v140h91v-549h-91v140q-22 -67 -77.5 -107t-135.5 -40q-111 0 -181.5 76t-70.5 205q0 130 70 206t182 76zM324 475q-84 0 -134.5 -53.5t-50.5 -147.5t50.5 -147.5t134.5 -53.5q82 0 134.5 55.5t52.5 145.5
q0 91 -52.5 146t-134.5 55z" />
    <glyph glyph-name="Abreve" unicode="&#x102;" horiz-adv-x="662" 
d="M332 766q-62 0 -96.5 35.5t-34.5 91.5v8h43q0 -77 88 -77t88 77h43v-8q0 -56 -34.5 -91.5t-96.5 -35.5zM545 0l-59 163h-310l-59 -163h-98l261 692h103l260 -692h-98zM202 234h258l-129 356z" />
    <glyph glyph-name="abreve" unicode="&#x103;" 
d="M337 610q-62 0 -96.5 35.5t-34.5 91.5v8h43q0 -77 88 -77t88 77h43v-8q0 -56 -34.5 -91.5t-96.5 -35.5zM298 556q80 0 135.5 -40t77.5 -107v140h91v-549h-91v140q-22 -67 -77.5 -107t-135.5 -40q-111 0 -181.5 76t-70.5 205q0 130 70 206t182 76zM324 475
q-84 0 -134.5 -53.5t-50.5 -147.5t50.5 -147.5t134.5 -53.5q82 0 134.5 55.5t52.5 145.5q0 91 -52.5 146t-134.5 55z" />
    <glyph glyph-name="Aogonek" unicode="&#x104;" horiz-adv-x="662" 
d="M587 -147h95v-53h-103q-57 0 -92.5 27t-35.5 77q0 80 93 98l-58 161h-310l-59 -163h-98l261 692h103l258 -687v-45h-54q-70 0 -70 -53q0 -25 18.5 -39.5t51.5 -14.5zM202 234h258l-129 356z" />
    <glyph glyph-name="aogonek" unicode="&#x105;" 
d="M548 -146h96v-53h-104q-56 0 -91.5 27.5t-35.5 77.5q0 44 27 71t71 33v130q-22 -67 -77.5 -107t-135.5 -40q-111 0 -181.5 76t-70.5 205q0 130 70 206t182 76q80 0 135.5 -40t77.5 -107v140h91v-587h-54q-32 0 -51 -14t-19 -39t19 -40t51 -15zM324 73q82 0 134.5 55.5
t52.5 145.5q0 91 -52.5 146t-134.5 55q-84 0 -134.5 -53.5t-50.5 -147.5t50.5 -147.5t134.5 -53.5z" />
    <glyph glyph-name="Cacute" unicode="&#x106;" horiz-adv-x="763" 
d="M480 923v-64l-197 -111v56zM385 712q129 0 213 -63.5t116 -173.5h-96q-27 70 -87 111.5t-147 41.5q-105 0 -173 -75t-68 -201q0 -124 68 -199t173 -75q87 0 147 41.5t87 111.5h96q-32 -110 -116 -173.5t-213 -63.5q-149 0 -242.5 100t-93.5 258q0 159 93 259.5t243 100.5
z" />
    <glyph glyph-name="cacute" unicode="&#x107;" horiz-adv-x="621" 
d="M409 767v-64l-197 -111v56zM316 556q105 0 174 -56t85 -150h-96q-10 59 -54.5 92.5t-110.5 33.5q-75 0 -125 -51.5t-50 -150.5t50.5 -150.5t124.5 -51.5q66 0 110.5 34t54.5 93h96q-16 -95 -85 -150.5t-174 -55.5q-120 0 -195 75.5t-75 205.5t75 206t195 76z" />
    <glyph glyph-name="Cdotaccent" unicode="&#x10a;" horiz-adv-x="763" 
d="M331 831q0 21 14.5 35.5t34.5 14.5q21 0 36 -14.5t15 -35.5q0 -20 -15 -34.5t-36 -14.5q-20 0 -34.5 14.5t-14.5 34.5zM385 712q129 0 213 -63.5t116 -173.5h-96q-27 70 -87 111.5t-147 41.5q-105 0 -173 -75t-68 -201q0 -124 68 -199t173 -75q87 0 147 41.5t87 111.5h96
q-32 -110 -116 -173.5t-213 -63.5q-149 0 -242.5 100t-93.5 258q0 159 93 259.5t243 100.5z" />
    <glyph glyph-name="cdotaccent" unicode="&#x10b;" horiz-adv-x="621" 
d="M261 674q0 21 14.5 35.5t34.5 14.5q21 0 36 -14.5t15 -35.5q0 -20 -15 -34.5t-36 -14.5q-20 0 -34.5 14.5t-14.5 34.5zM316 556q105 0 174 -56t85 -150h-96q-10 59 -54.5 92.5t-110.5 33.5q-75 0 -125 -51.5t-50 -150.5t50.5 -150.5t124.5 -51.5q66 0 110.5 34t54.5 93
h96q-16 -95 -85 -150.5t-174 -55.5q-120 0 -195 75.5t-75 205.5t75 206t195 76z" />
    <glyph glyph-name="Ccaron" unicode="&#x10c;" horiz-adv-x="763" 
d="M520 912v-64l-138 -83l-139 83v64l139 -84zM385 712q129 0 213 -63.5t116 -173.5h-96q-27 70 -87 111.5t-147 41.5q-105 0 -173 -75t-68 -201q0 -124 68 -199t173 -75q87 0 147 41.5t87 111.5h96q-32 -110 -116 -173.5t-213 -63.5q-149 0 -242.5 100t-93.5 258
q0 159 93 259.5t243 100.5z" />
    <glyph glyph-name="ccaron" unicode="&#x10d;" horiz-adv-x="621" 
d="M449 755v-64l-138 -83l-139 83v64l139 -84zM316 556q105 0 174 -56t85 -150h-96q-10 59 -54.5 92.5t-110.5 33.5q-75 0 -125 -51.5t-50 -150.5t50.5 -150.5t124.5 -51.5q66 0 110.5 34t54.5 93h96q-16 -95 -85 -150.5t-174 -55.5q-120 0 -195 75.5t-75 205.5t75 206
t195 76z" />
    <glyph glyph-name="Dcaron" unicode="&#x10e;" horiz-adv-x="717" 
d="M508 912v-64l-138 -83l-139 83v64l139 -84zM667 353q0 -163 -97 -258t-273 -95h-224v705h224q177 0 273.5 -94t96.5 -258zM290 82q138 0 211 71t73 200t-72.5 200.5t-211.5 71.5h-126v-543h126z" />
    <glyph glyph-name="dcaron" unicode="&#x10f;" horiz-adv-x="746" 
d="M298 556q80 0 135.5 -40t77.5 -107v331h91v-740h-91v140q-22 -67 -77.5 -107t-135.5 -40q-111 0 -181.5 76t-70.5 205q0 130 70 206t182 76zM751 740q11 -48 11 -92q0 -113 -101 -113v41q48 0 48 55v23h-50v86h92zM324 475q-84 0 -134.5 -53.5t-50.5 -147.5t50.5 -147.5
t134.5 -53.5q82 0 134.5 55.5t52.5 145.5q0 91 -52.5 146t-134.5 55z" />
    <glyph glyph-name="Dcroat" unicode="&#x110;" horiz-adv-x="742" 
d="M322 705q177 0 274 -94t97 -258q0 -163 -97 -258t-274 -95h-224v316h-92v74h92v315h224zM315 82q139 0 212 71.5t73 199.5q0 129 -73 200.5t-212 71.5h-125v-235h197v-74h-197v-234h125z" />
    <glyph glyph-name="dcroat" unicode="&#x111;" horiz-adv-x="678" 
d="M668 675v-46h-66v-629h-91v140q-22 -67 -77.5 -107t-135.5 -40q-111 0 -181.5 76t-70.5 205q0 130 70 206t182 76q80 0 135.5 -40t77.5 -107v220h-154v46h154v65h91v-65h66zM324 73q82 0 134.5 55.5t52.5 145.5q0 91 -52.5 146t-134.5 55q-84 0 -134.5 -53.5
t-50.5 -147.5t50.5 -147.5t134.5 -53.5z" />
    <glyph glyph-name="Emacron" unicode="&#x112;" horiz-adv-x="506" 
d="M91 867h353v-64h-353v64zM462 631h-298v-241h268v-70h-268v-246h298v-74h-389v705h389v-74z" />
    <glyph glyph-name="emacron" unicode="&#x113;" horiz-adv-x="624" 
d="M489 710v-64h-353v64h353zM578 305q0 -29 -4 -50h-439q3 -94 53.5 -141t123.5 -47q66 0 110.5 33.5t54.5 89.5h97q-15 -87 -85 -142t-173 -55q-120 0 -195 75.5t-75 205.5t75 206t195 76t191 -72.5t71 -178.5zM486 299q5 90 -45.5 136.5t-124.5 46.5q-75 0 -126 -46.5
t-55 -136.5h351z" />
    <glyph glyph-name="Ebreve" unicode="&#x114;" horiz-adv-x="506" 
d="M253 766q-62 0 -96.5 35.5t-34.5 91.5v8h43q0 -77 88 -77t88 77h43v-8q0 -56 -34.5 -91.5t-96.5 -35.5zM462 631h-298v-241h268v-70h-268v-246h298v-74h-389v705h389v-74z" />
    <glyph glyph-name="ebreve" unicode="&#x115;" horiz-adv-x="624" 
d="M312 610q-62 0 -96.5 35.5t-34.5 91.5v8h43q0 -77 88 -77t88 77h43v-8q0 -56 -34.5 -91.5t-96.5 -35.5zM578 305q0 -29 -4 -50h-439q3 -94 53.5 -141t123.5 -47q66 0 110.5 33.5t54.5 89.5h97q-15 -87 -85 -142t-173 -55q-120 0 -195 75.5t-75 205.5t75 206t195 76
t191 -72.5t71 -178.5zM486 299q5 90 -45.5 136.5t-124.5 46.5q-75 0 -126 -46.5t-55 -136.5h351z" />
    <glyph glyph-name="Edotaccent" unicode="&#x116;" horiz-adv-x="506" 
d="M218 831q0 21 14.5 35.5t34.5 14.5q21 0 36 -14.5t15 -35.5q0 -20 -15 -34.5t-36 -14.5q-20 0 -34.5 14.5t-14.5 34.5zM462 631h-298v-241h268v-70h-268v-246h298v-74h-389v705h389v-74z" />
    <glyph glyph-name="edotaccent" unicode="&#x117;" horiz-adv-x="624" 
d="M311 625q-20 0 -34.5 14.5t-14.5 34.5q0 21 14.5 35.5t34.5 14.5q21 0 36 -14.5t15 -35.5q0 -20 -15 -34.5t-36 -14.5zM578 305q0 -29 -4 -50h-439q3 -94 53.5 -141t123.5 -47q66 0 110.5 33.5t54.5 89.5h97q-15 -87 -85 -142t-173 -55q-120 0 -195 75.5t-75 205.5
t75 206t195 76t191 -72.5t71 -178.5zM486 299q5 90 -45.5 136.5t-124.5 46.5q-75 0 -126 -46.5t-55 -136.5h351z" />
    <glyph glyph-name="Eogonek" unicode="&#x118;" horiz-adv-x="506" 
d="M392 -120h96v-53h-104q-56 0 -91.5 27.5t-35.5 77.5q0 41 24 68h-208v705h389v-74h-298v-241h268v-70h-268v-246h298v-74h-16v-12h-54q-32 0 -51 -14t-19 -39t19 -40t51 -15z" />
    <glyph glyph-name="eogonek" unicode="&#x119;" horiz-adv-x="624" 
d="M578 305q0 -29 -4 -50h-439q3 -94 54 -141t123 -47q66 0 110.5 33.5t54.5 89.5h97q-14 -75 -69 -127t-138 -65q-23 -4 -23 -25t19.5 -34.5t54.5 -13.5h89v-53h-100q-57 0 -92.5 27t-35.5 77v21q-105 11 -169 84.5t-64 192.5q0 130 75 206t195 76t191 -72.5t71 -178.5z
M486 299q5 90 -45.5 136.5t-124.5 46.5q-75 0 -126 -46.5t-55 -136.5h351z" />
    <glyph glyph-name="Ecaron" unicode="&#x11a;" horiz-adv-x="506" 
d="M406 912v-64l-138 -83l-139 83v64l139 -84zM462 631h-298v-241h268v-70h-268v-246h298v-74h-389v705h389v-74z" />
    <glyph glyph-name="ecaron" unicode="&#x11b;" horiz-adv-x="624" 
d="M451 691l-138 -83l-139 83v64l139 -84l138 84v-64zM578 305q0 -29 -4 -50h-439q3 -94 53.5 -141t123.5 -47q66 0 110.5 33.5t54.5 89.5h97q-15 -87 -85 -142t-173 -55q-120 0 -195 75.5t-75 205.5t75 206t195 76t191 -72.5t71 -178.5zM486 299q5 90 -45.5 136.5
t-124.5 46.5q-75 0 -126 -46.5t-55 -136.5h351z" />
    <glyph glyph-name="Gbreve" unicode="&#x11e;" horiz-adv-x="778" 
d="M389 766q-62 0 -96.5 35.5t-34.5 91.5v8h43q0 -77 88 -77t88 77h43v-8q0 -56 -34.5 -91.5t-96.5 -35.5zM393 712q123 0 206.5 -61t112.5 -166h-96q-25 64 -83.5 103t-138.5 39q-110 0 -180.5 -74.5t-70.5 -200.5q0 -129 72 -203.5t187 -74.5q99 0 168.5 63t80.5 172h-277
v68h354v-84q-13 -129 -104 -214.5t-230 -85.5q-154 0 -249.5 100t-95.5 259t95.5 259.5t248.5 100.5z" />
    <glyph glyph-name="gbreve" unicode="&#x11f;" 
d="M337 610q-62 0 -96.5 35.5t-34.5 91.5v8h43q0 -77 88 -77t88 77h43v-8q0 -56 -34.5 -91.5t-96.5 -35.5zM298 556q80 0 135.5 -40t77.5 -107v140h91v-558q0 -116 -70.5 -188t-186.5 -72q-111 0 -181 53.5t-89 144.5h90q16 -55 60.5 -86.5t114.5 -31.5q74 0 122.5 47.5
t48.5 132.5v149q-22 -67 -77.5 -107t-135.5 -40q-111 0 -181.5 76t-70.5 205q0 130 70 206t182 76zM324 475q-84 0 -134.5 -53.5t-50.5 -147.5t50.5 -147.5t134.5 -53.5q82 0 134.5 55.5t52.5 145.5q0 91 -52.5 146t-134.5 55z" />
    <glyph glyph-name="Gdotaccent" unicode="&#x120;" horiz-adv-x="778" 
d="M339 831q0 21 14.5 35.5t34.5 14.5q21 0 36 -14.5t15 -35.5q0 -20 -15 -34.5t-36 -14.5q-20 0 -34.5 14.5t-14.5 34.5zM393 712q123 0 206.5 -61t112.5 -166h-96q-25 64 -83.5 103t-138.5 39q-110 0 -180.5 -74.5t-70.5 -200.5q0 -129 72 -203.5t187 -74.5q99 0 168.5 63
t80.5 172h-277v68h354v-84q-13 -129 -104 -214.5t-230 -85.5q-154 0 -249.5 100t-95.5 259t95.5 259.5t248.5 100.5z" />
    <glyph glyph-name="gdotaccent" unicode="&#x121;" 
d="M274 674q0 21 14.5 35.5t34.5 14.5q21 0 36 -14.5t15 -35.5q0 -20 -15 -34.5t-36 -14.5q-20 0 -34.5 14.5t-14.5 34.5zM298 556q80 0 135.5 -40t77.5 -107v140h91v-558q0 -116 -70.5 -188t-186.5 -72q-111 0 -181 53.5t-89 144.5h90q16 -55 60.5 -86.5t114.5 -31.5
q74 0 122.5 47.5t48.5 132.5v149q-22 -67 -77.5 -107t-135.5 -40q-111 0 -181.5 76t-70.5 205q0 130 70 206t182 76zM324 475q-84 0 -134.5 -53.5t-50.5 -147.5t50.5 -147.5t134.5 -53.5q82 0 134.5 55.5t52.5 145.5q0 91 -52.5 146t-134.5 55z" />
    <glyph glyph-name="Gcommaaccent" unicode="&#x122;" horiz-adv-x="779" 
d="M393 712q123 0 206.5 -61t112.5 -166h-96q-25 64 -83.5 103t-138.5 39q-110 0 -180.5 -74.5t-70.5 -200.5q0 -129 72 -203.5t187 -74.5q99 0 168.5 63t80.5 172h-277v68h354v-84q-13 -129 -104 -214.5t-230 -85.5q-154 0 -249.5 100t-95.5 259t95.5 259.5t248.5 100.5z
M437 -50q11 -36 11 -68q0 -118 -101 -118v39q48 0 48 61v9h-46v77h88z" />
    <glyph glyph-name="gcommaaccent" unicode="&#x123;" 
d="M290 595q-12 48 -12 93q0 112 102 112v-40q-49 0 -49 -56v-22h50v-87h-91zM298 556q80 0 135.5 -40t77.5 -107v140h91v-558q0 -116 -70.5 -188t-186.5 -72q-111 0 -181 53.5t-89 144.5h90q16 -55 60.5 -86.5t114.5 -31.5q74 0 122.5 47.5t48.5 132.5v149
q-22 -67 -77.5 -107t-135.5 -40q-111 0 -181.5 76t-70.5 205q0 130 70 206t182 76zM324 475q-84 0 -134.5 -53.5t-50.5 -147.5t50.5 -147.5t134.5 -53.5q82 0 134.5 55.5t52.5 145.5q0 91 -52.5 146t-134.5 55z" />
    <glyph glyph-name="Itilde" unicode="&#x128;" horiz-adv-x="237" 
d="M63 857q27 0 59.5 -23t52.5 -23q16 0 27 11.5t14 32.5h44q-6 -45 -29.5 -69t-58.5 -24q-28 0 -61 23t-51 23q-33 0 -40 -45h-43q15 94 86 94zM73 705h91v-705h-91v705z" />
    <glyph glyph-name="itilde" unicode="&#x129;" horiz-adv-x="255" 
d="M72 701q27 0 59.5 -23t52.5 -23q16 0 27 11.5t14 32.5h44q-6 -45 -29.5 -69t-58.5 -24q-28 0 -61 23t-51 23q-33 0 -40 -45h-43q15 94 86 94zM81 549h92v-549h-92v549z" />
    <glyph glyph-name="Imacron" unicode="&#x12a;" horiz-adv-x="237" 
d="M-58 867h353v-64h-353v64zM73 705h91v-705h-91v705z" />
    <glyph glyph-name="imacron" unicode="&#x12b;" horiz-adv-x="255" 
d="M-49 710h353v-64h-353v64zM81 549h92v-549h-92v549z" />
    <glyph glyph-name="Ibreve" unicode="&#x12c;" horiz-adv-x="237" 
d="M118 766q-62 0 -96.5 35.5t-34.5 91.5v8h43q0 -77 88 -77t88 77h43v-8q0 -56 -34.5 -91.5t-96.5 -35.5zM73 705h91v-705h-91v705z" />
    <glyph glyph-name="ibreve" unicode="&#x12d;" horiz-adv-x="255" 
d="M127 610q-62 0 -96.5 35.5t-34.5 91.5v8h43q0 -77 88 -77t88 77h43v-8q0 -56 -34.5 -91.5t-96.5 -35.5zM81 549h92v-549h-92v549z" />
    <glyph glyph-name="Iogonek" unicode="&#x12e;" horiz-adv-x="237" 
d="M110 -146h96v-53h-104q-56 0 -91.5 27.5t-35.5 77.5q0 44 27 71t71 33v695h91v-743h-54q-32 0 -51 -14t-19 -39t19 -40t51 -15z" />
    <glyph glyph-name="iogonek" unicode="&#x12f;" horiz-adv-x="237" 
d="M119 654q-28 0 -45 15.5t-17 40.5t17 40.5t45 15.5t45 -15.5t17 -40.5t-17 -40.5t-45 -15.5zM110 -146h96v-53h-104q-56 0 -91.5 27.5t-35.5 77.5q0 44 27 71t71 33v539h91v-587h-54q-32 0 -51 -14t-19 -39t19 -40t51 -15z" />
    <glyph glyph-name="Idotaccent" unicode="&#x130;" horiz-adv-x="237" 
d="M69 831q0 21 14.5 35.5t34.5 14.5q21 0 36 -14.5t15 -35.5q0 -20 -15 -34.5t-36 -14.5q-20 0 -34.5 14.5t-14.5 34.5zM73 705h91v-705h-91v705z" />
    <glyph glyph-name="dotlessi" unicode="&#x131;" horiz-adv-x="255" 
d="M81 549h92v-549h-92v549z" />
    <glyph glyph-name="Kcommaaccent" unicode="&#x136;" horiz-adv-x="602" 
d="M570 705l-322 -349l322 -356h-112l-294 329v-329h-91v705h91v-327l295 327h111zM253 -50h88q11 -32 11 -68q0 -118 -100 -118v39q47 0 47 61v9h-46v77z" />
    <glyph glyph-name="kcommaaccent" unicode="&#x137;" horiz-adv-x="495" 
d="M236 276l252 -276h-114l-210 247v-247h-91v740h91v-430l207 239h111zM207 -50h88q11 -36 11 -68q0 -118 -101 -118v39q48 0 48 61v9h-46v77z" />
    <glyph glyph-name="Lacute" unicode="&#x139;" horiz-adv-x="434" 
d="M316 923v-64l-197 -111v56zM164 705v-634h250v-71h-341v705h91z" />
    <glyph glyph-name="lacute" unicode="&#x13a;" horiz-adv-x="237" 
d="M216 767v-64l-52 -29v-674h-91v622l-54 -30v56l54 33v59h91v-4z" />
    <glyph glyph-name="Lcommaaccent" unicode="&#x13b;" horiz-adv-x="436" 
d="M164 705v-634h250v-71h-341v705h91zM296 -50q11 -36 11 -68q0 -118 -101 -118v39q48 0 48 61v9h-46v77h88z" />
    <glyph glyph-name="lcommaaccent" unicode="&#x13c;" horiz-adv-x="237" 
d="M73 740h91v-740h-91v740zM162 -50q11 -36 11 -68q0 -118 -101 -118v39q48 0 48 61v9h-46v77h88z" />
    <glyph glyph-name="Lcaron" unicode="&#x13d;" horiz-adv-x="460" 
d="M164 705v-634h250v-71h-341v705h91zM372 705q12 -53 12 -92q0 -113 -102 -113v41q49 0 49 55v23h-50v86h91z" />
    <glyph glyph-name="lcaron" unicode="&#x13e;" horiz-adv-x="306" 
d="M73 740h91v-740h-91v740zM311 740q12 -47 12 -92q0 -113 -102 -113v41q49 0 49 55v23h-50v86h91z" />
    <glyph glyph-name="Ldot" unicode="&#x13f;" horiz-adv-x="434" 
d="M164 705v-634h250v-71h-341v705h91zM315 352q0 21 14.5 35.5t34.5 14.5q21 0 36 -14.5t15 -35.5q0 -20 -15 -34.5t-36 -14.5q-20 0 -34.5 14.5t-14.5 34.5z" />
    <glyph glyph-name="ldot" unicode="&#x140;" horiz-adv-x="262" 
d="M73 740h91v-740h-91v740zM200 370q0 21 14.5 35.5t34.5 14.5q21 0 36 -14.5t15 -35.5q0 -20 -15 -34.5t-36 -14.5q-20 0 -34.5 14.5t-14.5 34.5z" />
    <glyph glyph-name="Lslash" unicode="&#x141;" horiz-adv-x="453" 
d="M183 71h250v-71h-342v312l-81 -32v91l81 32v302h92v-267l130 51v-91l-130 -51v-276z" />
    <glyph glyph-name="lslash" unicode="&#x142;" horiz-adv-x="268" 
d="M258 544v-89l-78 -33v-422h-92v384l-78 -33v89l78 33v267h92v-229z" />
    <glyph glyph-name="Nacute" unicode="&#x143;" horiz-adv-x="694" 
d="M445 923v-64l-197 -111v56zM621 705v-705h-91l-366 557v-557h-91v705h91l366 -558v558h91z" />
    <glyph glyph-name="nacute" unicode="&#x144;" horiz-adv-x="643" 
d="M420 767v-64l-197 -111v56zM362 558q96 0 155 -61.5t59 -177.5v-319h-91v311q0 82 -42 126t-114 44q-75 0 -120 -48.5t-45 -141.5v-291h-91v549h91v-130q21 67 74.5 103t123.5 36z" />
    <glyph glyph-name="Ncommaaccent" unicode="&#x145;" horiz-adv-x="712" 
d="M621 705v-705h-91l-366 557v-557h-91v705h91l366 -558v558h91zM398 -50q11 -36 11 -68q0 -118 -101 -118v39q48 0 48 61v9h-46v77h88z" />
    <glyph glyph-name="ncommaaccent" unicode="&#x146;" horiz-adv-x="643" 
d="M362 558q96 0 155 -61.5t59 -177.5v-319h-91v311q0 82 -42 126t-114 44q-75 0 -120 -48.5t-45 -141.5v-291h-91v549h91v-130q21 67 74.5 103t123.5 36zM289 -50h88q11 -36 11 -68q0 -118 -101 -118v39q48 0 48 61v9h-46v77z" />
    <glyph glyph-name="Ncaron" unicode="&#x147;" horiz-adv-x="694" 
d="M485 912v-64l-138 -83l-139 83v64l139 -84zM621 705v-705h-91l-366 557v-557h-91v705h91l366 -558v558h91z" />
    <glyph glyph-name="ncaron" unicode="&#x148;" horiz-adv-x="643" 
d="M462 691l-138 -83l-139 83v64l139 -84l138 84v-64zM362 558q96 0 155 -61.5t59 -177.5v-319h-91v311q0 82 -42 126t-114 44q-75 0 -120 -48.5t-45 -141.5v-291h-91v549h91v-130q21 67 74.5 103t123.5 36z" />
    <glyph glyph-name="Omacron" unicode="&#x14c;" horiz-adv-x="791" 
d="M219 867h353v-64h-353v64zM396 714q149 0 247 -101.5t98 -259.5t-98 -259.5t-247 -101.5q-150 0 -248.5 101.5t-98.5 259.5t98.5 259.5t248.5 101.5zM396 629q-111 0 -182 -75t-71 -201t71 -201t182 -75q110 0 181 75.5t71 200.5q0 126 -71 201t-181 75z" />
    <glyph glyph-name="omacron" unicode="&#x14d;" horiz-adv-x="643" 
d="M145 710h353v-64h-353v64zM322 556q120 0 197.5 -76.5t77.5 -205.5t-77 -205t-198 -76t-198.5 76t-77.5 205t77.5 205.5t198.5 76.5zM322 476q-77 0 -130 -51.5t-53 -150.5q0 -98 53 -149.5t130 -51.5t130 51.5t53 149.5q0 99 -53 150.5t-130 51.5z" />
    <glyph glyph-name="Obreve" unicode="&#x14e;" horiz-adv-x="791" 
d="M395 766q-62 0 -96.5 35.5t-34.5 91.5v8h43q0 -77 88 -77t88 77h43v-8q0 -56 -34.5 -91.5t-96.5 -35.5zM396 714q149 0 247 -101.5t98 -259.5t-98 -259.5t-247 -101.5q-150 0 -248.5 101.5t-98.5 259.5t98.5 259.5t248.5 101.5zM396 629q-111 0 -182 -75t-71 -201
t71 -201t182 -75q110 0 181 75.5t71 200.5q0 126 -71 201t-181 75z" />
    <glyph glyph-name="obreve" unicode="&#x14f;" horiz-adv-x="643" 
d="M322 610q-62 0 -96.5 35.5t-34.5 91.5v8h43q0 -77 88 -77t88 77h43v-8q0 -56 -34.5 -91.5t-96.5 -35.5zM322 556q120 0 197.5 -76.5t77.5 -205.5t-77 -205t-198 -76t-198.5 76t-77.5 205t77.5 205.5t198.5 76.5zM322 476q-77 0 -130 -51.5t-53 -150.5q0 -98 53 -149.5
t130 -51.5t130 51.5t53 149.5q0 99 -53 150.5t-130 51.5z" />
    <glyph glyph-name="Ohungarumlaut" unicode="&#x150;" horiz-adv-x="791" 
d="M425 912l-82 -154h-60l67 154h75zM587 912l-93 -154h-60l79 154h74zM396 714q149 0 247 -101.5t98 -259.5t-98 -259.5t-247 -101.5q-150 0 -248.5 101.5t-98.5 259.5t98.5 259.5t248.5 101.5zM396 629q-111 0 -182 -75t-71 -201t71 -201t182 -75q110 0 181 75.5t71 200.5
q0 126 -71 201t-181 75z" />
    <glyph glyph-name="ohungarumlaut" unicode="&#x151;" horiz-adv-x="643" 
d="M355 755l-82 -154h-60l67 154h75zM517 755l-93 -154h-60l79 154h74zM322 556q120 0 197.5 -76.5t77.5 -205.5t-77 -205t-198 -76t-198.5 76t-77.5 205t77.5 205.5t198.5 76.5zM322 476q-77 0 -130 -51.5t-53 -150.5q0 -98 53 -149.5t130 -51.5t130 51.5t53 149.5
q0 99 -53 150.5t-130 51.5z" />
    <glyph glyph-name="OE" unicode="&#x152;" horiz-adv-x="1086" 
d="M744 631v-241h267v-70h-267v-246h297v-74h-389v168q-27 -81 -98.5 -128.5t-163.5 -48.5q-149 0 -245 101t-96 260t96 260.5t245 101.5q91 0 163 -48.5t99 -129.5v169h389v-74h-297zM396 75q110 0 181 75.5t71 201.5q0 127 -71 202t-181 75q-112 0 -182.5 -75t-70.5 -202
q0 -126 71 -201.5t182 -75.5z" />
    <glyph glyph-name="oe" unicode="&#x153;" horiz-adv-x="1095" 
d="M1040 305q0 -29 -4 -50h-439q3 -94 53.5 -141t123.5 -47q65 0 109.5 33.5t55.5 89.5h97q-16 -87 -85.5 -142t-172.5 -55q-80 0 -139.5 37.5t-87.5 106.5q-27 -68 -88 -106t-141 -38q-121 0 -198.5 76t-77.5 205t77.5 205.5t198.5 76.5q79 0 140 -38t89 -106
q28 68 87.5 106t139.5 38q120 0 191 -72.5t71 -178.5zM948 299q5 90 -45.5 136.5t-124.5 46.5q-75 0 -126 -46.5t-55 -136.5h351zM322 73q77 0 130 51.5t53 149.5q0 99 -53 150.5t-130 51.5t-130 -51.5t-53 -150.5q0 -98 53 -149.5t130 -51.5z" />
    <glyph glyph-name="Racute" unicode="&#x154;" horiz-adv-x="583" 
d="M390 923v-64l-197 -111v56zM550 0h-103l-184 288h-99v-288h-91v705h232q120 0 180 -57.5t60 -152.5q0 -86 -48 -138.5t-139 -65.5zM164 626v-272h133q155 0 155 136t-155 136h-133z" />
    <glyph glyph-name="racute" unicode="&#x155;" horiz-adv-x="384" 
d="M290 767v-64l-197 -111v56zM164 438q27 57 79 88.5t124 31.5v-99h-28q-77 0 -126 -39.5t-49 -130.5v-289h-91v549h91v-111z" />
    <glyph glyph-name="Rcommaaccent" unicode="&#x156;" horiz-adv-x="594" 
d="M358 291l192 -291h-103l-184 288h-99v-288h-91v705h232q120 0 180 -57.5t60 -152.5q0 -86 -48 -138.5t-139 -65.5zM164 626v-272h133q155 0 155 136t-155 136h-133zM249 -50h88q11 -36 11 -68q0 -118 -101 -118v39q47 0 47 61v9h-45v77z" />
    <glyph glyph-name="rcommaaccent" unicode="&#x157;" horiz-adv-x="384" 
d="M164 438q27 57 79 88.5t124 31.5v-99h-28q-77 0 -126 -39.5t-49 -130.5v-289h-91v549h91v-111zM72 -50h88q10 -33 10 -68q0 -118 -100 -118v39q47 0 47 61v9h-45v77z" />
    <glyph glyph-name="Rcaron" unicode="&#x158;" horiz-adv-x="583" 
d="M450 848l-138 -83l-139 83v64l139 -84l138 84v-64zM550 0h-103l-184 288h-99v-288h-91v705h232q120 0 180 -57.5t60 -152.5q0 -86 -48 -138.5t-139 -65.5zM164 626v-272h133q155 0 155 136t-155 136h-133z" />
    <glyph glyph-name="rcaron" unicode="&#x159;" horiz-adv-x="384" 
d="M358 691l-138 -83l-139 83v64l139 -84l138 84v-64zM164 438q27 57 79 88.5t124 31.5v-99h-28q-77 0 -126 -39.5t-49 -130.5v-289h-91v549h91v-111z" />
    <glyph glyph-name="Sacute" unicode="&#x15a;" horiz-adv-x="568" 
d="M382 923v-64l-197 -111v56zM519 183q0 -78 -56 -134t-162 -56q-105 0 -173 55t-76 142h97q5 -48 43.5 -86t105.5 -38q60 0 92 32t32 82q0 54 -38.5 86t-93 49t-109.5 36t-93.5 63t-38.5 115q0 83 59.5 134t159.5 51q104 0 165 -50.5t71 -128.5h-98q-8 42 -43 74t-95 32
q-55 0 -88 -28.5t-33 -80.5q0 -38 20.5 -64.5t53.5 -41.5t72.5 -27t79 -27.5t72.5 -36.5t53.5 -59.5t20.5 -92.5z" />
    <glyph glyph-name="sacute" unicode="&#x15b;" horiz-adv-x="517" 
d="M357 767v-64l-197 -111v56zM245 556q93 0 149.5 -48.5t68.5 -130.5h-87q-6 49 -40.5 80.5t-92.5 31.5q-49 0 -76.5 -23.5t-27.5 -63.5q0 -39 34 -60.5t82 -31.5t96.5 -23.5t82.5 -48.5t34 -94q0 -67 -50.5 -109t-134.5 -42q-98 0 -160 47t-73 131h88q5 -50 43.5 -81
t101.5 -31q47 0 73.5 24t26.5 63q0 34 -24.5 56t-60.5 30t-79 19.5t-79 24.5t-60.5 45.5t-24.5 80.5q0 69 51 111.5t139 42.5z" />
    <glyph glyph-name="Scedilla" unicode="&#x15e;" horiz-adv-x="568" 
d="M519 183q0 -74 -51.5 -129t-148.5 -61v-60q56 2 91.5 -21.5t35.5 -72.5q0 -48 -34 -73.5t-88 -25.5h-102v53h92q67 0 67 48q0 45 -67 45h-54v109q-89 11 -145 64t-63 131h97q5 -48 43.5 -86t105.5 -38q60 0 92 32t32 82q0 54 -38.5 86t-93 49t-109.5 36t-93.5 63
t-38.5 115q0 83 59.5 134t159.5 51q104 0 165 -50.5t71 -128.5h-98q-8 42 -43 74t-95 32q-55 0 -88 -28.5t-33 -80.5q0 -38 20.5 -64.5t53.5 -41.5t72.5 -27t79 -27.5t72.5 -36.5t53.5 -59.5t20.5 -92.5z" />
    <glyph glyph-name="scedilla" unicode="&#x15f;" horiz-adv-x="517" 
d="M468 144q0 -65 -48 -107t-129 -44v-60q56 2 91.5 -21.5t35.5 -72.5q0 -48 -34 -73.5t-88 -25.5h-102v53h92q67 0 67 48q0 45 -67 45h-54v111q-77 11 -124.5 56.5t-57.5 117.5h88q5 -50 43.5 -81t101.5 -31q47 0 73.5 24t26.5 63q0 34 -24.5 56t-60.5 30t-79 19.5
t-79 24.5t-60.5 45.5t-24.5 80.5q0 69 51 111.5t139 42.5q93 0 149.5 -48.5t68.5 -130.5h-87q-6 49 -40.5 80.5t-92.5 31.5q-49 0 -76.5 -23.5t-27.5 -63.5q0 -39 34 -60.5t82 -31.5t96.5 -23.5t82.5 -48.5t34 -94z" />
    <glyph glyph-name="Scaron" unicode="&#x160;" horiz-adv-x="568" 
d="M423 912v-64l-138 -83l-139 83v64l139 -84zM519 183q0 -78 -56 -134t-162 -56q-105 0 -173 55t-76 142h97q5 -48 43.5 -86t105.5 -38q60 0 92 32t32 82q0 54 -38.5 86t-93 49t-109.5 36t-93.5 63t-38.5 115q0 83 59.5 134t159.5 51q104 0 165 -50.5t71 -128.5h-98
q-8 42 -43 74t-95 32q-55 0 -88 -28.5t-33 -80.5q0 -38 20.5 -64.5t53.5 -41.5t72.5 -27t79 -27.5t72.5 -36.5t53.5 -59.5t20.5 -92.5z" />
    <glyph glyph-name="scaron" unicode="&#x161;" horiz-adv-x="517" 
d="M397 755v-64l-138 -83l-139 83v64l139 -84zM245 556q93 0 149.5 -48.5t68.5 -130.5h-87q-6 49 -40.5 80.5t-92.5 31.5q-49 0 -76.5 -23.5t-27.5 -63.5q0 -39 34 -60.5t82 -31.5t96.5 -23.5t82.5 -48.5t34 -94q0 -67 -50.5 -109t-134.5 -42q-98 0 -160 47t-73 131h88
q5 -50 43.5 -81t101.5 -31q47 0 73.5 24t26.5 63q0 34 -24.5 56t-60.5 30t-79 19.5t-79 24.5t-60.5 45.5t-24.5 80.5q0 69 51 111.5t139 42.5z" />
    <glyph glyph-name="uni0162" unicode="&#x162;" horiz-adv-x="522" 
d="M505 631h-199v-627q100 -14 100 -89q0 -48 -34 -73.5t-88 -25.5h-100v53h92q65 0 65 48q0 45 -65 45h-61v669h-199v74h489v-74z" />
    <glyph glyph-name="uni0163" unicode="&#x163;" horiz-adv-x="373" 
d="M255 -67q56 2 91.5 -21.5t35.5 -72.5q0 -48 -34 -73.5t-88 -25.5h-102v53h92q67 0 67 48q0 45 -67 45h-54v123q-96 28 -96 165v296h-82v79h82v137h92v-137h142v-79h-142v-298q0 -53 19.5 -72.5t67.5 -19.5h56v-80h-68h-12v-67z" />
    <glyph glyph-name="Tcaron" unicode="&#x164;" horiz-adv-x="522" 
d="M400 912v-64l-138 -83l-139 83v64l139 -84zM16 705h489v-74h-199v-631h-91v631h-199v74z" />
    <glyph glyph-name="tcaron" unicode="&#x165;" horiz-adv-x="373" 
d="M300 682v25h-50v86h92q12 -52 12 -88q0 -106 -102 -106v41q48 0 48 42zM192 172q0 -53 19.5 -72.5t67.5 -19.5h56v-80h-68q-84 0 -125.5 40t-41.5 134v296h-82v79h82v137h92v-137h142v-79h-142v-298z" />
    <glyph glyph-name="Utilde" unicode="&#x168;" horiz-adv-x="661" 
d="M276 857q27 0 59.5 -23t52.5 -23q16 0 27 11.5t14 32.5h44q-6 -45 -29.5 -69t-58.5 -24q-28 0 -61 23t-51 23q-33 0 -40 -45h-43q15 94 86 94zM68 705h91v-423q0 -104 46 -153.5t127 -49.5q80 0 125 50t45 153v423h91v-423q0 -144 -71.5 -216.5t-191.5 -72.5
q-119 0 -190.5 72.5t-71.5 216.5v423z" />
    <glyph glyph-name="utilde" unicode="&#x169;" horiz-adv-x="634" 
d="M259 652q-33 0 -40 -45h-43q15 94 86 94q27 0 59.5 -23t52.5 -23q16 0 27 11.5t14 32.5h44q-6 -45 -29.5 -69t-58.5 -24q-28 0 -61 23t-51 23zM470 549h91v-549h-91v129q-21 -67 -74.5 -102.5t-124.5 -35.5q-95 0 -154 61.5t-59 176.5v320h91v-311q0 -82 42 -126.5
t114 -44.5q75 0 120 48.5t45 141.5v292z" />
    <glyph glyph-name="Umacron" unicode="&#x16a;" horiz-adv-x="661" 
d="M154 867h353v-64h-353v64zM68 705h91v-423q0 -104 46 -153.5t127 -49.5q80 0 125 50t45 153v423h91v-423q0 -144 -71.5 -216.5t-191.5 -72.5q-119 0 -190.5 72.5t-71.5 216.5v423z" />
    <glyph glyph-name="umacron" unicode="&#x16b;" horiz-adv-x="634" 
d="M486 710v-64h-353v64h353zM470 549h91v-549h-91v129q-21 -67 -74.5 -102.5t-124.5 -35.5q-95 0 -154 61.5t-59 176.5v320h91v-311q0 -82 42 -126.5t114 -44.5q75 0 120 48.5t45 141.5v292z" />
    <glyph glyph-name="Ubreve" unicode="&#x16c;" horiz-adv-x="661" 
d="M331 766q-62 0 -96.5 35.5t-34.5 91.5v8h43q0 -77 88 -77t88 77h43v-8q0 -56 -34.5 -91.5t-96.5 -35.5zM68 705h91v-423q0 -104 46 -153.5t127 -49.5q80 0 125 50t45 153v423h91v-423q0 -144 -71.5 -216.5t-191.5 -72.5q-119 0 -190.5 72.5t-71.5 216.5v423z" />
    <glyph glyph-name="ubreve" unicode="&#x16d;" horiz-adv-x="634" 
d="M317 610q-62 0 -96.5 35.5t-34.5 91.5v8h43q0 -77 88 -77t88 77h43v-8q0 -56 -34.5 -91.5t-96.5 -35.5zM470 549h91v-549h-91v129q-21 -67 -74.5 -102.5t-124.5 -35.5q-95 0 -154 61.5t-59 176.5v320h91v-311q0 -82 42 -126.5t114 -44.5q75 0 120 48.5t45 141.5v292z" />
    <glyph glyph-name="Uring" unicode="&#x16e;" horiz-adv-x="661" 
d="M330 974q45 0 75 -28.5t30 -76.5t-30 -76.5t-75 -28.5q-44 0 -74.5 29t-30.5 76t30.5 76t74.5 29zM330 932q-27 0 -44 -17t-17 -46t17 -46t44 -17t44.5 17t17.5 46t-17.5 46t-44.5 17zM68 705h91v-423q0 -104 46 -153.5t127 -49.5q80 0 125 50t45 153v423h91v-423
q0 -144 -71.5 -216.5t-191.5 -72.5q-119 0 -190.5 72.5t-71.5 216.5v423z" />
    <glyph glyph-name="uring" unicode="&#x16f;" horiz-adv-x="634" 
d="M309 607q-44 0 -74.5 29t-30.5 76t30.5 76t74.5 29q45 0 75 -28.5t30 -76.5t-30 -76.5t-75 -28.5zM309 775q-27 0 -44 -17t-17 -46t17 -46t44 -17t44.5 17t17.5 46t-17.5 46t-44.5 17zM470 549h91v-549h-91v129q-21 -67 -74.5 -102.5t-124.5 -35.5q-95 0 -154 61.5
t-59 176.5v320h91v-311q0 -82 42 -126.5t114 -44.5q75 0 120 48.5t45 141.5v292z" />
    <glyph glyph-name="Uhungarumlaut" unicode="&#x170;" horiz-adv-x="661" 
d="M339 912l-82 -154h-60l67 154h75zM501 912l-93 -154h-60l79 154h74zM68 705h91v-423q0 -104 46 -153.5t127 -49.5q80 0 125 50t45 153v423h91v-423q0 -144 -71.5 -216.5t-191.5 -72.5q-119 0 -190.5 72.5t-71.5 216.5v423z" />
    <glyph glyph-name="uhungarumlaut" unicode="&#x171;" horiz-adv-x="634" 
d="M318 755l-82 -154h-60l67 154h75zM480 755l-93 -154h-60l79 154h74zM470 549h91v-549h-91v129q-21 -67 -74.5 -102.5t-124.5 -35.5q-95 0 -154 61.5t-59 176.5v320h91v-311q0 -82 42 -126.5t114 -44.5q75 0 120 48.5t45 141.5v292z" />
    <glyph glyph-name="Uogonek" unicode="&#x172;" horiz-adv-x="678" 
d="M379 -164q-54 0 -88 28.5t-34 77.5q0 18 10 34t25 21q-96 16 -155.5 88.5t-59.5 196.5v423h91v-423q0 -103 45.5 -153t126.5 -50q171 0 171 203v423h91v-423q0 -129 -59.5 -199.5t-155.5 -83.5q-64 -7 -64 -57q0 -25 19 -39.5t52 -14.5h91v-52h-106z" />
    <glyph glyph-name="uogonek" unicode="&#x173;" horiz-adv-x="634" 
d="M507 -146h96v-53h-104q-56 0 -91.5 27.5t-35.5 77.5q0 44 27 71t71 33v119q-21 -67 -74.5 -102.5t-124.5 -35.5q-95 0 -154 61.5t-59 176.5v320h91v-311q0 -82 42 -126.5t114 -44.5q75 0 120 48.5t45 141.5v292h91v-587h-54q-32 0 -51 -14t-19 -39t19 -40t51 -15z" />
    <glyph glyph-name="Wcircumflex" unicode="&#x174;" horiz-adv-x="974" 
d="M615 766l-128 78l-128 -78v55l128 77l128 -77v-55zM840 705h100l-179 -705h-111l-163 576l-163 -576h-111l-180 705h101l135 -599l167 599h101l167 -597z" />
    <glyph glyph-name="wcircumflex" unicode="&#x175;" horiz-adv-x="839" 
d="M548 610l-128 78l-128 -78v55l128 77l128 -77v-55zM740 549h87l-158 -549h-98l-151 447l-152 -447h-99l-156 549h92l117 -462l152 462h95l153 -461z" />
    <glyph glyph-name="Ycircumflex" unicode="&#x176;" horiz-adv-x="593" 
d="M425 766l-128 78l-128 -78v55l128 77l128 -77v-55zM470 705h104l-231 -438v-267h-92v267l-232 438h106l173 -341z" />
    <glyph glyph-name="ycircumflex" unicode="&#x177;" horiz-adv-x="565" 
d="M411 610l-128 78l-128 -78v55l128 77l128 -77v-55zM9 549h102l178 -432l165 432h101l-326 -809h-103l114 269z" />
    <glyph glyph-name="Ydieresis" unicode="&#x178;" horiz-adv-x="593" 
d="M214 782q-21 0 -35.5 14.5t-14.5 34.5q0 21 14.5 35.5t35.5 14.5t35.5 -14.5t14.5 -35.5q0 -20 -14.5 -34.5t-35.5 -14.5zM380 782q-21 0 -35.5 14.5t-14.5 34.5q0 21 14.5 35.5t35.5 14.5t35.5 -14.5t14.5 -35.5q0 -20 -14.5 -34.5t-35.5 -14.5zM470 705h104l-231 -438
v-267h-92v267l-232 438h106l173 -341z" />
    <glyph glyph-name="Zacute" unicode="&#x179;" horiz-adv-x="538" 
d="M367 923v-64l-197 -111v56zM491 633l-349 -558h355v-75h-457v72l349 558h-340v75h442v-72z" />
    <glyph glyph-name="zacute" unicode="&#x17a;" horiz-adv-x="446" 
d="M322 767v-64l-197 -111v56zM410 475l-284 -398h294v-77h-394v73l280 399h-272v77h376v-74z" />
    <glyph glyph-name="Zdotaccent" unicode="&#x17b;" horiz-adv-x="538" 
d="M219 831q0 21 14.5 35.5t34.5 14.5q21 0 36 -14.5t15 -35.5q0 -20 -15 -34.5t-36 -14.5q-20 0 -34.5 14.5t-14.5 34.5zM491 633l-349 -558h355v-75h-457v72l349 558h-340v75h442v-72z" />
    <glyph glyph-name="zdotaccent" unicode="&#x17c;" horiz-adv-x="446" 
d="M173 674q0 21 14.5 35.5t34.5 14.5q21 0 36 -14.5t15 -35.5q0 -20 -15 -34.5t-36 -14.5q-20 0 -34.5 14.5t-14.5 34.5zM410 475l-284 -398h294v-77h-394v73l280 399h-272v77h376v-74z" />
    <glyph glyph-name="Zcaron" unicode="&#x17d;" horiz-adv-x="538" 
d="M407 912v-64l-138 -83l-139 83v64l139 -84zM491 633l-349 -558h355v-75h-457v72l349 558h-340v75h442v-72z" />
    <glyph glyph-name="zcaron" unicode="&#x17e;" horiz-adv-x="446" 
d="M362 755v-64l-138 -83l-139 83v64l139 -84zM410 475l-284 -398h294v-77h-394v73l280 399h-272v77h376v-74z" />
    <glyph glyph-name="florin" unicode="&#x192;" horiz-adv-x="334" 
d="M347 688q-115 0 -125 -93l-5 -46h122l-7 -78h-123l-56 -528q-8 -74 -48 -107.5t-115 -33.5h-31l7 79h31q31 0 46 13.5t19 48.5l56 528h-70l6 78h72l5 46q18 172 223 172z" />
    <glyph glyph-name="Ohorn" unicode="&#x1a0;" horiz-adv-x="791" 
d="M572 668q79 -45 124 -127.5t45 -187.5q0 -158 -98 -259.5t-247 -101.5q-150 0 -248.5 101.5t-98.5 259.5t98.5 259.5t248.5 101.5q42 0 81 -9q96 7 96 113h66q0 -101 -67 -150zM396 77q110 0 181 75.5t71 200.5q0 126 -71 201t-181 75q-111 0 -182 -75t-71 -201t71 -201
t182 -75z" />
    <glyph glyph-name="ohorn" unicode="&#x1a1;" horiz-adv-x="643" 
d="M486 508q111 -77 111 -234q0 -129 -77 -205t-198 -76t-198.5 76t-77.5 205t77.5 205.5t198.5 76.5q38 0 67 -7q104 2 104 113h66q0 -106 -73 -154zM322 73q77 0 130 51.5t53 149.5q0 99 -53 150.5t-130 51.5t-130 -51.5t-53 -150.5q0 -98 53 -149.5t130 -51.5z" />
    <glyph glyph-name="Uhorn" unicode="&#x1af;" horiz-adv-x="661" 
d="M706 818q0 -70 -31 -113t-82 -59v-364q0 -144 -71.5 -216.5t-191.5 -72.5q-119 0 -190.5 72.5t-71.5 216.5v423h91v-423q0 -104 46 -153.5t127 -49.5q80 0 125 50t45 153v423h31q107 0 107 113h66z" />
    <glyph glyph-name="uhorn" unicode="&#x1b0;" horiz-adv-x="634" 
d="M689 662q0 -75 -35.5 -119.5t-92.5 -56.5v-486h-91v129q-21 -67 -74.5 -102.5t-124.5 -35.5q-95 0 -154 61.5t-59 176.5v320h91v-311q0 -82 42 -126.5t114 -44.5q75 0 120 48.5t45 141.5v292h46q107 0 107 113h66z" />
    <glyph glyph-name="AEacute" unicode="&#x1fc;" horiz-adv-x="890" 
d="M622 924v-64l-197 -111v56zM846 631h-295v-239h265v-71h-265v-247h295v-74h-386v160h-262l-91 -160h-101l400 705h440v-74zM238 230h222v391z" />
    <glyph glyph-name="aeacute" unicode="&#x1fd;" horiz-adv-x="1106" 
d="M710 767v-64l-197 -111v56zM1060 305q0 -29 -4 -50h-452q4 -94 56 -141.5t128 -47.5q68 0 114.5 33t57.5 91h96q-15 -88 -79 -142.5t-161 -54.5q-79 0 -136 38t-78 109v-140h-91v140q-22 -67 -77.5 -107t-135.5 -40q-111 0 -181.5 76t-70.5 205q0 130 70 206t182 76
q80 0 135.5 -40t77.5 -107v140h91v-141q20 71 77.5 109.5t136.5 38.5q113 0 178.5 -72.5t65.5 -178.5zM969 299q4 89 -49 136t-130 47q-76 0 -129 -45.5t-57 -137.5h365zM324 73q82 0 134.5 55.5t52.5 145.5q0 91 -52.5 146t-134.5 55q-84 0 -134.5 -53.5t-50.5 -147.5
t50.5 -147.5t134.5 -53.5z" />
    <glyph glyph-name="Scommaaccent" unicode="&#x218;" horiz-adv-x="589" 
d="M519 183q0 -78 -56 -134t-162 -56q-105 0 -173 55t-76 142h97q5 -48 43.5 -86t105.5 -38q60 0 92 32t32 82q0 54 -38.5 86t-93 49t-109.5 36t-93.5 63t-38.5 115q0 83 59.5 134t159.5 51q104 0 165 -50.5t71 -128.5h-98q-8 42 -43 74t-95 32q-55 0 -88 -28.5t-33 -80.5
q0 -38 20.5 -64.5t53.5 -41.5t72.5 -27t79 -27.5t72.5 -36.5t53.5 -59.5t20.5 -92.5zM354 -50q10 -33 10 -68q0 -118 -100 -118v39q47 0 47 61v9h-45v77h88z" />
    <glyph glyph-name="scommaaccent" unicode="&#x219;" horiz-adv-x="517" 
d="M245 556q93 0 149.5 -48.5t68.5 -130.5h-87q-6 49 -40.5 80.5t-92.5 31.5q-49 0 -76.5 -23.5t-27.5 -63.5q0 -39 34 -60.5t82 -31.5t96.5 -23.5t82.5 -48.5t34 -94q0 -67 -50.5 -109t-134.5 -42q-98 0 -160 47t-73 131h88q5 -50 43.5 -81t101.5 -31q47 0 73.5 24t26.5 63
q0 34 -24.5 56t-60.5 30t-79 19.5t-79 24.5t-60.5 45.5t-24.5 80.5q0 69 51 111.5t139 42.5zM315 -50q10 -33 10 -68q0 -118 -100 -118v39q47 0 47 61v9h-45v77h88z" />
    <glyph glyph-name="uni021A" unicode="&#x21a;" horiz-adv-x="522" 
d="M16 705h489v-74h-199v-631h-91v631h-199v74zM303 -50q10 -33 10 -68q0 -118 -100 -118v39q47 0 47 61v9h-45v77h88z" />
    <glyph glyph-name="uni021B" unicode="&#x21b;" horiz-adv-x="373" 
d="M279 80h56v-80h-68q-84 0 -125.5 40t-41.5 134v296h-82v79h82v137h92v-137h142v-79h-142v-298q0 -53 19.5 -72.5t67.5 -19.5zM166 -50h89q10 -33 10 -68q0 -118 -100 -118v39q47 0 47 61v9h-46v77z" />
    <glyph glyph-name="circumflex" unicode="&#x2c6;" horiz-adv-x="336" 
d="M296 610l-128 78l-128 -78v55l128 77l128 -77v-55z" />
    <glyph glyph-name="caron" unicode="&#x2c7;" horiz-adv-x="336" 
d="M306 755v-64l-138 -83l-139 83v64l139 -84z" />
    <glyph glyph-name="breve" unicode="&#x2d8;" horiz-adv-x="344" 
d="M172 610q-62 0 -96.5 35.5t-34.5 91.5v8h43q0 -77 88 -77t88 77h43v-8q0 -56 -34.5 -91.5t-96.5 -35.5z" />
    <glyph glyph-name="dotaccent" unicode="&#x2d9;" horiz-adv-x="167" 
d="M34 674q0 21 14.5 35.5t34.5 14.5q21 0 36 -14.5t15 -35.5q0 -20 -15 -34.5t-36 -14.5q-20 0 -34.5 14.5t-14.5 34.5z" />
    <glyph glyph-name="ring" unicode="&#x2da;" horiz-adv-x="268" 
d="M134 817q45 0 75 -28.5t30 -76.5t-30 -76.5t-75 -28.5q-44 0 -74.5 29t-30.5 76t30.5 76t74.5 29zM134 775q-27 0 -44 -17t-17 -46t17 -46t44 -17t44.5 17t17.5 46t-17.5 46t-44.5 17z" />
    <glyph glyph-name="ogonek" unicode="&#x2db;" horiz-adv-x="283" 
d="M146 -14h69v-49h-54q-32 0 -51 -14t-19 -39t19 -40t51 -15h96v-53h-104q-56 0 -91.5 27.5t-35.5 77.5q0 49 34 77t86 28z" />
    <glyph glyph-name="tilde" unicode="&#x2dc;" horiz-adv-x="363" 
d="M126 701q27 0 59.5 -23t52.5 -23q16 0 27 11.5t14 32.5h44q-6 -45 -29.5 -69t-58.5 -24q-28 0 -61 23t-51 23q-33 0 -40 -45h-43q15 94 86 94z" />
    <glyph glyph-name="hungarumlaut" unicode="&#x2dd;" horiz-adv-x="363" 
d="M171 755l-82 -154h-60l67 154h75zM333 755l-93 -154h-60l79 154h74z" />
    <glyph glyph-name="gravecomb" unicode="&#x300;" horiz-adv-x="0" 
d="M-250 767l197 -119v-56l-197 111v64z" />
    <glyph glyph-name="acutecomb" unicode="&#x301;" horiz-adv-x="0" 
d="M-37 767v-64l-197 -111v56z" />
    <glyph glyph-name="uni0302" unicode="&#x302;" horiz-adv-x="0" 
d="M-40 610l-128 78l-128 -78v55l128 77l128 -77v-55z" />
    <glyph glyph-name="tildecomb" unicode="&#x303;" horiz-adv-x="0" 
d="M-237 701q27 0 59.5 -23t52.5 -23q16 0 27 11.5t14 32.5h44q-6 -45 -29.5 -69t-58.5 -24q-28 0 -61 23t-51 23q-33 0 -40 -45h-43q15 94 86 94z" />
    <glyph glyph-name="uni0306" unicode="&#x306;" horiz-adv-x="0" 
d="M-172 610q-62 0 -96.5 35.5t-34.5 91.5v8h43q0 -77 88 -77t88 77h43v-8q0 -56 -34.5 -91.5t-96.5 -35.5z" />
    <glyph glyph-name="hookabovecomb" unicode="&#x309;" horiz-adv-x="0" 
d="M-208 748q84 0 84 -81q0 -8 -1.5 -15.5t-6 -16t-7.5 -13.5t-11.5 -14.5t-12.5 -13.5l-16 -16l-16 -16l-29 25q29 29 41.5 46t12.5 34q0 21 -9.5 29.5t-29.5 8.5q-21 0 -29.5 -11t-12.5 -35l-44 4q2 17 5.5 29.5t12.5 26.5t26.5 21.5t42.5 7.5z" />
    <glyph glyph-name="uni031B" unicode="&#x31b;" horiz-adv-x="0" 
d="M-172 481v68q107 0 107 113h66q0 -90 -50 -135.5t-123 -45.5z" />
    <glyph glyph-name="dotbelowcomb" unicode="&#x323;" horiz-adv-x="0" 
d="M-133 -123q0 21 14.5 35.5t34.5 14.5q21 0 36 -14.5t15 -35.5q0 -20 -15 -34.5t-36 -14.5q-20 0 -34.5 14.5t-14.5 34.5z" />
    <glyph glyph-name="pi" unicode="&#x3c0;" horiz-adv-x="716" 
d="M45 549h628v-71h-80v-478h-91v478h-286v-478h-91v478h-80v71z" />
    <glyph glyph-name="Wgrave" unicode="&#x1e80;" horiz-adv-x="974" 
d="M585 804v-56l-197 111v64zM840 705h100l-179 -705h-111l-163 576l-163 -576h-111l-180 705h101l135 -599l167 599h101l167 -597z" />
    <glyph glyph-name="wgrave" unicode="&#x1e81;" horiz-adv-x="839" 
d="M518 648v-56l-197 111v64zM740 549h87l-158 -549h-98l-151 447l-152 -447h-99l-156 549h92l117 -462l152 462h95l153 -461z" />
    <glyph glyph-name="Wacute" unicode="&#x1e82;" horiz-adv-x="974" 
d="M585 923v-64l-197 -111v56zM840 705h100l-179 -705h-111l-163 576l-163 -576h-111l-180 705h101l135 -599l167 599h101l167 -597z" />
    <glyph glyph-name="wacute" unicode="&#x1e83;" horiz-adv-x="839" 
d="M518 767v-64l-197 -111v56zM740 549h87l-158 -549h-98l-151 447l-152 -447h-99l-156 549h92l117 -462l152 462h95l153 -461z" />
    <glyph glyph-name="Wdieresis" unicode="&#x1e84;" horiz-adv-x="974" 
d="M404 782q-21 0 -35.5 14.5t-14.5 34.5q0 21 14.5 35.5t35.5 14.5t35.5 -14.5t14.5 -35.5q0 -20 -14.5 -34.5t-35.5 -14.5zM570 782q-21 0 -35.5 14.5t-14.5 34.5q0 21 14.5 35.5t35.5 14.5t35.5 -14.5t14.5 -35.5q0 -20 -14.5 -34.5t-35.5 -14.5zM840 705h100l-179 -705
h-111l-163 576l-163 -576h-111l-180 705h101l135 -599l167 599h101l167 -597z" />
    <glyph glyph-name="wdieresis" unicode="&#x1e85;" horiz-adv-x="839" 
d="M337 625q-21 0 -35.5 14.5t-14.5 34.5q0 21 14.5 35.5t35.5 14.5t35.5 -14.5t14.5 -35.5q0 -20 -14.5 -34.5t-35.5 -14.5zM503 625q-21 0 -35.5 14.5t-14.5 34.5q0 21 14.5 35.5t35.5 14.5t35.5 -14.5t14.5 -35.5q0 -20 -14.5 -34.5t-35.5 -14.5zM740 549h87l-158 -549
h-98l-151 447l-152 -447h-99l-156 549h92l117 -462l152 462h95l153 -461z" />
    <glyph glyph-name="uni1EA0" unicode="&#x1ea0;" horiz-adv-x="662" 
d="M643 0h-98l-59 163h-310l-59 -163h-98l261 692h103zM202 234h258l-129 356zM331 -73q21 0 36 -14.5t15 -35.5q0 -20 -15 -34.5t-36 -14.5q-20 0 -34.5 14.5t-14.5 34.5q0 21 14.5 35.5t34.5 14.5z" />
    <glyph glyph-name="uni1EA1" unicode="&#x1ea1;" 
d="M298 556q80 0 135.5 -40t77.5 -107v140h91v-549h-91v140q-22 -67 -77.5 -107t-135.5 -40q-111 0 -181.5 76t-70.5 205q0 130 70 206t182 76zM324 475q-84 0 -134.5 -53.5t-50.5 -147.5t50.5 -147.5t134.5 -53.5q82 0 134.5 55.5t52.5 145.5q0 91 -52.5 146t-134.5 55z
M287 -123q0 21 14.5 35.5t34.5 14.5q21 0 36 -14.5t15 -35.5q0 -20 -15 -34.5t-36 -14.5q-20 0 -34.5 14.5t-14.5 34.5z" />
    <glyph glyph-name="uni1EA2" unicode="&#x1ea2;" horiz-adv-x="662" 
d="M328 909q-21 0 -29.5 -11t-12.5 -35l-44 4q2 17 5.5 29.5t12.5 26.5t26.5 21.5t42.5 7.5q84 0 84 -81q0 -8 -1.5 -15.5t-6 -16t-7.5 -13.5t-11.5 -14.5t-12.5 -13.5l-16 -16l-16 -16l-29 25q29 29 41.5 46t12.5 34q0 21 -9.5 29.5t-29.5 8.5zM545 0l-59 163h-310
l-59 -163h-98l261 692h103l260 -692h-98zM202 234h258l-129 356z" />
    <glyph glyph-name="uni1EA3" unicode="&#x1ea3;" 
d="M334 796q84 0 84 -81q0 -8 -1.5 -15.5t-6 -16t-7.5 -13.5t-11.5 -14.5t-12.5 -13.5l-16 -16l-16 -16l-29 25q29 29 41.5 46t12.5 34q0 21 -9.5 29.5t-29.5 8.5q-21 0 -29.5 -11t-12.5 -35l-44 4q2 17 5.5 29.5t12.5 26.5t26.5 21.5t42.5 7.5zM298 556q80 0 135.5 -40
t77.5 -107v140h91v-549h-91v140q-22 -67 -77.5 -107t-135.5 -40q-111 0 -181.5 76t-70.5 205q0 130 70 206t182 76zM324 475q-84 0 -134.5 -53.5t-50.5 -147.5t50.5 -147.5t134.5 -53.5q82 0 134.5 55.5t52.5 145.5q0 91 -52.5 146t-134.5 55z" />
    <glyph glyph-name="uni1EA4" unicode="&#x1ea4;" horiz-adv-x="662" 
d="M456 910l190 115v-62l-190 -107v54zM455 764l-123 76l-124 -76v54l124 74l123 -74v-54zM280 692h103l260 -692h-98l-59 163h-310l-59 -163h-98zM202 234h258l-129 356z" />
    <glyph glyph-name="uni1EA5" unicode="&#x1ea5;" 
d="M651 869v-62l-190 -107v54zM460 608l-123 76l-124 -76v54l124 74l123 -74v-54zM298 556q80 0 135.5 -40t77.5 -107v140h91v-549h-91v140q-22 -67 -77.5 -107t-135.5 -40q-111 0 -181.5 76t-70.5 205q0 130 70 206t182 76zM324 475q-84 0 -134.5 -53.5t-50.5 -147.5
t50.5 -147.5t134.5 -53.5q82 0 134.5 55.5t52.5 145.5q0 91 -52.5 146t-134.5 55z" />
    <glyph glyph-name="uni1EA6" unicode="&#x1ea6;" horiz-adv-x="662" 
d="M461 929v-54l-190 107v62zM455 764l-123 76l-124 -76v54l124 74l123 -74v-54zM545 0l-59 163h-310l-59 -163h-98l261 692h103l260 -692h-98zM202 234h258l-129 356z" />
    <glyph glyph-name="uni1EA7" unicode="&#x1ea7;" 
d="M276 888l190 -115v-54l-190 107v62zM460 608l-123 76l-124 -76v54l124 74l123 -74v-54zM298 556q80 0 135.5 -40t77.5 -107v140h91v-549h-91v140q-22 -67 -77.5 -107t-135.5 -40q-111 0 -181.5 76t-70.5 205q0 130 70 206t182 76zM324 475q-84 0 -134.5 -53.5
t-50.5 -147.5t50.5 -147.5t134.5 -53.5q82 0 134.5 55.5t52.5 145.5q0 91 -52.5 146t-134.5 55z" />
    <glyph glyph-name="uni1EA8" unicode="&#x1ea8;" horiz-adv-x="662" 
d="M475 978q-20 0 -28.5 -10.5t-12.5 -33.5l-43 4q3 23 8.5 38.5t25 29.5t51.5 14q81 0 81 -79q0 -8 -1.5 -15t-5.5 -15t-7 -13t-11 -14t-12.5 -13t-15.5 -15l-16 -16l-28 24q19 19 28 29.5t16.5 23.5t7.5 24q0 21 -8.5 29t-28.5 8zM455 764l-123 76l-124 -76v54l124 74
l123 -74v-54zM545 0l-59 163h-310l-59 -163h-98l261 692h103l260 -692h-98zM202 234h258l-129 356z" />
    <glyph glyph-name="uni1EA9" unicode="&#x1ea9;" 
d="M481 864q81 0 81 -79q0 -8 -1.5 -15t-5.5 -15t-7 -13t-11 -14t-12.5 -13t-15.5 -15l-16 -16l-28 24q19 19 28 29.5t16.5 23.5t7.5 24q0 21 -8.5 29t-28.5 8t-28.5 -10.5t-12.5 -33.5l-43 4q3 23 8.5 38.5t25 29.5t51.5 14zM460 608l-123 76l-124 -76v54l124 74l123 -74
v-54zM298 556q80 0 135.5 -40t77.5 -107v140h91v-549h-91v140q-22 -67 -77.5 -107t-135.5 -40q-111 0 -181.5 76t-70.5 205q0 130 70 206t182 76zM324 475q-84 0 -134.5 -53.5t-50.5 -147.5t50.5 -147.5t134.5 -53.5q82 0 134.5 55.5t52.5 145.5q0 91 -52.5 146t-134.5 55z
" />
    <glyph glyph-name="uni1EAA" unicode="&#x1eaa;" horiz-adv-x="662" 
d="M294 947q-32 0 -39 -44h-41q13 91 83 91q26 0 57.5 -22t50.5 -22q34 0 40 42h43q-6 -44 -29 -67t-57 -23q-26 0 -58 22.5t-50 22.5zM455 764l-123 76l-124 -76v54l124 74l123 -74v-54zM545 0l-59 163h-310l-59 -163h-98l261 692h103l260 -692h-98zM202 234h258l-129 356z
" />
    <glyph glyph-name="uni1EAB" unicode="&#x1eab;" 
d="M302 838q26 0 57.5 -22t50.5 -22q34 0 40 42h43q-6 -44 -29 -67t-57 -23q-27 0 -59 22.5t-49 22.5q-32 0 -39 -44h-41q13 91 83 91zM460 608l-123 76l-124 -76v54l124 74l123 -74v-54zM298 556q80 0 135.5 -40t77.5 -107v140h91v-549h-91v140q-22 -67 -77.5 -107
t-135.5 -40q-111 0 -181.5 76t-70.5 205q0 130 70 206t182 76zM324 475q-84 0 -134.5 -53.5t-50.5 -147.5t50.5 -147.5t134.5 -53.5q82 0 134.5 55.5t52.5 145.5q0 91 -52.5 146t-134.5 55z" />
    <glyph glyph-name="uni1EAC" unicode="&#x1eac;" horiz-adv-x="662" 
d="M460 766l-128 78l-128 -78v55l128 77l128 -77v-55zM643 0h-98l-59 163h-310l-59 -163h-98l261 692h103zM202 234h258l-129 356zM331 -73q21 0 36 -14.5t15 -35.5q0 -20 -15 -34.5t-36 -14.5q-20 0 -34.5 14.5t-14.5 34.5q0 21 14.5 35.5t34.5 14.5z" />
    <glyph glyph-name="uni1EAD" unicode="&#x1ead;" 
d="M465 610l-128 78l-128 -78v55l128 77l128 -77v-55zM298 556q80 0 135.5 -40t77.5 -107v140h91v-549h-91v140q-22 -67 -77.5 -107t-135.5 -40q-111 0 -181.5 76t-70.5 205q0 130 70 206t182 76zM324 475q-84 0 -134.5 -53.5t-50.5 -147.5t50.5 -147.5t134.5 -53.5
q82 0 134.5 55.5t52.5 145.5q0 91 -52.5 146t-134.5 55zM287 -123q0 21 14.5 35.5t34.5 14.5q21 0 36 -14.5t15 -35.5q0 -20 -15 -34.5t-36 -14.5q-20 0 -34.5 14.5t-14.5 34.5z" />
    <glyph glyph-name="uni1EAE" unicode="&#x1eae;" horiz-adv-x="662" 
d="M499 1081v-62l-190 -107v54zM332 764q-60 0 -93 35t-33 88v8h41q0 -75 85 -75q86 0 86 75h41v-8q0 -53 -33 -88t-94 -35zM545 0l-59 163h-310l-59 -163h-98l261 692h103l260 -692h-98zM202 234h258l-129 356z" />
    <glyph glyph-name="uni1EAF" unicode="&#x1eaf;" 
d="M504 925v-62l-190 -107v54zM337 608q-60 0 -93 35t-33 88v8h41q0 -75 85 -75q86 0 86 75h41v-8q0 -53 -33 -88t-94 -35zM298 556q80 0 135.5 -40t77.5 -107v140h91v-549h-91v140q-22 -67 -77.5 -107t-135.5 -40q-111 0 -181.5 76t-70.5 205q0 130 70 206t182 76zM324 475
q-84 0 -134.5 -53.5t-50.5 -147.5t50.5 -147.5t134.5 -53.5q82 0 134.5 55.5t52.5 145.5q0 91 -52.5 146t-134.5 55z" />
    <glyph glyph-name="uni1EB0" unicode="&#x1eb0;" horiz-adv-x="662" 
d="M369 958v-54l-190 107v62zM247 895q0 -75 85 -75q86 0 86 75h41v-8q0 -53 -33 -88t-94 -35q-60 0 -93 35t-33 88v8h41zM545 0l-59 163h-310l-59 -163h-98l261 692h103l260 -692h-98zM202 234h258l-129 356z" />
    <glyph glyph-name="uni1EB1" unicode="&#x1eb1;" 
d="M184 917l190 -115v-54l-190 107v62zM337 608q-60 0 -93 35t-33 88v8h41q0 -75 85 -75q86 0 86 75h41v-8q0 -53 -33 -88t-94 -35zM298 556q80 0 135.5 -40t77.5 -107v140h91v-549h-91v140q-22 -67 -77.5 -107t-135.5 -40q-111 0 -181.5 76t-70.5 205q0 130 70 206t182 76z
M324 475q-84 0 -134.5 -53.5t-50.5 -147.5t50.5 -147.5t134.5 -53.5q82 0 134.5 55.5t52.5 145.5q0 91 -52.5 146t-134.5 55z" />
    <glyph glyph-name="uni1EB2" unicode="&#x1eb2;" horiz-adv-x="662" 
d="M323 1029q-20 0 -28.5 -10.5t-12.5 -33.5l-43 4q3 23 8.5 38.5t25 29.5t51.5 14q81 0 81 -79q0 -8 -1.5 -15t-5.5 -15t-7 -13t-11 -14t-12.5 -13t-15.5 -15l-16 -16l-28 24q19 19 28 29.5t16.5 23.5t7.5 24q0 21 -8.5 29t-28.5 8zM332 764q-60 0 -93 35t-33 88v8h41
q0 -75 85 -75q86 0 86 75h41v-8q0 -53 -33 -88t-94 -35zM545 0l-59 163h-310l-59 -163h-98l261 692h103l260 -692h-98zM202 234h258l-129 356z" />
    <glyph glyph-name="uni1EB3" unicode="&#x1eb3;" 
d="M329 915q81 0 81 -79q0 -8 -1.5 -15t-5.5 -15t-7 -13t-11 -14t-12.5 -13t-15.5 -15l-16 -16l-28 24q19 19 28 29.5t16.5 23.5t7.5 24q0 21 -8.5 29t-28.5 8t-28.5 -10.5t-12.5 -33.5l-43 4q3 23 8.5 38.5t25 29.5t51.5 14zM337 608q-60 0 -93 35t-33 88v8h41
q0 -75 85 -75q86 0 86 75h41v-8q0 -53 -33 -88t-94 -35zM298 556q80 0 135.5 -40t77.5 -107v140h91v-549h-91v140q-22 -67 -77.5 -107t-135.5 -40q-111 0 -181.5 76t-70.5 205q0 130 70 206t182 76zM324 475q-84 0 -134.5 -53.5t-50.5 -147.5t50.5 -147.5t134.5 -53.5
q82 0 134.5 55.5t52.5 145.5q0 91 -52.5 146t-134.5 55z" />
    <glyph glyph-name="uni1EB4" unicode="&#x1eb4;" horiz-adv-x="662" 
d="M283 971q-32 0 -39 -44h-41q13 91 83 91q26 0 57.5 -22t50.5 -22q34 0 40 42h43q-6 -44 -29 -67t-57 -23q-27 0 -59 22.5t-49 22.5zM332 820q86 0 86 75h41v-8q0 -53 -33 -88t-94 -35q-60 0 -93 35t-33 88v8h41q0 -75 85 -75zM545 0l-59 163h-310l-59 -163h-98l261 692
h103l260 -692h-98zM202 234h258l-129 356z" />
    <glyph glyph-name="uni1EB5" unicode="&#x1eb5;" 
d="M291 862q26 0 57.5 -22t50.5 -22q34 0 40 42h43q-6 -44 -29 -67t-57 -23q-26 0 -58 22.5t-50 22.5q-32 0 -39 -44h-41q13 91 83 91zM337 608q-60 0 -93 35t-33 88v8h41q0 -75 85 -75q86 0 86 75h41v-8q0 -53 -33 -88t-94 -35zM298 556q80 0 135.5 -40t77.5 -107v140h91
v-549h-91v140q-22 -67 -77.5 -107t-135.5 -40q-111 0 -181.5 76t-70.5 205q0 130 70 206t182 76zM324 475q-84 0 -134.5 -53.5t-50.5 -147.5t50.5 -147.5t134.5 -53.5q82 0 134.5 55.5t52.5 145.5q0 91 -52.5 146t-134.5 55z" />
    <glyph glyph-name="uni1EB6" unicode="&#x1eb6;" horiz-adv-x="662" 
d="M332 766q-62 0 -96.5 35.5t-34.5 91.5v8h43q0 -77 88 -77t88 77h43v-8q0 -56 -34.5 -91.5t-96.5 -35.5zM643 0h-98l-59 163h-310l-59 -163h-98l261 692h103zM202 234h258l-129 356zM331 -73q21 0 36 -14.5t15 -35.5q0 -20 -15 -34.5t-36 -14.5q-20 0 -34.5 14.5
t-14.5 34.5q0 21 14.5 35.5t34.5 14.5z" />
    <glyph glyph-name="uni1EB7" unicode="&#x1eb7;" 
d="M337 610q-62 0 -96.5 35.5t-34.5 91.5v8h43q0 -77 88 -77t88 77h43v-8q0 -56 -34.5 -91.5t-96.5 -35.5zM298 556q80 0 135.5 -40t77.5 -107v140h91v-549h-91v140q-22 -67 -77.5 -107t-135.5 -40q-111 0 -181.5 76t-70.5 205q0 130 70 206t182 76zM324 475
q-84 0 -134.5 -53.5t-50.5 -147.5t50.5 -147.5t134.5 -53.5q82 0 134.5 55.5t52.5 145.5q0 91 -52.5 146t-134.5 55zM287 -123q0 21 14.5 35.5t34.5 14.5q21 0 36 -14.5t15 -35.5q0 -20 -15 -34.5t-36 -14.5q-20 0 -34.5 14.5t-14.5 34.5z" />
    <glyph glyph-name="uni1EB8" unicode="&#x1eb8;" horiz-adv-x="506" 
d="M462 631h-298v-241h268v-70h-268v-246h298v-74h-389v705h389v-74zM203 -123q0 21 14.5 35.5t34.5 14.5q21 0 36 -14.5t15 -35.5q0 -20 -15 -34.5t-36 -14.5q-20 0 -34.5 14.5t-14.5 34.5z" />
    <glyph glyph-name="uni1EB9" unicode="&#x1eb9;" horiz-adv-x="624" 
d="M578 305q0 -29 -4 -50h-439q3 -94 53.5 -141t123.5 -47q66 0 110.5 33.5t54.5 89.5h97q-15 -87 -85 -142t-173 -55q-120 0 -195 75.5t-75 205.5t75 206t195 76t191 -72.5t71 -178.5zM486 299q5 90 -45.5 136.5t-124.5 46.5q-75 0 -126 -46.5t-55 -136.5h351zM311 -73
q21 0 36 -14.5t15 -35.5q0 -20 -15 -34.5t-36 -14.5q-20 0 -34.5 14.5t-14.5 34.5q0 21 14.5 35.5t34.5 14.5z" />
    <glyph glyph-name="uni1EBA" unicode="&#x1eba;" horiz-adv-x="506" 
d="M250 952q84 0 84 -81q0 -8 -1.5 -15.5t-6 -16t-7.5 -13.5t-11.5 -14.5t-12.5 -13.5l-16 -16l-16 -16l-29 25q29 29 41.5 46t12.5 34q0 21 -9.5 29.5t-29.5 8.5q-21 0 -29.5 -11t-12.5 -35l-44 4q2 17 5.5 29.5t12.5 26.5t26.5 21.5t42.5 7.5zM462 631h-298v-241h268v-70
h-268v-246h298v-74h-389v705h389v-74z" />
    <glyph glyph-name="uni1EBB" unicode="&#x1ebb;" horiz-adv-x="624" 
d="M308 753q-21 0 -29.5 -11t-12.5 -35l-44 4q2 17 5.5 29.5t12.5 26.5t26.5 21.5t42.5 7.5q84 0 84 -81q0 -8 -1.5 -15.5t-6 -16t-7.5 -13.5t-11.5 -14.5t-12.5 -13.5l-16 -16l-16 -16l-29 25q29 29 41.5 46t12.5 34q0 21 -9.5 29.5t-29.5 8.5zM578 305q0 -29 -4 -50h-439
q3 -94 53.5 -141t123.5 -47q66 0 110.5 33.5t54.5 89.5h97q-15 -87 -85 -142t-173 -55q-120 0 -195 75.5t-75 205.5t75 206t195 76t191 -72.5t71 -178.5zM486 299q5 90 -45.5 136.5t-124.5 46.5q-75 0 -126 -46.5t-55 -136.5h351z" />
    <glyph glyph-name="uni1EBC" unicode="&#x1ebc;" horiz-adv-x="506" 
d="M198 857q27 0 59.5 -23t52.5 -23q16 0 27 11.5t14 32.5h44q-6 -45 -29.5 -69t-58.5 -24q-28 0 -61 23t-51 23q-33 0 -40 -45h-43q15 94 86 94zM462 631h-298v-241h268v-70h-268v-246h298v-74h-389v705h389v-74z" />
    <glyph glyph-name="uni1EBD" unicode="&#x1ebd;" horiz-adv-x="624" 
d="M254 652q-33 0 -40 -45h-43q15 94 86 94q27 0 59.5 -23t52.5 -23q16 0 27 11.5t14 32.5h44q-6 -45 -29.5 -69t-58.5 -24q-28 0 -61 23t-51 23zM578 305q0 -29 -4 -50h-439q3 -94 53.5 -141t123.5 -47q66 0 110.5 33.5t54.5 89.5h97q-15 -87 -85 -142t-173 -55
q-120 0 -195 75.5t-75 205.5t75 206t195 76t191 -72.5t71 -178.5zM486 299q5 90 -45.5 136.5t-124.5 46.5q-75 0 -126 -46.5t-55 -136.5h351z" />
    <glyph glyph-name="uni1EBE" unicode="&#x1ebe;" horiz-adv-x="506" 
d="M567 1025v-62l-190 -107v54zM376 764l-123 76l-124 -76v54l124 74l123 -74v-54zM462 631h-298v-241h268v-70h-268v-246h298v-74h-389v705h389v-74z" />
    <glyph glyph-name="uni1EBF" unicode="&#x1ebf;" horiz-adv-x="624" 
d="M436 754l190 115v-62l-190 -107v54zM435 608l-123 76l-124 -76v54l124 74l123 -74v-54zM316 556q120 0 191 -72.5t71 -178.5q0 -29 -4 -50h-439q3 -94 53.5 -141t123.5 -47q66 0 110.5 33.5t54.5 89.5h97q-15 -87 -85 -142t-173 -55q-120 0 -195 75.5t-75 205.5t75 206
t195 76zM486 299q5 90 -45.5 136.5t-124.5 46.5q-75 0 -126 -46.5t-55 -136.5h351z" />
    <glyph glyph-name="uni1EC0" unicode="&#x1ec0;" horiz-adv-x="506" 
d="M192 1044l190 -115v-54l-190 107v62zM376 764l-123 76l-124 -76v54l124 74l123 -74v-54zM462 631h-298v-241h268v-70h-268v-246h298v-74h-389v705h389v-74z" />
    <glyph glyph-name="uni1EC1" unicode="&#x1ec1;" horiz-adv-x="624" 
d="M441 773v-54l-190 107v62zM435 608l-123 76l-124 -76v54l124 74l123 -74v-54zM578 305q0 -29 -4 -50h-439q3 -94 53.5 -141t123.5 -47q66 0 110.5 33.5t54.5 89.5h97q-15 -87 -85 -142t-173 -55q-120 0 -195 75.5t-75 205.5t75 206t195 76t191 -72.5t71 -178.5zM486 299
q5 90 -45.5 136.5t-124.5 46.5q-75 0 -126 -46.5t-55 -136.5h351z" />
    <glyph glyph-name="uni1EC2" unicode="&#x1ec2;" horiz-adv-x="506" 
d="M397 1020q81 0 81 -79q0 -8 -1.5 -15t-5.5 -15t-7 -13t-11 -14t-12.5 -13t-15.5 -15l-16 -16l-28 24q19 19 28 29.5t16.5 23.5t7.5 24q0 21 -8.5 29t-28.5 8t-28.5 -10.5t-12.5 -33.5l-43 4q3 23 8.5 38.5t25 29.5t51.5 14zM376 764l-123 76l-124 -76v54l124 74l123 -74
v-54zM462 631h-298v-241h268v-70h-268v-246h298v-74h-389v705h389v-74z" />
    <glyph glyph-name="uni1EC3" unicode="&#x1ec3;" horiz-adv-x="624" 
d="M455 822q-20 0 -28.5 -10.5t-12.5 -33.5l-43 4q3 23 8.5 38.5t25 29.5t51.5 14q81 0 81 -79q0 -8 -1.5 -15t-5.5 -15t-7 -13t-11 -14t-12.5 -13t-15.5 -15l-16 -16l-28 24q19 19 28 29.5t16.5 23.5t7.5 24q0 21 -8.5 29t-28.5 8zM435 608l-123 76l-124 -76v54l124 74
l123 -74v-54zM578 305q0 -29 -4 -50h-439q3 -94 53.5 -141t123.5 -47q66 0 110.5 33.5t54.5 89.5h97q-15 -87 -85 -142t-173 -55q-120 0 -195 75.5t-75 205.5t75 206t195 76t191 -72.5t71 -178.5zM486 299q5 90 -45.5 136.5t-124.5 46.5q-75 0 -126 -46.5t-55 -136.5h351z
" />
    <glyph glyph-name="uni1EC4" unicode="&#x1ec4;" horiz-adv-x="506" 
d="M218 994q26 0 57.5 -22t50.5 -22q34 0 40 42h43q-6 -44 -29 -67t-57 -23q-27 0 -59 22.5t-49 22.5q-32 0 -39 -44h-41q13 91 83 91zM376 764l-123 76l-124 -76v54l124 74l123 -74v-54zM462 631h-298v-241h268v-70h-268v-246h298v-74h-389v705h389v-74z" />
    <glyph glyph-name="uni1EC5" unicode="&#x1ec5;" horiz-adv-x="624" 
d="M274 791q-32 0 -39 -44h-41q13 91 83 91q26 0 57.5 -22t50.5 -22q34 0 40 42h43q-6 -44 -29 -67t-57 -23q-26 0 -58 22.5t-50 22.5zM435 608l-123 76l-124 -76v54l124 74l123 -74v-54zM578 305q0 -29 -4 -50h-439q3 -94 53.5 -141t123.5 -47q66 0 110.5 33.5t54.5 89.5
h97q-15 -87 -85 -142t-173 -55q-120 0 -195 75.5t-75 205.5t75 206t195 76t191 -72.5t71 -178.5zM486 299q5 90 -45.5 136.5t-124.5 46.5q-75 0 -126 -46.5t-55 -136.5h351z" />
    <glyph glyph-name="uni1EC6" unicode="&#x1ec6;" horiz-adv-x="506" 
d="M381 766l-128 78l-128 -78v55l128 77l128 -77v-55zM462 631h-298v-241h268v-70h-268v-246h298v-74h-389v705h389v-74zM203 -123q0 21 14.5 35.5t34.5 14.5q21 0 36 -14.5t15 -35.5q0 -20 -15 -34.5t-36 -14.5q-20 0 -34.5 14.5t-14.5 34.5z" />
    <glyph glyph-name="uni1EC7" unicode="&#x1ec7;" horiz-adv-x="624" 
d="M440 610l-128 78l-128 -78v55l128 77l128 -77v-55zM578 305q0 -29 -4 -50h-439q3 -94 53.5 -141t123.5 -47q66 0 110.5 33.5t54.5 89.5h97q-15 -87 -85 -142t-173 -55q-120 0 -195 75.5t-75 205.5t75 206t195 76t191 -72.5t71 -178.5zM486 299q5 90 -45.5 136.5
t-124.5 46.5q-75 0 -126 -46.5t-55 -136.5h351zM311 -73q21 0 36 -14.5t15 -35.5q0 -20 -15 -34.5t-36 -14.5q-20 0 -34.5 14.5t-14.5 34.5q0 21 14.5 35.5t34.5 14.5z" />
    <glyph glyph-name="uni1EC8" unicode="&#x1ec8;" horiz-adv-x="237" 
d="M115 952q84 0 84 -81q0 -8 -1.5 -15.5t-6 -16t-7.5 -13.5t-11.5 -14.5t-12.5 -13.5l-16 -16l-16 -16l-29 25q29 29 41.5 46t12.5 34q0 21 -9.5 29.5t-29.5 8.5q-21 0 -29.5 -11t-12.5 -35l-44 4q2 17 5.5 29.5t12.5 26.5t26.5 21.5t42.5 7.5zM73 705h91v-705h-91v705z
" />
    <glyph glyph-name="uni1EC9" unicode="&#x1ec9;" horiz-adv-x="255" 
d="M124 796q84 0 84 -81q0 -8 -1.5 -15.5t-6 -16t-7.5 -13.5t-11.5 -14.5t-12.5 -13.5l-16 -16l-16 -16l-29 25q29 29 41.5 46t12.5 34q0 21 -9.5 29.5t-29.5 8.5q-21 0 -29.5 -11t-12.5 -35l-44 4q2 17 5.5 29.5t12.5 26.5t26.5 21.5t42.5 7.5zM81 549h92v-549h-92v549z
" />
    <glyph glyph-name="uni1ECA" unicode="&#x1eca;" horiz-adv-x="237" 
d="M73 705h91v-705h-91v705zM68 -123q0 21 14.5 35.5t34.5 14.5q21 0 36 -14.5t15 -35.5q0 -20 -15 -34.5t-36 -14.5q-20 0 -34.5 14.5t-14.5 34.5z" />
    <glyph glyph-name="uni1ECB" unicode="&#x1ecb;" horiz-adv-x="237" 
d="M57 710q0 25 17 40.5t45 15.5t45 -15.5t17 -40.5t-17 -40.5t-45 -15.5t-45 15.5t-17 40.5zM73 549h91v-549h-91v549zM68 -123q0 21 14.5 35.5t34.5 14.5q21 0 36 -14.5t15 -35.5q0 -20 -15 -34.5t-36 -14.5q-20 0 -34.5 14.5t-14.5 34.5z" />
    <glyph glyph-name="uni1ECC" unicode="&#x1ecc;" horiz-adv-x="791" 
d="M396 714q149 0 247 -101.5t98 -259.5t-98 -259.5t-247 -101.5q-150 0 -248.5 101.5t-98.5 259.5t98.5 259.5t248.5 101.5zM396 629q-111 0 -182 -75t-71 -201t71 -201t182 -75q110 0 181 75.5t71 200.5q0 126 -71 201t-181 75zM345 -123q0 21 14.5 35.5t34.5 14.5
q21 0 36 -14.5t15 -35.5q0 -20 -15 -34.5t-36 -14.5q-20 0 -34.5 14.5t-14.5 34.5z" />
    <glyph glyph-name="uni1ECD" unicode="&#x1ecd;" horiz-adv-x="643" 
d="M322 556q120 0 197.5 -76.5t77.5 -205.5t-77 -205t-198 -76t-198.5 76t-77.5 205t77.5 205.5t198.5 76.5zM322 476q-77 0 -130 -51.5t-53 -150.5q0 -98 53 -149.5t130 -51.5t130 51.5t53 149.5q0 99 -53 150.5t-130 51.5zM272 -123q0 21 14.5 35.5t34.5 14.5
q21 0 36 -14.5t15 -35.5q0 -20 -15 -34.5t-36 -14.5q-20 0 -34.5 14.5t-14.5 34.5z" />
    <glyph glyph-name="uni1ECE" unicode="&#x1ece;" horiz-adv-x="791" 
d="M392 952q84 0 84 -81q0 -8 -1.5 -15.5t-6 -16t-7.5 -13.5t-11.5 -14.5t-12.5 -13.5l-16 -16l-16 -16l-29 25q29 29 41.5 46t12.5 34q0 21 -9.5 29.5t-29.5 8.5q-21 0 -29.5 -11t-12.5 -35l-44 4q2 17 5.5 29.5t12.5 26.5t26.5 21.5t42.5 7.5zM396 714q149 0 247 -101.5
t98 -259.5t-98 -259.5t-247 -101.5q-150 0 -248.5 101.5t-98.5 259.5t98.5 259.5t248.5 101.5zM396 629q-111 0 -182 -75t-71 -201t71 -201t182 -75q110 0 181 75.5t71 200.5q0 126 -71 201t-181 75z" />
    <glyph glyph-name="uni1ECF" unicode="&#x1ecf;" horiz-adv-x="643" 
d="M319 796q84 0 84 -81q0 -8 -1.5 -15.5t-6 -16t-7.5 -13.5t-11.5 -14.5t-12.5 -13.5l-16 -16l-16 -16l-29 25q29 29 41.5 46t12.5 34q0 21 -9.5 29.5t-29.5 8.5q-21 0 -29.5 -11t-12.5 -35l-44 4q2 17 5.5 29.5t12.5 26.5t26.5 21.5t42.5 7.5zM322 556q120 0 197.5 -76.5
t77.5 -205.5t-77 -205t-198 -76t-198.5 76t-77.5 205t77.5 205.5t198.5 76.5zM322 476q-77 0 -130 -51.5t-53 -150.5q0 -98 53 -149.5t130 -51.5t130 51.5t53 149.5q0 99 -53 150.5t-130 51.5z" />
    <glyph glyph-name="uni1ED0" unicode="&#x1ed0;" horiz-adv-x="791" 
d="M709 1025v-62l-190 -107v54zM518 764l-123 76l-124 -76v54l124 74l123 -74v-54zM396 714q149 0 247 -101.5t98 -259.5t-98 -259.5t-247 -101.5q-150 0 -248.5 101.5t-98.5 259.5t98.5 259.5t248.5 101.5zM396 629q-111 0 -182 -75t-71 -201t71 -201t182 -75
q110 0 181 75.5t71 200.5q0 126 -71 201t-181 75z" />
    <glyph glyph-name="uni1ED1" unicode="&#x1ed1;" horiz-adv-x="643" 
d="M636 869v-62l-190 -107v54zM445 608l-123 76l-124 -76v54l124 74l123 -74v-54zM322 556q120 0 197.5 -76.5t77.5 -205.5t-77 -205t-198 -76t-198.5 76t-77.5 205t77.5 205.5t198.5 76.5zM322 476q-77 0 -130 -51.5t-53 -150.5q0 -98 53 -149.5t130 -51.5t130 51.5
t53 149.5q0 99 -53 150.5t-130 51.5z" />
    <glyph glyph-name="uni1ED2" unicode="&#x1ed2;" horiz-adv-x="791" 
d="M334 1044l190 -115v-54l-190 107v62zM518 764l-123 76l-124 -76v54l124 74l123 -74v-54zM396 714q149 0 247 -101.5t98 -259.5t-98 -259.5t-247 -101.5q-150 0 -248.5 101.5t-98.5 259.5t98.5 259.5t248.5 101.5zM396 629q-111 0 -182 -75t-71 -201t71 -201t182 -75
q110 0 181 75.5t71 200.5q0 126 -71 201t-181 75z" />
    <glyph glyph-name="uni1ED3" unicode="&#x1ed3;" horiz-adv-x="643" 
d="M261 888l190 -115v-54l-190 107v62zM445 608l-123 76l-124 -76v54l124 74l123 -74v-54zM322 556q120 0 197.5 -76.5t77.5 -205.5t-77 -205t-198 -76t-198.5 76t-77.5 205t77.5 205.5t198.5 76.5zM322 476q-77 0 -130 -51.5t-53 -150.5q0 -98 53 -149.5t130 -51.5
t130 51.5t53 149.5q0 99 -53 150.5t-130 51.5z" />
    <glyph glyph-name="uni1ED4" unicode="&#x1ed4;" horiz-adv-x="791" 
d="M539 1020q81 0 81 -79q0 -8 -1.5 -15t-5.5 -15t-7 -13t-11 -14t-12.5 -13t-15.5 -15l-16 -16l-28 24q19 19 28 29.5t16.5 23.5t7.5 24q0 21 -8.5 29t-28.5 8t-28.5 -10.5t-12.5 -33.5l-43 4q3 23 8.5 38.5t25 29.5t51.5 14zM518 764l-123 76l-124 -76v54l124 74l123 -74
v-54zM396 714q149 0 247 -101.5t98 -259.5t-98 -259.5t-247 -101.5q-150 0 -248.5 101.5t-98.5 259.5t98.5 259.5t248.5 101.5zM396 629q-111 0 -182 -75t-71 -201t71 -201t182 -75q110 0 181 75.5t71 200.5q0 126 -71 201t-181 75z" />
    <glyph glyph-name="uni1ED5" unicode="&#x1ed5;" horiz-adv-x="643" 
d="M466 864q81 0 81 -79q0 -8 -1.5 -15t-5.5 -15t-7 -13t-11 -14t-12.5 -13t-15.5 -15l-16 -16l-28 24q19 19 28 29.5t16.5 23.5t7.5 24q0 21 -8.5 29t-28.5 8t-28.5 -10.5t-12.5 -33.5l-43 4q3 23 8.5 38.5t25 29.5t51.5 14zM445 608l-123 76l-124 -76v54l124 74l123 -74
v-54zM322 556q120 0 197.5 -76.5t77.5 -205.5t-77 -205t-198 -76t-198.5 76t-77.5 205t77.5 205.5t198.5 76.5zM322 476q-77 0 -130 -51.5t-53 -150.5q0 -98 53 -149.5t130 -51.5t130 51.5t53 149.5q0 99 -53 150.5t-130 51.5z" />
    <glyph glyph-name="uni1ED6" unicode="&#x1ed6;" horiz-adv-x="791" 
d="M360 994q26 0 57.5 -22t50.5 -22q34 0 40 42h43q-6 -44 -29 -67t-57 -23q-27 0 -59 22.5t-49 22.5q-32 0 -39 -44h-41q13 91 83 91zM518 764l-123 76l-124 -76v54l124 74l123 -74v-54zM396 714q149 0 247 -101.5t98 -259.5t-98 -259.5t-247 -101.5q-150 0 -248.5 101.5
t-98.5 259.5t98.5 259.5t248.5 101.5zM396 629q-111 0 -182 -75t-71 -201t71 -201t182 -75q110 0 181 75.5t71 200.5q0 126 -71 201t-181 75z" />
    <glyph glyph-name="uni1ED7" unicode="&#x1ed7;" horiz-adv-x="643" 
d="M287 838q26 0 57.5 -22t50.5 -22q34 0 40 42h43q-6 -44 -29 -67t-57 -23q-26 0 -58 22.5t-50 22.5q-32 0 -39 -44h-41q13 91 83 91zM445 608l-123 76l-124 -76v54l124 74l123 -74v-54zM322 556q120 0 197.5 -76.5t77.5 -205.5t-77 -205t-198 -76t-198.5 76t-77.5 205
t77.5 205.5t198.5 76.5zM322 476q-77 0 -130 -51.5t-53 -150.5q0 -98 53 -149.5t130 -51.5t130 51.5t53 149.5q0 99 -53 150.5t-130 51.5z" />
    <glyph glyph-name="uni1ED8" unicode="&#x1ed8;" horiz-adv-x="791" 
d="M523 766l-128 78l-128 -78v55l128 77l128 -77v-55zM396 714q149 0 247 -101.5t98 -259.5t-98 -259.5t-247 -101.5q-150 0 -248.5 101.5t-98.5 259.5t98.5 259.5t248.5 101.5zM396 629q-111 0 -182 -75t-71 -201t71 -201t182 -75q110 0 181 75.5t71 200.5q0 126 -71 201
t-181 75zM345 -123q0 21 14.5 35.5t34.5 14.5q21 0 36 -14.5t15 -35.5q0 -20 -15 -34.5t-36 -14.5q-20 0 -34.5 14.5t-14.5 34.5z" />
    <glyph glyph-name="uni1ED9" unicode="&#x1ed9;" horiz-adv-x="643" 
d="M450 610l-128 78l-128 -78v55l128 77l128 -77v-55zM322 556q120 0 197.5 -76.5t77.5 -205.5t-77 -205t-198 -76t-198.5 76t-77.5 205t77.5 205.5t198.5 76.5zM322 476q-77 0 -130 -51.5t-53 -150.5q0 -98 53 -149.5t130 -51.5t130 51.5t53 149.5q0 99 -53 150.5
t-130 51.5zM272 -123q0 21 14.5 35.5t34.5 14.5q21 0 36 -14.5t15 -35.5q0 -20 -15 -34.5t-36 -14.5q-20 0 -34.5 14.5t-14.5 34.5z" />
    <glyph glyph-name="uni1EDA" unicode="&#x1eda;" horiz-adv-x="791" 
d="M493 923v-64l-197 -111v56zM572 668q79 -45 124 -127.5t45 -187.5q0 -158 -98 -259.5t-247 -101.5q-150 0 -248.5 101.5t-98.5 259.5t98.5 259.5t248.5 101.5q42 0 81 -9q96 7 96 113h66q0 -101 -67 -150zM396 77q110 0 181 75.5t71 200.5q0 126 -71 201t-181 75
q-111 0 -182 -75t-71 -201t71 -201t182 -75z" />
    <glyph glyph-name="uni1EDB" unicode="&#x1edb;" horiz-adv-x="643" 
d="M420 767v-64l-197 -111v56zM486 508q111 -77 111 -234q0 -129 -77 -205t-198 -76t-198.5 76t-77.5 205t77.5 205.5t198.5 76.5q38 0 67 -7q104 2 104 113h66q0 -106 -73 -154zM322 73q77 0 130 51.5t53 149.5q0 99 -53 150.5t-130 51.5t-130 -51.5t-53 -150.5
q0 -98 53 -149.5t130 -51.5z" />
    <glyph glyph-name="uni1EDC" unicode="&#x1edc;" horiz-adv-x="791" 
d="M493 804v-56l-197 111v64zM572 668q79 -45 124 -127.5t45 -187.5q0 -158 -98 -259.5t-247 -101.5q-150 0 -248.5 101.5t-98.5 259.5t98.5 259.5t248.5 101.5q42 0 81 -9q96 7 96 113h66q0 -101 -67 -150zM396 77q110 0 181 75.5t71 200.5q0 126 -71 201t-181 75
q-111 0 -182 -75t-71 -201t71 -201t182 -75z" />
    <glyph glyph-name="uni1EDD" unicode="&#x1edd;" horiz-adv-x="643" 
d="M420 648v-56l-197 111v64zM486 508q111 -77 111 -234q0 -129 -77 -205t-198 -76t-198.5 76t-77.5 205t77.5 205.5t198.5 76.5q38 0 67 -7q104 2 104 113h66q0 -106 -73 -154zM322 73q77 0 130 51.5t53 149.5q0 99 -53 150.5t-130 51.5t-130 -51.5t-53 -150.5
q0 -98 53 -149.5t130 -51.5z" />
    <glyph glyph-name="uni1EDE" unicode="&#x1ede;" horiz-adv-x="791" 
d="M391 909q-21 0 -29.5 -11t-12.5 -35l-44 4q2 17 5.5 29.5t12.5 26.5t26.5 21.5t42.5 7.5q84 0 84 -81q0 -8 -1.5 -15.5t-6 -16t-7.5 -13.5t-11.5 -14.5t-12.5 -13.5l-16 -16l-16 -16l-29 25q29 29 41.5 46t12.5 34q0 21 -9.5 29.5t-29.5 8.5zM572 668q79 -45 124 -127.5
t45 -187.5q0 -158 -98 -259.5t-247 -101.5q-150 0 -248.5 101.5t-98.5 259.5t98.5 259.5t248.5 101.5q42 0 81 -9q96 7 96 113h66q0 -101 -67 -150zM396 77q110 0 181 75.5t71 200.5q0 126 -71 201t-181 75q-111 0 -182 -75t-71 -201t71 -201t182 -75z" />
    <glyph glyph-name="uni1EDF" unicode="&#x1edf;" horiz-adv-x="643" 
d="M318 753q-21 0 -29.5 -11t-12.5 -35l-44 4q2 17 5.5 29.5t12.5 26.5t26.5 21.5t42.5 7.5q84 0 84 -81q0 -8 -1.5 -15.5t-6 -16t-7.5 -13.5t-11.5 -14.5t-12.5 -13.5l-16 -16l-16 -16l-29 25q29 29 41.5 46t12.5 34q0 21 -9.5 29.5t-29.5 8.5zM486 508q111 -77 111 -234
q0 -129 -77 -205t-198 -76t-198.5 76t-77.5 205t77.5 205.5t198.5 76.5q38 0 67 -7q104 2 104 113h66q0 -106 -73 -154zM322 73q77 0 130 51.5t53 149.5q0 99 -53 150.5t-130 51.5t-130 -51.5t-53 -150.5q0 -98 53 -149.5t130 -51.5z" />
    <glyph glyph-name="uni1EE0" unicode="&#x1ee0;" horiz-adv-x="791" 
d="M337 808q-33 0 -40 -45h-43q15 94 86 94q27 0 59.5 -23t52.5 -23q16 0 27 11.5t14 32.5h44q-6 -45 -29.5 -69t-58.5 -24q-28 0 -61 23t-51 23zM572 668q79 -45 124 -127.5t45 -187.5q0 -158 -98 -259.5t-247 -101.5q-150 0 -248.5 101.5t-98.5 259.5t98.5 259.5
t248.5 101.5q42 0 81 -9q96 7 96 113h66q0 -101 -67 -150zM396 77q110 0 181 75.5t71 200.5q0 126 -71 201t-181 75q-111 0 -182 -75t-71 -201t71 -201t182 -75z" />
    <glyph glyph-name="uni1EE1" unicode="&#x1ee1;" horiz-adv-x="643" 
d="M264 652q-33 0 -40 -45h-43q15 94 86 94q27 0 59.5 -23t52.5 -23q16 0 27 11.5t14 32.5h44q-6 -45 -29.5 -69t-58.5 -24q-28 0 -61 23t-51 23zM486 508q111 -77 111 -234q0 -129 -77 -205t-198 -76t-198.5 76t-77.5 205t77.5 205.5t198.5 76.5q38 0 67 -7q104 2 104 113
h66q0 -106 -73 -154zM322 73q77 0 130 51.5t53 149.5q0 99 -53 150.5t-130 51.5t-130 -51.5t-53 -150.5q0 -98 53 -149.5t130 -51.5z" />
    <glyph glyph-name="uni1EE2" unicode="&#x1ee2;" horiz-adv-x="791" 
d="M572 668q79 -45 124 -127.5t45 -187.5q0 -158 -98 -259.5t-247 -101.5q-150 0 -248.5 101.5t-98.5 259.5t98.5 259.5t248.5 101.5q42 0 81 -9q96 7 96 113h66q0 -101 -67 -150zM396 77q110 0 181 75.5t71 200.5q0 126 -71 201t-181 75q-111 0 -182 -75t-71 -201t71 -201
t182 -75zM394 -73q21 0 36 -14.5t15 -35.5q0 -20 -15 -34.5t-36 -14.5q-20 0 -34.5 14.5t-14.5 34.5q0 21 14.5 35.5t34.5 14.5z" />
    <glyph glyph-name="uni1EE3" unicode="&#x1ee3;" horiz-adv-x="643" 
d="M486 508q111 -77 111 -234q0 -129 -77 -205t-198 -76t-198.5 76t-77.5 205t77.5 205.5t198.5 76.5q38 0 67 -7q104 2 104 113h66q0 -106 -73 -154zM322 73q77 0 130 51.5t53 149.5q0 99 -53 150.5t-130 51.5t-130 -51.5t-53 -150.5q0 -98 53 -149.5t130 -51.5zM321 -73
q21 0 36 -14.5t15 -35.5q0 -20 -15 -34.5t-36 -14.5q-20 0 -34.5 14.5t-14.5 34.5q0 21 14.5 35.5t34.5 14.5z" />
    <glyph glyph-name="uni1EE4" unicode="&#x1ee4;" horiz-adv-x="661" 
d="M68 705h91v-423q0 -104 46 -153.5t127 -49.5q80 0 125 50t45 153v423h91v-423q0 -144 -71.5 -216.5t-191.5 -72.5q-119 0 -190.5 72.5t-71.5 216.5v423zM281 -123q0 21 14.5 35.5t34.5 14.5q21 0 36 -14.5t15 -35.5q0 -20 -15 -34.5t-36 -14.5q-20 0 -34.5 14.5
t-14.5 34.5z" />
    <glyph glyph-name="uni1EE5" unicode="&#x1ee5;" horiz-adv-x="634" 
d="M470 549h91v-549h-91v129q-21 -67 -74.5 -102.5t-124.5 -35.5q-95 0 -154 61.5t-59 176.5v320h91v-311q0 -82 42 -126.5t114 -44.5q75 0 120 48.5t45 141.5v292zM316 -73q21 0 36 -14.5t15 -35.5q0 -20 -15 -34.5t-36 -14.5q-20 0 -34.5 14.5t-14.5 34.5q0 21 14.5 35.5
t34.5 14.5z" />
    <glyph glyph-name="uni1EE6" unicode="&#x1ee6;" horiz-adv-x="661" 
d="M328 952q84 0 84 -81q0 -8 -1.5 -15.5t-6 -16t-7.5 -13.5t-11.5 -14.5t-12.5 -13.5l-16 -16l-16 -16l-29 25q29 29 41.5 46t12.5 34q0 21 -9.5 29.5t-29.5 8.5q-21 0 -29.5 -11t-12.5 -35l-44 4q2 17 5.5 29.5t12.5 26.5t26.5 21.5t42.5 7.5zM68 705h91v-423
q0 -104 46 -153.5t127 -49.5q80 0 125 50t45 153v423h91v-423q0 -144 -71.5 -216.5t-191.5 -72.5q-119 0 -190.5 72.5t-71.5 216.5v423z" />
    <glyph glyph-name="uni1EE7" unicode="&#x1ee7;" horiz-adv-x="634" 
d="M313 753q-21 0 -29.5 -11t-12.5 -35l-44 4q2 17 5.5 29.5t12.5 26.5t26.5 21.5t42.5 7.5q84 0 84 -81q0 -8 -1.5 -15.5t-6 -16t-7.5 -13.5t-11.5 -14.5t-12.5 -13.5l-16 -16l-16 -16l-29 25q29 29 41.5 46t12.5 34q0 21 -9.5 29.5t-29.5 8.5zM470 549h91v-549h-91v129
q-21 -67 -74.5 -102.5t-124.5 -35.5q-95 0 -154 61.5t-59 176.5v320h91v-311q0 -82 42 -126.5t114 -44.5q75 0 120 48.5t45 141.5v292z" />
    <glyph glyph-name="uni1EE8" unicode="&#x1ee8;" horiz-adv-x="661" 
d="M429 923v-64l-197 -111v56zM706 818q0 -70 -31 -113t-82 -59v-364q0 -144 -71.5 -216.5t-191.5 -72.5q-119 0 -190.5 72.5t-71.5 216.5v423h91v-423q0 -104 46 -153.5t127 -49.5q80 0 125 50t45 153v423h31q107 0 107 113h66z" />
    <glyph glyph-name="uni1EE9" unicode="&#x1ee9;" horiz-adv-x="634" 
d="M415 767v-64l-197 -111v56zM689 662q0 -75 -35.5 -119.5t-92.5 -56.5v-486h-91v129q-21 -67 -74.5 -102.5t-124.5 -35.5q-95 0 -154 61.5t-59 176.5v320h91v-311q0 -82 42 -126.5t114 -44.5q75 0 120 48.5t45 141.5v292h46q107 0 107 113h66z" />
    <glyph glyph-name="uni1EEA" unicode="&#x1eea;" horiz-adv-x="661" 
d="M429 804v-56l-197 111v64zM706 818q0 -70 -31 -113t-82 -59v-364q0 -144 -71.5 -216.5t-191.5 -72.5q-119 0 -190.5 72.5t-71.5 216.5v423h91v-423q0 -104 46 -153.5t127 -49.5q80 0 125 50t45 153v423h31q107 0 107 113h66z" />
    <glyph glyph-name="uni1EEB" unicode="&#x1eeb;" horiz-adv-x="634" 
d="M415 648v-56l-197 111v64zM689 662q0 -75 -35.5 -119.5t-92.5 -56.5v-486h-91v129q-21 -67 -74.5 -102.5t-124.5 -35.5q-95 0 -154 61.5t-59 176.5v320h91v-311q0 -82 42 -126.5t114 -44.5q75 0 120 48.5t45 141.5v292h46q107 0 107 113h66z" />
    <glyph glyph-name="uni1EEC" unicode="&#x1eec;" horiz-adv-x="661" 
d="M327 909q-21 0 -29.5 -11t-12.5 -35l-44 4q2 17 5.5 29.5t12.5 26.5t26.5 21.5t42.5 7.5q84 0 84 -81q0 -8 -1.5 -15.5t-6 -16t-7.5 -13.5t-11.5 -14.5t-12.5 -13.5l-16 -16l-16 -16l-29 25q29 29 41.5 46t12.5 34q0 21 -9.5 29.5t-29.5 8.5zM706 818q0 -70 -31 -113
t-82 -59v-364q0 -144 -71.5 -216.5t-191.5 -72.5q-119 0 -190.5 72.5t-71.5 216.5v423h91v-423q0 -104 46 -153.5t127 -49.5q80 0 125 50t45 153v423h31q107 0 107 113h66z" />
    <glyph glyph-name="uni1EED" unicode="&#x1eed;" horiz-adv-x="634" 
d="M313 753q-21 0 -29.5 -11t-12.5 -35l-44 4q2 17 5.5 29.5t12.5 26.5t26.5 21.5t42.5 7.5q84 0 84 -81q0 -8 -1.5 -15.5t-6 -16t-7.5 -13.5t-11.5 -14.5t-12.5 -13.5l-16 -16l-16 -16l-29 25q29 29 41.5 46t12.5 34q0 21 -9.5 29.5t-29.5 8.5zM689 662q0 -75 -35.5 -119.5
t-92.5 -56.5v-486h-91v129q-21 -67 -74.5 -102.5t-124.5 -35.5q-95 0 -154 61.5t-59 176.5v320h91v-311q0 -82 42 -126.5t114 -44.5q75 0 120 48.5t45 141.5v292h46q107 0 107 113h66z" />
    <glyph glyph-name="uni1EEE" unicode="&#x1eee;" horiz-adv-x="661" 
d="M273 808q-33 0 -40 -45h-43q15 94 86 94q27 0 59.5 -23t52.5 -23q16 0 27 11.5t14 32.5h44q-6 -45 -29.5 -69t-58.5 -24q-28 0 -61 23t-51 23zM706 818q0 -70 -31 -113t-82 -59v-364q0 -144 -71.5 -216.5t-191.5 -72.5q-119 0 -190.5 72.5t-71.5 216.5v423h91v-423
q0 -104 46 -153.5t127 -49.5q80 0 125 50t45 153v423h31q107 0 107 113h66z" />
    <glyph glyph-name="uni1EEF" unicode="&#x1eef;" horiz-adv-x="634" 
d="M259 652q-33 0 -40 -45h-43q15 94 86 94q27 0 59.5 -23t52.5 -23q16 0 27 11.5t14 32.5h44q-6 -45 -29.5 -69t-58.5 -24q-28 0 -61 23t-51 23zM689 662q0 -75 -35.5 -119.5t-92.5 -56.5v-486h-91v129q-21 -67 -74.5 -102.5t-124.5 -35.5q-95 0 -154 61.5t-59 176.5v320
h91v-311q0 -82 42 -126.5t114 -44.5q75 0 120 48.5t45 141.5v292h46q107 0 107 113h66z" />
    <glyph glyph-name="uni1EF0" unicode="&#x1ef0;" horiz-adv-x="661" 
d="M706 818q0 -70 -31 -113t-82 -59v-364q0 -144 -71.5 -216.5t-191.5 -72.5q-119 0 -190.5 72.5t-71.5 216.5v423h91v-423q0 -104 46 -153.5t127 -49.5q80 0 125 50t45 153v423h31q107 0 107 113h66zM330 -73q21 0 36 -14.5t15 -35.5q0 -20 -15 -34.5t-36 -14.5
q-20 0 -34.5 14.5t-14.5 34.5q0 21 14.5 35.5t34.5 14.5z" />
    <glyph glyph-name="uni1EF1" unicode="&#x1ef1;" horiz-adv-x="634" 
d="M689 662q0 -75 -35.5 -119.5t-92.5 -56.5v-486h-91v129q-21 -67 -74.5 -102.5t-124.5 -35.5q-95 0 -154 61.5t-59 176.5v320h91v-311q0 -82 42 -126.5t114 -44.5q75 0 120 48.5t45 141.5v292h46q107 0 107 113h66zM316 -73q21 0 36 -14.5t15 -35.5q0 -20 -15 -34.5
t-36 -14.5q-20 0 -34.5 14.5t-14.5 34.5q0 21 14.5 35.5t34.5 14.5z" />
    <glyph glyph-name="Ygrave" unicode="&#x1ef2;" horiz-adv-x="593" 
d="M395 804v-56l-197 111v64zM470 705h104l-231 -438v-267h-92v267l-232 438h106l173 -341z" />
    <glyph glyph-name="ygrave" unicode="&#x1ef3;" horiz-adv-x="565" 
d="M184 767l197 -119v-56l-197 111v64zM9 549h102l178 -432l165 432h101l-326 -809h-103l114 269z" />
    <glyph glyph-name="uni1EF4" unicode="&#x1ef4;" horiz-adv-x="593" 
d="M251 0v267l-232 438h106l173 -341l172 341h104l-231 -438v-267h-92zM296 -73q21 0 36 -14.5t15 -35.5q0 -20 -15 -34.5t-36 -14.5q-20 0 -34.5 14.5t-14.5 34.5q0 21 14.5 35.5t34.5 14.5z" />
    <glyph glyph-name="uni1EF5" unicode="&#x1ef5;" horiz-adv-x="565" 
d="M9 549h102l178 -432l165 432h101l-326 -809h-103l114 269zM373 -123q0 21 14.5 35.5t34.5 14.5q21 0 36 -14.5t15 -35.5q0 -20 -15 -34.5t-36 -14.5q-20 0 -34.5 14.5t-14.5 34.5z" />
    <glyph glyph-name="uni1EF6" unicode="&#x1ef6;" horiz-adv-x="593" 
d="M293 909q-21 0 -29.5 -11t-12.5 -35l-44 4q2 17 5.5 29.5t12.5 26.5t26.5 21.5t42.5 7.5q84 0 84 -81q0 -8 -1.5 -15.5t-6 -16t-7.5 -13.5t-11.5 -14.5t-12.5 -13.5l-16 -16l-16 -16l-29 25q29 29 41.5 46t12.5 34q0 21 -9.5 29.5t-29.5 8.5zM470 705h104l-231 -438v-267
h-92v267l-232 438h106l173 -341z" />
    <glyph glyph-name="uni1EF7" unicode="&#x1ef7;" horiz-adv-x="565" 
d="M280 796q84 0 84 -81q0 -8 -1.5 -15.5t-6 -16t-7.5 -13.5t-11.5 -14.5t-12.5 -13.5l-16 -16l-16 -16l-29 25q29 29 41.5 46t12.5 34q0 21 -9.5 29.5t-29.5 8.5q-21 0 -29.5 -11t-12.5 -35l-44 4q2 17 5.5 29.5t12.5 26.5t26.5 21.5t42.5 7.5zM9 549h102l178 -432l165 432
h101l-326 -809h-103l114 269z" />
    <glyph glyph-name="uni1EF8" unicode="&#x1ef8;" horiz-adv-x="593" 
d="M239 808q-33 0 -40 -45h-43q15 94 86 94q27 0 59.5 -23t52.5 -23q16 0 27 11.5t14 32.5h44q-6 -45 -29.5 -69t-58.5 -24q-28 0 -61 23t-51 23zM470 705h104l-231 -438v-267h-92v267l-232 438h106l173 -341z" />
    <glyph glyph-name="uni1EF9" unicode="&#x1ef9;" horiz-adv-x="565" 
d="M228 701q27 0 59.5 -23t52.5 -23q16 0 27 11.5t14 32.5h44q-6 -45 -29.5 -69t-58.5 -24q-28 0 -61 23t-51 23q-33 0 -40 -45h-43q15 94 86 94zM9 549h102l178 -432l165 432h101l-326 -809h-103l114 269z" />
    <glyph glyph-name="endash" unicode="&#x2013;" horiz-adv-x="617" 
d="M45 405h527v-77h-527v77z" />
    <glyph glyph-name="emdash" unicode="&#x2014;" horiz-adv-x="825" 
d="M45 405h735v-77h-735v77z" />
    <glyph glyph-name="quoteleft" unicode="&#x2018;" horiz-adv-x="178" 
d="M49 583q-12 53 -12 92q0 113 102 113v-40q-49 0 -49 -56v-23h50v-86h-91z" />
    <glyph glyph-name="quoteright" unicode="&#x2019;" horiz-adv-x="178" 
d="M130 788q11 -48 11 -92q0 -113 -101 -113v41q48 0 48 55v23h-50v86h92z" />
    <glyph glyph-name="quotesinglbase" unicode="&#x201a;" horiz-adv-x="187" 
d="M126 67q14 -51 13.5 -95t-27.5 -73t-76 -29v39q48 0 48 56v9h-51v93h93z" />
    <glyph glyph-name="quotedblleft" unicode="&#x201c;" horiz-adv-x="314" 
d="M49 583q-12 53 -12 92q0 113 102 113v-40q-49 0 -49 -56v-23h50v-86h-91zM184 583q-12 53 -12 92q0 113 102 113v-40q-49 0 -49 -56v-23h50v-86h-91z" />
    <glyph glyph-name="quotedblright" unicode="&#x201d;" horiz-adv-x="314" 
d="M130 788q11 -48 11 -92q0 -113 -101 -113v41q48 0 48 55v23h-50v86h92zM265 788q12 -52 12 -92q0 -113 -102 -113v41q48 0 48 55v23h-50v86h92z" />
    <glyph glyph-name="quotedblbase" unicode="&#x201e;" horiz-adv-x="314" 
d="M130 86q11 -48 11 -92q0 -113 -101 -113v41q48 0 48 55v23h-50v86h92zM265 86q12 -53 12 -92q0 -113 -102 -113v41q48 0 48 55v23h-50v86h92z" />
    <glyph glyph-name="dagger" unicode="&#x2020;" horiz-adv-x="531" 
d="M494 549v-72l-192 7l9 -744h-90l8 744l-192 -7v72l192 -8l-8 240h90l-9 -240z" />
    <glyph glyph-name="daggerdbl" unicode="&#x2021;" horiz-adv-x="532" 
d="M494 477l-191 7v-447l191 9v-73l-191 7l8 -240h-91l9 240l-192 -7v73l192 -9v447l-192 -7v72l192 -8l-9 240h91l-8 -240l191 8v-72z" />
    <glyph glyph-name="bullet" unicode="&#x2022;" horiz-adv-x="355" 
d="M55 333q0 52 36 88t87 36q52 0 87.5 -36t35.5 -88q0 -51 -35.5 -86.5t-87.5 -35.5q-51 0 -87 35.5t-36 86.5z" />
    <glyph glyph-name="ellipsis" unicode="&#x2026;" horiz-adv-x="554" 
d="M30 107h110v-107h-110v107zM221 107h110v-107h-110v107zM412 107h110v-107h-110v107z" />
    <glyph glyph-name="perthousand" unicode="&#x2030;" horiz-adv-x="991" 
d="M179 715q63 0 104.5 -40.5t41.5 -107.5t-41 -107t-105 -40t-105 40t-41 107t41 107.5t105 40.5zM487 706h90l-405 -706h-90zM97 567q0 -40 22.5 -65t58.5 -25q37 0 60 25t23 65t-23 65t-60 25q-36 0 -58.5 -25t-22.5 -65zM481 286q64 0 104.5 -40t40.5 -107t-40.5 -107.5
t-104.5 -40.5q-63 0 -104.5 40.5t-41.5 107.5t41 107t105 40zM812 286q64 0 105 -40t41 -107t-41.5 -107.5t-104.5 -40.5t-104.5 40.5t-41.5 107.5t41 107t105 40zM399 139q0 -40 22.5 -65t59.5 -25q36 0 58.5 25t22.5 65t-22.5 65t-58.5 25q-37 0 -59.5 -25t-22.5 -65z
M730 139q0 -40 22.5 -65t58.5 -25q37 0 60 25t23 65t-23 65t-60 25q-36 0 -58.5 -25t-22.5 -65z" />
    <glyph glyph-name="guilsinglleft" unicode="&#x2039;" horiz-adv-x="280" 
d="M230 120h-89l-96 175l96 175h89l-98 -175z" />
    <glyph glyph-name="guilsinglright" unicode="&#x203a;" horiz-adv-x="280" 
d="M50 120l99 175l-99 175h90l95 -175l-95 -175h-90z" />
    <glyph glyph-name="fraction" unicode="&#x2044;" horiz-adv-x="331" 
d="M318 706h91l-405 -706h-91z" />
    <glyph glyph-name="uni20A8" unicode="&#x20a8;" horiz-adv-x="1075" 
d="M545 495q0 -86 -48 -138.5t-139 -65.5l192 -291h-103l-184 288h-99v-288h-91v705h232q120 0 180 -57.5t60 -152.5zM164 626v-272h133q155 0 155 136t-155 136h-133zM691 399q0 -38 35 -58.5t84.5 -31t99 -23.5t84.5 -47.5t35 -91.5q0 -67 -50 -110.5t-135 -43.5
q-99 0 -162 47t-75 131h90q5 -48 43.5 -78.5t102.5 -30.5q49 0 75.5 24.5t26.5 62.5q0 40 -34.5 61.5t-84 32t-99 23t-84 46t-34.5 90.5q0 69 51.5 111.5t140.5 42.5q96 0 153.5 -48.5t69.5 -130.5h-90q-6 48 -41 78.5t-93 30.5q-50 0 -79.5 -24t-29.5 -63z" />
    <glyph glyph-name="Euro" unicode="&#x20ac;" horiz-adv-x="820" 
d="M441 78q87 0 147 41.5t87 111.5h96q-32 -110 -116 -173.5t-213 -63.5q-123 0 -210 69.5t-114 186.5h-100v47h91q-3 27 -3 55q0 16 2 46h-90v47h97q26 122 113.5 194.5t213.5 72.5q129 0 213 -63.5t116 -173.5h-96q-27 70 -87 111.5t-147 41.5q-83 0 -145 -48.5
t-84 -134.5h244v-47h-253q-3 -22 -3 -46q0 -32 4 -55h252v-47h-242q25 -81 85.5 -126.5t141.5 -45.5z" />
    <glyph glyph-name="uni20B9" unicode="&#x20b9;" horiz-adv-x="640" 
d="M587 642h-129v-118h129v-55h-131q-10 -98 -73 -139.5t-209 -41.5v-90q0 -138 118 -138q113 0 113 134h86q-2 -97 -52.5 -150.5t-142.5 -53.5q-102 0 -155 55.5t-53 161.5v143q70 0 114 3t78 10t51.5 21t26.5 34t12 51h-317v55h319v118h-319v63h534v-63z" />
    <glyph glyph-name="uni20BA" unicode="&#x20ba;" horiz-adv-x="787" 
d="M649 417h92q0 -219 -87 -326.5t-276 -107.5q-75 0 -170 19v248l-163 -38v59l163 38v108l-163 -40v57l163 40v233h92v-210l181 45v-59l-181 -44v-108l182 43v-59l-182 -43v-196q35 -8 77 -8q144 0 208 89.5t64 259.5z" />
    <glyph glyph-name="uni20BD" unicode="&#x20bd;" horiz-adv-x="631" 
d="M357 298h-133v-103h217v-71h-217v-124h-91v124h-88v71h88v103h-88v73h88v334h224q121 0 181 -54.5t60 -149.5q0 -98 -61.5 -150.5t-179.5 -52.5zM224 634v-263h128q153 0 153 131q0 132 -153 132h-128z" />
    <glyph glyph-name="uni2113" unicode="&#x2113;" horiz-adv-x="237" 
d="M73 740h91v-740h-91v740z" />
    <glyph glyph-name="trademark" unicode="&#x2122;" horiz-adv-x="781" 
d="M30 647v58h264v-58h-98v-293h-67v293h-99zM663 705h81v-351h-63l-2 256l-113 -256h-49l-114 265v-265h-60v351h88l112 -272z" />
    <glyph glyph-name="uni2126" unicode="&#x2126;" horiz-adv-x="793" 
d="M749 364q0 -99 -40.5 -176t-120.5 -117h148v-71h-274v75q88 24 141 97t53 181q0 125 -73 201t-186 76q-115 0 -188 -77t-73 -200q1 -108 54 -181t141 -97v-75h-275v71h149q-79 40 -120 117t-41 176q0 157 101 253.5t252 96.5q150 0 251 -96.5t101 -253.5z" />
    <glyph glyph-name="estimated" unicode="&#x212e;" horiz-adv-x="761" 
d="M389 -7q-151 0 -246.5 89.5t-95.5 248.5q0 160 88.5 264.5t244.5 104.5q154 0 244 -95.5t90 -228.5v-61h-532v-167q77 -94 207 -94q72 0 131 31.5t125 95.5l41 -44q-134 -144 -297 -144zM570 379v176q-66 85 -190 85q-131 0 -198 -95v-166h388z" />
    <glyph glyph-name="partialdiff" unicode="&#x2202;" horiz-adv-x="570" 
d="M300 555q129 0 148 -144q-2 131 -42 202.5t-137 71.5q-31 0 -73 -10v51q52 14 102 14q233 0 233 -327q0 -196 -78 -309.5t-212 -113.5q-88 0 -145.5 59.5t-57.5 173.5q0 139 72 235.5t190 96.5zM308 478q-80 0 -128.5 -72.5t-48.5 -182.5q0 -76 33 -114t84 -38
q83 0 131.5 73.5t48.5 181.5q0 152 -120 152z" />
    <glyph glyph-name="uni2206" unicode="&#x2206;" horiz-adv-x="681" 
d="M302 693h76l283 -622v-71h-641v71zM340 589l-226 -518h453z" />
    <glyph glyph-name="product" unicode="&#x220f;" horiz-adv-x="739" 
d="M45 706h648v-70h-79v-636h-92v636h-306v-636h-91v636h-80v70z" />
    <glyph glyph-name="summation" unicode="&#x2211;" horiz-adv-x="457" 
d="M449 693v-71h-333l267 -268v-72l-268 -281h334v-71h-409v105l257 280l-257 273v105h409z" />
    <glyph glyph-name="minus" unicode="&#x2212;" horiz-adv-x="466" 
d="M33 405h400v-77h-400v77z" />
    <glyph glyph-name="radical" unicode="&#x221a;" horiz-adv-x="788" 
d="M708 869h57l-490 -913h-40l-125 220l-66 -37l-28 47l146 83l116 -206z" />
    <glyph glyph-name="infinity" unicode="&#x221e;" horiz-adv-x="671" 
d="M517 496q72 0 113 -39t41 -109q0 -69 -44 -109t-111 -40q-57 0 -98.5 26.5t-78.5 72.5q-61 -100 -164 -99q-71 0 -112.5 39.5t-41.5 108.5t44 109t111 40q58 0 96.5 -27.5t76.5 -78.5q26 47 69 77t99 29zM181 262q71 0 123 83q-33 44 -59.5 66.5t-61.5 22.5
q-41 0 -64.5 -24t-23.5 -63t22.5 -62t63.5 -23zM509 261q41 0 64.5 24t23.5 63t-22.5 62t-63.5 23q-75 0 -127 -90q30 -40 58.5 -61t66.5 -21z" />
    <glyph glyph-name="integral" unicode="&#x222b;" horiz-adv-x="262" 
d="M135 783q15 135 153 135h21l-8 -79h-21q-47 0 -54 -56l-92 -840q-7 -74 -44 -107.5t-106 -33.5h-23l8 79h24q26 0 36 12.5t15 49.5z" />
    <glyph glyph-name="approxequal" unicode="&#x2248;" horiz-adv-x="518" 
d="M174 559q40 0 94.5 -33.5t81.5 -33.5q51 0 63 67h72q-12 -74 -48.5 -112t-92.5 -38q-41 0 -95 33.5t-81 33.5q-25 0 -42 -18.5t-22 -49.5h-71q26 151 141 151zM174 348q40 0 94.5 -33.5t81.5 -33.5q51 0 63 67h72q-12 -74 -48.5 -112t-92.5 -38q-41 0 -95 33.5t-81 33.5
q-25 0 -42 -18.5t-22 -49.5h-71q26 151 141 151z" />
    <glyph glyph-name="notequal" unicode="&#x2260;" horiz-adv-x="586" 
d="M553 431h-185l-96 -130h281v-83h-343l-79 -107h-53l79 107h-124v83h185l97 130h-282v83h343l79 107h54l-79 -107h123v-83z" />
    <glyph glyph-name="lessequal" unicode="&#x2264;" horiz-adv-x="428" 
d="M391 213h-115l-243 191l243 192h115l-240 -192zM44 163h351v-73h-351v73z" />
    <glyph glyph-name="greaterequal" unicode="&#x2265;" horiz-adv-x="428" 
d="M151 213h-114l240 191l-240 192h114l244 -192zM33 90v73h350v-73h-350z" />
    <glyph glyph-name="lozenge" unicode="&#x25ca;" horiz-adv-x="554" 
d="M278 591l240 -241l-241 -241l-241 241zM278 494l-144 -144l143 -144l144 144z" />
    <glyph glyph-name="fi" unicode="&#xfb01;" horiz-adv-x="571" 
d="M186 564v-15h310v-549h-91v469h-219v-469h-91v469h-77v80h77v22q0 197 216 188v-80q-70 1 -97.5 -25t-27.5 -90zM452 756q27 0 44 -15t17 -40t-17 -40t-44 -15q-28 0 -45.5 15t-17.5 40t17.5 40t45.5 15z" />
    <glyph glyph-name="fl" unicode="&#xfb02;" horiz-adv-x="579" 
d="M95 571q0 197 221 188v-80q-73 1 -101.5 -25t-28.5 -90v-15h130v-80h-130v-469h-91v469h-79v80h79v22zM415 740h91v-740h-91v740z" />
    <glyph glyph-name="uni03060301" horiz-adv-x="0" 
d="M-2 933v-62l-190 -107v54zM-169 616q-60 0 -93 35t-33 88v8h41q0 -75 85 -75q86 0 86 75h41v-8q0 -53 -33 -88t-94 -35z" />
    <glyph glyph-name="uni03060300" horiz-adv-x="0" 
d="M-326 925l190 -115v-54l-190 107v62zM-173 616q-60 0 -93 35t-33 88v8h41q0 -75 85 -75q86 0 86 75h41v-8q0 -53 -33 -88t-94 -35z" />
    <glyph glyph-name="uni03060309" horiz-adv-x="0" 
d="M-180 922q81 0 81 -79q0 -8 -1.5 -15t-5.5 -15t-7 -13t-11 -14t-12.5 -13t-15.5 -15l-16 -16l-28 24q19 19 28 29.5t16.5 23.5t7.5 24q0 21 -8.5 29t-28.5 8t-28.5 -10.5t-12.5 -33.5l-43 4q3 23 8.5 38.5t25 29.5t51.5 14zM-172 615q-60 0 -93 35t-33 88v8h41
q0 -75 85 -75q86 0 86 75h41v-8q0 -53 -33 -88t-94 -35z" />
    <glyph glyph-name="uni03060303" horiz-adv-x="0" 
d="M-217 870q26 0 57.5 -22t50.5 -22q34 0 40 42h43q-6 -44 -29 -67t-57 -23q-26 0 -58 22.5t-50 22.5q-32 0 -39 -44h-41q13 91 83 91zM-171 616q-60 0 -93 35t-33 88v8h41q0 -75 85 -75q86 0 86 75h41v-8q0 -53 -33 -88t-94 -35z" />
    <glyph glyph-name="uni03020301" horiz-adv-x="0" 
d="M154 875v-62l-190 -107v54zM-37 614l-123 76l-124 -76v54l124 74l123 -74v-54z" />
    <glyph glyph-name="uni03020300" horiz-adv-x="0" 
d="M-227 894l190 -115v-54l-190 107v62zM-43 614l-123 76l-124 -76v54l124 74l123 -74v-54z" />
    <glyph glyph-name="uni03020309" horiz-adv-x="0" 
d="M-19 869q81 0 81 -79q0 -8 -1.5 -15t-5.5 -15t-7 -13t-11 -14t-12.5 -13t-15.5 -15l-16 -16l-28 24q19 19 28 29.5t16.5 23.5t7.5 24q0 21 -8.5 29t-28.5 8t-28.5 -10.5t-12.5 -33.5l-43 4q3 23 8.5 38.5t25 29.5t51.5 14zM-40 613l-123 76l-124 -76v54l124 74l123 -74
v-54z" />
    <glyph glyph-name="uni03020303" horiz-adv-x="0" 
d="M-201 845q26 0 57.5 -22t50.5 -22q34 0 40 42h43q-6 -44 -29 -67t-57 -23q-26 0 -58 22.5t-50 22.5q-32 0 -39 -44h-41q13 91 83 91zM-43 615l-123 76l-124 -76v54l124 74l123 -74v-54z" />
  </font>
</defs>
</svg>
