<?xml version="1.0" standalone="no"?>
<!DOCTYPE svg PUBLIC "-//W3C//DTD SVG 1.1//EN" "http://www.w3.org/Graphics/SVG/1.1/DTD/svg11.dtd" >
<svg xmlns="http://www.w3.org/2000/svg" xmlns:xlink="http://www.w3.org/1999/xlink" version="1.1">
<metadata>
Created by FontForge 20170731 at Wed Aug 23 19:53:04 2017
 By Aleksey,,,
copyright missing
</metadata>
<defs>
<font id="PoppinsVN-500" horiz-adv-x="675" >
  <font-face 
    font-family="PoppinsVN 500"
    font-weight="400"
    font-stretch="normal"
    units-per-em="1000"
    panose-1="0 0 5 0 0 0 0 0 0 0"
    ascent="800"
    descent="-200"
    x-height="551"
    cap-height="706"
    bbox="-340 -270 1142 1091"
    underline-thickness="50"
    underline-position="-200"
    unicode-range="U+0020-FB02"
  />
<missing-glyph horiz-adv-x="501" 
d="M411 740v-1002h-318v1002h318zM334 673h-166v-33h65v-37h-66v-33h167v33h-66v37h66v33zM268 544h-101v-105h167v34h-66v71zM233 510v-37h-33v37h33zM334 412h-167v-33h66v-37h-66v-33h101v70h66v33zM334 352h-33v-66h-134v-34h167v100zM334 230h-101v-56h35v23h33v-47
h-101v80h-33v-113h167v113zM334 57h-167v-114h167v114zM301 24v-48h-101v48h101zM334 -80h-167v-33h70l-70 -47v-33h167v33h-103l71 47h32v33z" />
    <glyph glyph-name=".notdef" horiz-adv-x="501" 
d="M411 740v-1002h-318v1002h318zM334 673h-166v-33h65v-37h-66v-33h167v33h-66v37h66v33zM268 544h-101v-105h167v34h-66v71zM233 510v-37h-33v37h33zM334 412h-167v-33h66v-37h-66v-33h101v70h66v33zM334 352h-33v-66h-134v-34h167v100zM334 230h-101v-56h35v23h33v-47
h-101v80h-33v-113h167v113zM334 57h-167v-114h167v114zM301 24v-48h-101v48h101zM334 -80h-167v-33h70l-70 -47v-33h167v33h-103l71 47h32v33z" />
    <glyph glyph-name=".null" horiz-adv-x="0" 
 />
    <glyph glyph-name="nonmarkingreturn" horiz-adv-x="333" 
 />
    <glyph glyph-name="space" unicode=" " horiz-adv-x="234" 
 />
    <glyph glyph-name="exclam" unicode="!" horiz-adv-x="323" 
d="M103 728h126l-15 -507h-96zM102 126h130v-126h-130v126z" />
    <glyph glyph-name="quotedbl" unicode="&#x22;" horiz-adv-x="334" 
d="M42 798h99l-10 -206h-78zM193 798h99l-10 -206h-78z" />
    <glyph glyph-name="numbersign" unicode="#" horiz-adv-x="832" 
d="M806 444h-160l-32 -150h134v-104h-156l-41 -190h-107l41 190h-199l-41 -190h-107l41 190h-153v104h175l32 150h-149v105h171l41 191h107l-41 -191h199l41 191h107l-41 -191h138v-105zM507 294l32 150h-199l-32 -150h199z" />
    <glyph glyph-name="dollar" unicode="$" horiz-adv-x="597" 
d="M314 404q105 -33 139 -51q99 -54 99 -165q0 -81 -61 -138t-175 -57h-2v-80h-34v82q-99 8 -162 62.5t-70 138.5h122q4 -39 32.5 -71t77.5 -40v227q-106 32 -142 53q-92 53 -92 160q0 85 65 137t169 53v85h34v-86q98 -7 156 -58t67 -129h-123q-6 36 -31.5 62.5t-68.5 34.5
v-220zM168 529q0 -44 29 -69.5t83 -44.5v212q-52 -1 -82 -26.5t-30 -71.5zM314 82q55 0 85.5 29t30.5 74q0 46 -30 71.5t-86 44.5v-219z" />
    <glyph glyph-name="percent" unicode="%" horiz-adv-x="701" 
d="M183 716q67 0 109 -41.5t42 -112.5t-42 -112t-109 -41t-109.5 41t-42.5 112t42.5 112.5t109.5 41.5zM495 707h111l-399 -707h-112zM109 562q0 -38 20 -60.5t53 -22.5t53.5 23t20.5 60q0 38 -20.5 61t-53.5 23t-53 -23t-20 -61zM519 298q67 0 109.5 -41t42.5 -112
t-42.5 -112.5t-109.5 -41.5q-66 0 -108.5 41.5t-42.5 112.5q0 70 42.5 111.5t108.5 41.5zM446 145q0 -38 20 -61t53 -23t53.5 23t20.5 61q0 37 -20.5 60t-53.5 23t-53 -23t-20 -60z" />
    <glyph glyph-name="ampersand" unicode="&#x26;" horiz-adv-x="685" 
d="M680 0h-117l-132 149q-1 -10 -10 -35q-14 -54 -60.5 -87.5t-110.5 -33.5q-98 0 -157.5 59t-59.5 153t53 148.5t131 54.5h7q-2 3 -6.5 9t-6.5 9q-50 62 -50 126q0 66 49.5 113.5t137.5 47.5t134.5 -42t58.5 -106q9 -33 7 -71h-108q1 13 -1 33q-1 42 -24.5 66t-64.5 24
q-38 0 -59.5 -22t-21.5 -54q0 -27 10.5 -47t32.5 -47zM251 90q49 0 80.5 31t31.5 80q0 51 -37.5 85.5t-85.5 34.5t-78 -29.5t-30 -83.5q0 -55 34.5 -86.5t84.5 -31.5z" />
    <glyph glyph-name="quotesingle" unicode="'" horiz-adv-x="188" 
d="M42 798h103l-12 -206h-78z" />
    <glyph glyph-name="parenleft" unicode="(" horiz-adv-x="391" 
d="M38 403q0 192 73.5 343t193.5 244h111v-12q-267 -218 -267 -575t267 -577v-11h-111q-120 94 -193.5 244.5t-73.5 343.5z" />
    <glyph glyph-name="parenright" unicode=")" horiz-adv-x="392" 
d="M354 403q0 -192 -73.5 -343.5t-193.5 -244.5h-111v11q267 219 267 577t-267 575v12h111q120 -92 193.5 -243.5t73.5 -343.5z" />
    <glyph glyph-name="asterisk" unicode="*" horiz-adv-x="491" 
d="M275 590l115 89l45 -80l-137 -51l137 -50l-46 -83l-114 91l22 -146h-93l20 146l-115 -93l-48 85l136 51l-135 50l45 81l117 -90l-21 146h94z" />
    <glyph glyph-name="plus" unicode="+" horiz-adv-x="571" 
d="M541 413v-105h-200v-202h-111v202h-199v105h199v203h111v-203h200z" />
    <glyph glyph-name="comma" unicode="," horiz-adv-x="193" 
d="M139 78q17 -53 18 -102.5t-29.5 -84.5t-87.5 -35v46q25 0 37 13t12 44v9h-58v110h108z" />
    <glyph glyph-name="hyphen" unicode="-" horiz-adv-x="506" 
d="M-9 410h412v-96h-412v96z" />
    <glyph glyph-name="period" unicode="." horiz-adv-x="190" 
d="M30 126h129v-126h-129v126z" />
    <glyph glyph-name="slash" unicode="/" horiz-adv-x="378" 
d="M271 944h111l-272 -1120h-111z" />
    <glyph glyph-name="zero" unicode="0" horiz-adv-x="623" 
d="M52 358q0 -360 260 -360t260 360q0 358 -260 358t-260 -358zM458 358q0 -58 -5.5 -99.5t-20.5 -78.5t-45 -55.5t-75 -18.5q-37 0 -63.5 13t-42.5 34.5t-25.5 55.5t-12.5 68.5t-3 80.5q0 58 5.5 98.5t20.5 77t45 55t76 18.5q45 0 75 -18.5t45 -55t20.5 -77t5.5 -98.5z" />
    <glyph glyph-name="one" unicode="1" horiz-adv-x="307" 
d="M119 599h-106v107h226v-706h-120v599z" />
    <glyph glyph-name="two" unicode="2" horiz-adv-x="567" 
d="M40 89q357 244 357 415q0 118 -112 118q-119 0 -127 -152h-111q7 121 74.5 185t172.5 64q103 0 161.5 -54.5t58.5 -150.5q0 -59 -29 -121.5t-77.5 -116.5t-102 -98.5t-110.5 -79.5h335v-93h-490v84z" />
    <glyph glyph-name="three" unicode="3" horiz-adv-x="594" 
d="M300 728q104 0 162.5 -53t58.5 -135q0 -67 -37.5 -111.5t-105.5 -53.5v-5q156 -44 156 -177q0 -89 -59 -144.5t-169 -55.5q-113 0 -182 57.5t-79 170.5h113q6 -60 43 -95.5t100 -35.5q59 0 90.5 31t31.5 80q0 59 -45.5 90t-131.5 31h-27v94h27q163 -2 163 111
q0 49 -30 77t-82 28t-87 -31.5t-42 -91.5h-112q7 104 70 161.5t174 57.5z" />
    <glyph glyph-name="four" unicode="4" horiz-adv-x="635" 
d="M393 152h-358v96l351 464h122v-460h99v-100h-99v-152h-115v152zM401 252v324l-248 -324h248z" />
    <glyph glyph-name="five" unicode="5" horiz-adv-x="624" 
d="M541 717v-101h-349v-210q24 31 68 49.5t97 18.5q109 0 164 -66t55 -164q0 -111 -62 -179.5t-180 -68.5q-111 0 -179 59t-74 157h112q9 -54 44.5 -85t90.5 -31q68 0 102 41t34 109q0 64 -35 100.5t-100 36.5q-46 0 -80.5 -20t-50.5 -53h-111v407h454z" />
    <glyph glyph-name="six" unicode="6" horiz-adv-x="623" 
d="M439 516q-18 118 -123 118q-81 0 -118.5 -68.5t-32.5 -215.5q15 54 65 86t118 32q104 0 163 -62t59 -175q0 -104 -62 -171t-179 -67q-65 0 -113 19t-77 50.5t-46.5 79t-24 96.5t-6.5 111q0 190 61 284t200 94q104 0 159.5 -59t64.5 -152h-108zM175 244q0 -65 38 -108.5
t112 -43.5q63 0 100.5 37t37.5 103q0 71 -38 109t-103 38q-59 0 -103 -35t-44 -100z" />
    <glyph glyph-name="seven" unicode="7" horiz-adv-x="507" 
d="M481 710v-86l-263 -624h-120l267 611h-350v99h466z" />
    <glyph glyph-name="eight" unicode="8" horiz-adv-x="631" 
d="M70 542q0 80 64.5 135t180.5 55t181 -55t65 -135q0 -123 -121 -161q67 -21 103 -67.5t36 -113.5q0 -103 -73 -160.5t-191 -57.5t-190.5 57.5t-72.5 160.5q0 67 36 113.5t103 67.5q-121 38 -121 161zM183 524q0 -54 35.5 -83.5t96.5 -29.5t97 29.5t36 83.5t-36.5 84
t-96.5 30t-96 -30t-36 -84zM163 206q0 -61 41 -95.5t111 -34.5t111 34.5t41 95.5q0 62 -42.5 93.5t-109.5 31.5q-66 0 -109 -32t-43 -93z" />
    <glyph glyph-name="nine" unicode="9" horiz-adv-x="606" 
d="M177 204q18 -119 125 -119q80 0 117.5 68.5t32.5 216.5q-16 -54 -66.5 -86.5t-117.5 -32.5q-104 0 -163 62.5t-59 174.5q0 105 62 172t179 67q65 0 113 -18.5t77.5 -49.5t47 -77.5t24 -95.5t6.5 -111q0 -187 -58.5 -285t-194.5 -98q-105 0 -164.5 59.5t-68.5 152.5h108z
M441 476q0 65 -37.5 108.5t-112.5 43.5q-63 0 -100 -37t-37 -104q0 -71 37.5 -109t102.5 -38q59 0 103 35.5t44 100.5z" />
    <glyph glyph-name="colon" unicode=":" horiz-adv-x="216" 
d="M46 550h129v-126h-129v126zM46 126h129v-126h-129v126z" />
    <glyph glyph-name="semicolon" unicode=";" horiz-adv-x="278" 
d="M85 546h129v-126h-129v126zM196 78q17 -53 18 -102.5t-29.5 -84.5t-87.5 -35v46q25 0 37 13t12 44v9h-58v110h108z" />
    <glyph glyph-name="less" unicode="&#x3c;" horiz-adv-x="436" 
d="M405 135h-144l-230 226l230 228h144l-231 -228z" />
    <glyph glyph-name="equal" unicode="=" horiz-adv-x="593" 
d="M31 526h532v-104h-532v104zM31 301h532v-104h-532v104z" />
    <glyph glyph-name="greater" unicode="&#x3e;" horiz-adv-x="436" 
d="M261 361l-230 228h143l231 -228l-231 -226h-143z" />
    <glyph glyph-name="question" unicode="?" horiz-adv-x="508" 
d="M258 740q100 0 160 -54t60 -150q0 -104 -64.5 -156.5t-175.5 -54.5v-110h-108v186h48q41 0 71.5 5.5t58.5 19.5t42.5 41.5t14.5 67.5q0 52 -30 81.5t-81 29.5q-54 0 -87 -31t-33 -81h-109q-2 91 61.5 148.5t171.5 57.5zM120 126h130v-126h-130v126z" />
    <glyph glyph-name="at" unicode="@" horiz-adv-x="1179" 
d="M646 798q234 0 365 -121.5t131 -333.5q0 -149 -79 -250.5t-187 -101.5q-140 0 -141 132q-72 -132 -211 -132q-100 0 -159 73t-52 191q7 133 93.5 219t211.5 86q122 0 185.5 -75t46.5 -193l-19 -121q-13 -80 52 -80q58 0 100 66.5t42 181.5q0 167 -102.5 266t-292.5 99
q-148 0 -256 -64t-161.5 -170t-53.5 -240q0 -192 110 -293.5t317 -102.5l-22 -95q-247 4 -382 131t-135 360q0 250 169 409t430 159zM562 91q72 0 124 56t55 152q4 75 -34.5 117.5t-107.5 42.5q-73 0 -123 -55t-53 -147q-4 -76 35 -121t104 -45z" />
    <glyph glyph-name="A" unicode="A" horiz-adv-x="682" 
d="M544 0l-54 153h-298l-54 -153h-122l260 695h131l259 -695h-122zM224 241h234l-117 330z" />
    <glyph glyph-name="B" unicode="B" horiz-adv-x="618" 
d="M437 364q64 -13 103.5 -61t39.5 -112q0 -88 -59 -139.5t-171 -51.5h-281v706h276q106 0 162.5 -47.5t56.5 -130.5q0 -67 -35 -108.5t-92 -55.5zM183 613v-211h141q60 0 91.5 28t31.5 78q0 105 -127 105h-137zM327 94q65 0 100.5 29.5t35.5 82.5t-36 83t-101 30h-143v-225
h144z" />
    <glyph glyph-name="C" unicode="C" horiz-adv-x="761" 
d="M384 713q130 0 216 -66t116 -179h-121q-25 64 -79.5 101.5t-133.5 37.5q-96 0 -157.5 -69t-61.5 -185q0 -115 61.5 -184t157.5 -69q79 0 133.5 37.5t79.5 100.5h121q-30 -113 -116 -178.5t-216 -65.5q-151 0 -244.5 100t-93.5 259t93.5 259.5t244.5 100.5z" />
    <glyph glyph-name="D" unicode="D" horiz-adv-x="721" 
d="M675 354q0 -162 -97.5 -258t-272.5 -96h-236v706h236q175 0 272.5 -95t97.5 -257zM296 103q127 0 195 66t68 185t-68 185t-195 66h-113v-502h113z" />
    <glyph glyph-name="E" unicode="E" horiz-adv-x="515" 
d="M473 614h-290v-214h260v-88h-260v-219h290v-93h-404v706h404v-92z" />
    <glyph glyph-name="F" unicode="F" horiz-adv-x="519" 
d="M69 706h417v-92h-303v-219h250v-88h-250v-307h-114v706z" />
    <glyph glyph-name="G" unicode="G" horiz-adv-x="773" 
d="M392 712q126 0 210 -62t111 -169h-120q-23 57 -75.5 91t-124.5 34q-101 0 -165.5 -69t-64.5 -184q0 -121 65.5 -189.5t175.5 -68.5q88 0 151 54.5t76 149.5h-259v84h355v-109q-18 -120 -107.5 -200.5t-226.5 -80.5q-156 0 -251.5 100.5t-95.5 259.5t95.5 259t250.5 100z
" />
    <glyph glyph-name="H" unicode="H" horiz-adv-x="699" 
d="M515 706h115v-706h-115v317h-332v-317h-114v706h114v-296h332v296z" />
    <glyph glyph-name="I" unicode="I" horiz-adv-x="252" 
d="M69 706h114v-706h-114v706z" />
    <glyph glyph-name="J" unicode="J" horiz-adv-x="503" 
d="M325 706h114v-512q0 -95 -53 -148t-147 -53q-102 0 -160 59t-58 167h113q0 -122 100 -122q47 0 69 27t22 70v512z" />
    <glyph glyph-name="K" unicode="K" horiz-adv-x="617" 
d="M601 706l-311 -349l311 -357h-139l-279 327v-327h-114v706h114v-323l280 323h138z" />
    <glyph glyph-name="L" unicode="L" horiz-adv-x="447" 
d="M183 706v-617h244v-89h-358v706h114z" />
    <glyph glyph-name="M" unicode="M" horiz-adv-x="869" 
d="M663 695h138v-695h-115v521l-201 -521h-100l-202 521v-521h-114v695h138l230 -555z" />
    <glyph glyph-name="N" unicode="N" horiz-adv-x="709" 
d="M640 705v-705h-114l-343 521v-521h-114v705h114l343 -523v523h114z" />
    <glyph glyph-name="O" unicode="O" horiz-adv-x="790" 
d="M396 715q150 0 249 -101.5t99 -259.5t-99.5 -260t-248.5 -102q-150 0 -250 102t-100 260t100 259.5t250 101.5zM396 609q-103 0 -168 -69.5t-65 -185.5t65 -185.5t168 -69.5q102 0 166.5 69.5t64.5 185.5t-64.5 185.5t-166.5 69.5z" />
    <glyph glyph-name="P" unicode="P" horiz-adv-x="585" 
d="M309 274h-126v-274h-114v706h240q122 0 183.5 -58t61.5 -159q0 -100 -63 -157.5t-182 -57.5zM297 367q141 0 141 122q0 123 -141 123h-114v-245h114z" />
    <glyph glyph-name="Q" unicode="Q" horiz-adv-x="790" 
d="M759 -133h-141l-126 137q-46 -12 -96 -12q-150 0 -250 102t-100 260t100 259.5t250 101.5t249 -101.5t99 -259.5q0 -100 -43 -181t-117 -128zM163 354q0 -116 65 -185.5t168 -69.5q102 0 166.5 69.5t64.5 185.5t-64.5 185.5t-166.5 69.5q-103 0 -168 -69.5t-65 -185.5z
" />
    <glyph glyph-name="R" unicode="R" horiz-adv-x="598" 
d="M568 0h-128l-176 282h-81v-282h-114v706h249q121 0 183.5 -59t62.5 -156q0 -83 -46.5 -136t-134.5 -68zM183 608v-245h126q138 0 138 122q0 123 -138 123h-126z" />
    <glyph glyph-name="S" unicode="S" horiz-adv-x="578" 
d="M533 188q0 -81 -58.5 -138t-167.5 -57t-180 55.5t-79 147.5h122q5 -46 39.5 -79t92.5 -33q52 0 80.5 28t28.5 72q0 36 -20 61.5t-52.5 40t-71 26.5t-77.5 27.5t-71.5 36.5t-52.5 59t-20 90q0 86 62 138t166 52q108 0 171.5 -52t72.5 -136h-123q-7 40 -37.5 68.5
t-83.5 28.5q-48 0 -77 -24.5t-29 -70.5q0 -35 20 -59t52.5 -38.5t71 -26.5t77.5 -27.5t71.5 -37.5t52.5 -60.5t20 -91.5z" />
    <glyph glyph-name="T" unicode="T" horiz-adv-x="539" 
d="M15 706h508v-92h-197v-614h-115v614h-196v92z" />
    <glyph glyph-name="U" unicode="U" horiz-adv-x="671" 
d="M64 706h114v-419q0 -94 41.5 -140t116.5 -46q74 0 115.5 46t41.5 140v419h114v-419q0 -145 -75 -219.5t-198 -74.5q-122 0 -196 74.5t-74 219.5v419z" />
    <glyph glyph-name="V" unicode="V" horiz-adv-x="687" 
d="M16 706h124l203 -584l204 584h124l-255 -706h-146z" />
    <glyph glyph-name="W" unicode="W" horiz-adv-x="996" 
d="M838 706h125l-176 -706h-140l-149 546l-149 -546h-140l-176 706h125l122 -574l155 574h126l155 -574z" />
    <glyph glyph-name="X" unicode="X" horiz-adv-x="624" 
d="M608 0h-136l-169 261l-151 -261h-131l219 360l-224 346h136l166 -256l150 256h131l-218 -354z" />
    <glyph glyph-name="Y" unicode="Y" horiz-adv-x="618" 
d="M472 706h130l-235 -449v-257h-115v257l-236 449h132l162 -327z" />
    <glyph glyph-name="Z" unicode="Z" horiz-adv-x="554" 
d="M507 617l-338 -524h343v-93h-470v89l336 524h-329v93h458v-89z" />
    <glyph glyph-name="bracketleft" unicode="[" horiz-adv-x="367" 
d="M90 944h229v-93h-121v-933h121v-94h-229v1120z" />
    <glyph glyph-name="backslash" unicode="\" horiz-adv-x="664" 
d="M521 -176h-111l-300 1120h112z" />
    <glyph glyph-name="bracketright" unicode="]" horiz-adv-x="365" 
d="M276 -176h-229v94h121v933h-121v93h229v-1120z" />
    <glyph glyph-name="asciicircum" unicode="^" horiz-adv-x="649" 
d="M325 562l-178 -394h-114l237 528h109l237 -528h-114z" />
    <glyph glyph-name="underscore" unicode="_" horiz-adv-x="642" 
d="M44 -36h558v-111h-558v111z" />
    <glyph glyph-name="grave" unicode="`" horiz-adv-x="294" 
d="M36 775l200 -114v-67l-200 105v76z" />
    <glyph glyph-name="a" unicode="a" 
d="M290 558q75 0 128 -37t75 -98v128h114v-551h-114v128q-22 -61 -75 -98t-128 -37q-110 0 -179.5 76.5t-69.5 206.5t69.5 206t179.5 76zM325 458q-76 0 -121.5 -48.5t-45.5 -133.5t45.5 -133.5t121.5 -48.5q73 0 120.5 49.5t47.5 132.5q0 82 -47.5 132t-120.5 50z" />
    <glyph glyph-name="b" unicode="b" 
d="M385 558q110 0 179.5 -76t69.5 -206t-69.5 -206.5t-179.5 -76.5q-75 0 -128 37t-74 98v-128h-114v740h114v-317q21 61 74 98t128 37zM350 458q-73 0 -120.5 -50t-47.5 -132q0 -83 47.5 -132.5t120.5 -49.5q76 0 122 48.5t46 133.5q0 84 -46 133t-122 49z" />
    <glyph glyph-name="c" unicode="c" horiz-adv-x="619" 
d="M314 558q107 0 177 -56.5t87 -153.5h-121q-10 52 -48.5 81.5t-96.5 29.5q-66 0 -110 -46.5t-44 -136.5t44 -137t110 -47q58 0 96.5 30t48.5 82h121q-17 -97 -87 -154t-177 -57q-121 0 -197 76t-76 207q0 130 76 206t197 76z" />
    <glyph glyph-name="d" unicode="d" 
d="M290 558q75 0 128 -37t74 -98v317h115v-740h-115v128q-21 -61 -74 -98t-128 -37q-110 0 -179.5 76.5t-69.5 206.5t69.5 206t179.5 76zM325 458q-76 0 -121.5 -48.5t-45.5 -133.5t45.5 -133.5t121.5 -48.5q73 0 120.5 49.5t47.5 132.5q0 82 -47.5 132t-120.5 50z" />
    <glyph glyph-name="e" unicode="e" horiz-adv-x="622" 
d="M581 302q0 -28 -4 -49h-424q3 -85 47 -126t109 -41q57 0 96.5 29t48.5 77h122q-16 -88 -87 -143.5t-175 -55.5q-121 0 -197 76t-76 207q0 130 76 206t197 76q122 0 194.5 -73t72.5 -183zM466 305q4 79 -41.5 120.5t-110.5 41.5q-67 0 -112 -41t-49 -121h313z" />
    <glyph glyph-name="f" unicode="f" horiz-adv-x="349" 
d="M326 665q-67 3 -94 -21.5t-27 -83.5v-9h121v-98h-121v-453h-115v453h-75v98h75v18q0 101 59 151.5t177 44.5v-100z" />
    <glyph glyph-name="g" unicode="g" 
d="M290 558q75 0 128 -37t75 -98v128h114v-557q0 -117 -70.5 -190.5t-191.5 -73.5q-116 0 -187.5 55t-89.5 149h113q14 -49 54 -76.5t102 -27.5q68 0 112 42t44 122v134q-22 -61 -75 -98t-128 -37q-110 0 -179.5 76.5t-69.5 206.5t69.5 206t179.5 76zM325 458
q-76 0 -121.5 -48.5t-45.5 -133.5t45.5 -133.5t121.5 -48.5q73 0 120.5 49.5t47.5 132.5q0 82 -47.5 132t-120.5 50z" />
    <glyph glyph-name="h" unicode="h" horiz-adv-x="653" 
d="M377 560q96 0 154 -62t58 -177v-321h-114v309q0 74 -38 114.5t-104 40.5q-68 0 -109 -43.5t-41 -127.5v-293h-114v740h114v-310q22 62 74 96t120 34z" />
    <glyph glyph-name="i" unicode="i" horiz-adv-x="252" 
d="M53 711q0 29 20 48t53 19t53.5 -19t20.5 -48t-20.5 -47t-53.5 -18t-53 18t-20 47zM69 551h114v-551h-114v551z" />
    <glyph glyph-name="j" unicode="j" horiz-adv-x="256" 
d="M131 646q-33 0 -53.5 18t-20.5 47t20.5 48t53.5 19t53 -19t20 -48t-20 -47t-53 -18zM-29 -262v100h39q33 0 48.5 14.5t15.5 49.5v649h115v-650q0 -163 -164 -163h-54z" />
    <glyph glyph-name="k" unicode="k" horiz-adv-x="527" 
d="M522 0h-141l-198 245v-245h-114v740h114v-424l196 235h137l-240 -274z" />
    <glyph glyph-name="l" unicode="l" horiz-adv-x="252" 
d="M69 740h114v-740h-114v740z" />
    <glyph glyph-name="m" unicode="m" horiz-adv-x="1037" 
d="M758 560q98 0 156.5 -62t58.5 -177v-321h-114v309q0 72 -36 111.5t-99 39.5q-67 0 -106.5 -42.5t-39.5 -124.5v-293h-114v309q0 72 -36 111.5t-99 39.5q-67 0 -106.5 -42.5t-39.5 -124.5v-293h-114v551h114v-115q21 60 70 92t115 32q69 0 119.5 -34t73.5 -98q24 62 77 97
t120 35z" />
    <glyph glyph-name="n" unicode="n" horiz-adv-x="653" 
d="M377 560q96 0 154 -62t58 -177v-321h-114v309q0 74 -38 114.5t-104 40.5q-68 0 -109 -43.5t-41 -127.5v-293h-114v551h114v-121q22 62 74 96t120 34z" />
    <glyph glyph-name="o" unicode="o" horiz-adv-x="642" 
d="M321 558q123 0 201.5 -76.5t78.5 -205.5q0 -130 -78.5 -206.5t-201.5 -76.5q-122 0 -201 76.5t-79 206.5q0 129 79 205.5t201 76.5zM321 459q-68 0 -115.5 -47t-47.5 -136q0 -90 47 -136.5t116 -46.5t116 46.5t47 136.5q0 89 -47.5 136t-115.5 47z" />
    <glyph glyph-name="p" unicode="p" 
d="M385 558q110 0 179.5 -76t69.5 -206t-69.5 -206.5t-179.5 -76.5q-75 0 -128 37t-74 98v-390h-114v813h114v-128q21 61 74 98t128 37zM350 458q-73 0 -120.5 -50t-47.5 -132q0 -83 47.5 -132.5t120.5 -49.5q76 0 122 48.5t46 133.5q0 84 -46 133t-122 49z" />
    <glyph glyph-name="q" unicode="q" 
d="M298 557q70 0 120 -32t75 -89v115h114v-813h-114v383q-57 -128 -195 -128q-111 0 -184 77.5t-73 203.5t73 204.5t184 78.5zM325 457q-73 0 -120 -48.5t-47 -134.5t46.5 -133t120.5 -47q71 0 119.5 49t48.5 133t-48.5 132.5t-119.5 48.5z" />
    <glyph glyph-name="r" unicode="r" horiz-adv-x="399" 
d="M183 443q28 54 80 85.5t120 31.5v-124h-34q-166 0 -166 -157v-279h-114v551h114v-108z" />
    <glyph glyph-name="s" unicode="s" horiz-adv-x="528" 
d="M250 558q97 0 155.5 -49.5t71.5 -132.5h-108q-7 45 -38.5 72.5t-83.5 27.5q-43 0 -66.5 -20.5t-23.5 -55.5q0 -30 24 -48.5t60.5 -26t78.5 -19.5t78.5 -26.5t60.5 -48t24 -83.5q0 -69 -52.5 -112t-141.5 -43q-103 0 -166.5 48t-76.5 134h111q5 -45 40 -73t92 -28
q41 0 64.5 21.5t23.5 54.5q0 37 -33.5 57.5t-81 30.5t-95.5 23t-81.5 47.5t-33.5 92.5q0 70 52.5 113.5t145.5 43.5z" />
    <glyph glyph-name="t" unicode="t" horiz-adv-x="384" 
d="M291 99h55v-99h-70q-88 0 -133.5 42.5t-45.5 141.5v270h-79v97h79v137h115v-137h133v-97h-133v-272q0 -47 17.5 -65t61.5 -18z" />
    <glyph glyph-name="u" unicode="u" horiz-adv-x="645" 
d="M462 551h115v-551h-115v120q-21 -61 -73 -94.5t-121 -33.5q-96 0 -154 62t-58 177v320h114v-308q0 -75 38 -115.5t104 -40.5q68 0 109 44t41 128v292z" />
    <glyph glyph-name="v" unicode="v" horiz-adv-x="588" 
d="M137 551l158 -433l156 433h122l-210 -551h-138l-210 551h122z" />
    <glyph glyph-name="w" unicode="w" horiz-adv-x="850" 
d="M733 551h108l-153 -551h-126l-136 426l-138 -426h-125l-153 551h115l105 -446l138 446h120l140 -446z" />
    <glyph glyph-name="x" unicode="x" horiz-adv-x="534" 
d="M524 0h-129l-135 195l-118 -195h-127l182 286l-184 265h129l132 -190l117 190h126l-182 -278z" />
    <glyph glyph-name="y" unicode="y" horiz-adv-x="585" 
d="M6 551h128l165 -405l153 405h127l-333 -813h-127l119 275z" />
    <glyph glyph-name="z" unicode="z" horiz-adv-x="459" 
d="M424 460l-273 -364h283v-96h-409v91l268 364h-261v96h392v-91z" />
    <glyph glyph-name="braceleft" unicode="{" horiz-adv-x="396" 
d="M144 371q114 -23 114 -147q0 -31 -11 -93t-11 -106q0 -87 38 -146.5t91 -85.5v-10h-108q-17 9 -35.5 25.5t-40.5 45t-36.5 75t-14.5 101.5q0 40 11.5 103.5t11.5 93.5q0 101 -105 122v46q105 21 105 122q0 30 -11.5 93.5t-11.5 103.5q0 55 14.5 101.5t36.5 75t40.5 45
t35.5 25.5h108v-10q-53 -26 -91 -85.5t-38 -146.5q0 -44 11 -106t11 -93q0 -123 -114 -147v-2z" />
    <glyph glyph-name="bar" unicode="|" horiz-adv-x="224" 
d="M169 802v-915h-115v915h115z" />
    <glyph glyph-name="braceright" unicode="}" horiz-adv-x="390" 
d="M259 373q-114 24 -114 138q0 31 10.5 93t10.5 106q0 85 -38.5 150.5t-89.5 90.5v10h108q16 -9 34.5 -25t40.5 -45t36.5 -75.5t14.5 -101.5q0 -40 -11 -103.5t-11 -93.5q0 -104 104 -122v-46q-104 -16 -104 -122q0 -30 11 -93.5t11 -103.5q0 -55 -14.5 -101.5t-36.5 -75.5
t-40.5 -45t-34.5 -25h-108v10q51 25 89.5 90.5t38.5 150.5q0 45 -10.5 106.5t-10.5 92.5q0 115 114 138v2z" />
    <glyph glyph-name="asciitilde" unicode="~" horiz-adv-x="553" 
d="M188 404q43 0 100 -33.5t83 -33.5q51 0 62 68h89q-14 -85 -55 -128t-103 -43q-43 0 -99.5 33.5t-83.5 33.5q-50 0 -63 -68h-87q14 85 54.5 128t102.5 43z" />
    <glyph glyph-name="exclamdown" unicode="&#xa1;" horiz-adv-x="336" 
d="M102 434v126h130v-126h-130zM103 -168l15 507h96l15 -507h-126z" />
    <glyph glyph-name="cent" unicode="&#xa2;" horiz-adv-x="584" 
d="M300 102q52 0 90 28.5t47 78.5h106q-10 -87 -70.5 -140.5t-150.5 -59.5v-97h-54v97q-104 9 -165.5 75.5t-61.5 177.5t61.5 177.5t165.5 75.5v92h54v-92q90 -6 150.5 -59.5t70.5 -140.5h-106q-10 51 -47.5 79.5t-89.5 28.5q-65 0 -107 -41.5t-42 -119.5t42 -119t107 -41z
" />
    <glyph glyph-name="sterling" unicode="&#xa3;" horiz-adv-x="605" 
d="M275 254q0 -94 -76 -166h357v-91h-468l-14 59q47 45 69.5 89.5t22.5 106.5q0 20 -7 51h-118v78h93q-30 92 -30 154q0 92 60.5 148t159.5 56q105 0 165 -59t69 -154h-106q-5 53 -38 86t-86 33q-50 0 -82 -31.5t-32 -90.5q0 -46 34 -142h181v-78h-159q5 -27 5 -49z" />
    <glyph glyph-name="currency" unicode="&#xa4;" horiz-adv-x="549" 
d="M463 378q0 -65 -37 -112l56 -55l-45 -45l-59 59q-46 -26 -103 -26q-60 0 -104 26l-60 -59l-45 45l58 56q-35 46 -35 111q0 66 36 111l-59 58l45 45l62 -62q45 25 102 25t101 -24l61 61l45 -45l-58 -56q39 -45 39 -113zM275 269q41 0 69 28.5t28 79.5t-28 80t-69 29
q-42 0 -69 -29t-27 -80t27 -79.5t69 -28.5z" />
    <glyph glyph-name="yen" unicode="&#xa5;" horiz-adv-x="641" 
d="M615 706l-162 -310h127v-77h-168l-32 -62v-8h200v-78h-200v-171h-115v171h-200v78h200v8l-33 62h-167v77h127l-163 310h132l162 -344l162 344h130z" />
    <glyph glyph-name="brokenbar" unicode="&#xa6;" horiz-adv-x="304" 
d="M94 414v388h115v-388h-115zM209 275v-388h-115v388h115z" />
    <glyph glyph-name="section" unicode="&#xa7;" horiz-adv-x="580" 
d="M404 118q104 -57 104 -148q0 -71 -54.5 -114.5t-151.5 -43.5q-98 0 -157.5 50.5t-69.5 135.5h114q5 -47 33 -75.5t82 -28.5q40 0 64 18t24 53q0 38 -35.5 65t-125.5 60q-91 31 -140 73t-49 111q0 54 34 97t103 59q-107 58 -107 149q0 70 55 113.5t153 43.5
q97 0 156 -50.5t68 -136.5h-113q-3 45 -31.5 74.5t-81.5 29.5q-90 0 -90 -69q0 -39 35.5 -66.5t124.5 -59.5q91 -32 140.5 -73.5t49.5 -110.5q0 -53 -33 -94.5t-101 -61.5zM164 274q0 -47 33.5 -75.5t93.5 -28.5q59 0 92.5 30t33.5 74q0 46 -33.5 74.5t-94.5 28.5
q-59 0 -92 -29.5t-33 -73.5z" />
    <glyph glyph-name="dieresis" unicode="&#xa8;" horiz-adv-x="365" 
d="M38 680q0 24 16 40t40 16t40.5 -16t16.5 -40q0 -23 -16.5 -39.5t-40.5 -16.5t-40 16.5t-16 39.5zM215 680q0 24 16 40t40 16t40 -16t16 -40q0 -23 -16 -39.5t-40 -16.5t-40 16.5t-16 39.5z" />
    <glyph glyph-name="copyright" unicode="&#xa9;" horiz-adv-x="788" 
d="M394 710q-154 0 -251 -99t-97 -256t97 -257t251 -100q155 0 251.5 100t96.5 257t-96.5 256t-251.5 99zM394 670q140 0 222.5 -87t82.5 -228t-83 -229t-222 -88t-222 88t-83 229t82.5 228t222.5 87zM398 584q76 0 133.5 -44.5t73.5 -121.5h-97q-13 41 -44 64.5t-71 23.5
q-53 0 -88.5 -39.5t-35.5 -112.5q0 -72 35.5 -111.5t88.5 -39.5q40 0 71 23t44 65h97q-16 -78 -73.5 -122.5t-133.5 -44.5q-96 0 -158 61.5t-62 169.5q0 106 62.5 167.5t157.5 61.5z" />
    <glyph glyph-name="ordfeminine" unicode="&#xaa;" horiz-adv-x="456" 
d="M194 710q97 0 132 -83v78h87v-351h-87v78q-36 -84 -132 -84q-72 0 -117.5 49t-45.5 132t45 132t118 49zM221 640q-44 0 -72 -30.5t-28 -81.5q0 -50 28 -79t72 -29q47 0 76 29.5t29 80.5q0 50 -29.5 80t-75.5 30z" />
    <glyph glyph-name="guillemotleft" unicode="&#xab;" horiz-adv-x="489" 
d="M247 120h-109l-93 175l93 175h109l-95 -175zM443 120h-108l-93 175l93 175h108l-95 -175z" />
    <glyph glyph-name="logicalnot" unicode="&#xac;" horiz-adv-x="748" 
d="M41 435h653v-227h-114v139h-539v88z" />
    <glyph glyph-name="registered" unicode="&#xae;" horiz-adv-x="802" 
d="M402 711q158 0 256 -98t98 -258q0 -157 -98.5 -257t-255.5 -100q-158 0 -257 100t-99 257q0 160 98.5 258t257.5 98zM402 43q142 0 226.5 85.5t84.5 226.5q0 144 -84 230t-227 86q-144 0 -228.5 -86t-84.5 -230q0 -141 84.5 -226.5t228.5 -85.5zM578 458q0 -50 -29.5 -83
t-86.5 -42l119 -187h-81l-114 184h-51v-184h-74v439h162q78 0 116.5 -35.5t38.5 -91.5zM335 518v-139h81q87 0 87 70q0 69 -87 69h-81z" />
    <glyph glyph-name="macron" unicode="&#xaf;" horiz-adv-x="418" 
d="M26 720h366v-78h-366v78z" />
    <glyph glyph-name="degree" unicode="&#xb0;" horiz-adv-x="422" 
d="M211 702q84 0 134 -47.5t50 -128.5q0 -82 -49.5 -130.5t-132.5 -48.5t-134.5 49t-51.5 130t50 128.5t134 47.5zM212 639q-42 0 -68.5 -30t-26.5 -84t27 -83.5t69 -29.5q41 0 66.5 29t25.5 84q0 54 -26 84t-67 30z" />
    <glyph glyph-name="plusminus" unicode="&#xb1;" horiz-adv-x="571" 
d="M541 369h-200v-172h200v-104h-510v104h199v172h-199v104h199v160h111v-160h200v-104z" />
    <glyph glyph-name="uni00B2" unicode="&#xb2;" horiz-adv-x="358" 
d="M129 420h194v-68h-279v63l124 92q61 49 61 96q0 23 -12.5 34.5t-32.5 11.5q-51 0 -57 -65h-87q4 56 44 92t110 36q62 0 94.5 -29t32.5 -73q0 -41 -27 -72t-86 -66z" />
    <glyph glyph-name="uni00B3" unicode="&#xb3;" horiz-adv-x="349" 
d="M180 712q61 0 98 -28t37 -73q0 -64 -71 -79v-3q76 -19 76 -84q0 -43 -37 -70t-102 -27q-76 0 -112 28.5t-42 85.5h92q4 -51 55 -51q54 0 54 49q0 25 -17 38.5t-45 13.5h-47v35h44q60 0 60 53q0 22 -14 35t-38 13q-48 0 -56 -49h-84q4 49 40 81t109 32z" />
    <glyph glyph-name="acute" unicode="&#xb4;" horiz-adv-x="273" 
d="M236 775v-76l-200 -105v67z" />
    <glyph glyph-name="uni00B5" unicode="&#xb5;" horiz-adv-x="681" 
d="M486 551h115v-551h-115v115q-21 -59 -69.5 -91t-113.5 -32q-74 0 -109 51v-305h-114v813h114v-287q0 -84 40.5 -128t108.5 -44q65 0 104 42.5t39 124.5v292z" />
    <glyph glyph-name="paragraph" unicode="&#xb6;" horiz-adv-x="625" 
d="M545 695v-695h-94v608h-85v-608h-93v282h-15q-118 0 -177.5 58t-59.5 148q0 91 60 149t177 58h287z" />
    <glyph glyph-name="periodcentered" unicode="&#xb7;" horiz-adv-x="204" 
d="M37 395h129v-126h-129v126z" />
    <glyph glyph-name="cedilla" unicode="&#xb8;" horiz-adv-x="293" 
d="M139 -60q55 2 91.5 -22.5t36.5 -76.5q0 -51 -35.5 -77t-90.5 -26h-115v64h102q60 0 60 42q0 40 -60 40h-59v123h70v-67z" />
    <glyph glyph-name="uni00B9" unicode="&#xb9;" horiz-adv-x="216" 
d="M90 635h-59v69h147v-352h-88v283z" />
    <glyph glyph-name="ordmasculine" unicode="&#xba;" horiz-adv-x="439" 
d="M220 709q85 0 137.5 -50.5t52.5 -131.5q0 -79 -52.5 -130.5t-137.5 -51.5t-137 51t-52 131q0 81 52 131.5t137 50.5zM220 640q-44 0 -72 -29.5t-28 -83.5q0 -53 28 -82.5t72 -29.5t72.5 29.5t28.5 82.5q0 54 -28.5 83.5t-72.5 29.5z" />
    <glyph glyph-name="guillemotright" unicode="&#xbb;" horiz-adv-x="489" 
d="M50 120l96 175l-96 175h110l92 -175l-92 -175h-110zM247 120l96 175l-96 175h109l92 -175l-92 -175h-109z" />
    <glyph glyph-name="onequarter" unicode="&#xbc;" horiz-adv-x="684" 
d="M449 706h112l-366 -706h-113zM112 635h-59v69h147v-352h-88v283zM653 120v-52h-46v-68h-88v68h-186v49l160 236h114v-233h46zM523 122v159l-106 -159h106z" />
    <glyph glyph-name="onehalf" unicode="&#xbd;" horiz-adv-x="750" 
d="M444 707h113l-372 -707h-112zM114 352v283h-59v69h147v-352h-88zM497 67h194v-68h-279v63l124 92q61 49 61 96q0 23 -12.5 34.5t-32.5 11.5q-51 0 -57 -65h-87q4 56 44 92t110 36q62 0 94.5 -29t32.5 -73q0 -41 -27 -72t-86 -66z" />
    <glyph glyph-name="threequarters" unicode="&#xbe;" horiz-adv-x="763" 
d="M214 712q61 0 98 -28t37 -73q0 -64 -71 -79v-3q76 -19 76 -84q0 -43 -37 -70t-102 -27q-76 0 -112 28.5t-42 85.5h92q4 -51 55 -51q54 0 54 49q0 25 -17 38.5t-45 13.5h-47v35h44q60 0 60 53q0 22 -14 35t-38 13q-48 0 -56 -49h-84q4 49 40 81t109 32zM537 707h113
l-358 -707h-113zM735 120v-52h-46v-68h-87v68h-187v49l150 236h124v-233h46zM606 120v171l-106 -171h106z" />
    <glyph glyph-name="questiondown" unicode="&#xbf;" horiz-adv-x="498" 
d="M414 428h-130v126h130v-126zM276 -186q-100 0 -160 54t-60 150q0 104 64.5 156.5t175.5 54.5v110h108v-186h-48q-41 0 -71.5 -5.5t-58.5 -19.5t-42.5 -41.5t-14.5 -67.5q0 -52 30 -81.5t81 -29.5q54 0 87 31t33 81h109q2 -91 -61.5 -148.5t-171.5 -57.5z" />
    <glyph glyph-name="Agrave" unicode="&#xc0;" horiz-adv-x="682" 
d="M440 816v-67l-200 105v76zM544 0l-54 153h-298l-54 -153h-122l260 695h131l259 -695h-122zM224 241h234l-117 330z" />
    <glyph glyph-name="Aacute" unicode="&#xc1;" horiz-adv-x="682" 
d="M440 930v-76l-200 -105v67zM544 0l-54 153h-298l-54 -153h-122l260 695h131l259 -695h-122zM224 241h234l-117 330z" />
    <glyph glyph-name="Acircumflex" unicode="&#xc2;" horiz-adv-x="682" 
d="M470 762l-129 77l-130 -77v66l130 76l129 -76v-66zM544 0l-54 153h-298l-54 -153h-122l260 695h131l259 -695h-122zM224 241h234l-117 330z" />
    <glyph glyph-name="Atilde" unicode="&#xc3;" horiz-adv-x="682" 
d="M282 807q-33 0 -40 -44h-51q16 103 94 103q27 0 61 -22t52 -22q35 0 41 43h52q-15 -102 -96 -102q-28 0 -62 22t-51 22zM544 0l-54 153h-298l-54 -153h-122l260 695h131l259 -695h-122zM224 241h234l-117 330z" />
    <glyph glyph-name="Adieresis" unicode="&#xc4;" horiz-adv-x="682" 
d="M252 779q-24 0 -40 16.5t-16 39.5q0 24 16 40t40 16t40.5 -16t16.5 -40q0 -23 -16.5 -39.5t-40.5 -16.5zM429 779q-24 0 -40 16.5t-16 39.5q0 24 16 40t40 16t40 -16t16 -40q0 -23 -16 -39.5t-40 -16.5zM544 0l-54 153h-298l-54 -153h-122l260 695h131l259 -695h-122z
M224 241h234l-117 330z" />
    <glyph glyph-name="Aring" unicode="&#xc5;" horiz-adv-x="682" 
d="M341 760q-47 0 -78.5 29.5t-31.5 79.5t31.5 80t78.5 30t78 -30t31 -80t-31.5 -79.5t-77.5 -29.5zM341 930q-26 0 -42.5 -16.5t-16.5 -44.5q0 -27 16.5 -43.5t42.5 -16.5q25 0 41.5 16.5t16.5 43.5q0 28 -16.5 44.5t-41.5 16.5zM544 0l-54 153h-298l-54 -153h-122l260 695
h131l259 -695h-122zM224 241h234l-117 330z" />
    <glyph glyph-name="AE" unicode="&#xc6;" horiz-adv-x="907" 
d="M865 614h-285v-213h255v-88h-255v-220h285v-93h-400v148h-252l-82 -148h-126l389 706h471v-92zM261 236h204v370z" />
    <glyph glyph-name="Ccedilla" unicode="&#xc7;" horiz-adv-x="761" 
d="M382 100q79 0 133.5 37.5t79.5 100.5h121q-28 -105 -104.5 -169.5t-193.5 -73.5v-55q55 2 91.5 -22.5t36.5 -76.5q0 -51 -35.5 -77t-90.5 -26h-115v64h102q60 0 60 42q0 40 -60 40h-59v112q-137 12 -219.5 110t-82.5 247q0 159 93.5 259.5t244.5 100.5q130 0 216 -66
t116 -179h-121q-25 64 -79.5 101.5t-133.5 37.5q-96 0 -157.5 -69t-61.5 -185q0 -115 61.5 -184t157.5 -69z" />
    <glyph glyph-name="Egrave" unicode="&#xc8;" horiz-adv-x="515" 
d="M157 930l200 -114v-67l-200 105v76zM473 614h-290v-214h260v-88h-260v-219h290v-93h-404v706h404v-92z" />
    <glyph glyph-name="Eacute" unicode="&#xc9;" horiz-adv-x="515" 
d="M357 930v-76l-200 -105v67zM473 614h-290v-214h260v-88h-260v-219h290v-93h-404v706h404v-92z" />
    <glyph glyph-name="Ecircumflex" unicode="&#xca;" horiz-adv-x="515" 
d="M387 762l-129 77l-130 -77v66l130 76l129 -76v-66zM473 614h-290v-214h260v-88h-260v-219h290v-93h-404v706h404v-92z" />
    <glyph glyph-name="Edieresis" unicode="&#xcb;" horiz-adv-x="515" 
d="M127 835q0 24 16 40t40 16t40.5 -16t16.5 -40q0 -23 -16.5 -39.5t-40.5 -16.5t-40 16.5t-16 39.5zM304 835q0 24 16 40t40 16t40 -16t16 -40q0 -23 -16 -39.5t-40 -16.5t-40 16.5t-16 39.5zM473 614h-290v-214h260v-88h-260v-219h290v-93h-404v706h404v-92z" />
    <glyph glyph-name="Igrave" unicode="&#xcc;" horiz-adv-x="252" 
d="M25 930l200 -114v-67l-200 105v76zM69 706h114v-706h-114v706z" />
    <glyph glyph-name="Iacute" unicode="&#xcd;" horiz-adv-x="252" 
d="M225 930v-76l-200 -105v67zM69 706h114v-706h-114v706z" />
    <glyph glyph-name="Icircumflex" unicode="&#xce;" horiz-adv-x="252" 
d="M255 762l-129 77l-130 -77v66l130 76l129 -76v-66zM69 706h114v-706h-114v706z" />
    <glyph glyph-name="Idieresis" unicode="&#xcf;" horiz-adv-x="252" 
d="M-18 835q0 24 16 40t40 16t40.5 -16t16.5 -40q0 -23 -16.5 -39.5t-40.5 -16.5t-40 16.5t-16 39.5zM159 835q0 24 16 40t40 16t40 -16t16 -40q0 -23 -16 -39.5t-40 -16.5t-40 16.5t-16 39.5zM69 706h114v-706h-114v706z" />
    <glyph glyph-name="Eth" unicode="&#xd0;" horiz-adv-x="742" 
d="M326 706q176 0 273.5 -95t97.5 -257t-98 -258t-273 -96h-236v308h-85v92h85v306h236zM317 103q127 0 195 66t68 185t-68 185t-195 66h-112v-205h184v-92h-184v-205h112z" />
    <glyph glyph-name="Ntilde" unicode="&#xd1;" horiz-adv-x="709" 
d="M299 866q27 0 61 -22t52 -22q35 0 41 43h52q-15 -102 -96 -102q-28 0 -62 22t-51 22q-33 0 -40 -44h-51q16 103 94 103zM640 705v-705h-114l-343 521v-521h-114v705h114l343 -523v523h114z" />
    <glyph glyph-name="Ograve" unicode="&#xd2;" horiz-adv-x="790" 
d="M294 930l200 -114v-67l-200 105v76zM396 715q150 0 249 -101.5t99 -259.5t-99.5 -260t-248.5 -102q-150 0 -250 102t-100 260t100 259.5t250 101.5zM396 609q-103 0 -168 -69.5t-65 -185.5t65 -185.5t168 -69.5q102 0 166.5 69.5t64.5 185.5t-64.5 185.5t-166.5 69.5z
" />
    <glyph glyph-name="Oacute" unicode="&#xd3;" horiz-adv-x="790" 
d="M494 930v-76l-200 -105v67zM396 715q150 0 249 -101.5t99 -259.5t-99.5 -260t-248.5 -102q-150 0 -250 102t-100 260t100 259.5t250 101.5zM396 609q-103 0 -168 -69.5t-65 -185.5t65 -185.5t168 -69.5q102 0 166.5 69.5t64.5 185.5t-64.5 185.5t-166.5 69.5z" />
    <glyph glyph-name="Ocircumflex" unicode="&#xd4;" horiz-adv-x="790" 
d="M524 762l-129 77l-130 -77v66l130 76l129 -76v-66zM396 715q150 0 249 -101.5t99 -259.5t-99.5 -260t-248.5 -102q-150 0 -250 102t-100 260t100 259.5t250 101.5zM396 609q-103 0 -168 -69.5t-65 -185.5t65 -185.5t168 -69.5q102 0 166.5 69.5t64.5 185.5t-64.5 185.5
t-166.5 69.5z" />
    <glyph glyph-name="Otilde" unicode="&#xd5;" horiz-adv-x="790" 
d="M339 866q27 0 61 -22t52 -22q35 0 41 43h52q-15 -102 -96 -102q-28 0 -62 22t-51 22q-33 0 -40 -44h-51q16 103 94 103zM396 715q150 0 249 -101.5t99 -259.5t-99.5 -260t-248.5 -102q-150 0 -250 102t-100 260t100 259.5t250 101.5zM396 609q-103 0 -168 -69.5
t-65 -185.5t65 -185.5t168 -69.5q102 0 166.5 69.5t64.5 185.5t-64.5 185.5t-166.5 69.5z" />
    <glyph glyph-name="Odieresis" unicode="&#xd6;" horiz-adv-x="790" 
d="M251 835q0 24 16 40t40 16t40.5 -16t16.5 -40q0 -23 -16.5 -39.5t-40.5 -16.5t-40 16.5t-16 39.5zM428 835q0 24 16 40t40 16t40 -16t16 -40q0 -23 -16 -39.5t-40 -16.5t-40 16.5t-16 39.5zM396 715q150 0 249 -101.5t99 -259.5t-99.5 -260t-248.5 -102q-150 0 -250 102
t-100 260t100 259.5t250 101.5zM396 609q-103 0 -168 -69.5t-65 -185.5t65 -185.5t168 -69.5q102 0 166.5 69.5t64.5 185.5t-64.5 185.5t-166.5 69.5z" />
    <glyph glyph-name="multiply" unicode="&#xd7;" horiz-adv-x="522" 
d="M491 210l-76 -75l-156 155l-154 -154l-74 73l154 155l-153 152l77 76l152 -152l150 151l74 -73l-151 -151z" />
    <glyph glyph-name="Oslash" unicode="&#xd8;" horiz-adv-x="790" 
d="M749 708l-95 -105q90 -99 90 -249q0 -158 -99.5 -260t-248.5 -102q-130 0 -224 78l-63 -70h-68l95 105q-90 101 -90 249q0 158 100 259.5t250 101.5q129 0 222 -77l64 70h67zM163 354q0 -97 48 -166l334 369q-61 52 -149 52q-103 0 -168 -69.5t-65 -185.5zM627 354
q0 97 -48 166l-333 -369q60 -52 150 -52q102 0 166.5 69.5t64.5 185.5z" />
    <glyph glyph-name="Ugrave" unicode="&#xd9;" horiz-adv-x="671" 
d="M235 930l200 -114v-67l-200 105v76zM64 706h114v-419q0 -94 41.5 -140t116.5 -46q74 0 115.5 46t41.5 140v419h114v-419q0 -145 -75 -219.5t-198 -74.5q-122 0 -196 74.5t-74 219.5v419z" />
    <glyph glyph-name="Uacute" unicode="&#xda;" horiz-adv-x="671" 
d="M435 930v-76l-200 -105v67zM64 706h114v-419q0 -94 41.5 -140t116.5 -46q74 0 115.5 46t41.5 140v419h114v-419q0 -145 -75 -219.5t-198 -74.5q-122 0 -196 74.5t-74 219.5v419z" />
    <glyph glyph-name="Ucircumflex" unicode="&#xdb;" horiz-adv-x="671" 
d="M465 762l-129 77l-130 -77v66l130 76l129 -76v-66zM64 706h114v-419q0 -94 41.5 -140t116.5 -46q74 0 115.5 46t41.5 140v419h114v-419q0 -145 -75 -219.5t-198 -74.5q-122 0 -196 74.5t-74 219.5v419z" />
    <glyph glyph-name="Udieresis" unicode="&#xdc;" horiz-adv-x="671" 
d="M191 835q0 24 16 40t40 16t40.5 -16t16.5 -40q0 -23 -16.5 -39.5t-40.5 -16.5t-40 16.5t-16 39.5zM368 835q0 24 16 40t40 16t40 -16t16 -40q0 -23 -16 -39.5t-40 -16.5t-40 16.5t-16 39.5zM64 706h114v-419q0 -94 41.5 -140t116.5 -46q74 0 115.5 46t41.5 140v419h114
v-419q0 -145 -75 -219.5t-198 -74.5q-122 0 -196 74.5t-74 219.5v419z" />
    <glyph glyph-name="Yacute" unicode="&#xdd;" horiz-adv-x="618" 
d="M408 930v-76l-200 -105v67zM472 706h130l-235 -449v-257h-115v257l-236 449h132l162 -327z" />
    <glyph glyph-name="Thorn" unicode="&#xde;" horiz-adv-x="585" 
d="M309 143h-126v-143h-114v706h114v-140h126q122 0 183.5 -57t61.5 -156q0 -98 -63 -154t-182 -56zM297 232q141 0 141 121q0 123 -141 123h-114v-244h114z" />
    <glyph glyph-name="germandbls" unicode="&#xdf;" 
d="M507 381q76 -46 109 -94.5t33 -117.5q0 -76 -54 -127t-141 -51q-96 0 -149 52t-54 145h96q2 -45 26.5 -71t70.5 -26t69.5 25.5t23.5 61.5t-18.5 63.5t-65.5 57.5l-154 93v49l29 15q57 31 57 89q0 45 -26.5 73t-70.5 28q-48 0 -76.5 -29.5t-28.5 -81.5v-535h-114v513
q0 118 60 177.5t172 59.5q92 0 146.5 -46.5t54.5 -118.5q0 -93 -101 -139z" />
    <glyph glyph-name="agrave" unicode="&#xe0;" 
d="M237 775l200 -114v-67l-200 105v76zM290 558q75 0 128 -37t75 -98v128h114v-551h-114v128q-22 -61 -75 -98t-128 -37q-110 0 -179.5 76.5t-69.5 206.5t69.5 206t179.5 76zM325 458q-76 0 -121.5 -48.5t-45.5 -133.5t45.5 -133.5t121.5 -48.5q73 0 120.5 49.5t47.5 132.5
q0 82 -47.5 132t-120.5 50z" />
    <glyph glyph-name="aacute" unicode="&#xe1;" 
d="M437 775v-76l-200 -105v67zM290 558q75 0 128 -37t75 -98v128h114v-551h-114v128q-22 -61 -75 -98t-128 -37q-110 0 -179.5 76.5t-69.5 206.5t69.5 206t179.5 76zM325 458q-76 0 -121.5 -48.5t-45.5 -133.5t45.5 -133.5t121.5 -48.5q73 0 120.5 49.5t47.5 132.5
q0 82 -47.5 132t-120.5 50z" />
    <glyph glyph-name="acircumflex" unicode="&#xe2;" 
d="M467 607l-129 77l-130 -77v66l130 76l129 -76v-66zM290 558q75 0 128 -37t75 -98v128h114v-551h-114v128q-22 -61 -75 -98t-128 -37q-110 0 -179.5 76.5t-69.5 206.5t69.5 206t179.5 76zM325 458q-76 0 -121.5 -48.5t-45.5 -133.5t45.5 -133.5t121.5 -48.5
q73 0 120.5 49.5t47.5 132.5q0 82 -47.5 132t-120.5 50z" />
    <glyph glyph-name="atilde" unicode="&#xe3;" 
d="M282 711q28 0 61 -22t52 -22q35 0 41 43h52q-15 -102 -96 -102q-28 0 -62 22t-51 22q-33 0 -40 -44h-51q16 103 94 103zM290 558q75 0 128 -37t75 -98v128h114v-551h-114v128q-22 -61 -75 -98t-128 -37q-110 0 -179.5 76.5t-69.5 206.5t69.5 206t179.5 76zM325 458
q-76 0 -121.5 -48.5t-45.5 -133.5t45.5 -133.5t121.5 -48.5q73 0 120.5 49.5t47.5 132.5q0 82 -47.5 132t-120.5 50z" />
    <glyph glyph-name="adieresis" unicode="&#xe4;" 
d="M180 680q0 24 16 40t40 16t40.5 -16t16.5 -40q0 -23 -16.5 -39.5t-40.5 -16.5t-40 16.5t-16 39.5zM357 680q0 24 16 40t40 16t40 -16t16 -40q0 -23 -16 -39.5t-40 -16.5t-40 16.5t-16 39.5zM290 558q75 0 128 -37t75 -98v128h114v-551h-114v128q-22 -61 -75 -98t-128 -37
q-110 0 -179.5 76.5t-69.5 206.5t69.5 206t179.5 76zM325 458q-76 0 -121.5 -48.5t-45.5 -133.5t45.5 -133.5t121.5 -48.5q73 0 120.5 49.5t47.5 132.5q0 82 -47.5 132t-120.5 50z" />
    <glyph glyph-name="aring" unicode="&#xe5;" 
d="M324 824q47 0 78 -30t31 -80t-31.5 -79.5t-77.5 -29.5q-47 0 -78.5 29.5t-31.5 79.5t31.5 80t78.5 30zM324 775q-26 0 -42.5 -16.5t-16.5 -44.5q0 -27 16.5 -43.5t42.5 -16.5q25 0 41.5 16.5t16.5 43.5q0 28 -16.5 44.5t-41.5 16.5zM290 558q75 0 128 -37t75 -98v128h114
v-551h-114v128q-22 -61 -75 -98t-128 -37q-110 0 -179.5 76.5t-69.5 206.5t69.5 206t179.5 76zM325 458q-76 0 -121.5 -48.5t-45.5 -133.5t45.5 -133.5t121.5 -48.5q73 0 120.5 49.5t47.5 132.5q0 82 -47.5 132t-120.5 50z" />
    <glyph glyph-name="ae" unicode="&#xe6;" horiz-adv-x="1097" 
d="M1056 302q0 -22 -5 -49h-441q4 -85 50.5 -127t114.5 -42q61 0 102 29t52 79h121q-16 -89 -79.5 -144t-158.5 -55q-75 0 -129.5 35t-75.5 101v-129h-114v128q-22 -61 -75 -98t-128 -37q-110 0 -179.5 76.5t-69.5 206.5t69.5 206t179.5 76q75 0 128 -37t75 -98v128h114
v-129q20 65 75 100.5t130 35.5q112 0 178 -73t66 -183zM940 305q4 79 -43.5 120.5t-117.5 41.5q-68 0 -116 -40t-53 -122h330zM325 94q73 0 120.5 49.5t47.5 132.5q0 82 -47.5 132t-120.5 50q-76 0 -121.5 -48.5t-45.5 -133.5t45.5 -133.5t121.5 -48.5z" />
    <glyph glyph-name="ccedilla" unicode="&#xe7;" horiz-adv-x="619" 
d="M312 92q58 0 96.5 30t48.5 82h121q-16 -93 -82 -150t-167 -61v-53q55 2 91.5 -22.5t36.5 -76.5q0 -51 -35.5 -77t-90.5 -26h-115v64h102q60 0 60 42q0 40 -60 40h-59v113q-99 17 -158.5 90.5t-59.5 188.5q0 130 76 206t197 76q107 0 177 -56.5t87 -153.5h-121
q-10 52 -48.5 81.5t-96.5 29.5q-66 0 -110 -46.5t-44 -136.5t44 -137t110 -47z" />
    <glyph glyph-name="egrave" unicode="&#xe8;" horiz-adv-x="622" 
d="M410 661v-67l-200 105v76zM581 302q0 -28 -4 -49h-424q3 -85 47 -126t109 -41q57 0 96.5 29t48.5 77h122q-16 -88 -87 -143.5t-175 -55.5q-121 0 -197 76t-76 207q0 130 76 206t197 76q122 0 194.5 -73t72.5 -183zM466 305q4 79 -41.5 120.5t-110.5 41.5q-67 0 -112 -41
t-49 -121h313z" />
    <glyph glyph-name="eacute" unicode="&#xe9;" horiz-adv-x="622" 
d="M410 775v-76l-200 -105v67zM581 302q0 -28 -4 -49h-424q3 -85 47 -126t109 -41q57 0 96.5 29t48.5 77h122q-16 -88 -87 -143.5t-175 -55.5q-121 0 -197 76t-76 207q0 130 76 206t197 76q122 0 194.5 -73t72.5 -183zM466 305q4 79 -41.5 120.5t-110.5 41.5q-67 0 -112 -41
t-49 -121h313z" />
    <glyph glyph-name="ecircumflex" unicode="&#xea;" horiz-adv-x="622" 
d="M440 607l-129 77l-130 -77v66l130 76l129 -76v-66zM581 302q0 -28 -4 -49h-424q3 -85 47 -126t109 -41q57 0 96.5 29t48.5 77h122q-16 -88 -87 -143.5t-175 -55.5q-121 0 -197 76t-76 207q0 130 76 206t197 76q122 0 194.5 -73t72.5 -183zM466 305q4 79 -41.5 120.5
t-110.5 41.5q-67 0 -112 -41t-49 -121h313z" />
    <glyph glyph-name="edieresis" unicode="&#xeb;" horiz-adv-x="622" 
d="M223 624q-24 0 -40 16.5t-16 39.5q0 24 16 40t40 16t40.5 -16t16.5 -40q0 -23 -16.5 -39.5t-40.5 -16.5zM400 624q-24 0 -40 16.5t-16 39.5q0 24 16 40t40 16t40 -16t16 -40q0 -23 -16 -39.5t-40 -16.5zM581 302q0 -28 -4 -49h-424q3 -85 47 -126t109 -41q57 0 96.5 29
t48.5 77h122q-16 -88 -87 -143.5t-175 -55.5q-121 0 -197 76t-76 207q0 130 76 206t197 76q122 0 194.5 -73t72.5 -183zM466 305q4 79 -41.5 120.5t-110.5 41.5q-67 0 -112 -41t-49 -121h313z" />
    <glyph glyph-name="igrave" unicode="&#xec;" horiz-adv-x="276" 
d="M37 775l200 -114v-67l-200 105v76zM80 551h115v-551h-115v551z" />
    <glyph glyph-name="iacute" unicode="&#xed;" horiz-adv-x="276" 
d="M237 775v-76l-200 -105v67zM80 551h115v-551h-115v551z" />
    <glyph glyph-name="icircumflex" unicode="&#xee;" horiz-adv-x="276" 
d="M267 607l-129 77l-130 -77v66l130 76l129 -76v-66zM80 551h115v-551h-115v551z" />
    <glyph glyph-name="idieresis" unicode="&#xef;" horiz-adv-x="276" 
d="M-6 680q0 24 16 40t40 16t40.5 -16t16.5 -40q0 -23 -16.5 -39.5t-40.5 -16.5t-40 16.5t-16 39.5zM171 680q0 24 16 40t40 16t40 -16t16 -40q0 -23 -16 -39.5t-40 -16.5t-40 16.5t-16 39.5zM80 551h115v-551h-115v551z" />
    <glyph glyph-name="eth" unicode="&#xf0;" horiz-adv-x="644" 
d="M463 668q140 -157 140 -356q0 -153 -77.5 -236t-200.5 -83q-124 0 -204 80.5t-80 211.5q0 125 75.5 200t196.5 75q55 0 100 -28t68 -83q-26 109 -95 194l-128 -42v43l99 32q-31 33 -70 64h102q15 -13 43 -39l112 37v-43zM325 93q69 0 115 48t46 135q0 88 -47.5 136
t-115.5 48q-71 0 -118 -45.5t-47 -130.5q0 -91 48 -141t119 -50z" />
    <glyph glyph-name="ntilde" unicode="&#xf1;" horiz-adv-x="653" 
d="M268 652q-33 0 -40 -44h-51q16 103 94 103q27 0 61 -22t52 -22q35 0 41 43h52q-15 -102 -96 -102q-28 0 -62 22t-51 22zM377 560q96 0 154 -62t58 -177v-321h-114v309q0 74 -38 114.5t-104 40.5q-68 0 -109 -43.5t-41 -127.5v-293h-114v551h114v-121q22 62 74 96t120 34z
" />
    <glyph glyph-name="ograve" unicode="&#xf2;" horiz-adv-x="642" 
d="M220 775l200 -114v-67l-200 105v76zM321 558q123 0 201.5 -76.5t78.5 -205.5q0 -130 -78.5 -206.5t-201.5 -76.5q-122 0 -201 76.5t-79 206.5q0 129 79 205.5t201 76.5zM321 459q-68 0 -115.5 -47t-47.5 -136q0 -90 47 -136.5t116 -46.5t116 46.5t47 136.5
q0 89 -47.5 136t-115.5 47z" />
    <glyph glyph-name="oacute" unicode="&#xf3;" horiz-adv-x="642" 
d="M420 775v-76l-200 -105v67zM321 558q123 0 201.5 -76.5t78.5 -205.5q0 -130 -78.5 -206.5t-201.5 -76.5q-122 0 -201 76.5t-79 206.5q0 129 79 205.5t201 76.5zM321 459q-68 0 -115.5 -47t-47.5 -136q0 -90 47 -136.5t116 -46.5t116 46.5t47 136.5q0 89 -47.5 136
t-115.5 47z" />
    <glyph glyph-name="ocircumflex" unicode="&#xf4;" horiz-adv-x="642" 
d="M450 607l-129 77l-130 -77v66l130 76l129 -76v-66zM321 558q123 0 201.5 -76.5t78.5 -205.5q0 -130 -78.5 -206.5t-201.5 -76.5q-122 0 -201 76.5t-79 206.5q0 129 79 205.5t201 76.5zM321 459q-68 0 -115.5 -47t-47.5 -136q0 -90 47 -136.5t116 -46.5t116 46.5t47 136.5
q0 89 -47.5 136t-115.5 47z" />
    <glyph glyph-name="otilde" unicode="&#xf5;" horiz-adv-x="642" 
d="M265 711q27 0 61 -22t52 -22q35 0 41 43h52q-15 -102 -96 -102q-28 0 -62 22t-51 22q-33 0 -40 -44h-51q16 103 94 103zM321 558q123 0 201.5 -76.5t78.5 -205.5q0 -130 -78.5 -206.5t-201.5 -76.5q-122 0 -201 76.5t-79 206.5q0 129 79 205.5t201 76.5zM321 459
q-68 0 -115.5 -47t-47.5 -136q0 -90 47 -136.5t116 -46.5t116 46.5t47 136.5q0 89 -47.5 136t-115.5 47z" />
    <glyph glyph-name="odieresis" unicode="&#xf6;" horiz-adv-x="642" 
d="M177 680q0 24 16 40t40 16t40.5 -16t16.5 -40q0 -23 -16.5 -39.5t-40.5 -16.5t-40 16.5t-16 39.5zM354 680q0 24 16 40t40 16t40 -16t16 -40q0 -23 -16 -39.5t-40 -16.5t-40 16.5t-16 39.5zM321 558q123 0 201.5 -76.5t78.5 -205.5q0 -130 -78.5 -206.5t-201.5 -76.5
q-122 0 -201 76.5t-79 206.5q0 129 79 205.5t201 76.5zM321 459q-68 0 -115.5 -47t-47.5 -136q0 -90 47 -136.5t116 -46.5t116 46.5t47 136.5q0 89 -47.5 136t-115.5 47z" />
    <glyph glyph-name="divide" unicode="&#xf7;" horiz-adv-x="571" 
d="M220 648h130v-126h-130v126zM31 413h510v-104h-510v104zM220 202h130v-125h-130v125z" />
    <glyph glyph-name="oslash" unicode="&#xf8;" horiz-adv-x="635" 
d="M600 551l-72 -79q69 -77 69 -196q0 -130 -78.5 -206.5t-201.5 -76.5q-104 0 -176 55l-44 -48h-60l71 78q-71 76 -71 198q0 129 79 205.5t201 76.5q103 0 178 -56l45 49h60zM154 276q0 -69 30 -115l238 261q-43 37 -105 37q-68 0 -115.5 -47t-47.5 -136zM480 276
q0 67 -29 112l-237 -260q42 -35 103 -35q69 0 116 46.5t47 136.5z" />
    <glyph glyph-name="ugrave" unicode="&#xf9;" horiz-adv-x="645" 
d="M422 661v-67l-200 105v76zM462 551h115v-551h-115v120q-21 -61 -73 -94.5t-121 -33.5q-96 0 -154 62t-58 177v320h114v-308q0 -75 38 -115.5t104 -40.5q68 0 109 44t41 128v292z" />
    <glyph glyph-name="uacute" unicode="&#xfa;" horiz-adv-x="645" 
d="M422 775v-76l-200 -105v67zM462 551h115v-551h-115v120q-21 -61 -73 -94.5t-121 -33.5q-96 0 -154 62t-58 177v320h114v-308q0 -75 38 -115.5t104 -40.5q68 0 109 44t41 128v292z" />
    <glyph glyph-name="ucircumflex" unicode="&#xfb;" horiz-adv-x="645" 
d="M452 607l-129 77l-130 -77v66l130 76l129 -76v-66zM462 551h115v-551h-115v120q-21 -61 -73 -94.5t-121 -33.5q-96 0 -154 62t-58 177v320h114v-308q0 -75 38 -115.5t104 -40.5q68 0 109 44t41 128v292z" />
    <glyph glyph-name="udieresis" unicode="&#xfc;" horiz-adv-x="645" 
d="M228 624q-24 0 -40 16.5t-16 39.5q0 24 16 40t40 16t40.5 -16t16.5 -40q0 -23 -16.5 -39.5t-40.5 -16.5zM405 624q-24 0 -40 16.5t-16 39.5q0 24 16 40t40 16t40 -16t16 -40q0 -23 -16 -39.5t-40 -16.5zM462 551h115v-551h-115v120q-21 -61 -73 -94.5t-121 -33.5
q-96 0 -154 62t-58 177v320h114v-308q0 -75 38 -115.5t104 -40.5q68 0 109 44t41 128v292z" />
    <glyph glyph-name="yacute" unicode="&#xfd;" horiz-adv-x="585" 
d="M392 775v-76l-200 -105v67zM6 551h128l165 -405l153 405h127l-333 -813h-127l119 275z" />
    <glyph glyph-name="thorn" unicode="&#xfe;" 
d="M378 557q110 0 183 -78.5t73 -204.5t-72.5 -203.5t-183.5 -77.5q-70 0 -119.5 34t-75.5 94v-383h-114v1002h114v-304q25 57 75 89t120 32zM351 457q-71 0 -119.5 -48.5t-48.5 -132.5q0 -85 48.5 -133.5t119.5 -48.5q74 0 120.5 47t46.5 133t-47 134.5t-120 48.5z" />
    <glyph glyph-name="ydieresis" unicode="&#xff;" horiz-adv-x="585" 
d="M148 680q0 24 16 40t40 16t40.5 -16t16.5 -40q0 -23 -16.5 -39.5t-40.5 -16.5t-40 16.5t-16 39.5zM325 680q0 24 16 40t40 16t40 -16t16 -40q0 -23 -16 -39.5t-40 -16.5t-40 16.5t-16 39.5zM6 551h128l165 -405l153 405h127l-333 -813h-127l119 275z" />
    <glyph glyph-name="Amacron" unicode="&#x100;" horiz-adv-x="682" 
d="M524 875v-78h-366v78h366zM544 0l-54 153h-298l-54 -153h-122l260 695h131l259 -695h-122zM224 241h234l-117 330z" />
    <glyph glyph-name="amacron" unicode="&#x101;" 
d="M141 720h366v-78h-366v78zM290 558q75 0 128 -37t75 -98v128h114v-551h-114v128q-22 -61 -75 -98t-128 -37q-110 0 -179.5 76.5t-69.5 206.5t69.5 206t179.5 76zM325 458q-76 0 -121.5 -48.5t-45.5 -133.5t45.5 -133.5t121.5 -48.5q73 0 120.5 49.5t47.5 132.5
q0 82 -47.5 132t-120.5 50z" />
    <glyph glyph-name="Abreve" unicode="&#x102;" horiz-adv-x="682" 
d="M341 763q-63 0 -99.5 37.5t-36.5 97.5v8h51q0 -71 85 -71t85 71h50v-8q0 -61 -36 -98t-99 -37zM544 0l-54 153h-298l-54 -153h-122l260 695h131l259 -695h-122zM224 241h234l-117 330z" />
    <glyph glyph-name="abreve" unicode="&#x103;" 
d="M338 608q-63 0 -99.5 37.5t-36.5 97.5v8h51q0 -71 85 -71t85 71h50v-8q0 -61 -36 -98t-99 -37zM290 558q75 0 128 -37t75 -98v128h114v-551h-114v128q-22 -61 -75 -98t-128 -37q-110 0 -179.5 76.5t-69.5 206.5t69.5 206t179.5 76zM325 458q-76 0 -121.5 -48.5
t-45.5 -133.5t45.5 -133.5t121.5 -48.5q73 0 120.5 49.5t47.5 132.5q0 82 -47.5 132t-120.5 50z" />
    <glyph glyph-name="Aogonek" unicode="&#x104;" horiz-adv-x="682" 
d="M601 -140h104v-64h-115q-57 0 -94 28t-37 80q0 76 84 99l-53 150h-298l-54 -153h-122l260 695h131l256 -688v-53h-62q-62 0 -62 -47q0 -22 16.5 -34.5t45.5 -12.5zM224 241h234l-117 330z" />
    <glyph glyph-name="aogonek" unicode="&#x105;" 
d="M544 -139h105v-64h-115q-58 0 -95 28t-37 80q0 43 25.5 70t65.5 35v118q-22 -61 -75 -98t-128 -37q-110 0 -179.5 76.5t-69.5 206.5t69.5 206t179.5 76q75 0 128 -37t75 -98v128h114v-551h-1v-45h-62q-29 0 -45.5 -12.5t-16.5 -34.5t16.5 -34.5t45.5 -12.5zM325 94
q73 0 120.5 49.5t47.5 132.5q0 82 -47.5 132t-120.5 50q-76 0 -121.5 -48.5t-45.5 -133.5t45.5 -133.5t121.5 -48.5z" />
    <glyph glyph-name="Cacute" unicode="&#x106;" horiz-adv-x="761" 
d="M480 930v-76l-200 -105v67zM384 713q130 0 216 -66t116 -179h-121q-25 64 -79.5 101.5t-133.5 37.5q-96 0 -157.5 -69t-61.5 -185q0 -115 61.5 -184t157.5 -69q79 0 133.5 37.5t79.5 100.5h121q-30 -113 -116 -178.5t-216 -65.5q-151 0 -244.5 100t-93.5 259t93.5 259.5
t244.5 100.5z" />
    <glyph glyph-name="cacute" unicode="&#x107;" horiz-adv-x="619" 
d="M409 775v-76l-200 -105v67zM314 558q107 0 177 -56.5t87 -153.5h-121q-10 52 -48.5 81.5t-96.5 29.5q-66 0 -110 -46.5t-44 -136.5t44 -137t110 -47q58 0 96.5 30t48.5 82h121q-17 -97 -87 -154t-177 -57q-121 0 -197 76t-76 207q0 130 76 206t197 76z" />
    <glyph glyph-name="Cdotaccent" unicode="&#x10a;" horiz-adv-x="761" 
d="M324 835q0 24 16 40t39 16q24 0 40.5 -16t16.5 -40q0 -23 -16.5 -39.5t-40.5 -16.5q-23 0 -39 16.5t-16 39.5zM384 713q130 0 216 -66t116 -179h-121q-25 64 -79.5 101.5t-133.5 37.5q-96 0 -157.5 -69t-61.5 -185q0 -115 61.5 -184t157.5 -69q79 0 133.5 37.5
t79.5 100.5h121q-30 -113 -116 -178.5t-216 -65.5q-151 0 -244.5 100t-93.5 259t93.5 259.5t244.5 100.5z" />
    <glyph glyph-name="cdotaccent" unicode="&#x10b;" horiz-adv-x="619" 
d="M253 680q0 24 16 40t39 16q24 0 40.5 -16t16.5 -40q0 -23 -16.5 -39.5t-40.5 -16.5q-23 0 -39 16.5t-16 39.5zM314 558q107 0 177 -56.5t87 -153.5h-121q-10 52 -48.5 81.5t-96.5 29.5q-66 0 -110 -46.5t-44 -136.5t44 -137t110 -47q58 0 96.5 30t48.5 82h121
q-17 -97 -87 -154t-177 -57q-121 0 -197 76t-76 207q0 130 76 206t197 76z" />
    <glyph glyph-name="Ccaron" unicode="&#x10c;" horiz-adv-x="761" 
d="M524 921v-78l-142 -83l-144 83v78l144 -84zM384 713q130 0 216 -66t116 -179h-121q-25 64 -79.5 101.5t-133.5 37.5q-96 0 -157.5 -69t-61.5 -185q0 -115 61.5 -184t157.5 -69q79 0 133.5 37.5t79.5 100.5h121q-30 -113 -116 -178.5t-216 -65.5q-151 0 -244.5 100
t-93.5 259t93.5 259.5t244.5 100.5z" />
    <glyph glyph-name="ccaron" unicode="&#x10d;" horiz-adv-x="619" 
d="M453 766v-78l-142 -83l-144 83v78l144 -84zM314 558q107 0 177 -56.5t87 -153.5h-121q-10 52 -48.5 81.5t-96.5 29.5q-66 0 -110 -46.5t-44 -136.5t44 -137t110 -47q58 0 96.5 30t48.5 82h121q-17 -97 -87 -154t-177 -57q-121 0 -197 76t-76 207q0 130 76 206t197 76z
" />
    <glyph glyph-name="Dcaron" unicode="&#x10e;" horiz-adv-x="721" 
d="M515 921v-78l-142 -83l-144 83v78l144 -84zM675 354q0 -162 -97.5 -258t-272.5 -96h-236v706h236q175 0 272.5 -95t97.5 -257zM296 103q127 0 195 66t68 185t-68 185t-195 66h-113v-502h113z" />
    <glyph glyph-name="dcaron" unicode="&#x10f;" horiz-adv-x="770" 
d="M290 558q75 0 128 -37t74 -98v317h115v-740h-115v128q-21 -61 -74 -98t-128 -37q-110 0 -179.5 76.5t-69.5 206.5t69.5 206t179.5 76zM768 740q14 -52 14 -100q0 -60 -28.5 -92t-84.5 -32v48q50 0 50 58v21h-54v97h103zM325 458q-76 0 -121.5 -48.5t-45.5 -133.5
t45.5 -133.5t121.5 -48.5q73 0 120.5 49.5t47.5 132.5q0 82 -47.5 132t-120.5 50z" />
    <glyph glyph-name="Dcroat" unicode="&#x110;" horiz-adv-x="742" 
d="M326 706q176 0 273.5 -95t97.5 -257t-98 -258t-273 -96h-236v308h-85v92h85v306h236zM317 103q127 0 195 66t68 185t-68 185t-195 66h-112v-205h184v-92h-184v-205h112z" />
    <glyph glyph-name="dcroat" unicode="&#x111;" horiz-adv-x="683" 
d="M673 677v-54h-66v-623h-115v128q-21 -61 -74 -98t-128 -37q-110 0 -179.5 76.5t-69.5 206.5t69.5 206t179.5 76q75 0 128 -37t74 -98v200h-136v54h136v63h115v-63h66zM325 94q73 0 120.5 49.5t47.5 132.5q0 82 -47.5 132t-120.5 50q-76 0 -121.5 -48.5t-45.5 -133.5
t45.5 -133.5t121.5 -48.5z" />
    <glyph glyph-name="Emacron" unicode="&#x112;" horiz-adv-x="515" 
d="M88 875h366v-78h-366v78zM473 614h-290v-214h260v-88h-260v-219h290v-93h-404v706h404v-92z" />
    <glyph glyph-name="emacron" unicode="&#x113;" horiz-adv-x="622" 
d="M495 720v-78h-366v78h366zM581 302q0 -28 -4 -49h-424q3 -85 47 -126t109 -41q57 0 96.5 29t48.5 77h122q-16 -88 -87 -143.5t-175 -55.5q-121 0 -197 76t-76 207q0 130 76 206t197 76q122 0 194.5 -73t72.5 -183zM466 305q4 79 -41.5 120.5t-110.5 41.5q-67 0 -112 -41
t-49 -121h313z" />
    <glyph glyph-name="Ebreve" unicode="&#x114;" horiz-adv-x="515" 
d="M258 763q-63 0 -99.5 37.5t-36.5 97.5v8h51q0 -71 85 -71t85 71h50v-8q0 -61 -36 -98t-99 -37zM473 614h-290v-214h260v-88h-260v-219h290v-93h-404v706h404v-92z" />
    <glyph glyph-name="ebreve" unicode="&#x115;" horiz-adv-x="622" 
d="M311 608q-63 0 -99.5 37.5t-36.5 97.5v8h51q0 -71 85 -71t85 71h50v-8q0 -61 -36 -98t-99 -37zM581 302q0 -28 -4 -49h-424q3 -85 47 -126t109 -41q57 0 96.5 29t48.5 77h122q-16 -88 -87 -143.5t-175 -55.5q-121 0 -197 76t-76 207q0 130 76 206t197 76q122 0 194.5 -73
t72.5 -183zM466 305q4 79 -41.5 120.5t-110.5 41.5q-67 0 -112 -41t-49 -121h313z" />
    <glyph glyph-name="Edotaccent" unicode="&#x116;" horiz-adv-x="515" 
d="M215 835q0 24 16 40t39 16q24 0 40.5 -16t16.5 -40q0 -23 -16.5 -39.5t-40.5 -16.5q-23 0 -39 16.5t-16 39.5zM473 614h-290v-214h260v-88h-260v-219h290v-93h-404v706h404v-92z" />
    <glyph glyph-name="edotaccent" unicode="&#x117;" horiz-adv-x="622" 
d="M310 624q-23 0 -39 16.5t-16 39.5q0 24 16 40t39 16q24 0 40.5 -16t16.5 -40q0 -23 -16.5 -39.5t-40.5 -16.5zM581 302q0 -28 -4 -49h-424q3 -85 47 -126t109 -41q57 0 96.5 29t48.5 77h122q-16 -88 -87 -143.5t-175 -55.5q-121 0 -197 76t-76 207q0 130 76 206t197 76
q122 0 194.5 -73t72.5 -183zM466 305q4 79 -41.5 120.5t-110.5 41.5q-67 0 -112 -41t-49 -121h313z" />
    <glyph glyph-name="Eogonek" unicode="&#x118;" horiz-adv-x="515" 
d="M389 -104h105v-64h-115q-58 0 -95 28t-37 80q0 35 17 60h-195v706h404v-92h-290v-214h260v-88h-260v-219h290v-93h-22v-10h-62q-29 0 -45.5 -12.5t-16.5 -34.5t16.5 -34.5t45.5 -12.5z" />
    <glyph glyph-name="eogonek" unicode="&#x119;" horiz-adv-x="622" 
d="M581 302q0 -28 -4 -49h-424q3 -84 47.5 -125.5t109.5 -41.5q57 0 96 29t48 77h122q-14 -75 -68.5 -127.5t-136.5 -65.5q-23 -4 -23 -24q0 -19 18 -31t50 -12h95v-64h-111q-57 0 -94 28t-37 80v22q-103 13 -165.5 86.5t-62.5 191.5q0 130 76 206t197 76q122 0 194.5 -73
t72.5 -183zM466 305q4 79 -41.5 120.5t-110.5 41.5q-67 0 -112 -41t-49 -121h313z" />
    <glyph glyph-name="Ecaron" unicode="&#x11a;" horiz-adv-x="515" 
d="M414 921v-78l-142 -83l-144 83v78l144 -84zM473 614h-290v-214h260v-88h-260v-219h290v-93h-404v706h404v-92z" />
    <glyph glyph-name="ecaron" unicode="&#x11b;" horiz-adv-x="622" 
d="M455 688l-142 -83l-144 83v78l144 -84l142 84v-78zM581 302q0 -28 -4 -49h-424q3 -85 47 -126t109 -41q57 0 96.5 29t48.5 77h122q-16 -88 -87 -143.5t-175 -55.5q-121 0 -197 76t-76 207q0 130 76 206t197 76q122 0 194.5 -73t72.5 -183zM466 305q4 79 -41.5 120.5
t-110.5 41.5q-67 0 -112 -41t-49 -121h313z" />
    <glyph glyph-name="Gbreve" unicode="&#x11e;" horiz-adv-x="773" 
d="M387 763q-63 0 -99.5 37.5t-36.5 97.5v8h51q0 -71 85 -71t85 71h50v-8q0 -61 -36 -98t-99 -37zM392 712q126 0 210 -62t111 -169h-120q-23 57 -75.5 91t-124.5 34q-101 0 -165.5 -69t-64.5 -184q0 -121 65.5 -189.5t175.5 -68.5q88 0 151 54.5t76 149.5h-259v84h355v-109
q-18 -120 -107.5 -200.5t-226.5 -80.5q-156 0 -251.5 100.5t-95.5 259.5t95.5 259t250.5 100z" />
    <glyph glyph-name="gbreve" unicode="&#x11f;" 
d="M338 608q-63 0 -99.5 37.5t-36.5 97.5v8h51q0 -71 85 -71t85 71h50v-8q0 -61 -36 -98t-99 -37zM290 558q75 0 128 -37t75 -98v128h114v-557q0 -117 -70.5 -190.5t-191.5 -73.5q-116 0 -187.5 55t-89.5 149h113q14 -49 54 -76.5t102 -27.5q68 0 112 42t44 122v134
q-22 -61 -75 -98t-128 -37q-110 0 -179.5 76.5t-69.5 206.5t69.5 206t179.5 76zM325 458q-76 0 -121.5 -48.5t-45.5 -133.5t45.5 -133.5t121.5 -48.5q73 0 120.5 49.5t47.5 132.5q0 82 -47.5 132t-120.5 50z" />
    <glyph glyph-name="Gdotaccent" unicode="&#x120;" horiz-adv-x="773" 
d="M331 835q0 24 16 40t39 16q24 0 40.5 -16t16.5 -40q0 -23 -16.5 -39.5t-40.5 -16.5q-23 0 -39 16.5t-16 39.5zM392 712q126 0 210 -62t111 -169h-120q-23 57 -75.5 91t-124.5 34q-101 0 -165.5 -69t-64.5 -184q0 -121 65.5 -189.5t175.5 -68.5q88 0 151 54.5t76 149.5
h-259v84h355v-109q-18 -120 -107.5 -200.5t-226.5 -80.5q-156 0 -251.5 100.5t-95.5 259.5t95.5 259t250.5 100z" />
    <glyph glyph-name="gdotaccent" unicode="&#x121;" 
d="M268 680q0 24 16 40t39 16q24 0 40.5 -16t16.5 -40q0 -23 -16.5 -39.5t-40.5 -16.5q-23 0 -39 16.5t-16 39.5zM290 558q75 0 128 -37t75 -98v128h114v-557q0 -117 -70.5 -190.5t-191.5 -73.5q-116 0 -187.5 55t-89.5 149h113q14 -49 54 -76.5t102 -27.5q68 0 112 42
t44 122v134q-22 -61 -75 -98t-128 -37q-110 0 -179.5 76.5t-69.5 206.5t69.5 206t179.5 76zM325 458q-76 0 -121.5 -48.5t-45.5 -133.5t45.5 -133.5t121.5 -48.5q73 0 120.5 49.5t47.5 132.5q0 82 -47.5 132t-120.5 50z" />
    <glyph glyph-name="Gcommaaccent" unicode="&#x122;" horiz-adv-x="775" 
d="M392 712q126 0 210 -62t111 -169h-120q-23 57 -75.5 91t-124.5 34q-101 0 -165.5 -69t-64.5 -184q0 -121 65.5 -189.5t175.5 -68.5q88 0 151 54.5t76 149.5h-259v84h355v-109q-18 -120 -107.5 -200.5t-226.5 -80.5q-156 0 -251.5 100.5t-95.5 259.5t95.5 259t250.5 100z
M440 -48q14 -42 14 -80q0 -62 -29 -95t-83 -33v46q48 0 48 64v9h-50v89h100z" />
    <glyph glyph-name="gcommaaccent" unicode="&#x123;" 
d="M288 596q-14 52 -14 100q0 59 29 91.5t84 32.5v-47q-50 0 -50 -59v-21h54v-97h-103zM290 558q75 0 128 -37t75 -98v128h114v-557q0 -117 -70.5 -190.5t-191.5 -73.5q-116 0 -187.5 55t-89.5 149h113q14 -49 54 -76.5t102 -27.5q68 0 112 42t44 122v134q-22 -61 -75 -98
t-128 -37q-110 0 -179.5 76.5t-69.5 206.5t69.5 206t179.5 76zM325 458q-76 0 -121.5 -48.5t-45.5 -133.5t45.5 -133.5t121.5 -48.5q73 0 120.5 49.5t47.5 132.5q0 82 -47.5 132t-120.5 50z" />
    <glyph glyph-name="Itilde" unicode="&#x128;" horiz-adv-x="252" 
d="M70 866q28 0 61 -22t52 -22q35 0 41 43h52q-15 -102 -96 -102q-28 0 -62 22t-51 22q-33 0 -40 -44h-51q16 103 94 103zM69 706h114v-706h-114v706z" />
    <glyph glyph-name="itilde" unicode="&#x129;" horiz-adv-x="276" 
d="M82 711q28 0 61 -22t52 -22q35 0 41 43h52q-15 -102 -96 -102q-28 0 -62 22t-51 22q-33 0 -40 -44h-51q16 103 94 103zM80 551h115v-551h-115v551z" />
    <glyph glyph-name="Imacron" unicode="&#x12a;" horiz-adv-x="252" 
d="M-57 875h366v-78h-366v78zM69 706h114v-706h-114v706z" />
    <glyph glyph-name="imacron" unicode="&#x12b;" horiz-adv-x="276" 
d="M-45 720h366v-78h-366v78zM80 551h115v-551h-115v551z" />
    <glyph glyph-name="Ibreve" unicode="&#x12c;" horiz-adv-x="252" 
d="M126 763q-63 0 -99.5 37.5t-36.5 97.5v8h51q0 -71 85 -71t85 71h50v-8q0 -61 -36 -98t-99 -37zM69 706h114v-706h-114v706z" />
    <glyph glyph-name="ibreve" unicode="&#x12d;" horiz-adv-x="276" 
d="M138 608q-63 0 -99.5 37.5t-36.5 97.5v8h51q0 -71 85 -71t85 71h50v-8q0 -61 -36 -98t-99 -37zM80 551h115v-551h-115v551z" />
    <glyph glyph-name="Iogonek" unicode="&#x12e;" horiz-adv-x="252" 
d="M121 -139h105v-64h-115q-58 0 -95 28t-37 80q0 43 25 70t65 35v696h114v-751h-62q-29 0 -45.5 -12.5t-16.5 -34.5t16.5 -34.5t45.5 -12.5z" />
    <glyph glyph-name="iogonek" unicode="&#x12f;" horiz-adv-x="252" 
d="M126 646q-33 0 -53 18t-20 47t20 48t53 19t53.5 -19t20.5 -48t-20.5 -47t-53.5 -18zM121 -139h105v-64h-115q-58 0 -95 28t-37 80q0 43 25 70t65 35v541h114v-596h-62q-29 0 -45.5 -12.5t-16.5 -34.5t16.5 -34.5t45.5 -12.5z" />
    <glyph glyph-name="Idotaccent" unicode="&#x130;" horiz-adv-x="252" 
d="M70 835q0 24 16 40t39 16q24 0 40.5 -16t16.5 -40q0 -23 -16.5 -39.5t-40.5 -16.5q-23 0 -39 16.5t-16 39.5zM69 706h114v-706h-114v706z" />
    <glyph glyph-name="dotlessi" unicode="&#x131;" horiz-adv-x="276" 
d="M80 551h115v-551h-115v551z" />
    <glyph glyph-name="Kcommaaccent" unicode="&#x136;" horiz-adv-x="637" 
d="M601 706l-311 -349l311 -357h-139l-279 327v-327h-114v706h114v-323l280 323h138zM265 -48h100q13 -39 13 -80q0 -62 -28.5 -95t-82.5 -33v46q48 0 48 64v9h-50v89z" />
    <glyph glyph-name="kcommaaccent" unicode="&#x137;" horiz-adv-x="527" 
d="M276 277l246 -277h-141l-198 245v-245h-114v740h114v-424l196 235h137zM217 -48h100q13 -39 13 -80q0 -62 -28.5 -95t-82.5 -33v46q48 0 48 64v9h-50v89z" />
    <glyph glyph-name="Lacute" unicode="&#x139;" horiz-adv-x="447" 
d="M323 930v-76l-200 -105v67zM183 706v-617h244v-89h-358v706h114z" />
    <glyph glyph-name="lacute" unicode="&#x13a;" horiz-adv-x="252" 
d="M225 775v-76l-42 -22v-677h-114v617l-44 -23v67l44 25v54h95z" />
    <glyph glyph-name="Lcommaaccent" unicode="&#x13b;" horiz-adv-x="450" 
d="M183 706v-617h244v-89h-358v706h114zM309 -48q13 -39 13 -80q0 -62 -28.5 -95t-83.5 -33v46q49 0 49 64v9h-51v89h101z" />
    <glyph glyph-name="lcommaaccent" unicode="&#x13c;" horiz-adv-x="252" 
d="M69 740h114v-740h-114v740zM177 -48q13 -39 13 -80q0 -62 -29 -95t-83 -33v46q49 0 49 64v9h-51v89h101z" />
    <glyph glyph-name="Lcaron" unicode="&#x13d;" horiz-adv-x="481" 
d="M183 706v-617h244v-89h-358v706h114zM399 706q14 -52 14 -100q0 -60 -28.5 -92t-83.5 -32v48q49 0 49 58v21h-54v97h103z" />
    <glyph glyph-name="lcaron" unicode="&#x13e;" horiz-adv-x="343" 
d="M69 740h114v-740h-114v740zM342 740q13 -48 13 -100q0 -60 -28.5 -92t-83.5 -32v48q50 0 50 58v21h-54v97h103z" />
    <glyph glyph-name="Ldot" unicode="&#x13f;" horiz-adv-x="447" 
d="M183 706v-617h244v-89h-358v706h114zM315 353q0 24 16 40t39 16q24 0 40.5 -16t16.5 -40q0 -23 -16.5 -39.5t-40.5 -16.5q-23 0 -39 16.5t-16 39.5z" />
    <glyph glyph-name="ldot" unicode="&#x140;" horiz-adv-x="286" 
d="M69 740h114v-740h-114v740zM213 370q0 24 16 40t39 16q24 0 40.5 -16t16.5 -40q0 -23 -16.5 -39.5t-40.5 -16.5q-23 0 -39 16.5t-16 39.5z" />
    <glyph glyph-name="Lslash" unicode="&#x141;" horiz-adv-x="465" 
d="M201 89h244v-89h-359v297l-76 -28v113l76 28v296h115v-254l121 45v-113l-121 -45v-250z" />
    <glyph glyph-name="lslash" unicode="&#x142;" horiz-adv-x="286" 
d="M276 542v-111l-75 -29v-402h-115v357l-76 -29v111l76 29v272h115v-227z" />
    <glyph glyph-name="Nacute" unicode="&#x143;" horiz-adv-x="709" 
d="M454 930v-76l-200 -105v67zM640 705v-705h-114l-343 521v-521h-114v705h114l343 -523v523h114z" />
    <glyph glyph-name="nacute" unicode="&#x144;" horiz-adv-x="653" 
d="M426 775v-76l-200 -105v67zM377 560q96 0 154 -62t58 -177v-321h-114v309q0 74 -38 114.5t-104 40.5q-68 0 -109 -43.5t-41 -127.5v-293h-114v551h114v-121q22 62 74 96t120 34z" />
    <glyph glyph-name="Ncommaaccent" unicode="&#x145;" horiz-adv-x="733" 
d="M640 705v-705h-114l-343 521v-521h-114v705h114l343 -523v523h114zM415 -48q13 -39 13 -80q0 -62 -28.5 -95t-83.5 -33v46q49 0 49 64v9h-51v89h101z" />
    <glyph glyph-name="ncommaaccent" unicode="&#x146;" horiz-adv-x="653" 
d="M377 560q96 0 154 -62t58 -177v-321h-114v309q0 74 -38 114.5t-104 40.5q-68 0 -109 -43.5t-41 -127.5v-293h-114v551h114v-121q22 62 74 96t120 34zM290 -48h100q13 -39 13 -80q0 -62 -28.5 -95t-83.5 -33v46q49 0 49 64v9h-50v89z" />
    <glyph glyph-name="Ncaron" unicode="&#x147;" horiz-adv-x="709" 
d="M497 921v-78l-142 -83l-144 83v78l144 -84zM640 705v-705h-114l-343 521v-521h-114v705h114l343 -523v523h114z" />
    <glyph glyph-name="ncaron" unicode="&#x148;" horiz-adv-x="653" 
d="M472 688l-142 -83l-144 83v78l144 -84l142 84v-78zM377 560q96 0 154 -62t58 -177v-321h-114v309q0 74 -38 114.5t-104 40.5q-68 0 -109 -43.5t-41 -127.5v-293h-114v551h114v-121q22 62 74 96t120 34z" />
    <glyph glyph-name="Omacron" unicode="&#x14c;" horiz-adv-x="790" 
d="M212 875h366v-78h-366v78zM396 715q150 0 249 -101.5t99 -259.5t-99.5 -260t-248.5 -102q-150 0 -250 102t-100 260t100 259.5t250 101.5zM396 609q-103 0 -168 -69.5t-65 -185.5t65 -185.5t168 -69.5q102 0 166.5 69.5t64.5 185.5t-64.5 185.5t-166.5 69.5z" />
    <glyph glyph-name="omacron" unicode="&#x14d;" horiz-adv-x="642" 
d="M138 720h366v-78h-366v78zM321 558q123 0 201.5 -76.5t78.5 -205.5q0 -130 -78.5 -206.5t-201.5 -76.5q-122 0 -201 76.5t-79 206.5q0 129 79 205.5t201 76.5zM321 459q-68 0 -115.5 -47t-47.5 -136q0 -90 47 -136.5t116 -46.5t116 46.5t47 136.5q0 89 -47.5 136
t-115.5 47z" />
    <glyph glyph-name="Obreve" unicode="&#x14e;" horiz-adv-x="790" 
d="M395 763q-63 0 -99.5 37.5t-36.5 97.5v8h51q0 -71 85 -71t85 71h50v-8q0 -61 -36 -98t-99 -37zM396 715q150 0 249 -101.5t99 -259.5t-99.5 -260t-248.5 -102q-150 0 -250 102t-100 260t100 259.5t250 101.5zM396 609q-103 0 -168 -69.5t-65 -185.5t65 -185.5t168 -69.5
q102 0 166.5 69.5t64.5 185.5t-64.5 185.5t-166.5 69.5z" />
    <glyph glyph-name="obreve" unicode="&#x14f;" horiz-adv-x="642" 
d="M321 608q-63 0 -99.5 37.5t-36.5 97.5v8h51q0 -71 85 -71t85 71h50v-8q0 -61 -36 -98t-99 -37zM321 558q123 0 201.5 -76.5t78.5 -205.5q0 -130 -78.5 -206.5t-201.5 -76.5q-122 0 -201 76.5t-79 206.5q0 129 79 205.5t201 76.5zM321 459q-68 0 -115.5 -47t-47.5 -136
q0 -90 47 -136.5t116 -46.5t116 46.5t47 136.5q0 89 -47.5 136t-115.5 47z" />
    <glyph glyph-name="Ohungarumlaut" unicode="&#x150;" horiz-adv-x="790" 
d="M430 926l-87 -170h-73l69 170h91zM608 926l-102 -170h-73l83 170h92zM396 715q150 0 249 -101.5t99 -259.5t-99.5 -260t-248.5 -102q-150 0 -250 102t-100 260t100 259.5t250 101.5zM396 609q-103 0 -168 -69.5t-65 -185.5t65 -185.5t168 -69.5q102 0 166.5 69.5
t64.5 185.5t-64.5 185.5t-166.5 69.5z" />
    <glyph glyph-name="ohungarumlaut" unicode="&#x151;" horiz-adv-x="642" 
d="M361 771l-87 -170h-73l69 170h91zM539 771l-102 -170h-73l83 170h92zM321 558q123 0 201.5 -76.5t78.5 -205.5q0 -130 -78.5 -206.5t-201.5 -76.5q-122 0 -201 76.5t-79 206.5q0 129 79 205.5t201 76.5zM321 459q-68 0 -115.5 -47t-47.5 -136q0 -90 47 -136.5t116 -46.5
t116 46.5t47 136.5q0 89 -47.5 136t-115.5 47z" />
    <glyph glyph-name="OE" unicode="&#x152;" horiz-adv-x="1079" 
d="M748 614v-214h259v-88h-259v-219h289v-93h-404v145q-28 -70 -95 -111.5t-150 -43.5q-149 0 -245.5 101.5t-96.5 260.5t96 261t246 102q82 0 149.5 -42t95.5 -113v146h404v-92h-289zM396 96q102 0 166.5 69.5t64.5 186.5q0 118 -64.5 187.5t-166.5 69.5q-103 0 -168 -69.5
t-65 -187.5q0 -117 65 -186.5t168 -69.5z" />
    <glyph glyph-name="oe" unicode="&#x153;" horiz-adv-x="1082" 
d="M1028 302q0 -28 -4 -49h-423q3 -85 47 -126t109 -41q57 0 96 29t49 77h121q-16 -88 -86.5 -143.5t-174.5 -55.5q-75 0 -132.5 33.5t-86.5 94.5q-30 -61 -88.5 -94.5t-133.5 -33.5q-122 0 -201 76.5t-79 206.5q0 129 79 205.5t201 76.5q75 0 133.5 -33.5t88.5 -94.5
q29 61 86.5 94.5t132.5 33.5q122 0 194 -73t72 -183zM913 305q4 79 -41 120.5t-110 41.5q-67 0 -112 -41t-49 -121h312zM321 93q69 0 116 46.5t47 136.5q0 89 -47.5 136t-115.5 47t-115.5 -47t-47.5 -136q0 -90 47 -136.5t116 -46.5z" />
    <glyph glyph-name="Racute" unicode="&#x154;" horiz-adv-x="598" 
d="M398 930v-76l-200 -105v67zM568 0h-128l-176 282h-81v-282h-114v706h249q121 0 183.5 -59t62.5 -156q0 -83 -46.5 -136t-134.5 -68zM183 608v-245h126q138 0 138 122q0 123 -138 123h-126z" />
    <glyph glyph-name="racute" unicode="&#x155;" horiz-adv-x="399" 
d="M299 775v-76l-200 -105v67zM183 443q28 54 80 85.5t120 31.5v-124h-34q-166 0 -166 -157v-279h-114v551h114v-108z" />
    <glyph glyph-name="Rcommaaccent" unicode="&#x156;" horiz-adv-x="613" 
d="M383 287l185 -287h-128l-176 282h-81v-282h-114v706h249q121 0 183.5 -59t62.5 -156q0 -83 -46.5 -136t-134.5 -68zM183 608v-245h126q138 0 138 122q0 123 -138 123h-126zM253 -48h100q13 -39 13 -80q0 -62 -28.5 -95t-83.5 -33v46q49 0 49 64v9h-50v89z" />
    <glyph glyph-name="rcommaaccent" unicode="&#x157;" horiz-adv-x="399" 
d="M183 443q28 54 80 85.5t120 31.5v-124h-34q-166 0 -166 -157v-279h-114v551h114v-108zM73 -48h100q13 -39 13 -80q0 -62 -28.5 -95t-82.5 -33v46q48 0 48 64v9h-50v89z" />
    <glyph glyph-name="Rcaron" unicode="&#x158;" horiz-adv-x="598" 
d="M462 843l-142 -83l-144 83v78l144 -84l142 84v-78zM568 0h-128l-176 282h-81v-282h-114v706h249q121 0 183.5 -59t62.5 -156q0 -83 -46.5 -136t-134.5 -68zM183 608v-245h126q138 0 138 122q0 123 -138 123h-126z" />
    <glyph glyph-name="rcaron" unicode="&#x159;" horiz-adv-x="399" 
d="M369 688l-142 -83l-144 83v78l144 -84l142 84v-78zM183 443q28 54 80 85.5t120 31.5v-124h-34q-166 0 -166 -157v-279h-114v551h114v-108z" />
    <glyph glyph-name="Sacute" unicode="&#x15a;" horiz-adv-x="578" 
d="M388 930v-76l-200 -105v67zM533 188q0 -81 -58.5 -138t-167.5 -57t-180 55.5t-79 147.5h122q5 -46 39.5 -79t92.5 -33q52 0 80.5 28t28.5 72q0 36 -20 61.5t-52.5 40t-71 26.5t-77.5 27.5t-71.5 36.5t-52.5 59t-20 90q0 86 62 138t166 52q108 0 171.5 -52t72.5 -136h-123
q-7 40 -37.5 68.5t-83.5 28.5q-48 0 -77 -24.5t-29 -70.5q0 -35 20 -59t52.5 -38.5t71 -26.5t77.5 -27.5t71.5 -37.5t52.5 -60.5t20 -91.5z" />
    <glyph glyph-name="sacute" unicode="&#x15b;" horiz-adv-x="528" 
d="M364 775v-76l-200 -105v67zM250 558q97 0 155.5 -49.5t71.5 -132.5h-108q-7 45 -38.5 72.5t-83.5 27.5q-43 0 -66.5 -20.5t-23.5 -55.5q0 -30 24 -48.5t60.5 -26t78.5 -19.5t78.5 -26.5t60.5 -48t24 -83.5q0 -69 -52.5 -112t-141.5 -43q-103 0 -166.5 48t-76.5 134h111
q5 -45 40 -73t92 -28q41 0 64.5 21.5t23.5 54.5q0 37 -33.5 57.5t-81 30.5t-95.5 23t-81.5 47.5t-33.5 92.5q0 70 52.5 113.5t145.5 43.5z" />
    <glyph glyph-name="Scedilla" unicode="&#x15e;" horiz-adv-x="578" 
d="M533 188q0 -76 -52 -132t-150 -62v-54q55 2 91.5 -22.5t36.5 -76.5q0 -51 -35.5 -77t-90.5 -26h-115v64h102q60 0 60 42q0 40 -60 40h-59v112q-91 11 -148.5 65t-64.5 135h122q5 -46 39.5 -79t92.5 -33q52 0 80.5 28t28.5 72q0 36 -20 61.5t-52.5 40t-71 26.5t-77.5 27.5
t-71.5 36.5t-52.5 59t-20 90q0 86 62 138t166 52q108 0 171.5 -52t72.5 -136h-123q-7 40 -37.5 68.5t-83.5 28.5q-48 0 -77 -24.5t-29 -70.5q0 -35 20 -59t52.5 -38.5t71 -26.5t77.5 -27.5t71.5 -37.5t52.5 -60.5t20 -91.5z" />
    <glyph glyph-name="scedilla" unicode="&#x15f;" horiz-adv-x="528" 
d="M483 148q0 -65 -48.5 -108t-131.5 -47v-53q55 2 91.5 -22.5t36.5 -76.5q0 -51 -35.5 -77t-90.5 -26h-115v64h102q60 0 60 42q0 40 -60 40h-59v113q-79 12 -127.5 58t-59.5 120h111q5 -45 40 -73t92 -28q41 0 64.5 21.5t23.5 54.5q0 37 -33.5 57.5t-81 30.5t-95.5 23
t-81.5 47.5t-33.5 92.5q0 70 52.5 113.5t145.5 43.5q97 0 155.5 -49.5t71.5 -132.5h-108q-7 45 -38.5 72.5t-83.5 27.5q-43 0 -66.5 -20.5t-23.5 -55.5q0 -30 24 -48.5t60.5 -26t78.5 -19.5t78.5 -26.5t60.5 -48t24 -83.5z" />
    <glyph glyph-name="Scaron" unicode="&#x160;" horiz-adv-x="578" 
d="M433 921v-78l-142 -83l-144 83v78l144 -84zM533 188q0 -81 -58.5 -138t-167.5 -57t-180 55.5t-79 147.5h122q5 -46 39.5 -79t92.5 -33q52 0 80.5 28t28.5 72q0 36 -20 61.5t-52.5 40t-71 26.5t-77.5 27.5t-71.5 36.5t-52.5 59t-20 90q0 86 62 138t166 52q108 0 171.5 -52
t72.5 -136h-123q-7 40 -37.5 68.5t-83.5 28.5q-48 0 -77 -24.5t-29 -70.5q0 -35 20 -59t52.5 -38.5t71 -26.5t77.5 -27.5t71.5 -37.5t52.5 -60.5t20 -91.5z" />
    <glyph glyph-name="scaron" unicode="&#x161;" horiz-adv-x="528" 
d="M408 766v-78l-142 -83l-144 83v78l144 -84zM250 558q97 0 155.5 -49.5t71.5 -132.5h-108q-7 45 -38.5 72.5t-83.5 27.5q-43 0 -66.5 -20.5t-23.5 -55.5q0 -30 24 -48.5t60.5 -26t78.5 -19.5t78.5 -26.5t60.5 -48t24 -83.5q0 -69 -52.5 -112t-141.5 -43q-103 0 -166.5 48
t-76.5 134h111q5 -45 40 -73t92 -28q41 0 64.5 21.5t23.5 54.5q0 37 -33.5 57.5t-81 30.5t-95.5 23t-81.5 47.5t-33.5 92.5q0 70 52.5 113.5t145.5 43.5z" />
    <glyph glyph-name="uni0162" unicode="&#x162;" horiz-adv-x="539" 
d="M523 614h-197v-609q91 -21 91 -92q0 -51 -35.5 -77t-91.5 -26h-112v63h102q57 0 57 43q0 39 -57 39h-69v659h-196v92h508v-92z" />
    <glyph glyph-name="uni0163" unicode="&#x163;" horiz-adv-x="384" 
d="M265 -60q54 2 91 -22.5t37 -76.5q0 -51 -36 -77t-91 -26h-115v64h103q59 0 59 42q0 40 -59 40h-60v128q-97 33 -97 172v270h-79v97h79v137h115v-137h133v-97h-133v-272q0 -47 17.5 -65t61.5 -18h55v-99h-70h-11v-60z" />
    <glyph glyph-name="Tcaron" unicode="&#x164;" horiz-adv-x="539" 
d="M413 921v-78l-142 -83l-144 83v78l144 -84zM15 706h508v-92h-197v-614h-115v614h-196v92z" />
    <glyph glyph-name="tcaron" unicode="&#x165;" horiz-adv-x="384" 
d="M369 811q14 -52 14 -95q0 -115 -113 -115v47q50 0 50 42v24h-54v97h103zM212 182q0 -47 17.5 -65t61.5 -18h55v-99h-70q-88 0 -133.5 42.5t-45.5 141.5v270h-79v97h79v137h115v-137h133v-97h-133v-272z" />
    <glyph glyph-name="Utilde" unicode="&#x168;" horiz-adv-x="671" 
d="M280 866q28 0 61 -22t52 -22q35 0 41 43h52q-15 -102 -96 -102q-28 0 -62 22t-51 22q-33 0 -40 -44h-51q16 103 94 103zM64 706h114v-419q0 -94 41.5 -140t116.5 -46q74 0 115.5 46t41.5 140v419h114v-419q0 -145 -75 -219.5t-198 -74.5q-122 0 -196 74.5t-74 219.5v419z
" />
    <glyph glyph-name="utilde" unicode="&#x169;" horiz-adv-x="645" 
d="M264 652q-33 0 -40 -44h-51q16 103 94 103q27 0 61 -22t52 -22q35 0 41 43h52q-15 -102 -96 -102q-28 0 -62 22t-51 22zM462 551h115v-551h-115v120q-21 -61 -73 -94.5t-121 -33.5q-96 0 -154 62t-58 177v320h114v-308q0 -75 38 -115.5t104 -40.5q68 0 109 44t41 128v292
z" />
    <glyph glyph-name="Umacron" unicode="&#x16a;" horiz-adv-x="671" 
d="M153 875h366v-78h-366v78zM64 706h114v-419q0 -94 41.5 -140t116.5 -46q74 0 115.5 46t41.5 140v419h114v-419q0 -145 -75 -219.5t-198 -74.5q-122 0 -196 74.5t-74 219.5v419z" />
    <glyph glyph-name="umacron" unicode="&#x16b;" horiz-adv-x="645" 
d="M499 720v-78h-366v78h366zM462 551h115v-551h-115v120q-21 -61 -73 -94.5t-121 -33.5q-96 0 -154 62t-58 177v320h114v-308q0 -75 38 -115.5t104 -40.5q68 0 109 44t41 128v292z" />
    <glyph glyph-name="Ubreve" unicode="&#x16c;" horiz-adv-x="671" 
d="M336 763q-63 0 -99.5 37.5t-36.5 97.5v8h51q0 -71 85 -71t85 71h50v-8q0 -61 -36 -98t-99 -37zM64 706h114v-419q0 -94 41.5 -140t116.5 -46q74 0 115.5 46t41.5 140v419h114v-419q0 -145 -75 -219.5t-198 -74.5q-122 0 -196 74.5t-74 219.5v419z" />
    <glyph glyph-name="ubreve" unicode="&#x16d;" horiz-adv-x="645" 
d="M323 608q-63 0 -99.5 37.5t-36.5 97.5v8h51q0 -71 85 -71t85 71h50v-8q0 -61 -36 -98t-99 -37zM462 551h115v-551h-115v120q-21 -61 -73 -94.5t-121 -33.5q-96 0 -154 62t-58 177v320h114v-308q0 -75 38 -115.5t104 -40.5q68 0 109 44t41 128v292z" />
    <glyph glyph-name="Uring" unicode="&#x16e;" horiz-adv-x="671" 
d="M336 979q47 0 78 -30t31 -80t-31.5 -79.5t-77.5 -29.5q-47 0 -78.5 29.5t-31.5 79.5t31.5 80t78.5 30zM336 930q-26 0 -42.5 -16.5t-16.5 -44.5q0 -27 16.5 -43.5t42.5 -16.5q25 0 41.5 16.5t16.5 43.5q0 28 -16.5 44.5t-41.5 16.5zM64 706h114v-419q0 -94 41.5 -140
t116.5 -46q74 0 115.5 46t41.5 140v419h114v-419q0 -145 -75 -219.5t-198 -74.5q-122 0 -196 74.5t-74 219.5v419z" />
    <glyph glyph-name="uring" unicode="&#x16f;" horiz-adv-x="645" 
d="M316 605q-47 0 -78.5 29.5t-31.5 79.5t31.5 80t78.5 30t78 -30t31 -80t-31.5 -79.5t-77.5 -29.5zM316 775q-26 0 -42.5 -16.5t-16.5 -44.5q0 -27 16.5 -43.5t42.5 -16.5q25 0 41.5 16.5t16.5 43.5q0 28 -16.5 44.5t-41.5 16.5zM462 551h115v-551h-115v120
q-21 -61 -73 -94.5t-121 -33.5q-96 0 -154 62t-58 177v320h114v-308q0 -75 38 -115.5t104 -40.5q68 0 109 44t41 128v292z" />
    <glyph glyph-name="Uhungarumlaut" unicode="&#x170;" horiz-adv-x="671" 
d="M343 926l-87 -170h-73l69 170h91zM521 926l-102 -170h-73l83 170h92zM64 706h114v-419q0 -94 41.5 -140t116.5 -46q74 0 115.5 46t41.5 140v419h114v-419q0 -145 -75 -219.5t-198 -74.5q-122 0 -196 74.5t-74 219.5v419z" />
    <glyph glyph-name="uhungarumlaut" unicode="&#x171;" horiz-adv-x="645" 
d="M323 771l-87 -170h-73l69 170h91zM501 771l-102 -170h-73l83 170h92zM462 551h115v-551h-115v120q-21 -61 -73 -94.5t-121 -33.5q-96 0 -154 62t-58 177v320h114v-308q0 -75 38 -115.5t104 -40.5q68 0 109 44t41 128v292z" />
    <glyph glyph-name="Uogonek" unicode="&#x172;" horiz-adv-x="694" 
d="M389 -160q-54 0 -89 29.5t-35 80.5q0 36 29 48q-97 17 -157.5 90.5t-60.5 198.5v419h114v-419q0 -94 41.5 -140t116.5 -46q157 0 157 186v419h114v-419q0 -127 -60 -199t-155 -87q-58 -9 -58 -51q0 -47 63 -47h99v-63h-119z" />
    <glyph glyph-name="uogonek" unicode="&#x173;" horiz-adv-x="645" 
d="M514 -139h105v-64h-115q-58 0 -95 28t-37 80q0 43 25 70t65 35v110q-21 -61 -73 -94.5t-121 -33.5q-96 0 -154 62t-58 177v320h114v-308q0 -75 38 -115.5t104 -40.5q68 0 109 44t41 128v292h115v-551h-1v-45h-62q-29 0 -45.5 -12.5t-16.5 -34.5t16.5 -34.5t45.5 -12.5z
" />
    <glyph glyph-name="Wcircumflex" unicode="&#x174;" horiz-adv-x="996" 
d="M627 762l-129 77l-130 -77v66l130 76l129 -76v-66zM838 706h125l-176 -706h-140l-149 546l-149 -546h-140l-176 706h125l122 -574l155 574h126l155 -574z" />
    <glyph glyph-name="wcircumflex" unicode="&#x175;" horiz-adv-x="850" 
d="M555 607l-129 77l-130 -77v66l130 76l129 -76v-66zM733 551h108l-153 -551h-126l-136 426l-138 -426h-125l-153 551h115l105 -446l138 446h120l140 -446z" />
    <glyph glyph-name="Ycircumflex" unicode="&#x176;" horiz-adv-x="618" 
d="M438 762l-129 77l-130 -77v66l130 76l129 -76v-66zM472 706h130l-235 -449v-257h-115v257l-236 449h132l162 -327z" />
    <glyph glyph-name="ycircumflex" unicode="&#x177;" horiz-adv-x="585" 
d="M422 607l-129 77l-130 -77v66l130 76l129 -76v-66zM6 551h128l165 -405l153 405h127l-333 -813h-127l119 275z" />
    <glyph glyph-name="Ydieresis" unicode="&#x178;" horiz-adv-x="618" 
d="M221 779q-24 0 -40 16.5t-16 39.5q0 24 16 40t40 16t40.5 -16t16.5 -40q0 -23 -16.5 -39.5t-40.5 -16.5zM398 779q-24 0 -40 16.5t-16 39.5q0 24 16 40t40 16t40 -16t16 -40q0 -23 -16 -39.5t-40 -16.5zM472 706h130l-235 -449v-257h-115v257l-236 449h132l162 -327z" />
    <glyph glyph-name="Zacute" unicode="&#x179;" horiz-adv-x="554" 
d="M376 930v-76l-200 -105v67zM507 617l-338 -524h343v-93h-470v89l336 524h-329v93h458v-89z" />
    <glyph glyph-name="zacute" unicode="&#x17a;" horiz-adv-x="459" 
d="M329 775v-76l-200 -105v67zM424 460l-273 -364h283v-96h-409v91l268 364h-261v96h392v-91z" />
    <glyph glyph-name="Zdotaccent" unicode="&#x17b;" horiz-adv-x="554" 
d="M221 835q0 24 16 40t39 16q24 0 40.5 -16t16.5 -40q0 -23 -16.5 -39.5t-40.5 -16.5q-23 0 -39 16.5t-16 39.5zM507 617l-338 -524h343v-93h-470v89l336 524h-329v93h458v-89z" />
    <glyph glyph-name="zdotaccent" unicode="&#x17c;" horiz-adv-x="459" 
d="M173 680q0 24 16 40t39 16q24 0 40.5 -16t16.5 -40q0 -23 -16.5 -39.5t-40.5 -16.5q-23 0 -39 16.5t-16 39.5zM424 460l-273 -364h283v-96h-409v91l268 364h-261v96h392v-91z" />
    <glyph glyph-name="Zcaron" unicode="&#x17d;" horiz-adv-x="554" 
d="M420 921v-78l-142 -83l-144 83v78l144 -84zM507 617l-338 -524h343v-93h-470v89l336 524h-329v93h458v-89z" />
    <glyph glyph-name="zcaron" unicode="&#x17e;" horiz-adv-x="459" 
d="M373 766v-78l-142 -83l-144 83v78l144 -84zM424 460l-273 -364h283v-96h-409v91l268 364h-261v96h392v-91z" />
    <glyph glyph-name="florin" unicode="&#x192;" horiz-adv-x="335" 
d="M349 673q-105 0 -113 -83l-4 -39h111l-9 -96h-112l-55 -519q-9 -82 -54.5 -118t-127.5 -36h-31l9 99h32q27 0 40 12t17 43l56 519h-66l9 96h67l4 39q10 94 68.5 138t167.5 44z" />
    <glyph glyph-name="Ohorn" unicode="&#x1a0;" horiz-adv-x="790" 
d="M589 660q73 -47 114 -126.5t41 -179.5q0 -158 -99.5 -260t-248.5 -102q-150 0 -250 102t-100 260t100 259.5t250 101.5q43 0 82 -9q98 3 98 112h81q0 -105 -68 -158zM396 99q102 0 166.5 69.5t64.5 185.5t-64.5 185.5t-166.5 69.5q-103 0 -168 -69.5t-65 -185.5
t65 -185.5t168 -69.5z" />
    <glyph glyph-name="ohorn" unicode="&#x1a1;" horiz-adv-x="642" 
d="M501 501q100 -79 100 -225q0 -130 -78.5 -206.5t-201.5 -76.5q-122 0 -201 76.5t-79 206.5q0 129 79 205.5t201 76.5q38 0 69 -7q103 2 103 112h81q0 -111 -73 -162zM321 93q69 0 116 46.5t47 136.5q0 89 -47.5 136t-115.5 47t-115.5 -47t-47.5 -136q0 -90 47 -136.5
t116 -46.5z" />
    <glyph glyph-name="Uhorn" unicode="&#x1af;" horiz-adv-x="671" 
d="M718 818q0 -71 -30.5 -117t-80.5 -65v-349q0 -145 -75 -219.5t-198 -74.5q-122 0 -196 74.5t-74 219.5v419h114v-419q0 -94 41.5 -140t116.5 -46q74 0 115.5 46t41.5 140v419h38q106 0 106 112h81z" />
    <glyph glyph-name="uhorn" unicode="&#x1b0;" horiz-adv-x="645" 
d="M711 663q0 -80 -37 -127t-97 -63v-473h-115v120q-21 -61 -73 -94.5t-121 -33.5q-96 0 -154 62t-58 177v320h114v-308q0 -75 38 -115.5t104 -40.5q68 0 109 44t41 128v292h62q106 0 106 112h81z" />
    <glyph glyph-name="AEacute" unicode="&#x1fc;" horiz-adv-x="907" 
d="M615 930v-76l-200 -105v67zM865 614h-285v-213h255v-88h-255v-220h285v-93h-400v148h-252l-82 -148h-126l389 706h471v-92zM261 236h204v370z" />
    <glyph glyph-name="aeacute" unicode="&#x1fd;" horiz-adv-x="1097" 
d="M696 775v-76l-200 -105v67zM1056 302q0 -22 -5 -49h-441q4 -85 50.5 -127t114.5 -42q61 0 102 29t52 79h121q-16 -89 -79.5 -144t-158.5 -55q-75 0 -129.5 35t-75.5 101v-129h-114v128q-22 -61 -75 -98t-128 -37q-110 0 -179.5 76.5t-69.5 206.5t69.5 206t179.5 76
q75 0 128 -37t75 -98v128h114v-129q20 65 75 100.5t130 35.5q112 0 178 -73t66 -183zM940 305q4 79 -43.5 120.5t-117.5 41.5q-68 0 -116 -40t-53 -122h330zM325 94q73 0 120.5 49.5t47.5 132.5q0 82 -47.5 132t-120.5 50q-76 0 -121.5 -48.5t-45.5 -133.5t45.5 -133.5
t121.5 -48.5z" />
    <glyph glyph-name="Scommaaccent" unicode="&#x218;" horiz-adv-x="606" 
d="M533 188q0 -81 -58.5 -138t-167.5 -57t-180 55.5t-79 147.5h122q5 -46 39.5 -79t92.5 -33q52 0 80.5 28t28.5 72q0 36 -20 61.5t-52.5 40t-71 26.5t-77.5 27.5t-71.5 36.5t-52.5 59t-20 90q0 86 62 138t166 52q108 0 171.5 -52t72.5 -136h-123q-7 40 -37.5 68.5
t-83.5 28.5q-48 0 -77 -24.5t-29 -70.5q0 -35 20 -59t52.5 -38.5t71 -26.5t77.5 -27.5t71.5 -37.5t52.5 -60.5t20 -91.5zM365 -48q14 -42 14 -80q0 -62 -29 -95t-83 -33v46q48 0 48 64v9h-50v89h100z" />
    <glyph glyph-name="scommaaccent" unicode="&#x219;" horiz-adv-x="528" 
d="M250 558q97 0 155.5 -49.5t71.5 -132.5h-108q-7 45 -38.5 72.5t-83.5 27.5q-43 0 -66.5 -20.5t-23.5 -55.5q0 -30 24 -48.5t60.5 -26t78.5 -19.5t78.5 -26.5t60.5 -48t24 -83.5q0 -69 -52.5 -112t-141.5 -43q-103 0 -166.5 48t-76.5 134h111q5 -45 40 -73t92 -28
q41 0 64.5 21.5t23.5 54.5q0 37 -33.5 57.5t-81 30.5t-95.5 23t-81.5 47.5t-33.5 92.5q0 70 52.5 113.5t145.5 43.5zM324 -48q13 -39 13 -80q0 -62 -29 -95t-83 -33v46q49 0 49 64v9h-51v89h101z" />
    <glyph glyph-name="uni021A" unicode="&#x21a;" horiz-adv-x="539" 
d="M15 706h508v-92h-197v-614h-115v614h-196v92zM318 -48q13 -39 13 -80q0 -62 -29 -95t-83 -33v46q49 0 49 64v9h-51v89h101z" />
    <glyph glyph-name="uni021B" unicode="&#x21b;" horiz-adv-x="384" 
d="M291 99h55v-99h-70q-88 0 -133.5 42.5t-45.5 141.5v270h-79v97h79v137h115v-137h133v-97h-133v-272q0 -47 17.5 -65t61.5 -18zM163 -48h100q14 -42 14 -80q0 -62 -29 -95t-83 -33v46q48 0 48 64v9h-50v89z" />
    <glyph glyph-name="circumflex" unicode="&#x2c6;" horiz-adv-x="338" 
d="M299 607l-129 77l-130 -77v66l130 76l129 -76v-66z" />
    <glyph glyph-name="caron" unicode="&#x2c7;" horiz-adv-x="338" 
d="M312 766v-78l-142 -83l-144 83v78l144 -84z" />
    <glyph glyph-name="breve" unicode="&#x2d8;" horiz-adv-x="353" 
d="M177 608q-63 0 -99.5 37.5t-36.5 97.5v8h51q0 -71 85 -71t85 71h50v-8q0 -61 -36 -98t-99 -37z" />
    <glyph glyph-name="dotaccent" unicode="&#x2d9;" horiz-adv-x="172" 
d="M30 680q0 24 16 40t39 16q24 0 40.5 -16t16.5 -40q0 -23 -16.5 -39.5t-40.5 -16.5q-23 0 -39 16.5t-16 39.5z" />
    <glyph glyph-name="ring" unicode="&#x2da;" horiz-adv-x="271" 
d="M136 824q47 0 78 -30t31 -80t-31.5 -79.5t-77.5 -29.5q-47 0 -78.5 29.5t-31.5 79.5t31.5 80t78.5 30zM136 775q-26 0 -42.5 -16.5t-16.5 -44.5q0 -27 16.5 -43.5t42.5 -16.5q25 0 41.5 16.5t16.5 43.5q0 28 -16.5 44.5t-41.5 16.5z" />
    <glyph glyph-name="ogonek" unicode="&#x2db;" horiz-adv-x="289" 
d="M143 -7h82v-58h-62q-29 0 -45.5 -12.5t-16.5 -34.5t16.5 -34.5t45.5 -12.5h105v-64h-115q-58 0 -95 28t-37 80t35.5 80t86.5 28z" />
    <glyph glyph-name="tilde" unicode="&#x2dc;" horiz-adv-x="380" 
d="M134 711q28 0 61.5 -22t51.5 -22q35 0 41 43h52q-15 -102 -96 -102q-28 0 -62 22t-51 22q-33 0 -40 -44h-51q16 103 94 103z" />
    <glyph glyph-name="hungarumlaut" unicode="&#x2dd;" horiz-adv-x="390" 
d="M186 771l-87 -170h-73l69 170h91zM364 771l-102 -170h-73l83 170h92z" />
    <glyph glyph-name="gravecomb" unicode="&#x300;" horiz-adv-x="0" 
d="M-258 775l200 -114v-67l-200 105v76z" />
    <glyph glyph-name="acutecomb" unicode="&#x301;" horiz-adv-x="0" 
d="M-37 775v-76l-200 -105v67z" />
    <glyph glyph-name="uni0302" unicode="&#x302;" horiz-adv-x="0" 
d="M-39 607l-129 77l-130 -77v66l130 76l129 -76v-66z" />
    <glyph glyph-name="tildecomb" unicode="&#x303;" horiz-adv-x="0" 
d="M-246 711q28 0 61 -22t52 -22q35 0 41 43h52q-15 -102 -96 -102q-28 0 -62 22t-51 22q-33 0 -40 -44h-51q16 103 94 103z" />
    <glyph glyph-name="uni0306" unicode="&#x306;" horiz-adv-x="0" 
d="M-176 608q-63 0 -99.5 37.5t-36.5 97.5v8h51q0 -71 85 -71t85 71h50v-8q0 -61 -36 -98t-99 -37z" />
    <glyph glyph-name="hookabovecomb" unicode="&#x309;" horiz-adv-x="0" 
d="M-227 754q89 0 89 -85q0 -10 -3 -20t-6.5 -17t-12.5 -18t-13.5 -16t-19 -19t-19.5 -20l-34 30q53 51 53 80q0 34 -36 34q-18 0 -26.5 -10t-11.5 -33l-53 5q2 19 6.5 32t13.5 27.5t27.5 22t45.5 7.5z" />
    <glyph glyph-name="uni031B" unicode="&#x31b;" horiz-adv-x="0" 
d="M-176 467v84q106 0 106 112h81q0 -97 -54.5 -146.5t-132.5 -49.5z" />
    <glyph glyph-name="dotbelowcomb" unicode="&#x323;" horiz-adv-x="0" 
d="M-142 -125q0 24 16 40t39 16q24 0 40.5 -16t16.5 -40q0 -23 -16.5 -39.5t-40.5 -16.5q-23 0 -39 16.5t-16 39.5z" />
    <glyph glyph-name="pi" unicode="&#x3c0;" horiz-adv-x="715" 
d="M39 551h639v-87h-77v-464h-115v464h-255v-464h-115v464h-77v87z" />
    <glyph glyph-name="Wgrave" unicode="&#x1e80;" horiz-adv-x="996" 
d="M597 816v-67l-200 105v76zM838 706h125l-176 -706h-140l-149 546l-149 -546h-140l-176 706h125l122 -574l155 574h126l155 -574z" />
    <glyph glyph-name="wgrave" unicode="&#x1e81;" horiz-adv-x="850" 
d="M525 661v-67l-200 105v76zM733 551h108l-153 -551h-126l-136 426l-138 -426h-125l-153 551h115l105 -446l138 446h120l140 -446z" />
    <glyph glyph-name="Wacute" unicode="&#x1e82;" horiz-adv-x="996" 
d="M597 930v-76l-200 -105v67zM838 706h125l-176 -706h-140l-149 546l-149 -546h-140l-176 706h125l122 -574l155 574h126l155 -574z" />
    <glyph glyph-name="wacute" unicode="&#x1e83;" horiz-adv-x="850" 
d="M525 775v-76l-200 -105v67zM733 551h108l-153 -551h-126l-136 426l-138 -426h-125l-153 551h115l105 -446l138 446h120l140 -446z" />
    <glyph glyph-name="Wdieresis" unicode="&#x1e84;" horiz-adv-x="996" 
d="M410 779q-24 0 -40 16.5t-16 39.5q0 24 16 40t40 16t40.5 -16t16.5 -40q0 -23 -16.5 -39.5t-40.5 -16.5zM587 779q-24 0 -40 16.5t-16 39.5q0 24 16 40t40 16t40 -16t16 -40q0 -23 -16 -39.5t-40 -16.5zM838 706h125l-176 -706h-140l-149 546l-149 -546h-140l-176 706
h125l122 -574l155 574h126l155 -574z" />
    <glyph glyph-name="wdieresis" unicode="&#x1e85;" horiz-adv-x="850" 
d="M337 624q-24 0 -40 16.5t-16 39.5q0 24 16 40t40 16t40.5 -16t16.5 -40q0 -23 -16.5 -39.5t-40.5 -16.5zM514 624q-24 0 -40 16.5t-16 39.5q0 24 16 40t40 16t40 -16t16 -40q0 -23 -16 -39.5t-40 -16.5zM733 551h108l-153 -551h-126l-136 426l-138 -426h-125l-153 551
h115l105 -446l138 446h120l140 -446z" />
    <glyph glyph-name="uni1EA0" unicode="&#x1ea0;" horiz-adv-x="682" 
d="M666 0h-122l-54 153h-298l-54 -153h-122l260 695h131zM224 241h234l-117 330zM340 -69q24 0 40.5 -16t16.5 -40q0 -23 -16.5 -39.5t-40.5 -16.5q-23 0 -39 16.5t-16 39.5q0 24 16 40t39 16z" />
    <glyph glyph-name="uni1EA1" unicode="&#x1ea1;" 
d="M290 558q75 0 128 -37t75 -98v128h114v-551h-114v128q-22 -61 -75 -98t-128 -37q-110 0 -179.5 76.5t-69.5 206.5t69.5 206t179.5 76zM325 458q-76 0 -121.5 -48.5t-45.5 -133.5t45.5 -133.5t121.5 -48.5q73 0 120.5 49.5t47.5 132.5q0 82 -47.5 132t-120.5 50zM282 -125
q0 24 16 40t39 16q24 0 40.5 -16t16.5 -40q0 -23 -16.5 -39.5t-40.5 -16.5q-23 0 -39 16.5t-16 39.5z" />
    <glyph glyph-name="uni1EA2" unicode="&#x1ea2;" horiz-adv-x="682" 
d="M335 908q-18 0 -26.5 -10t-11.5 -33l-53 5q2 19 6.5 32t13.5 27.5t27.5 22t45.5 7.5q89 0 89 -85q0 -10 -3 -20t-6.5 -17t-12.5 -18t-13.5 -16t-19 -19t-19.5 -20l-34 30q53 51 53 80q0 34 -36 34zM544 0l-54 153h-298l-54 -153h-122l260 695h131l259 -695h-122zM224 241
h234l-117 330z" />
    <glyph glyph-name="uni1EA3" unicode="&#x1ea3;" 
d="M334 804q89 0 89 -85q0 -10 -3 -20t-6.5 -17t-12.5 -18t-13.5 -16t-19 -19t-19.5 -20l-34 30q53 51 53 80q0 34 -36 34q-18 0 -26.5 -10t-11.5 -33l-53 5q2 19 6.5 32t13.5 27.5t27.5 22t45.5 7.5zM290 558q75 0 128 -37t75 -98v128h114v-551h-114v128q-22 -61 -75 -98
t-128 -37q-110 0 -179.5 76.5t-69.5 206.5t69.5 206t179.5 76zM325 458q-76 0 -121.5 -48.5t-45.5 -133.5t45.5 -133.5t121.5 -48.5q73 0 120.5 49.5t47.5 132.5q0 82 -47.5 132t-120.5 50z" />
    <glyph glyph-name="uni1EA4" unicode="&#x1ea4;" horiz-adv-x="682" 
d="M653 1034v-73l-192 -100v64zM464 760l-123 74l-125 -74v63l125 73l123 -73v-63zM544 0l-54 153h-298l-54 -153h-122l260 695h131l259 -695h-122zM224 241h234l-117 330z" />
    <glyph glyph-name="uni1EA5" unicode="&#x1ea5;" 
d="M650 879v-73l-192 -100v64zM461 605l-123 74l-125 -74v63l125 73l123 -73v-63zM290 558q75 0 128 -37t75 -98v128h114v-551h-114v128q-22 -61 -75 -98t-128 -37q-110 0 -179.5 76.5t-69.5 206.5t69.5 206t179.5 76zM325 458q-76 0 -121.5 -48.5t-45.5 -133.5t45.5 -133.5
t121.5 -48.5q73 0 120.5 49.5t47.5 132.5q0 82 -47.5 132t-120.5 50z" />
    <glyph glyph-name="uni1EA6" unicode="&#x1ea6;" horiz-adv-x="682" 
d="M470 944v-64l-192 100v73zM464 760l-123 74l-125 -74v63l125 73l123 -73v-63zM544 0l-54 153h-298l-54 -153h-122l260 695h131l259 -695h-122zM224 241h234l-117 330z" />
    <glyph glyph-name="uni1EA7" unicode="&#x1ea7;" 
d="M275 898l192 -109v-64l-192 100v73zM461 605l-123 74l-125 -74v63l125 73l123 -73v-63zM290 558q75 0 128 -37t75 -98v128h114v-551h-114v128q-22 -61 -75 -98t-128 -37q-110 0 -179.5 76.5t-69.5 206.5t69.5 206t179.5 76zM325 458q-76 0 -121.5 -48.5t-45.5 -133.5
t45.5 -133.5t121.5 -48.5q73 0 120.5 49.5t47.5 132.5q0 82 -47.5 132t-120.5 50z" />
    <glyph glyph-name="uni1EA8" unicode="&#x1ea8;" horiz-adv-x="682" 
d="M480 980q-18 0 -26 -9.5t-10 -31.5l-51 5q3 25 9 41t26 30t54 14q85 0 85 -82q0 -10 -3 -19.5t-6 -16t-12 -17t-13.5 -15.5t-17.5 -18l-19 -19l-32 29q50 48 50 76q0 33 -34 33zM464 760l-123 74l-125 -74v63l125 73l123 -73v-63zM544 0l-54 153h-298l-54 -153h-122
l260 695h131l259 -695h-122zM224 241h234l-117 330z" />
    <glyph glyph-name="uni1EA9" unicode="&#x1ea9;" 
d="M479 874q85 0 85 -82q0 -10 -3 -19.5t-6 -16t-12 -17t-13.5 -15.5t-17.5 -18l-19 -19l-32 29q50 48 50 76q0 33 -34 33q-18 0 -26 -9.5t-10 -31.5l-51 5q3 25 9 41t26 30t54 14zM461 605l-123 74l-125 -74v63l125 73l123 -73v-63zM290 558q75 0 128 -37t75 -98v128h114
v-551h-114v128q-22 -61 -75 -98t-128 -37q-110 0 -179.5 76.5t-69.5 206.5t69.5 206t179.5 76zM325 458q-76 0 -121.5 -48.5t-45.5 -133.5t45.5 -133.5t121.5 -48.5q73 0 120.5 49.5t47.5 132.5q0 82 -47.5 132t-120.5 50z" />
    <glyph glyph-name="uni1EAA" unicode="&#x1eaa;" horiz-adv-x="682" 
d="M305 948q-31 0 -38 -42h-49q16 99 90 99q26 0 58 -21t50 -21q34 0 40 41h49q-7 -48 -31 -73t-60 -25q-27 0 -59.5 21t-49.5 21zM464 760l-123 74l-125 -74v63l125 73l123 -73v-63zM544 0l-54 153h-298l-54 -153h-122l260 695h131l259 -695h-122zM224 241h234l-117 330z
" />
    <glyph glyph-name="uni1EAB" unicode="&#x1eab;" 
d="M305 850q27 0 59 -21t49 -21q34 0 40 41h49q-7 -48 -31 -73t-60 -25q-27 0 -59.5 21t-49.5 21q-31 0 -38 -42h-49q16 99 90 99zM461 605l-123 74l-125 -74v63l125 73l123 -73v-63zM290 558q75 0 128 -37t75 -98v128h114v-551h-114v128q-22 -61 -75 -98t-128 -37
q-110 0 -179.5 76.5t-69.5 206.5t69.5 206t179.5 76zM325 458q-76 0 -121.5 -48.5t-45.5 -133.5t45.5 -133.5t121.5 -48.5q73 0 120.5 49.5t47.5 132.5q0 82 -47.5 132t-120.5 50z" />
    <glyph glyph-name="uni1EAC" unicode="&#x1eac;" horiz-adv-x="682" 
d="M470 762l-129 77l-130 -77v66l130 76l129 -76v-66zM666 0h-122l-54 153h-298l-54 -153h-122l260 695h131zM224 241h234l-117 330zM340 -69q24 0 40.5 -16t16.5 -40q0 -23 -16.5 -39.5t-40.5 -16.5q-23 0 -39 16.5t-16 39.5q0 24 16 40t39 16z" />
    <glyph glyph-name="uni1EAD" unicode="&#x1ead;" 
d="M467 607l-129 77l-130 -77v66l130 76l129 -76v-66zM290 558q75 0 128 -37t75 -98v128h114v-551h-114v128q-22 -61 -75 -98t-128 -37q-110 0 -179.5 76.5t-69.5 206.5t69.5 206t179.5 76zM325 458q-76 0 -121.5 -48.5t-45.5 -133.5t45.5 -133.5t121.5 -48.5
q73 0 120.5 49.5t47.5 132.5q0 82 -47.5 132t-120.5 50zM282 -125q0 24 16 40t39 16q24 0 40.5 -16t16.5 -40q0 -23 -16.5 -39.5t-40.5 -16.5q-23 0 -39 16.5t-16 39.5z" />
    <glyph glyph-name="uni1EAE" unicode="&#x1eae;" horiz-adv-x="682" 
d="M508 1091v-73l-192 -100v64zM341 761q-60 0 -95 36t-35 93v8h49q0 -68 81 -68q82 0 82 68h48v-8q0 -58 -34.5 -93.5t-95.5 -35.5zM544 0l-54 153h-298l-54 -153h-122l260 695h131l259 -695h-122zM224 241h234l-117 330z" />
    <glyph glyph-name="uni1EAF" unicode="&#x1eaf;" 
d="M505 936v-73l-192 -100v64zM338 606q-60 0 -95 36t-35 93v8h49q0 -68 81 -68q82 0 82 68h48v-8q0 -58 -34.5 -93.5t-95.5 -35.5zM290 558q75 0 128 -37t75 -98v128h114v-551h-114v128q-22 -61 -75 -98t-128 -37q-110 0 -179.5 76.5t-69.5 206.5t69.5 206t179.5 76z
M325 458q-76 0 -121.5 -48.5t-45.5 -133.5t45.5 -133.5t121.5 -48.5q73 0 120.5 49.5t47.5 132.5q0 82 -47.5 132t-120.5 50z" />
    <glyph glyph-name="uni1EB0" unicode="&#x1eb0;" horiz-adv-x="682" 
d="M385 974v-64l-192 100v73zM260 898q0 -68 81 -68q82 0 82 68h48v-8q0 -58 -34.5 -93.5t-95.5 -35.5q-60 0 -95 36t-35 93v8h49zM544 0l-54 153h-298l-54 -153h-122l260 695h131l259 -695h-122zM224 241h234l-117 330z" />
    <glyph glyph-name="uni1EB1" unicode="&#x1eb1;" 
d="M190 928l192 -109v-64l-192 100v73zM338 606q-60 0 -95 36t-35 93v8h49q0 -68 81 -68q82 0 82 68h48v-8q0 -58 -34.5 -93.5t-95.5 -35.5zM290 558q75 0 128 -37t75 -98v128h114v-551h-114v128q-22 -61 -75 -98t-128 -37q-110 0 -179.5 76.5t-69.5 206.5t69.5 206
t179.5 76zM325 458q-76 0 -121.5 -48.5t-45.5 -133.5t45.5 -133.5t121.5 -48.5q73 0 120.5 49.5t47.5 132.5q0 82 -47.5 132t-120.5 50z" />
    <glyph glyph-name="uni1EB2" unicode="&#x1eb2;" horiz-adv-x="682" 
d="M330 1032q-18 0 -26 -9.5t-10 -31.5l-51 5q3 25 9 41t26 30t54 14q85 0 85 -82q0 -10 -3 -19.5t-6 -16t-12 -17t-13.5 -15.5t-17.5 -18l-19 -19l-32 29q50 48 50 76q0 33 -34 33zM341 761q-60 0 -95 36t-35 93v8h49q0 -68 81 -68q82 0 82 68h48v-8q0 -58 -34.5 -93.5
t-95.5 -35.5zM544 0l-54 153h-298l-54 -153h-122l260 695h131l259 -695h-122zM224 241h234l-117 330z" />
    <glyph glyph-name="uni1EB3" unicode="&#x1eb3;" 
d="M329 926q85 0 85 -82q0 -10 -3 -19.5t-6 -16t-12 -17t-13.5 -15.5t-17.5 -18l-19 -19l-32 29q50 48 50 76q0 33 -34 33q-18 0 -26 -9.5t-10 -31.5l-51 5q3 25 9 41t26 30t54 14zM338 606q-60 0 -95 36t-35 93v8h49q0 -68 81 -68q82 0 82 68h48v-8q0 -58 -34.5 -93.5
t-95.5 -35.5zM290 558q75 0 128 -37t75 -98v128h114v-551h-114v128q-22 -61 -75 -98t-128 -37q-110 0 -179.5 76.5t-69.5 206.5t69.5 206t179.5 76zM325 458q-76 0 -121.5 -48.5t-45.5 -133.5t45.5 -133.5t121.5 -48.5q73 0 120.5 49.5t47.5 132.5q0 82 -47.5 132t-120.5 50
z" />
    <glyph glyph-name="uni1EB4" unicode="&#x1eb4;" horiz-adv-x="682" 
d="M294 971q-31 0 -38 -42h-49q16 99 90 99q27 0 59 -21t49 -21q34 0 40 41h49q-7 -48 -31 -73t-60 -25q-27 0 -59.5 21t-49.5 21zM341 830q82 0 82 68h48v-8q0 -58 -34.5 -93.5t-95.5 -35.5q-60 0 -95 36t-35 93v8h49q0 -68 81 -68zM544 0l-54 153h-298l-54 -153h-122
l260 695h131l259 -695h-122zM224 241h234l-117 330z" />
    <glyph glyph-name="uni1EB5" unicode="&#x1eb5;" 
d="M294 873q26 0 58 -21t50 -21q34 0 40 41h49q-7 -48 -31 -73t-60 -25q-27 0 -59.5 21t-49.5 21q-31 0 -38 -42h-49q16 99 90 99zM338 606q-60 0 -95 36t-35 93v8h49q0 -68 81 -68q82 0 82 68h48v-8q0 -58 -34.5 -93.5t-95.5 -35.5zM290 558q75 0 128 -37t75 -98v128h114
v-551h-114v128q-22 -61 -75 -98t-128 -37q-110 0 -179.5 76.5t-69.5 206.5t69.5 206t179.5 76zM325 458q-76 0 -121.5 -48.5t-45.5 -133.5t45.5 -133.5t121.5 -48.5q73 0 120.5 49.5t47.5 132.5q0 82 -47.5 132t-120.5 50z" />
    <glyph glyph-name="uni1EB6" unicode="&#x1eb6;" horiz-adv-x="682" 
d="M341 763q-63 0 -99.5 37.5t-36.5 97.5v8h51q0 -71 85 -71t85 71h50v-8q0 -61 -36 -98t-99 -37zM666 0h-122l-54 153h-298l-54 -153h-122l260 695h131zM224 241h234l-117 330zM340 -69q24 0 40.5 -16t16.5 -40q0 -23 -16.5 -39.5t-40.5 -16.5q-23 0 -39 16.5t-16 39.5
q0 24 16 40t39 16z" />
    <glyph glyph-name="uni1EB7" unicode="&#x1eb7;" 
d="M338 608q-63 0 -99.5 37.5t-36.5 97.5v8h51q0 -71 85 -71t85 71h50v-8q0 -61 -36 -98t-99 -37zM290 558q75 0 128 -37t75 -98v128h114v-551h-114v128q-22 -61 -75 -98t-128 -37q-110 0 -179.5 76.5t-69.5 206.5t69.5 206t179.5 76zM325 458q-76 0 -121.5 -48.5
t-45.5 -133.5t45.5 -133.5t121.5 -48.5q73 0 120.5 49.5t47.5 132.5q0 82 -47.5 132t-120.5 50zM282 -125q0 24 16 40t39 16q24 0 40.5 -16t16.5 -40q0 -23 -16.5 -39.5t-40.5 -16.5q-23 0 -39 16.5t-16 39.5z" />
    <glyph glyph-name="uni1EB8" unicode="&#x1eb8;" horiz-adv-x="515" 
d="M473 614h-290v-214h260v-88h-260v-219h290v-93h-404v706h404v-92zM202 -125q0 24 16 40t39 16q24 0 40.5 -16t16.5 -40q0 -23 -16.5 -39.5t-40.5 -16.5q-23 0 -39 16.5t-16 39.5z" />
    <glyph glyph-name="uni1EB9" unicode="&#x1eb9;" horiz-adv-x="622" 
d="M581 302q0 -28 -4 -49h-424q3 -85 47 -126t109 -41q57 0 96.5 29t48.5 77h122q-16 -88 -87 -143.5t-175 -55.5q-121 0 -197 76t-76 207q0 130 76 206t197 76q122 0 194.5 -73t72.5 -183zM466 305q4 79 -41.5 120.5t-110.5 41.5q-67 0 -112 -41t-49 -121h313zM310 -69
q24 0 40.5 -16t16.5 -40q0 -23 -16.5 -39.5t-40.5 -16.5q-23 0 -39 16.5t-16 39.5q0 24 16 40t39 16z" />
    <glyph glyph-name="uni1EBA" unicode="&#x1eba;" horiz-adv-x="515" 
d="M254 959q89 0 89 -85q0 -10 -3 -20t-6.5 -17t-12.5 -18t-13.5 -16t-19 -19t-19.5 -20l-34 30q53 51 53 80q0 34 -36 34q-18 0 -26.5 -10t-11.5 -33l-53 5q2 19 6.5 32t13.5 27.5t27.5 22t45.5 7.5zM473 614h-290v-214h260v-88h-260v-219h290v-93h-404v706h404v-92z" />
    <glyph glyph-name="uni1EBB" unicode="&#x1ebb;" horiz-adv-x="622" 
d="M305 753q-18 0 -26.5 -10t-11.5 -33l-53 5q2 19 6.5 32t13.5 27.5t27.5 22t45.5 7.5q89 0 89 -85q0 -10 -3 -20t-6.5 -17t-12.5 -18t-13.5 -16t-19 -19t-19.5 -20l-34 30q53 51 53 80q0 34 -36 34zM581 302q0 -28 -4 -49h-424q3 -85 47 -126t109 -41q57 0 96.5 29
t48.5 77h122q-16 -88 -87 -143.5t-175 -55.5q-121 0 -197 76t-76 207q0 130 76 206t197 76q122 0 194.5 -73t72.5 -183zM466 305q4 79 -41.5 120.5t-110.5 41.5q-67 0 -112 -41t-49 -121h313z" />
    <glyph glyph-name="uni1EBC" unicode="&#x1ebc;" horiz-adv-x="515" 
d="M202 866q28 0 61 -22t52 -22q35 0 41 43h52q-15 -102 -96 -102q-28 0 -62 22t-51 22q-33 0 -40 -44h-51q16 103 94 103zM473 614h-290v-214h260v-88h-260v-219h290v-93h-404v706h404v-92z" />
    <glyph glyph-name="uni1EBD" unicode="&#x1ebd;" horiz-adv-x="622" 
d="M252 652q-33 0 -40 -44h-51q16 103 94 103q27 0 61 -22t52 -22q35 0 41 43h52q-15 -102 -96 -102q-28 0 -62 22t-51 22zM581 302q0 -28 -4 -49h-424q3 -85 47 -126t109 -41q57 0 96.5 29t48.5 77h122q-16 -88 -87 -143.5t-175 -55.5q-121 0 -197 76t-76 207q0 130 76 206
t197 76q122 0 194.5 -73t72.5 -183zM466 305q4 79 -41.5 120.5t-110.5 41.5q-67 0 -112 -41t-49 -121h313z" />
    <glyph glyph-name="uni1EBE" unicode="&#x1ebe;" horiz-adv-x="515" 
d="M570 1034v-73l-192 -100v64zM381 760l-123 74l-125 -74v63l125 73l123 -73v-63zM473 614h-290v-214h260v-88h-260v-219h290v-93h-404v706h404v-92z" />
    <glyph glyph-name="uni1EBF" unicode="&#x1ebf;" horiz-adv-x="622" 
d="M431 770l192 109v-73l-192 -100v64zM434 605l-123 74l-125 -74v63l125 73l123 -73v-63zM314 558q122 0 194.5 -73t72.5 -183q0 -28 -4 -49h-424q3 -85 47 -126t109 -41q57 0 96.5 29t48.5 77h122q-16 -88 -87 -143.5t-175 -55.5q-121 0 -197 76t-76 207q0 130 76 206
t197 76zM466 305q4 79 -41.5 120.5t-110.5 41.5q-67 0 -112 -41t-49 -121h313z" />
    <glyph glyph-name="uni1EC0" unicode="&#x1ec0;" horiz-adv-x="515" 
d="M195 1053l192 -109v-64l-192 100v73zM381 760l-123 74l-125 -74v63l125 73l123 -73v-63zM473 614h-290v-214h260v-88h-260v-219h290v-93h-404v706h404v-92z" />
    <glyph glyph-name="uni1EC1" unicode="&#x1ec1;" horiz-adv-x="622" 
d="M440 789v-64l-192 100v73zM434 605l-123 74l-125 -74v63l125 73l123 -73v-63zM581 302q0 -28 -4 -49h-424q3 -85 47 -126t109 -41q57 0 96.5 29t48.5 77h122q-16 -88 -87 -143.5t-175 -55.5q-121 0 -197 76t-76 207q0 130 76 206t197 76q122 0 194.5 -73t72.5 -183z
M466 305q4 79 -41.5 120.5t-110.5 41.5q-67 0 -112 -41t-49 -121h313z" />
    <glyph glyph-name="uni1EC2" unicode="&#x1ec2;" horiz-adv-x="515" 
d="M399 1029q85 0 85 -82q0 -10 -3 -19.5t-6 -16t-12 -17t-13.5 -15.5t-17.5 -18l-19 -19l-32 29q50 48 50 76q0 33 -34 33q-18 0 -26 -9.5t-10 -31.5l-51 5q3 25 9 41t26 30t54 14zM381 760l-123 74l-125 -74v63l125 73l123 -73v-63zM473 614h-290v-214h260v-88h-260v-219
h290v-93h-404v706h404v-92z" />
    <glyph glyph-name="uni1EC3" unicode="&#x1ec3;" horiz-adv-x="622" 
d="M450 825q-18 0 -26 -9.5t-10 -31.5l-51 5q3 25 9 41t26 30t54 14q85 0 85 -82q0 -10 -3 -19.5t-6 -16t-12 -17t-13.5 -15.5t-17.5 -18l-19 -19l-32 29q50 48 50 76q0 33 -34 33zM434 605l-123 74l-125 -74v63l125 73l123 -73v-63zM581 302q0 -28 -4 -49h-424
q3 -85 47 -126t109 -41q57 0 96.5 29t48.5 77h122q-16 -88 -87 -143.5t-175 -55.5q-121 0 -197 76t-76 207q0 130 76 206t197 76q122 0 194.5 -73t72.5 -183zM466 305q4 79 -41.5 120.5t-110.5 41.5q-67 0 -112 -41t-49 -121h313z" />
    <glyph glyph-name="uni1EC4" unicode="&#x1ec4;" horiz-adv-x="515" 
d="M225 1005q27 0 59 -21t49 -21q34 0 40 41h49q-7 -48 -31 -73t-60 -25q-27 0 -59.5 21t-49.5 21q-31 0 -38 -42h-49q16 99 90 99zM381 760l-123 74l-125 -74v63l125 73l123 -73v-63zM473 614h-290v-214h260v-88h-260v-219h290v-93h-404v706h404v-92z" />
    <glyph glyph-name="uni1EC5" unicode="&#x1ec5;" horiz-adv-x="622" 
d="M275 793q-31 0 -38 -42h-49q16 99 90 99q26 0 58 -21t50 -21q34 0 40 41h49q-7 -48 -31 -73t-60 -25q-27 0 -59.5 21t-49.5 21zM434 605l-123 74l-125 -74v63l125 73l123 -73v-63zM581 302q0 -28 -4 -49h-424q3 -85 47 -126t109 -41q57 0 96.5 29t48.5 77h122
q-16 -88 -87 -143.5t-175 -55.5q-121 0 -197 76t-76 207q0 130 76 206t197 76q122 0 194.5 -73t72.5 -183zM466 305q4 79 -41.5 120.5t-110.5 41.5q-67 0 -112 -41t-49 -121h313z" />
    <glyph glyph-name="uni1EC6" unicode="&#x1ec6;" horiz-adv-x="515" 
d="M387 762l-129 77l-130 -77v66l130 76l129 -76v-66zM473 614h-290v-214h260v-88h-260v-219h290v-93h-404v706h404v-92zM202 -125q0 24 16 40t39 16q24 0 40.5 -16t16.5 -40q0 -23 -16.5 -39.5t-40.5 -16.5q-23 0 -39 16.5t-16 39.5z" />
    <glyph glyph-name="uni1EC7" unicode="&#x1ec7;" horiz-adv-x="622" 
d="M440 607l-129 77l-130 -77v66l130 76l129 -76v-66zM581 302q0 -28 -4 -49h-424q3 -85 47 -126t109 -41q57 0 96.5 29t48.5 77h122q-16 -88 -87 -143.5t-175 -55.5q-121 0 -197 76t-76 207q0 130 76 206t197 76q122 0 194.5 -73t72.5 -183zM466 305q4 79 -41.5 120.5
t-110.5 41.5q-67 0 -112 -41t-49 -121h313zM310 -69q24 0 40.5 -16t16.5 -40q0 -23 -16.5 -39.5t-40.5 -16.5q-23 0 -39 16.5t-16 39.5q0 24 16 40t39 16z" />
    <glyph glyph-name="uni1EC8" unicode="&#x1ec8;" horiz-adv-x="252" 
d="M122 959q89 0 89 -85q0 -10 -3 -20t-6.5 -17t-12.5 -18t-13.5 -16t-19 -19t-19.5 -20l-34 30q53 51 53 80q0 34 -36 34q-18 0 -26.5 -10t-11.5 -33l-53 5q2 19 6.5 32t13.5 27.5t27.5 22t45.5 7.5zM69 706h114v-706h-114v706z" />
    <glyph glyph-name="uni1EC9" unicode="&#x1ec9;" horiz-adv-x="276" 
d="M134 804q89 0 89 -85q0 -10 -3 -20t-6.5 -17t-12.5 -18t-13.5 -16t-19 -19t-19.5 -20l-34 30q53 51 53 80q0 34 -36 34q-18 0 -26.5 -10t-11.5 -33l-53 5q2 19 6.5 32t13.5 27.5t27.5 22t45.5 7.5zM80 551h115v-551h-115v551z" />
    <glyph glyph-name="uni1ECA" unicode="&#x1eca;" horiz-adv-x="252" 
d="M69 706h114v-706h-114v706zM70 -125q0 24 16 40t39 16q24 0 40.5 -16t16.5 -40q0 -23 -16.5 -39.5t-40.5 -16.5q-23 0 -39 16.5t-16 39.5z" />
    <glyph glyph-name="uni1ECB" unicode="&#x1ecb;" horiz-adv-x="252" 
d="M53 711q0 29 20 48t53 19t53.5 -19t20.5 -48t-20.5 -47t-53.5 -18t-53 18t-20 47zM69 551h114v-551h-114v551zM70 -125q0 24 16 40t39 16q24 0 40.5 -16t16.5 -40q0 -23 -16.5 -39.5t-40.5 -16.5q-23 0 -39 16.5t-16 39.5z" />
    <glyph glyph-name="uni1ECC" unicode="&#x1ecc;" horiz-adv-x="790" 
d="M396 715q150 0 249 -101.5t99 -259.5t-99.5 -260t-248.5 -102q-150 0 -250 102t-100 260t100 259.5t250 101.5zM396 609q-103 0 -168 -69.5t-65 -185.5t65 -185.5t168 -69.5q102 0 166.5 69.5t64.5 185.5t-64.5 185.5t-166.5 69.5zM339 -125q0 24 16 40t39 16
q24 0 40.5 -16t16.5 -40q0 -23 -16.5 -39.5t-40.5 -16.5q-23 0 -39 16.5t-16 39.5z" />
    <glyph glyph-name="uni1ECD" unicode="&#x1ecd;" horiz-adv-x="642" 
d="M321 558q123 0 201.5 -76.5t78.5 -205.5q0 -130 -78.5 -206.5t-201.5 -76.5q-122 0 -201 76.5t-79 206.5q0 129 79 205.5t201 76.5zM321 459q-68 0 -115.5 -47t-47.5 -136q0 -90 47 -136.5t116 -46.5t116 46.5t47 136.5q0 89 -47.5 136t-115.5 47zM265 -125q0 24 16 40
t39 16q24 0 40.5 -16t16.5 -40q0 -23 -16.5 -39.5t-40.5 -16.5q-23 0 -39 16.5t-16 39.5z" />
    <glyph glyph-name="uni1ECE" unicode="&#x1ece;" horiz-adv-x="790" 
d="M391 959q89 0 89 -85q0 -10 -3 -20t-6.5 -17t-12.5 -18t-13.5 -16t-19 -19t-19.5 -20l-34 30q53 51 53 80q0 34 -36 34q-18 0 -26.5 -10t-11.5 -33l-53 5q2 19 6.5 32t13.5 27.5t27.5 22t45.5 7.5zM396 715q150 0 249 -101.5t99 -259.5t-99.5 -260t-248.5 -102
q-150 0 -250 102t-100 260t100 259.5t250 101.5zM396 609q-103 0 -168 -69.5t-65 -185.5t65 -185.5t168 -69.5q102 0 166.5 69.5t64.5 185.5t-64.5 185.5t-166.5 69.5z" />
    <glyph glyph-name="uni1ECF" unicode="&#x1ecf;" horiz-adv-x="642" 
d="M317 804q89 0 89 -85q0 -10 -3 -20t-6.5 -17t-12.5 -18t-13.5 -16t-19 -19t-19.5 -20l-34 30q53 51 53 80q0 34 -36 34q-18 0 -26.5 -10t-11.5 -33l-53 5q2 19 6.5 32t13.5 27.5t27.5 22t45.5 7.5zM321 558q123 0 201.5 -76.5t78.5 -205.5q0 -130 -78.5 -206.5
t-201.5 -76.5q-122 0 -201 76.5t-79 206.5q0 129 79 205.5t201 76.5zM321 459q-68 0 -115.5 -47t-47.5 -136q0 -90 47 -136.5t116 -46.5t116 46.5t47 136.5q0 89 -47.5 136t-115.5 47z" />
    <glyph glyph-name="uni1ED0" unicode="&#x1ed0;" horiz-adv-x="790" 
d="M707 1034v-73l-192 -100v64zM518 760l-123 74l-125 -74v63l125 73l123 -73v-63zM396 715q150 0 249 -101.5t99 -259.5t-99.5 -260t-248.5 -102q-150 0 -250 102t-100 260t100 259.5t250 101.5zM396 609q-103 0 -168 -69.5t-65 -185.5t65 -185.5t168 -69.5
q102 0 166.5 69.5t64.5 185.5t-64.5 185.5t-166.5 69.5z" />
    <glyph glyph-name="uni1ED1" unicode="&#x1ed1;" horiz-adv-x="642" 
d="M633 879v-73l-192 -100v64zM444 605l-123 74l-125 -74v63l125 73l123 -73v-63zM321 558q123 0 201.5 -76.5t78.5 -205.5q0 -130 -78.5 -206.5t-201.5 -76.5q-122 0 -201 76.5t-79 206.5q0 129 79 205.5t201 76.5zM321 459q-68 0 -115.5 -47t-47.5 -136q0 -90 47 -136.5
t116 -46.5t116 46.5t47 136.5q0 89 -47.5 136t-115.5 47z" />
    <glyph glyph-name="uni1ED2" unicode="&#x1ed2;" horiz-adv-x="790" 
d="M332 1053l192 -109v-64l-192 100v73zM518 760l-123 74l-125 -74v63l125 73l123 -73v-63zM396 715q150 0 249 -101.5t99 -259.5t-99.5 -260t-248.5 -102q-150 0 -250 102t-100 260t100 259.5t250 101.5zM396 609q-103 0 -168 -69.5t-65 -185.5t65 -185.5t168 -69.5
q102 0 166.5 69.5t64.5 185.5t-64.5 185.5t-166.5 69.5z" />
    <glyph glyph-name="uni1ED3" unicode="&#x1ed3;" horiz-adv-x="642" 
d="M258 898l192 -109v-64l-192 100v73zM444 605l-123 74l-125 -74v63l125 73l123 -73v-63zM321 558q123 0 201.5 -76.5t78.5 -205.5q0 -130 -78.5 -206.5t-201.5 -76.5q-122 0 -201 76.5t-79 206.5q0 129 79 205.5t201 76.5zM321 459q-68 0 -115.5 -47t-47.5 -136
q0 -90 47 -136.5t116 -46.5t116 46.5t47 136.5q0 89 -47.5 136t-115.5 47z" />
    <glyph glyph-name="uni1ED4" unicode="&#x1ed4;" horiz-adv-x="790" 
d="M536 1029q85 0 85 -82q0 -10 -3 -19.5t-6 -16t-12 -17t-13.5 -15.5t-17.5 -18l-19 -19l-32 29q50 48 50 76q0 33 -34 33q-18 0 -26 -9.5t-10 -31.5l-51 5q3 25 9 41t26 30t54 14zM518 760l-123 74l-125 -74v63l125 73l123 -73v-63zM396 715q150 0 249 -101.5t99 -259.5
t-99.5 -260t-248.5 -102q-150 0 -250 102t-100 260t100 259.5t250 101.5zM396 609q-103 0 -168 -69.5t-65 -185.5t65 -185.5t168 -69.5q102 0 166.5 69.5t64.5 185.5t-64.5 185.5t-166.5 69.5z" />
    <glyph glyph-name="uni1ED5" unicode="&#x1ed5;" horiz-adv-x="642" 
d="M462 874q85 0 85 -82q0 -10 -3 -19.5t-6 -16t-12 -17t-13.5 -15.5t-17.5 -18l-19 -19l-32 29q50 48 50 76q0 33 -34 33q-18 0 -26 -9.5t-10 -31.5l-51 5q3 25 9 41t26 30t54 14zM444 605l-123 74l-125 -74v63l125 73l123 -73v-63zM321 558q123 0 201.5 -76.5t78.5 -205.5
q0 -130 -78.5 -206.5t-201.5 -76.5q-122 0 -201 76.5t-79 206.5q0 129 79 205.5t201 76.5zM321 459q-68 0 -115.5 -47t-47.5 -136q0 -90 47 -136.5t116 -46.5t116 46.5t47 136.5q0 89 -47.5 136t-115.5 47z" />
    <glyph glyph-name="uni1ED6" unicode="&#x1ed6;" horiz-adv-x="790" 
d="M362 1005q26 0 58 -21t50 -21q34 0 40 41h49q-7 -48 -31 -73t-60 -25q-27 0 -59.5 21t-49.5 21q-31 0 -38 -42h-49q16 99 90 99zM518 760l-123 74l-125 -74v63l125 73l123 -73v-63zM396 715q150 0 249 -101.5t99 -259.5t-99.5 -260t-248.5 -102q-150 0 -250 102t-100 260
t100 259.5t250 101.5zM396 609q-103 0 -168 -69.5t-65 -185.5t65 -185.5t168 -69.5q102 0 166.5 69.5t64.5 185.5t-64.5 185.5t-166.5 69.5z" />
    <glyph glyph-name="uni1ED7" unicode="&#x1ed7;" horiz-adv-x="642" 
d="M288 850q26 0 58 -21t50 -21q34 0 40 41h49q-7 -48 -31 -73t-60 -25q-27 0 -59.5 21t-49.5 21q-31 0 -38 -42h-49q16 99 90 99zM444 605l-123 74l-125 -74v63l125 73l123 -73v-63zM321 558q123 0 201.5 -76.5t78.5 -205.5q0 -130 -78.5 -206.5t-201.5 -76.5
q-122 0 -201 76.5t-79 206.5q0 129 79 205.5t201 76.5zM321 459q-68 0 -115.5 -47t-47.5 -136q0 -90 47 -136.5t116 -46.5t116 46.5t47 136.5q0 89 -47.5 136t-115.5 47z" />
    <glyph glyph-name="uni1ED8" unicode="&#x1ed8;" horiz-adv-x="790" 
d="M524 762l-129 77l-130 -77v66l130 76l129 -76v-66zM396 715q150 0 249 -101.5t99 -259.5t-99.5 -260t-248.5 -102q-150 0 -250 102t-100 260t100 259.5t250 101.5zM396 609q-103 0 -168 -69.5t-65 -185.5t65 -185.5t168 -69.5q102 0 166.5 69.5t64.5 185.5t-64.5 185.5
t-166.5 69.5zM339 -125q0 24 16 40t39 16q24 0 40.5 -16t16.5 -40q0 -23 -16.5 -39.5t-40.5 -16.5q-23 0 -39 16.5t-16 39.5z" />
    <glyph glyph-name="uni1ED9" unicode="&#x1ed9;" horiz-adv-x="642" 
d="M450 607l-129 77l-130 -77v66l130 76l129 -76v-66zM321 558q123 0 201.5 -76.5t78.5 -205.5q0 -130 -78.5 -206.5t-201.5 -76.5q-122 0 -201 76.5t-79 206.5q0 129 79 205.5t201 76.5zM321 459q-68 0 -115.5 -47t-47.5 -136q0 -90 47 -136.5t116 -46.5t116 46.5t47 136.5
q0 89 -47.5 136t-115.5 47zM265 -125q0 24 16 40t39 16q24 0 40.5 -16t16.5 -40q0 -23 -16.5 -39.5t-40.5 -16.5q-23 0 -39 16.5t-16 39.5z" />
    <glyph glyph-name="uni1EDA" unicode="&#x1eda;" horiz-adv-x="790" 
d="M494 930v-76l-200 -105v67zM589 660q73 -47 114 -126.5t41 -179.5q0 -158 -99.5 -260t-248.5 -102q-150 0 -250 102t-100 260t100 259.5t250 101.5q43 0 82 -9q98 3 98 112h81q0 -105 -68 -158zM396 99q102 0 166.5 69.5t64.5 185.5t-64.5 185.5t-166.5 69.5
q-103 0 -168 -69.5t-65 -185.5t65 -185.5t168 -69.5z" />
    <glyph glyph-name="uni1EDB" unicode="&#x1edb;" horiz-adv-x="642" 
d="M420 775v-76l-200 -105v67zM501 501q100 -79 100 -225q0 -130 -78.5 -206.5t-201.5 -76.5q-122 0 -201 76.5t-79 206.5q0 129 79 205.5t201 76.5q38 0 69 -7q103 2 103 112h81q0 -111 -73 -162zM321 93q69 0 116 46.5t47 136.5q0 89 -47.5 136t-115.5 47t-115.5 -47
t-47.5 -136q0 -90 47 -136.5t116 -46.5z" />
    <glyph glyph-name="uni1EDC" unicode="&#x1edc;" horiz-adv-x="790" 
d="M494 816v-67l-200 105v76zM589 660q73 -47 114 -126.5t41 -179.5q0 -158 -99.5 -260t-248.5 -102q-150 0 -250 102t-100 260t100 259.5t250 101.5q43 0 82 -9q98 3 98 112h81q0 -105 -68 -158zM396 99q102 0 166.5 69.5t64.5 185.5t-64.5 185.5t-166.5 69.5
q-103 0 -168 -69.5t-65 -185.5t65 -185.5t168 -69.5z" />
    <glyph glyph-name="uni1EDD" unicode="&#x1edd;" horiz-adv-x="642" 
d="M420 661v-67l-200 105v76zM501 501q100 -79 100 -225q0 -130 -78.5 -206.5t-201.5 -76.5q-122 0 -201 76.5t-79 206.5q0 129 79 205.5t201 76.5q38 0 69 -7q103 2 103 112h81q0 -111 -73 -162zM321 93q69 0 116 46.5t47 136.5q0 89 -47.5 136t-115.5 47t-115.5 -47
t-47.5 -136q0 -90 47 -136.5t116 -46.5z" />
    <glyph glyph-name="uni1EDE" unicode="&#x1ede;" horiz-adv-x="790" 
d="M389 908q-18 0 -26.5 -10t-11.5 -33l-53 5q2 19 6.5 32t13.5 27.5t27.5 22t45.5 7.5q89 0 89 -85q0 -10 -3 -20t-6.5 -17t-12.5 -18t-13.5 -16t-19 -19t-19.5 -20l-34 30q53 51 53 80q0 34 -36 34zM589 660q73 -47 114 -126.5t41 -179.5q0 -158 -99.5 -260t-248.5 -102
q-150 0 -250 102t-100 260t100 259.5t250 101.5q43 0 82 -9q98 3 98 112h81q0 -105 -68 -158zM396 99q102 0 166.5 69.5t64.5 185.5t-64.5 185.5t-166.5 69.5q-103 0 -168 -69.5t-65 -185.5t65 -185.5t168 -69.5z" />
    <glyph glyph-name="uni1EDF" unicode="&#x1edf;" horiz-adv-x="642" 
d="M315 753q-18 0 -26.5 -10t-11.5 -33l-53 5q2 19 6.5 32t13.5 27.5t27.5 22t45.5 7.5q89 0 89 -85q0 -10 -3 -20t-6.5 -17t-12.5 -18t-13.5 -16t-19 -19t-19.5 -20l-34 30q53 51 53 80q0 34 -36 34zM501 501q100 -79 100 -225q0 -130 -78.5 -206.5t-201.5 -76.5
q-122 0 -201 76.5t-79 206.5q0 129 79 205.5t201 76.5q38 0 69 -7q103 2 103 112h81q0 -111 -73 -162zM321 93q69 0 116 46.5t47 136.5q0 89 -47.5 136t-115.5 47t-115.5 -47t-47.5 -136q0 -90 47 -136.5t116 -46.5z" />
    <glyph glyph-name="uni1EE0" unicode="&#x1ee0;" horiz-adv-x="790" 
d="M336 807q-33 0 -40 -44h-51q16 103 94 103q27 0 61 -22t52 -22q35 0 41 43h52q-15 -102 -96 -102q-28 0 -62 22t-51 22zM589 660q73 -47 114 -126.5t41 -179.5q0 -158 -99.5 -260t-248.5 -102q-150 0 -250 102t-100 260t100 259.5t250 101.5q43 0 82 -9q98 3 98 112h81
q0 -105 -68 -158zM396 99q102 0 166.5 69.5t64.5 185.5t-64.5 185.5t-166.5 69.5q-103 0 -168 -69.5t-65 -185.5t65 -185.5t168 -69.5z" />
    <glyph glyph-name="uni1EE1" unicode="&#x1ee1;" horiz-adv-x="642" 
d="M262 652q-33 0 -40 -44h-51q16 103 94 103q27 0 61 -22t52 -22q35 0 41 43h52q-15 -102 -96 -102q-28 0 -62 22t-51 22zM501 501q100 -79 100 -225q0 -130 -78.5 -206.5t-201.5 -76.5q-122 0 -201 76.5t-79 206.5q0 129 79 205.5t201 76.5q38 0 69 -7q103 2 103 112h81
q0 -111 -73 -162zM321 93q69 0 116 46.5t47 136.5q0 89 -47.5 136t-115.5 47t-115.5 -47t-47.5 -136q0 -90 47 -136.5t116 -46.5z" />
    <glyph glyph-name="uni1EE2" unicode="&#x1ee2;" horiz-adv-x="790" 
d="M589 660q73 -47 114 -126.5t41 -179.5q0 -158 -99.5 -260t-248.5 -102q-150 0 -250 102t-100 260t100 259.5t250 101.5q43 0 82 -9q98 3 98 112h81q0 -105 -68 -158zM396 99q102 0 166.5 69.5t64.5 185.5t-64.5 185.5t-166.5 69.5q-103 0 -168 -69.5t-65 -185.5
t65 -185.5t168 -69.5zM394 -69q24 0 40.5 -16t16.5 -40q0 -23 -16.5 -39.5t-40.5 -16.5q-23 0 -39 16.5t-16 39.5q0 24 16 40t39 16z" />
    <glyph glyph-name="uni1EE3" unicode="&#x1ee3;" horiz-adv-x="642" 
d="M501 501q100 -79 100 -225q0 -130 -78.5 -206.5t-201.5 -76.5q-122 0 -201 76.5t-79 206.5q0 129 79 205.5t201 76.5q38 0 69 -7q103 2 103 112h81q0 -111 -73 -162zM321 93q69 0 116 46.5t47 136.5q0 89 -47.5 136t-115.5 47t-115.5 -47t-47.5 -136q0 -90 47 -136.5
t116 -46.5zM320 -69q24 0 40.5 -16t16.5 -40q0 -23 -16.5 -39.5t-40.5 -16.5q-23 0 -39 16.5t-16 39.5q0 24 16 40t39 16z" />
    <glyph glyph-name="uni1EE4" unicode="&#x1ee4;" horiz-adv-x="671" 
d="M64 706h114v-419q0 -94 41.5 -140t116.5 -46q74 0 115.5 46t41.5 140v419h114v-419q0 -145 -75 -219.5t-198 -74.5q-122 0 -196 74.5t-74 219.5v419zM280 -125q0 24 16 40t39 16q24 0 40.5 -16t16.5 -40q0 -23 -16.5 -39.5t-40.5 -16.5q-23 0 -39 16.5t-16 39.5z" />
    <glyph glyph-name="uni1EE5" unicode="&#x1ee5;" horiz-adv-x="645" 
d="M462 551h115v-551h-115v120q-21 -61 -73 -94.5t-121 -33.5q-96 0 -154 62t-58 177v320h114v-308q0 -75 38 -115.5t104 -40.5q68 0 109 44t41 128v292zM322 -69q24 0 40.5 -16t16.5 -40q0 -23 -16.5 -39.5t-40.5 -16.5q-23 0 -39 16.5t-16 39.5q0 24 16 40t39 16z" />
    <glyph glyph-name="uni1EE6" unicode="&#x1ee6;" horiz-adv-x="671" 
d="M332 959q89 0 89 -85q0 -10 -3 -20t-6.5 -17t-12.5 -18t-13.5 -16t-19 -19t-19.5 -20l-34 30q53 51 53 80q0 34 -36 34q-18 0 -26.5 -10t-11.5 -33l-53 5q2 19 6.5 32t13.5 27.5t27.5 22t45.5 7.5zM64 706h114v-419q0 -94 41.5 -140t116.5 -46q74 0 115.5 46t41.5 140
v419h114v-419q0 -145 -75 -219.5t-198 -74.5q-122 0 -196 74.5t-74 219.5v419z" />
    <glyph glyph-name="uni1EE7" unicode="&#x1ee7;" horiz-adv-x="645" 
d="M317 753q-18 0 -26.5 -10t-11.5 -33l-53 5q2 19 6.5 32t13.5 27.5t27.5 22t45.5 7.5q89 0 89 -85q0 -10 -3 -20t-6.5 -17t-12.5 -18t-13.5 -16t-19 -19t-19.5 -20l-34 30q53 51 53 80q0 34 -36 34zM462 551h115v-551h-115v120q-21 -61 -73 -94.5t-121 -33.5
q-96 0 -154 62t-58 177v320h114v-308q0 -75 38 -115.5t104 -40.5q68 0 109 44t41 128v292z" />
    <glyph glyph-name="uni1EE8" unicode="&#x1ee8;" horiz-adv-x="671" 
d="M435 930v-76l-200 -105v67zM718 818q0 -71 -30.5 -117t-80.5 -65v-349q0 -145 -75 -219.5t-198 -74.5q-122 0 -196 74.5t-74 219.5v419h114v-419q0 -94 41.5 -140t116.5 -46q74 0 115.5 46t41.5 140v419h38q106 0 106 112h81z" />
    <glyph glyph-name="uni1EE9" unicode="&#x1ee9;" horiz-adv-x="645" 
d="M422 775v-76l-200 -105v67zM711 663q0 -80 -37 -127t-97 -63v-473h-115v120q-21 -61 -73 -94.5t-121 -33.5q-96 0 -154 62t-58 177v320h114v-308q0 -75 38 -115.5t104 -40.5q68 0 109 44t41 128v292h62q106 0 106 112h81z" />
    <glyph glyph-name="uni1EEA" unicode="&#x1eea;" horiz-adv-x="671" 
d="M435 816v-67l-200 105v76zM718 818q0 -71 -30.5 -117t-80.5 -65v-349q0 -145 -75 -219.5t-198 -74.5q-122 0 -196 74.5t-74 219.5v419h114v-419q0 -94 41.5 -140t116.5 -46q74 0 115.5 46t41.5 140v419h38q106 0 106 112h81z" />
    <glyph glyph-name="uni1EEB" unicode="&#x1eeb;" horiz-adv-x="645" 
d="M422 661v-67l-200 105v76zM711 663q0 -80 -37 -127t-97 -63v-473h-115v120q-21 -61 -73 -94.5t-121 -33.5q-96 0 -154 62t-58 177v320h114v-308q0 -75 38 -115.5t104 -40.5q68 0 109 44t41 128v292h62q106 0 106 112h81z" />
    <glyph glyph-name="uni1EEC" unicode="&#x1eec;" horiz-adv-x="671" 
d="M330 908q-18 0 -26.5 -10t-11.5 -33l-53 5q2 19 6.5 32t13.5 27.5t27.5 22t45.5 7.5q89 0 89 -85q0 -10 -3 -20t-6.5 -17t-12.5 -18t-13.5 -16t-19 -19t-19.5 -20l-34 30q53 51 53 80q0 34 -36 34zM718 818q0 -71 -30.5 -117t-80.5 -65v-349q0 -145 -75 -219.5
t-198 -74.5q-122 0 -196 74.5t-74 219.5v419h114v-419q0 -94 41.5 -140t116.5 -46q74 0 115.5 46t41.5 140v419h38q106 0 106 112h81z" />
    <glyph glyph-name="uni1EED" unicode="&#x1eed;" horiz-adv-x="645" 
d="M317 753q-18 0 -26.5 -10t-11.5 -33l-53 5q2 19 6.5 32t13.5 27.5t27.5 22t45.5 7.5q89 0 89 -85q0 -10 -3 -20t-6.5 -17t-12.5 -18t-13.5 -16t-19 -19t-19.5 -20l-34 30q53 51 53 80q0 34 -36 34zM711 663q0 -80 -37 -127t-97 -63v-473h-115v120q-21 -61 -73 -94.5
t-121 -33.5q-96 0 -154 62t-58 177v320h114v-308q0 -75 38 -115.5t104 -40.5q68 0 109 44t41 128v292h62q106 0 106 112h81z" />
    <glyph glyph-name="uni1EEE" unicode="&#x1eee;" horiz-adv-x="671" 
d="M277 807q-33 0 -40 -44h-51q16 103 94 103q28 0 61 -22t52 -22q35 0 41 43h52q-15 -102 -96 -102q-28 0 -62 22t-51 22zM718 818q0 -71 -30.5 -117t-80.5 -65v-349q0 -145 -75 -219.5t-198 -74.5q-122 0 -196 74.5t-74 219.5v419h114v-419q0 -94 41.5 -140t116.5 -46
q74 0 115.5 46t41.5 140v419h38q106 0 106 112h81z" />
    <glyph glyph-name="uni1EEF" unicode="&#x1eef;" horiz-adv-x="645" 
d="M264 652q-33 0 -40 -44h-51q16 103 94 103q27 0 61 -22t52 -22q35 0 41 43h52q-15 -102 -96 -102q-28 0 -62 22t-51 22zM711 663q0 -80 -37 -127t-97 -63v-473h-115v120q-21 -61 -73 -94.5t-121 -33.5q-96 0 -154 62t-58 177v320h114v-308q0 -75 38 -115.5t104 -40.5
q68 0 109 44t41 128v292h62q106 0 106 112h81z" />
    <glyph glyph-name="uni1EF0" unicode="&#x1ef0;" horiz-adv-x="671" 
d="M718 818q0 -71 -30.5 -117t-80.5 -65v-349q0 -145 -75 -219.5t-198 -74.5q-122 0 -196 74.5t-74 219.5v419h114v-419q0 -94 41.5 -140t116.5 -46q74 0 115.5 46t41.5 140v419h38q106 0 106 112h81zM335 -69q24 0 40.5 -16t16.5 -40q0 -23 -16.5 -39.5t-40.5 -16.5
q-23 0 -39 16.5t-16 39.5q0 24 16 40t39 16z" />
    <glyph glyph-name="uni1EF1" unicode="&#x1ef1;" horiz-adv-x="645" 
d="M711 663q0 -80 -37 -127t-97 -63v-473h-115v120q-21 -61 -73 -94.5t-121 -33.5q-96 0 -154 62t-58 177v320h114v-308q0 -75 38 -115.5t104 -40.5q68 0 109 44t41 128v292h62q106 0 106 112h81zM322 -69q24 0 40.5 -16t16.5 -40q0 -23 -16.5 -39.5t-40.5 -16.5
q-23 0 -39 16.5t-16 39.5q0 24 16 40t39 16z" />
    <glyph glyph-name="Ygrave" unicode="&#x1ef2;" horiz-adv-x="618" 
d="M408 816v-67l-200 105v76zM472 706h130l-235 -449v-257h-115v257l-236 449h132l162 -327z" />
    <glyph glyph-name="ygrave" unicode="&#x1ef3;" horiz-adv-x="585" 
d="M192 775l200 -114v-67l-200 105v76zM6 551h128l165 -405l153 405h127l-333 -813h-127l119 275z" />
    <glyph glyph-name="uni1EF4" unicode="&#x1ef4;" horiz-adv-x="618" 
d="M472 706h130l-235 -449v-257h-115v257l-236 449h132l162 -327zM308 -69q24 0 40.5 -16t16.5 -40q0 -23 -16.5 -39.5t-40.5 -16.5q-23 0 -39 16.5t-16 39.5q0 24 16 40t39 16z" />
    <glyph glyph-name="uni1EF5" unicode="&#x1ef5;" horiz-adv-x="585" 
d="M6 551h128l165 -405l153 405h127l-333 -813h-127l119 275zM392 -125q0 24 16 40t39 16q24 0 40.5 -16t16.5 -40q0 -23 -16.5 -39.5t-40.5 -16.5q-23 0 -39 16.5t-16 39.5z" />
    <glyph glyph-name="uni1EF6" unicode="&#x1ef6;" horiz-adv-x="618" 
d="M303 908q-18 0 -26.5 -10t-11.5 -33l-53 5q2 19 6.5 32t13.5 27.5t27.5 22t45.5 7.5q89 0 89 -85q0 -10 -3 -20t-6.5 -17t-12.5 -18t-13.5 -16t-19 -19t-19.5 -20l-34 30q53 51 53 80q0 34 -36 34zM472 706h130l-235 -449v-257h-115v257l-236 449h132l162 -327z" />
    <glyph glyph-name="uni1EF7" unicode="&#x1ef7;" horiz-adv-x="585" 
d="M289 804q89 0 89 -85q0 -10 -3 -20t-6.5 -17t-12.5 -18t-13.5 -16t-19 -19t-19.5 -20l-34 30q53 51 53 80q0 34 -36 34q-18 0 -26.5 -10t-11.5 -33l-53 5q2 19 6.5 32t13.5 27.5t27.5 22t45.5 7.5zM6 551h128l165 -405l153 405h127l-333 -813h-127l119 275z" />
    <glyph glyph-name="uni1EF8" unicode="&#x1ef8;" horiz-adv-x="618" 
d="M250 807q-33 0 -40 -44h-51q16 103 94 103q27 0 61 -22t52 -22q35 0 41 43h52q-15 -102 -96 -102q-28 0 -62 22t-51 22zM472 706h130l-235 -449v-257h-115v257l-236 449h132l162 -327z" />
    <glyph glyph-name="uni1EF9" unicode="&#x1ef9;" horiz-adv-x="585" 
d="M237 711q27 0 61 -22t52 -22q35 0 41 43h52q-15 -102 -96 -102q-28 0 -62 22t-51 22q-33 0 -40 -44h-51q16 103 94 103zM6 551h128l165 -405l153 405h127l-333 -813h-127l119 275z" />
    <glyph glyph-name="endash" unicode="&#x2013;" horiz-adv-x="629" 
d="M47 410h535v-96h-535v96z" />
    <glyph glyph-name="emdash" unicode="&#x2014;" horiz-adv-x="845" 
d="M47 410h751v-96h-751v96z" />
    <glyph glyph-name="quoteleft" unicode="&#x2018;" horiz-adv-x="197" 
d="M54 580q-15 56 -15 100q0 59 29 91.5t84 32.5v-47q-49 0 -49 -59v-21h54v-97h-103z" />
    <glyph glyph-name="quoteright" unicode="&#x2019;" horiz-adv-x="197" 
d="M143 804q14 -47 14 -100q0 -60 -28.5 -92t-83.5 -32v48q49 0 49 58v21h-54v97h103z" />
    <glyph glyph-name="quotesinglbase" unicode="&#x201a;" horiz-adv-x="203" 
d="M139 78q17 -53 18 -102.5t-29.5 -84.5t-87.5 -35v46q25 0 37 13t12 44v9h-58v110h108z" />
    <glyph glyph-name="quotedblleft" unicode="&#x201c;" horiz-adv-x="348" 
d="M54 580q-15 56 -15 100q0 59 29 91.5t84 32.5v-47q-49 0 -49 -59v-21h54v-97h-103zM205 580q-14 52 -14 100q0 59 28.5 91.5t83.5 32.5v-47q-49 0 -49 -59v-21h54v-97h-103z" />
    <glyph glyph-name="quotedblright" unicode="&#x201d;" horiz-adv-x="348" 
d="M143 804q14 -47 14 -100q0 -60 -28.5 -92t-83.5 -32v48q49 0 49 58v21h-54v97h103zM294 804q15 -56 15 -100q0 -60 -29 -92t-84 -32v48q49 0 49 58v21h-54v97h103z" />
    <glyph glyph-name="quotedblbase" unicode="&#x201e;" horiz-adv-x="348" 
d="M143 97q14 -47 14 -100q0 -60 -28.5 -92t-83.5 -32v48q49 0 49 58v21h-54v97h103zM294 97q15 -56 15 -100q0 -60 -29 -92t-84 -32v48q49 0 49 58v21h-54v97h103z" />
    <glyph glyph-name="dagger" unicode="&#x2020;" horiz-adv-x="564" 
d="M524 551v-88l-196 8l11 -733h-114l11 733l-196 -8v88l196 -8l-11 240h114l-11 -240z" />
    <glyph glyph-name="daggerdbl" unicode="&#x2021;" horiz-adv-x="564" 
d="M525 463l-197 8v-420l197 9v-89l-197 8l11 -241h-114l11 241l-197 -8v89l197 -9v420l-197 -8v88l197 -8l-11 240h114l-11 -240l197 8v-88z" />
    <glyph glyph-name="bullet" unicode="&#x2022;" horiz-adv-x="388" 
d="M63 333q0 55 38 93.5t93 38.5t93 -38t38 -94q0 -55 -38 -92.5t-93 -37.5t-93 37.5t-38 92.5z" />
    <glyph glyph-name="ellipsis" unicode="&#x2026;" horiz-adv-x="602" 
d="M30 126h129v-126h-129v126zM236 126h129v-126h-129v126zM442 126h129v-126h-129v126z" />
    <glyph glyph-name="perthousand" unicode="&#x2030;" horiz-adv-x="1043" 
d="M183 716q67 0 109 -41.5t42 -112.5t-42 -112t-109 -41t-109.5 41t-42.5 112t42.5 112.5t109.5 41.5zM495 707h111l-399 -707h-112zM109 562q0 -38 20 -60.5t53 -22.5t53.5 23t20.5 60q0 38 -20.5 61t-53.5 23t-53 -23t-20 -61zM519 298q67 0 109.5 -41t42.5 -112
t-42.5 -112.5t-109.5 -41.5q-66 0 -108.5 41.5t-42.5 112.5q0 70 42.5 111.5t108.5 41.5zM861 298q66 0 108.5 -41.5t42.5 -111.5q0 -71 -42.5 -112.5t-108.5 -41.5q-67 0 -110 41.5t-43 112.5q0 70 43 111.5t110 41.5zM446 145q0 -38 20 -61t53 -23t53.5 23t20.5 61
q0 37 -20.5 60t-53.5 23t-53 -23t-20 -60zM787 145q0 -38 20 -61t53 -23t53.5 23t20.5 61q0 37 -20.5 60t-53.5 23t-53 -23t-20 -60z" />
    <glyph glyph-name="guilsinglleft" unicode="&#x2039;" horiz-adv-x="297" 
d="M247 120h-109l-93 175l93 175h109l-95 -175z" />
    <glyph glyph-name="guilsinglright" unicode="&#x203a;" horiz-adv-x="297" 
d="M50 120l96 175l-96 175h110l92 -175l-92 -175h-110z" />
    <glyph glyph-name="fraction" unicode="&#x2044;" horiz-adv-x="371" 
d="M323 707h113l-400 -707h-112z" />
    <glyph glyph-name="uni20A8" unicode="&#x20a8;" horiz-adv-x="1102" 
d="M564 491q0 -83 -46.5 -136t-134.5 -68l185 -287h-128l-176 282h-81v-282h-114v706h249q121 0 183.5 -59t62.5 -156zM183 608v-245h126q138 0 138 122q0 123 -138 123h-126zM723 397q0 -34 35 -53t84.5 -29t99 -23t84.5 -48t35 -92q0 -70 -52.5 -114.5t-141.5 -44.5
q-104 0 -169 48t-78 134h113q5 -43 40.5 -69.5t92.5 -26.5q44 0 67 20.5t23 54.5q0 36 -34.5 55.5t-84 29.5t-99 23t-84 47t-34.5 91q0 70 54 114t148 44q100 0 160.5 -49.5t73.5 -132.5h-113q-6 42 -38.5 69t-84.5 27q-45 0 -71 -20.5t-26 -54.5z" />
    <glyph glyph-name="Euro" unicode="&#x20ac;" horiz-adv-x="815" 
d="M436 100q78 0 133 37.5t79 100.5h121q-30 -113 -115.5 -178.5t-215.5 -65.5q-125 0 -212 69t-115 186h-93v56h83q-2 32 -2 48q0 14 2 40h-83v57h91q27 120 114.5 191.5t214.5 71.5q130 0 215.5 -66t115.5 -179h-121q-24 64 -78.5 101.5t-133.5 37.5q-73 0 -128.5 -41.5
t-77.5 -115.5h225v-57h-237q-2 -26 -2 -40q0 -25 3 -48h236v-56h-223q24 -70 78 -109.5t126 -39.5z" />
    <glyph glyph-name="uni20B9" unicode="&#x20b9;" horiz-adv-x="628" 
d="M580 628h-116v-103h116v-68h-119q-11 -94 -74 -137.5t-202 -43.5v-77q0 -122 103 -122q99 0 99 120h107q-3 -98 -54.5 -152.5t-146.5 -54.5q-105 0 -160 56.5t-55 166.5v139q164 0 216.5 19.5t59.5 85.5h-305v68h307v103h-307v78h531v-78z" />
    <glyph glyph-name="uni20BA" unicode="&#x20ba;" horiz-adv-x="793" 
d="M637 428h116q0 -226 -87 -334.5t-281 -108.5q-76 0 -194 22v242l-152 -33v72l152 33v94l-152 -34v69l152 35v223h116v-197l168 39v-71l-168 -38v-94l169 37v-72l-169 -37v-175q38 -7 77 -7q71 0 121 23.5t78.5 69.5t41 105t12.5 137z" />
    <glyph glyph-name="uni20BD" unicode="&#x20bd;" horiz-adv-x="645" 
d="M369 292h-126v-92h199v-87h-199v-113h-114v113h-90v87h90v92h-90v90h90v324h240q122 0 183.5 -56t61.5 -151q0 -99 -63 -153t-182 -54zM243 617v-235h119q136 0 136 117q0 118 -136 118h-119z" />
    <glyph glyph-name="uni2113" unicode="&#x2113;" horiz-adv-x="252" 
d="M69 740h114v-740h-114v740z" />
    <glyph glyph-name="trademark" unicode="&#x2122;" horiz-adv-x="810" 
d="M30 636v70h275v-70h-95v-281h-83v281h-97zM674 706h101v-351h-77l-2 241l-105 -241h-59l-105 249v-249h-74v351h110l101 -255z" />
    <glyph glyph-name="uni2126" unicode="&#x2126;" horiz-adv-x="793" 
d="M751 368q0 -198 -144 -280h133v-88h-273v92q76 29 121.5 96.5t45.5 164.5q0 117 -66.5 186.5t-170.5 69.5q-106 0 -172.5 -70.5t-66.5 -185.5q0 -97 45.5 -164.5t121.5 -96.5v-92h-273v88h134q-144 83 -144 280q0 157 101.5 252t253.5 95q151 0 252.5 -95t101.5 -252z
" />
    <glyph glyph-name="estimated" unicode="&#x212e;" horiz-adv-x="757" 
d="M387 -7q-151 0 -247 90.5t-96 249.5q0 161 89 266t245 105q104 0 182 -47t116 -120t38 -159v-61h-519v-171q75 -81 192 -81q72 0 131 30.5t122 91.5l45 -51q-133 -143 -298 -143zM556 388v173q-65 73 -178 73q-119 0 -183 -83v-163h361z" />
    <glyph glyph-name="partialdiff" unicode="&#x2202;" horiz-adv-x="583" 
d="M300 556q120 0 140 -124q-5 115 -44 178t-130 63q-32 0 -70 -9v61q53 15 108 15q118 0 180 -82.5t62 -246.5q0 -195 -79.5 -307.5t-216.5 -112.5q-92 0 -152.5 61.5t-60.5 177.5q0 138 73 232t190 94zM311 460q-72 0 -115 -64.5t-43 -164.5q0 -70 30 -104.5t76 -34.5
q75 0 117.5 66t42.5 166q0 69 -28.5 102.5t-79.5 33.5z" />
    <glyph glyph-name="uni2206" unicode="&#x2206;" horiz-adv-x="697" 
d="M301 696h95l281 -607v-89h-657v89zM348 566l-210 -477h421z" />
    <glyph glyph-name="product" unicode="&#x220f;" horiz-adv-x="741" 
d="M39 707h663v-87h-76v-620h-115v620h-280v-620h-115v620h-77v87z" />
    <glyph glyph-name="summation" unicode="&#x2211;" horiz-adv-x="480" 
d="M467 696v-88h-329l261 -240v-88l-263 -257h331v-89h-427v133l250 254l-250 243v132h427z" />
    <glyph glyph-name="minus" unicode="&#x2212;" horiz-adv-x="473" 
d="M31 410h412v-96h-412v96z" />
    <glyph glyph-name="radical" unicode="&#x221a;" horiz-adv-x="829" 
d="M737 879h68l-500 -922h-52l-132 233l-71 -40l-34 56l172 100l123 -217z" />
    <glyph glyph-name="infinity" unicode="&#x221e;" horiz-adv-x="702" 
d="M534 503q76 0 119 -41t43 -114q0 -72 -46 -114t-116 -42q-101 0 -182 96q-61 -97 -167 -96q-75 0 -118.5 41t-43.5 114q0 72 46 114t116 42q60 0 100.5 -27t77.5 -75q62 103 171 102zM192 270q70 0 116 74q-31 41 -56.5 62t-56.5 21q-37 0 -59 -22t-22 -58q0 -35 21 -56
t57 -21zM524 269q37 0 59 21.5t22 57.5t-21 57t-57 21q-72 0 -122 -82q29 -37 56 -56t63 -19z" />
    <glyph glyph-name="integral" unicode="&#x222b;" horiz-adv-x="271" 
d="M126 777q16 148 174 148h18l-9 -99h-20q-42 0 -49 -49l-90 -841q-9 -82 -51.5 -118t-119.5 -36h-21l9 99h23q24 0 33 11.5t13 43.5z" />
    <glyph glyph-name="approxequal" unicode="&#x2248;" horiz-adv-x="553" 
d="M188 568q43 0 100 -33.5t83 -33.5q51 0 62 68h89q-14 -85 -55 -128t-103 -43q-43 0 -99.5 33.5t-83.5 33.5q-50 0 -63 -68h-87q14 85 54.5 128t102.5 43zM188 346q43 0 100 -33.5t83 -33.5q51 0 62 68h89q-14 -85 -55 -128t-103 -43q-43 0 -99.5 33.5t-83.5 33.5
q-50 0 -63 -68h-87q14 85 54.5 128t102.5 43z" />
    <glyph glyph-name="notequal" unicode="&#x2260;" horiz-adv-x="593" 
d="M563 422h-190l-88 -121h278v-104h-354l-78 -106h-63l78 106h-115v104h191l88 121h-279v104h355l77 105h63l-77 -105h114v-104z" />
    <glyph glyph-name="lessequal" unicode="&#x2264;" horiz-adv-x="439" 
d="M405 210h-142l-232 189l232 190h142l-229 -190zM45 153h363v-90h-363v90z" />
    <glyph glyph-name="greaterequal" unicode="&#x2265;" horiz-adv-x="439" 
d="M176 210h-142l229 189l-229 190h142l232 -190zM31 63v90h363v-90h-363z" />
    <glyph glyph-name="lozenge" unicode="&#x25ca;" horiz-adv-x="557" 
d="M280 598l246 -247l-247 -248l-248 248zM280 481l-131 -130l130 -131l130 131z" />
    <glyph glyph-name="fi" unicode="&#xfb01;" horiz-adv-x="596" 
d="M205 560v-9h316v-551h-114v453h-202v-453h-115v453h-74v98h74v18q0 101 57.5 151.5t172.5 44.5v-100q-64 2 -89.5 -22t-25.5 -83zM465 636q-34 0 -54 17.5t-20 46.5t20 46t54 17q33 0 53 -17.5t20 -45.5q0 -29 -20 -46.5t-53 -17.5z" />
    <glyph glyph-name="fl" unicode="&#xfb02;" horiz-adv-x="601" 
d="M90 569q0 101 59 151.5t177 44.5v-100q-67 3 -94 -21.5t-27 -83.5v-9h121v-98h-121v-453h-115v453h-75v98h75v18zM418 740h114v-740h-114v740z" />
    <glyph glyph-name="uni03060301" horiz-adv-x="0" 
d="M-6 947v-73l-192 -100v64zM-173 617q-60 0 -95 36t-35 93v8h49q0 -68 81 -68q82 0 82 68h48v-8q0 -58 -34.5 -93.5t-95.5 -35.5z" />
    <glyph glyph-name="uni03060300" horiz-adv-x="0" 
d="M-325 938l192 -109v-64l-192 100v73zM-177 616q-60 0 -95 36t-35 93v8h49q0 -68 81 -68q82 0 82 68h48v-8q0 -58 -34.5 -93.5t-95.5 -35.5z" />
    <glyph glyph-name="uni03060309" horiz-adv-x="0" 
d="M-185 935q85 0 85 -82q0 -10 -3 -19.5t-6 -16t-12 -17t-13.5 -15.5t-17.5 -18l-19 -19l-32 29q50 48 50 76q0 33 -34 33q-18 0 -26 -9.5t-10 -31.5l-51 5q3 25 9 41t26 30t54 14zM-176 615q-60 0 -95 36t-35 93v8h49q0 -68 81 -68q82 0 82 68h48v-8q0 -58 -34.5 -93.5
t-95.5 -35.5z" />
    <glyph glyph-name="uni03060303" horiz-adv-x="0" 
d="M-219 884q27 0 59 -21t49 -21q34 0 40 41h49q-7 -48 -31 -73t-60 -25q-27 0 -59.5 21t-49.5 21q-31 0 -38 -42h-49q16 99 90 99zM-175 617q-60 0 -95 36t-35 93v8h49q0 -68 81 -68q82 0 82 68h48v-8q0 -58 -34.5 -93.5t-95.5 -35.5z" />
    <glyph glyph-name="uni03020301" horiz-adv-x="0" 
d="M154 886v-73l-192 -100v64zM-35 612l-123 74l-125 -74v63l125 73l123 -73v-63z" />
    <glyph glyph-name="uni03020300" horiz-adv-x="0" 
d="M-229 906l192 -109v-64l-192 100v73zM-43 613l-123 74l-125 -74v63l125 73l123 -73v-63z" />
    <glyph glyph-name="uni03020309" horiz-adv-x="0" 
d="M-20 881q85 0 85 -82q0 -10 -3 -19.5t-6 -16t-12 -17t-13.5 -15.5t-17.5 -18l-19 -19l-32 29q50 48 50 76q0 33 -34 33q-18 0 -26 -9.5t-10 -31.5l-51 5q3 25 9 41t26 30t54 14zM-38 612l-123 74l-125 -74v63l125 73l123 -73v-63z" />
    <glyph glyph-name="uni03020303" horiz-adv-x="0" 
d="M-199 859q27 0 59 -21t49 -21q34 0 40 41h49q-7 -48 -31 -73t-60 -25q-27 0 -59.5 21t-49.5 21q-31 0 -38 -42h-49q16 99 90 99zM-43 614l-123 74l-125 -74v63l125 73l123 -73v-63z" />
  </font>
</defs>
</svg>
